<?xml version="1.0" standalone="no"?>
<!DOCTYPE svg PUBLIC "-//W3C//DTD SVG 20010904//EN"
 "http://www.w3.org/TR/2001/REC-SVG-20010904/DTD/svg10.dtd">
<svg version="1.0" xmlns="http://www.w3.org/2000/svg"
 width="1583.000000pt" height="1583.000000pt" viewBox="0 0 1583.000000 1583.000000"
 preserveAspectRatio="xMidYMid meet">
<metadata>
Created by potrace 1.11, written by Peter Selinger 2001-2013
</metadata>
<g transform="translate(0.000000,1583.000000) scale(0.100000,-0.100000)"
fill="#000000" stroke="none">
<path d="M7558 15825 c-2 -2 -57 -7 -123 -10 -66 -3 -136 -8 -155 -10 -19 -2
-69 -6 -110 -9 -41 -4 -84 -8 -95 -10 -11 -2 -49 -7 -85 -10 -36 -4 -76 -8
-90 -11 -14 -2 -77 -11 -140 -20 -116 -16 -131 -19 -227 -36 -150 -26 -193
-35 -308 -60 -49 -12 -98 -22 -108 -24 -10 -2 -26 -6 -35 -9 -9 -3 -30 -8 -47
-11 -16 -3 -55 -12 -85 -20 -30 -9 -63 -18 -73 -20 -201 -46 -805 -251 -1002
-340 -16 -8 -59 -26 -95 -40 -410 -170 -1028 -516 -1422 -797 -99 -71 -324
-241 -393 -297 -77 -62 -195 -161 -205 -171 -3 -3 -23 -20 -45 -39 -148 -125
-469 -438 -625 -607 -479 -521 -906 -1134 -1225 -1759 -98 -193 -279 -587
-290 -630 -1 -5 -7 -21 -12 -35 -114 -272 -324 -938 -348 -1103 -2 -15 -6 -31
-9 -35 -4 -8 -42 -181 -52 -242 -2 -14 -7 -36 -10 -50 -8 -33 -17 -83 -59
-340 -3 -14 -7 -50 -11 -80 -3 -30 -8 -62 -9 -70 -2 -8 -6 -46 -10 -85 -4 -38
-9 -79 -11 -90 -2 -11 -6 -56 -10 -100 -3 -44 -7 -91 -9 -104 -27 -161 -26
-984 0 -1276 3 -27 7 -75 10 -105 5 -69 14 -156 20 -195 2 -16 7 -52 10 -80 3
-27 8 -66 11 -85 3 -19 8 -51 10 -70 5 -42 37 -233 49 -290 4 -22 17 -90 31
-160 13 -67 88 -378 115 -475 291 -1062 801 -2047 1508 -2915 47 -58 90 -110
96 -116 5 -6 64 -73 130 -148 122 -138 475 -493 620 -622 362 -323 754 -614
1180 -874 376 -231 917 -494 1305 -637 303 -111 741 -246 901 -278 8 -2 44
-10 80 -19 35 -9 73 -18 84 -20 11 -3 52 -11 90 -20 39 -8 83 -17 98 -20 15
-3 53 -10 85 -16 31 -5 67 -12 78 -14 12 -2 39 -7 60 -10 22 -4 80 -13 129
-21 105 -17 325 -44 405 -51 30 -2 78 -6 105 -9 179 -16 307 -20 685 -20 373
0 536 5 685 21 22 2 65 6 95 9 61 5 136 14 190 20 51 6 312 44 335 49 11 2 40
7 65 11 58 9 74 13 136 25 28 6 64 13 80 16 426 76 1026 264 1530 479 168 72
552 257 674 326 219 123 523 308 528 321 2 4 7 8 12 8 13 0 261 172 425 295
146 110 434 346 524 429 249 231 402 383 602 601 53 59 261 303 304 359 17 21
55 71 86 110 47 59 194 262 249 343 164 240 279 425 415 668 44 79 217 423
254 505 19 41 46 102 62 135 66 144 266 677 294 785 2 8 23 76 45 150 33 110
84 298 94 345 1 6 5 19 9 30 3 11 8 31 11 45 2 14 12 59 21 100 9 41 18 82 20
90 15 69 36 177 39 199 2 14 8 53 14 86 12 66 15 83 32 199 16 106 19 131 25
196 3 30 8 66 10 80 4 28 16 136 20 190 28 329 28 1098 1 1355 -2 17 -7 64
-10 105 -4 41 -9 86 -11 100 -2 14 -6 52 -10 85 -3 33 -8 71 -10 85 -2 14 -7
45 -10 70 -3 25 -10 72 -16 105 -6 33 -13 73 -15 90 -6 45 -32 188 -59 315
-137 659 -357 1294 -655 1891 -80 160 -166 324 -180 344 -4 6 -19 30 -32 55
-127 226 -420 678 -490 754 -10 11 -18 23 -18 27 0 4 -6 14 -13 21 -7 7 -42
51 -77 98 -69 90 -281 351 -315 386 -11 12 -60 67 -110 122 -150 168 -552 560
-685 668 -19 16 -37 31 -40 35 -17 20 -270 221 -405 322 -845 630 -1806 1084
-2820 1335 -88 22 -178 43 -200 47 -22 5 -44 9 -50 11 -21 5 -61 13 -90 19
-16 3 -41 8 -55 10 -62 13 -82 16 -190 35 -63 11 -135 22 -160 25 -25 3 -52 7
-60 10 -8 2 -44 7 -80 10 -36 4 -74 9 -85 11 -11 2 -54 6 -95 9 -41 3 -82 7
-90 10 -8 2 -62 7 -120 10 -58 4 -121 9 -140 12 -43 5 -847 12 -852 8z"/>
</g>
</svg>
