<?xml version="1.0" encoding="utf-8"?>
<!-- Generator: Adobe Illustrator 12.0.0, SVG Export Plug-In . SVG Version: 6.00 Build 51448)  -->
<!DOCTYPE svg PUBLIC "-//W3C//DTD SVG 1.1//EN" "http://www.w3.org/Graphics/SVG/1.1/DTD/svg11.dtd" [
	<!ENTITY ns_svg "http://www.w3.org/2000/svg">
	<!ENTITY ns_xlink "http://www.w3.org/1999/xlink">
]>
<svg  version="1.1" id="レイヤー_1" xmlns="&ns_svg;" xmlns:xlink="&ns_xlink;" width="29.225" height="29.285"
	 viewBox="0 0 29.225 29.285" overflow="visible" enable-background="new 0 0 29.225 29.285" xml:space="preserve">
<g id="Capa_1">
	<g>
		<g>
			<path fill="#3A3838" d="M14.423,0C6.458,0,0,6.471,0,14.452c0,7.983,6.458,14.453,14.423,14.453
				c7.964,0,14.423-6.47,14.423-14.453C28.846,6.471,22.387,0,14.423,0z M18.754,19.453c-1.56,2.8-3.094,5.135-3.159,5.233
				l-1.123,1.706l-1.124-1.707c-0.064-0.098-1.598-2.433-3.158-5.232c-2.205-3.96-3.277-6.703-3.277-8.384
				c0-4.177,3.391-7.574,7.559-7.574c4.168,0,7.559,3.397,7.558,7.574C22.03,12.75,20.958,15.493,18.754,19.453z M14.472,7.092
				c-2.164,0-3.918,1.757-3.918,3.925c0,2.168,1.754,3.926,3.918,3.926c2.164,0,3.917-1.758,3.917-3.926
				C18.389,8.849,16.636,7.092,14.472,7.092z"/>
		</g>
	</g>
</g>
<g id="Capa_1_16_">
	<g>
		<g>
			<path fill="#3A3838" d="M14.612,0C6.542,0,0,6.556,0,14.642c0,8.088,6.542,14.643,14.612,14.643
				c8.068,0,14.612-6.555,14.612-14.643C29.225,6.556,22.681,0,14.612,0z M19,19.709c-1.58,2.836-3.134,5.202-3.2,5.302
				l-1.138,1.729l-1.138-1.729c-0.065-0.099-1.619-2.465-3.199-5.301c-2.234-4.012-3.32-6.791-3.32-8.495
				c0-4.232,3.436-7.674,7.658-7.674c4.223,0,7.658,3.442,7.657,7.674C22.319,12.918,21.233,15.697,19,19.709z M14.662,7.185
				c-2.192,0-3.969,1.78-3.969,3.977c0,2.197,1.777,3.978,3.969,3.978c2.193,0,3.968-1.781,3.968-3.978
				C18.63,8.965,16.854,7.185,14.662,7.185z"/>
		</g>
	</g>
</g>
</svg>
