<?xml version="1.0" encoding="utf-8"?>
<!-- Generator: Adobe Illustrator 12.0.0, SVG Export Plug-In . SVG Version: 6.00 Build 51448)  -->
<!DOCTYPE svg PUBLIC "-//W3C//DTD SVG 1.1//EN" "http://www.w3.org/Graphics/SVG/1.1/DTD/svg11.dtd" [
	<!ENTITY ns_svg "http://www.w3.org/2000/svg">
	<!ENTITY ns_xlink "http://www.w3.org/1999/xlink">
]>
<svg  version="1.1" id="レイヤー_2" xmlns="&ns_svg;" xmlns:xlink="&ns_xlink;" width="466.582" height="466.582"
	 viewBox="0 0 466.582 466.582" overflow="visible" enable-background="new 0 0 466.582 466.582" xml:space="preserve">
<g id="Capa_1">
	<g>
		<g>
			<path fill="#3A3838" d="M232.787,217.791c-8.282,0-14.996,6.728-14.996,15.027c0,8.299,6.714,15.027,14.996,15.027
				c8.28,0,14.996-6.728,14.996-15.027C247.783,224.519,241.067,217.791,232.787,217.791z M237.29,238.017
				c-1.622,2.911-3.218,5.339-3.284,5.441l-1.168,1.774l-1.168-1.775c-0.067-0.102-1.662-2.529-3.283-5.44
				c-2.292-4.117-3.407-6.968-3.407-8.717c0-4.342,3.526-7.875,7.859-7.875c4.334,0,7.858,3.533,7.857,7.875
				C240.696,231.048,239.582,233.899,237.29,238.017z M232.838,225.165c-2.25,0-4.074,1.827-4.074,4.082s1.824,4.082,4.074,4.082
				s4.073-1.828,4.073-4.082S235.088,225.165,232.838,225.165z"/>
		</g>
	</g>
</g>
</svg>
