<?xml version="1.0" encoding="utf-8"?>
<!-- Generator: Adobe Illustrator 12.0.0, SVG Export Plug-In . SVG Version: 6.00 Build 51448)  -->
<!DOCTYPE svg PUBLIC "-//W3C//DTD SVG 1.1//EN" "http://www.w3.org/Graphics/SVG/1.1/DTD/svg11.dtd" [
	<!ENTITY ns_svg "http://www.w3.org/2000/svg">
	<!ENTITY ns_xlink "http://www.w3.org/1999/xlink">
]>
<svg  version="1.1" id="Capa_1" xmlns="&ns_svg;" xmlns:xlink="&ns_xlink;" width="466.582" height="466.582"
	 viewBox="0 0 466.582 466.582" overflow="visible" enable-background="new 0 0 466.582 466.582" xml:space="preserve">
<g>
	<path fill="#F7F7F7" d="M233.292,0C148.192,0,78.958,69.234,78.958,154.333c0,34.275,21.887,90.155,66.908,170.834
		c31.846,57.063,63.168,104.644,64.483,106.641l22.942,34.774l22.94-34.773c1.317-1.998,32.642-49.577,64.483-106.641
		c45.022-80.68,66.907-136.559,66.907-170.834C387.625,69.234,318.391,0,233.292,0z M233.292,233.291c-44.183,0-80-35.816-80-80
		c0-44.183,35.817-80,80-80c44.182,0,79.999,35.817,79.999,80C313.291,197.474,277.473,233.291,233.292,233.291z"/>
</g>
</svg>
