<?xml version="1.0" encoding="utf-8"?>
<!-- Generator: Adobe Illustrator 12.0.0, SVG Export Plug-In . SVG Version: 6.00 Build 51448)  -->
<!DOCTYPE svg PUBLIC "-//W3C//DTD SVG 1.1//EN" "http://www.w3.org/Graphics/SVG/1.1/DTD/svg11.dtd" [
	<!ENTITY ns_svg "http://www.w3.org/2000/svg">
	<!ENTITY ns_xlink "http://www.w3.org/1999/xlink">
]>
<svg  version="1.1" id="レイヤー_2" xmlns="&ns_svg;" xmlns:xlink="&ns_xlink;" width="466.582" height="466.582"
	 viewBox="0 0 466.582 466.582" overflow="visible" enable-background="new 0 0 466.582 466.582" xml:space="preserve">
<g id="Capa_1">
	<g>
		<g>
			<path class="footerIcons_icon" fill="#FCFCFC" d="M229.791,15.791c-119.292,0-216,96.909-216,216.451c0,119.542,96.708,216.451,216,216.451
				c119.294,0,216.001-96.909,216.001-216.451C445.792,112.699,349.085,15.791,229.791,15.791z M294.646,307.119
				c-23.354,41.941-46.33,76.912-47.295,78.381l-16.826,25.557l-16.826-25.558c-0.965-1.469-23.938-36.439-47.295-78.381
				c-33.019-59.297-49.073-100.368-49.073-125.559C117.33,119.013,168.11,68.128,230.525,68.128
				c62.418,0,113.196,50.886,113.191,113.433C343.717,206.751,327.666,247.821,294.646,307.119z M230.525,121.995
				c-32.406,0-58.677,26.325-58.677,58.798c0,32.475,26.27,58.798,58.677,58.798c32.406,0,58.675-26.324,58.675-58.798
				C289.2,148.32,262.931,121.995,230.525,121.995z"/>
		</g>
	</g>
</g>
</svg>
