<?xml version="1.0" standalone="no"?><!DOCTYPE svg PUBLIC "-//W3C//DTD SVG 1.1//EN" "http://www.w3.org/Graphics/SVG/1.1/DTD/svg11.dtd" ><svg xmlns="http://www.w3.org/2000/svg"><metadata></metadata><defs><font id="1.002.20150607;MM;GenShinGothic-P-Bold;MM" horiz-adv-x="1130"><font-face font-family="Gen Shin Gothic P Bold" font-weight="700" font-stretch="normal" units-per-em="1024" panose-1="2 11 6 2 2 2 3 2 2 7" ascent="1101" descent="-328" x-height="7" bbox="-55 -290 1081 1001" underline-thickness="51" underline-position="-128" unicode-range="U+0021-ffe5" /><missing-glyph horiz-adv-x="372"  /><glyph glyph-name="exclam" unicode="!" d="M140 258 L119 636 L114 778 L265 778 L260 636 L239 258 L140 258 ZM256.5 14.5 Q229 -14 189 -14 Q149 -14 122.5 14.5 Q96 43 96 84 Q96 125 122.5 153.5 Q149 182 189 182 Q229 182 256.5 153.5 Q284 125 284 84 Q284 43 256.5 14.5 Z" /><glyph glyph-name="quotedbl" unicode="&quot;" d="M124 436 L94 656 L89 799 L243 799 L238 656 L208 436 L124 436 ZM380 436 L350 656 L345 799 L499 799 L494 656 L464 436 L380 436 Z" /><glyph glyph-name="numbersign" unicode="#" d="M101 0 L128 222 L40 222 L40 319 L139 319 L157 460 L63 460 L63 558 L169 558 L195 755 L282 755 L258 558 L387 558 L413 755 L500 755 L477 558 L568 558 L568 460 L465 460 L447 319 L545 319 L545 222 L436 222 L410 0 L319 0 L346 222 L218 222 L190 0 L101 0 ZM228 319 L357 319 L375 460 L246 460 L228 319 Z" /><glyph glyph-name="dollar" unicode="$" d="M523 656 L447 570 Q381 631 316 631 Q222 631 222 546 Q222 520 239 499.5 Q256 479 283.5 463.5 Q311 448 344.5 432.5 Q378 417 411.5 397.5 Q445 378 472.5 354 Q500 330 517 293 Q534 256 534 209 Q534 124 487 66.5 Q440 9 353 -8 L353 -127 L252 -127 L252 -12 Q132 2 49 77 L116 178 Q204 109 285 109 Q389 109 389 199 Q389 227 372 250 Q355 273 327.5 290 Q300 307 267 323.5 Q234 340 200.5 359.5 Q167 379 139.5 402 Q112 425 95 460.5 Q78 496 78 539 Q78 623 124.5 678 Q171 733 252 748 L252 866 L353 866 L353 750 Q445 738 523 656 Z" /><glyph glyph-name="percent" unicode="%" d="M351 356.5 Q300 292 217 292 Q134 292 83.5 356.5 Q33 421 33 534 Q33 646 83.5 709 Q134 772 217 772 Q300 772 351 709 Q402 646 402 534 Q402 421 351 356.5 ZM160.5 415.5 Q182 377 217 377 Q252 377 274 415.5 Q296 454 296 534 Q296 687 217 687 Q139 687 139 534 Q139 454 160.5 415.5 ZM243 -14 L654 772 L743 772 L331 -14 L243 -14 ZM768 -14 Q686 -14 635 50.5 Q584 115 584 227 Q584 340 634.5 403.5 Q685 467 768 467 Q851 467 902 403 Q953 339 953 227 Q953 115 902 50.5 Q851 -14 768 -14 ZM710.5 109.5 Q732 72 768 72 Q804 72 825.5 109.5 Q847 147 847 227 Q847 307 825.5 344.5 Q804 382 768 382 Q732 382 710.5 344.5 Q689 307 689 227 Q689 147 710.5 109.5 Z" /><glyph glyph-name="ampersand" unicode="&amp;" d="M174 210 Q174 161 208 131 Q242 101 297 101 Q351 101 408 139 Q313 217 237 316 Q174 262 174 210 ZM250 580 Q250 537 278 478 Q329 509 356 538.5 Q383 568 383 606 Q383 672 326 672 Q293 672 271.5 647 Q250 622 250 580 ZM736 109 L699 -14 Q604 7 511 66 Q410 -14 279 -14 Q164 -14 97.5 47.5 Q31 109 31 201 Q31 273 69 323.5 Q107 374 173 416 Q125 504 125 580 Q125 661 180 716.5 Q235 772 324 772 Q405 772 452.5 727 Q500 682 500 607 Q500 571 487 539.5 Q474 508 447.5 480 Q421 452 397.5 433 Q374 414 337 388 Q405 304 501 230 Q565 315 594 423 L730 423 Q686 278 602 163 Q678 119 736 109 Z" /><glyph glyph-name="quotesingle" unicode="&#39;" d="M124 436 L94 656 L89 799 L243 799 L238 656 L208 436 L124 436 Z" /><glyph glyph-name="parenleft" unicode="(" d="M334 -167 L240 -207 Q87 46 87 324 Q87 601 240 853 L334 813 Q209 595 209 324 Q209 51 334 -167 Z" /><glyph glyph-name="parenright" unicode=")" d="M146 -207 L53 -167 Q178 51 178 324 Q178 595 53 813 L146 853 Q300 602 300 324 Q300 45 146 -207 Z" /><glyph glyph-name="asterisk" unicode="*" d="M169 428 L104 475 L172 592 L50 646 L75 722 L206 692 L219 827 L300 827 L312 692 L443 722 L468 646 L345 592 L414 475 L349 428 L259 530 L169 428 Z" /><glyph glyph-name="plus" unicode="+" d="M246 112 L246 330 L39 330 L39 436 L246 436 L246 654 L357 654 L357 436 L564 436 L564 330 L357 330 L357 112 L246 112 Z" /><glyph glyph-name="comma" unicode="," d="M86 -218 L54 -136 Q113 -114 145 -77 Q177 -40 177 4 L168 4 Q129 4 101.5 28 Q74 52 74 93 Q74 133 102 157.5 Q130 182 171 182 Q223 182 251.5 143 Q280 104 280 34 Q280 -56 229 -121.5 Q178 -187 86 -218 Z" /><glyph glyph-name="hyphen" unicode="-" d="M50 240 L50 347 L330 347 L330 240 L50 240 Z" /><glyph glyph-name="period" unicode="." d="M233 14.5 Q206 -14 166 -14 Q126 -14 99.5 14.5 Q73 43 73 84 Q73 125 99.5 153.5 Q126 182 166 182 Q206 182 233 153.5 Q260 125 260 84 Q260 43 233 14.5 Z" /><glyph glyph-name="slash" unicode="/" d="M14 -186 L268 824 L369 824 L115 -186 L14 -186 Z" /><glyph glyph-name="zero" unicode="0" d="M302 -14 Q183 -14 114 88 Q45 190 45 382 Q45 574 113.5 673 Q182 772 302 772 Q421 772 489.5 672.5 Q558 573 558 382 Q558 190 489 88 Q420 -14 302 -14 ZM302 103 Q416 103 416 382 Q416 655 302 655 Q187 655 187 382 Q187 103 302 103 Z" /><glyph glyph-name="one" unicode="1" d="M84 0 L84 122 L247 122 L247 601 L110 601 L110 694 Q214 713 286 758 L397 758 L397 122 L540 122 L540 0 L84 0 Z" /><glyph glyph-name="two" unicode="2" d="M44 0 L44 87 Q209 234 290.5 340 Q372 446 372 530 Q372 588 342 620.5 Q312 653 258 653 Q190 653 119 575 L37 657 Q93 716 148.5 744 Q204 772 278 772 Q385 772 450.5 708.5 Q516 645 516 539 Q516 366 264 119 Q340 127 387 127 L552 127 L552 0 L44 0 Z" /><glyph glyph-name="three" unicode="3" d="M281 -14 Q120 -14 27 91 L97 186 Q176 109 266 109 Q325 109 360 136.5 Q395 164 395 214 Q395 274 349 304.5 Q303 335 186 335 L186 443 Q371 443 371 559 Q371 603 344.5 628 Q318 653 269 654 Q198 653 126 587 L49 679 Q157 772 276 772 Q388 772 455 719 Q522 666 522 570 Q522 447 395 397 L395 392 Q463 373 505 325 Q547 277 547 206 Q547 105 470 45.5 Q393 -14 281 -14 Z" /><glyph glyph-name="four" unicode="4" d="M168 311 L344 311 L344 466 Q344 491 350 623 L346 623 Q315 554 286 500 L168 311 ZM574 311 L574 197 L484 197 L484 0 L344 0 L344 197 L22 197 L22 299 L304 758 L484 758 L484 311 L574 311 Z" /><glyph glyph-name="five" unicode="5" d="M283 -14 Q130 -14 27 89 L96 185 Q174 109 263 109 Q324 109 360.5 145.5 Q397 182 397 248 Q397 313 362.5 349 Q328 385 269 385 Q237 385 214 376.5 Q191 368 156 345 L87 390 L108 758 L513 758 L513 632 L238 632 L223 471 Q270 493 314 493 Q416 493 482 431.5 Q548 370 548 252 Q548 130 470.5 58 Q393 -14 283 -14 Z" /><glyph glyph-name="six" unicode="6" d="M321 99 Q365 99 394 136 Q423 173 423 239 Q423 305 394.5 338 Q366 371 315 371 Q243 371 191 291 Q201 192 236 145.5 Q271 99 321 99 ZM550 686 L470 596 Q449 620 417 635.5 Q385 651 353 651 Q282 651 237 590.5 Q192 530 188 396 Q218 433 262 455 Q306 477 344 477 Q443 477 502 417 Q561 357 561 239 Q561 125 492.5 55.5 Q424 -14 324 -14 Q207 -14 129 83 Q51 180 51 369 Q51 569 135 670.5 Q219 772 344 772 Q466 772 550 686 Z" /><glyph glyph-name="seven" unicode="7" d="M343 0 L190 0 Q200 204 243.5 344.5 Q287 485 392 632 L51 632 L51 758 L555 758 L555 667 Q490 587 449.5 516 Q409 445 387 362 Q365 279 356.5 201.5 Q348 124 343 0 Z" /><glyph glyph-name="eight" unicode="8" d="M301 -14 Q192 -14 120 42.5 Q48 99 48 188 Q48 316 178 386 L178 391 Q78 463 78 571 Q78 661 142 716 Q206 771 306 771 Q406 771 466 715.5 Q526 660 526 569 Q526 516 498.5 471 Q471 426 429 396 L429 391 Q556 322 556 188 Q556 100 485.5 43 Q415 -14 301 -14 ZM349 433 Q403 490 403 560 Q403 607 376 636.5 Q349 666 303 666 Q263 666 237 640.5 Q211 615 211 571 Q211 521 245.5 491 Q280 461 349 433 ZM305 92 Q354 92 385 119 Q416 146 416 194 Q416 217 407 236.5 Q398 256 385.5 269.5 Q373 283 348.5 297.5 Q324 312 303.5 321.5 Q283 331 248 345 Q178 289 178 205 Q178 154 214.5 123 Q251 92 305 92 Z" /><glyph glyph-name="nine" unicode="9" d="M287 388 Q360 388 412 469 Q394 658 282 658 Q238 658 208.5 622 Q179 586 179 519 Q179 454 207.5 421 Q236 388 287 388 ZM53 72 L132 162 Q154 139 186.5 124 Q219 109 252 109 Q322 109 366 169.5 Q410 230 414 364 Q385 327 341.5 304 Q298 281 258 281 Q160 281 100.5 341.5 Q41 402 41 519 Q41 633 110 702.5 Q179 772 280 772 Q396 772 474 677 Q552 582 552 396 Q552 193 468 89.5 Q384 -14 261 -14 Q137 -14 53 72 Z" /><glyph glyph-name="colon" unicode=":" d="M233 403 Q206 375 166 375 Q126 375 99.5 403 Q73 431 73 472 Q73 514 99.5 542 Q126 570 166 570 Q206 570 233 542 Q260 514 260 472 Q260 431 233 403 ZM233 14.5 Q206 -14 166 -14 Q126 -14 99.5 14.5 Q73 43 73 84 Q73 125 99.5 153.5 Q126 182 166 182 Q206 182 233 153.5 Q260 125 260 84 Q260 43 233 14.5 Z" /><glyph glyph-name="semicolon" unicode=";" d="M233 403 Q206 375 166 375 Q126 375 99.5 403 Q73 431 73 472 Q73 514 99.5 542 Q126 570 166 570 Q206 570 233 542 Q260 514 260 472 Q260 431 233 403 ZM86 -218 L54 -136 Q113 -114 145 -77 Q177 -40 177 4 L168 4 Q129 4 101.5 28 Q74 52 74 93 Q74 133 102 157.5 Q130 182 171 182 Q223 182 251.5 143 Q280 104 280 34 Q280 -56 229 -121.5 Q178 -187 86 -218 Z" /><glyph glyph-name="less" unicode="&lt;" d="M564 129 L39 332 L39 438 L564 641 L564 517 L349 443 L193 388 L193 383 L349 328 L564 254 L564 129 Z" /><glyph glyph-name="equal" unicode="=" d="M39 462 L39 569 L564 569 L564 462 L39 462 ZM39 197 L39 304 L564 304 L564 197 L39 197 Z" /><glyph glyph-name="greater" unicode="&gt;" d="M39 129 L39 254 L255 328 L412 383 L412 388 L255 443 L39 517 L39 641 L564 438 L564 332 L39 129 Z" /><glyph glyph-name="question" unicode="?" d="M312 258 L181 258 Q174 304 187 345.5 Q200 387 223.5 417.5 Q247 448 271 475.5 Q295 503 313 532 Q331 561 331 587 Q331 625 307.5 648 Q284 671 244 671 Q186 671 130 613 L47 689 Q138 792 262 792 Q358 792 416.5 742 Q475 692 475 597 Q475 557 456.5 520.5 Q438 484 413 455.5 Q388 427 363 398.5 Q338 370 323 334 Q308 298 312 258 ZM314 14.5 Q287 -14 247 -14 Q207 -14 180.5 14.5 Q154 43 154 84 Q154 125 180.5 153.5 Q207 182 247 182 Q287 182 314 153.5 Q341 125 341 84 Q341 43 314 14.5 Z" /><glyph glyph-name="at" unicode="@" d="M485 -195 Q397 -195 320 -167.5 Q243 -140 183 -87.5 Q123 -35 88 49 Q53 133 53 238 Q53 394 123.5 517 Q194 640 310.5 705 Q427 770 566 770 Q750 770 860 658 Q970 546 970 365 Q970 218 891 133 Q812 48 714 48 Q663 48 627.5 71 Q592 94 584 136 L582 136 Q557 102 517 80 Q477 58 441 58 Q374 58 333 104.5 Q292 151 292 230 Q292 337 359.5 424 Q427 511 523 511 Q585 511 612 454 L614 454 L631 502 L724 502 L674 252 Q648 142 729 142 Q785 142 829 203 Q873 264 873 359 Q873 498 793 587.5 Q713 677 554 677 Q479 677 407 645.5 Q335 614 279.5 559 Q224 504 190 421 Q156 338 156 242 Q156 78 253.5 -11.5 Q351 -101 498 -101 Q595 -101 677 -54 L711 -138 Q609 -195 485 -195 ZM473 154 Q512 154 558 211 L588 375 Q566 413 527 413 Q474 413 440 357 Q406 301 406 239 Q406 197 424 175.5 Q442 154 473 154 Z" /><glyph glyph-name="A" unicode="a" d="M236 312 L416 312 L393 395 Q380 439 358 524.5 Q336 610 327 643 L323 643 Q297 527 258 395 L236 312 ZM502 0 L449 195 L203 195 L150 0 L-4 0 L239 758 L417 758 L660 0 L502 0 Z" /><glyph glyph-name="B" unicode="b" d="M93 0 L93 758 L344 758 Q618 758 618 571 Q618 517 590 471 Q562 425 515 408 L515 402 Q580 387 618.5 341.5 Q657 296 657 223 Q657 113 576.5 56.5 Q496 0 364 0 L93 0 ZM245 450 L333 450 Q471 450 471 549 Q471 598 438 620 Q405 642 335 642 L245 642 L245 450 ZM245 117 L350 117 Q510 117 510 232 Q510 337 350 337 L245 337 L245 117 Z" /><glyph glyph-name="C" unicode="c" d="M402 -14 Q252 -14 153.5 89.5 Q55 193 55 376 Q55 557 157 664.5 Q259 772 408 772 Q537 772 630 675 L550 579 Q485 642 411 642 Q323 642 266.5 571.5 Q210 501 210 381 Q210 258 263.5 187.5 Q317 117 408 117 Q495 117 564 191 L644 97 Q550 -14 402 -14 Z" /><glyph glyph-name="D" unicode="d" d="M93 0 L93 758 L301 758 Q479 758 577.5 664 Q676 570 676 382 Q676 195 578 97.5 Q480 0 309 0 L93 0 ZM245 122 L292 122 Q521 122 521 382 Q521 637 292 637 L245 637 L245 122 Z" /><glyph glyph-name="E" unicode="e" d="M93 0 L93 758 L558 758 L558 632 L245 632 L245 457 L511 457 L511 330 L245 330 L245 127 L569 127 L569 0 L93 0 Z" /><glyph glyph-name="F" unicode="f" d="M93 0 L93 758 L560 758 L560 632 L245 632 L245 434 L514 434 L514 307 L245 307 L245 0 L93 0 Z" /><glyph glyph-name="G" unicode="g" d="M419 -14 Q258 -14 156.5 89 Q55 192 55 376 Q55 558 158.5 665 Q262 772 419 772 Q558 772 653 675 L572 579 Q507 642 424 642 Q328 642 269 572 Q210 502 210 381 Q210 255 267 186 Q324 117 434 117 Q495 117 529 145 L529 295 L395 295 L395 419 L665 419 L665 77 Q624 37 559 11.5 Q494 -14 419 -14 Z" /><glyph glyph-name="H" unicode="h" d="M93 0 L93 758 L245 758 L245 460 L531 460 L531 758 L682 758 L682 0 L531 0 L531 328 L245 328 L245 0 L93 0 Z" /><glyph glyph-name="I" unicode="i" d="M93 0 L93 758 L245 758 L245 0 L93 0 Z" /><glyph glyph-name="J" unicode="j" d="M258 -14 Q100 -14 23 119 L127 196 Q170 117 240 117 Q292 117 316.5 149 Q341 181 341 257 L341 758 L493 758 L493 245 Q493 131 433.5 58.5 Q374 -14 258 -14 Z" /><glyph glyph-name="K" unicode="k" d="M93 0 L93 758 L245 758 L245 429 L248 429 L499 758 L666 758 L434 460 L707 0 L540 0 L344 340 L245 213 L245 0 L93 0 Z" /><glyph glyph-name="L" unicode="l" d="M93 0 L93 758 L245 758 L245 127 L552 127 L552 0 L93 0 Z" /><glyph glyph-name="M" unicode="m" d="M93 0 L93 758 L261 758 L390 403 Q403 365 436 257 L441 257 Q448 278 463 327.5 Q478 377 487 403 L613 758 L781 758 L781 0 L643 0 L643 316 Q643 370 662 565 L657 565 L596 387 L479 69 L392 69 L274 387 L214 565 L210 565 Q229 370 229 316 L229 0 L93 0 Z" /><glyph glyph-name="N" unicode="n" d="M93 0 L93 758 L248 758 L468 354 L544 190 L549 190 Q529 388 529 456 L529 758 L673 758 L673 0 L519 0 L300 406 L223 568 L218 568 Q219 554 225.5 490.5 Q232 427 234.5 385 Q237 343 237 304 L237 0 L93 0 Z" /><glyph glyph-name="O" unicode="o" d="M639.5 92.5 Q546 -14 394 -14 Q242 -14 148.5 92.5 Q55 199 55 382 Q55 564 148 668 Q241 772 394 772 Q547 772 640 668 Q733 564 733 382 Q733 199 639.5 92.5 ZM259.5 188.5 Q309 117 394 117 Q479 117 529 189 Q579 261 579 382 Q579 503 529 572.5 Q479 642 394 642 Q309 642 259.5 573 Q210 504 210 382 Q210 260 259.5 188.5 Z" /><glyph glyph-name="P" unicode="p" d="M93 0 L93 758 L342 758 Q639 758 639 520 Q639 396 557.5 332.5 Q476 269 346 269 L245 269 L245 0 L93 0 ZM245 389 L336 389 Q490 389 490 520 Q490 584 451 611 Q412 638 331 638 L245 638 L245 389 Z" /><glyph glyph-name="Q" unicode="q" d="M210 382 Q210 255 259.5 182.5 Q309 110 394 110 Q479 110 529 182.5 Q579 255 579 382 Q579 503 529 572.5 Q479 642 394 642 Q309 642 259.5 573 Q210 504 210 382 ZM739 -72 L766 -183 Q716 -206 639 -206 Q527 -206 446.5 -152 Q366 -98 325 -8 Q202 16 128.5 119 Q55 222 55 382 Q55 564 148 668 Q241 772 394 772 Q547 772 640 668 Q733 564 733 382 Q733 229 666 128 Q599 27 484 -3 Q534 -84 656 -84 Q701 -84 739 -72 Z" /><glyph glyph-name="R" unicode="r" d="M245 638 L245 407 L343 407 Q494 407 494 528 Q494 587 456.5 612.5 Q419 638 343 638 L245 638 ZM675 0 L506 0 L350 287 L245 287 L245 0 L93 0 L93 758 L357 758 Q642 758 642 528 Q642 366 498 310 L675 0 Z" /><glyph glyph-name="S" unicode="s" d="M319 -14 Q158 -14 43 96 L130 201 Q221 117 323 117 Q381 117 412 140 Q443 163 443 204 Q443 224 436.5 238.5 Q430 253 410.5 266 Q391 279 378 285 Q365 291 330 306 L228 349 Q75 413 75 553 Q75 647 148.5 709.5 Q222 772 337 772 Q403 772 466 746.5 Q529 721 574 675 L498 580 Q424 642 337 642 Q286 642 256.5 620.5 Q227 599 227 562 Q227 527 254 507.5 Q281 488 337 466 Q343 464 346 463 L445 421 Q519 390 558.5 341.5 Q598 293 598 215 Q598 118 522 52 Q446 -14 319 -14 Z" /><glyph glyph-name="T" unicode="t" d="M244 0 L244 632 L31 632 L31 758 L610 758 L610 632 L395 632 L395 0 L244 0 Z" /><glyph glyph-name="U" unicode="u" d="M384 -14 Q89 -14 89 341 L89 758 L241 758 L241 328 Q241 214 277.5 165.5 Q314 117 384 117 Q456 117 493.5 166 Q531 215 531 328 L531 758 L677 758 L677 341 Q677 -14 384 -14 Z" /><glyph glyph-name="V" unicode="v" d="M226 0 L-5 758 L154 758 L254 389 Q265 349 284.5 268.5 Q304 188 317 144 L323 144 Q335 186 355 266 Q375 346 387 389 L485 758 L639 758 L407 0 L226 0 Z" /><glyph glyph-name="W" unicode="w" d="M165 0 L18 758 L173 758 L233 388 Q238 350 250 269 Q262 188 268 146 L272 146 Q272 147 321 388 L409 758 L538 758 L626 388 Q642 310 674 146 L679 146 Q685 193 697.5 279 Q710 365 713 388 L772 758 L916 758 L776 0 L588 0 L503 375 Q479 493 470 550 L466 550 Q450 457 433 375 L350 0 L165 0 Z" /><glyph glyph-name="X" unicode="x" d="M14 0 L227 391 L28 758 L196 758 L271 602 Q318 501 328 482 L333 482 Q354 536 383 602 L455 758 L614 758 L415 384 L628 0 L460 0 L375 168 Q368 182 348 224.5 Q328 267 315 293 L311 293 Q288 237 256 168 L175 0 L14 0 Z" /><glyph glyph-name="Y" unicode="y" d="M221 0 L221 278 L-6 758 L155 758 L230 573 Q288 425 296 406 L300 406 Q347 520 368 573 L443 758 L601 758 L373 278 L373 0 L221 0 Z" /><glyph glyph-name="Z" unicode="z" d="M44 0 L44 91 L397 632 L78 632 L78 758 L583 758 L583 668 L230 127 L587 127 L587 0 L44 0 Z" /><glyph glyph-name="bracketleft" unicode="[" d="M103 -177 L103 822 L338 822 L338 742 L216 742 L216 -95 L338 -95 L338 -177 L103 -177 Z" /><glyph glyph-name="backslash" unicode="\" d="M283 -186 L29 824 L128 824 L383 -186 L283 -186 Z" /><glyph glyph-name="bracketright" unicode="]" d="M49 -177 L49 -95 L171 -95 L171 742 L49 742 L49 822 L284 822 L284 -177 L49 -177 Z" /><glyph glyph-name="asciicircum" unicode="^" d="M61 321 L240 778 L364 778 L543 321 L418 321 L357 485 L304 642 L299 642 L246 485 L186 321 L61 321 Z" /><glyph glyph-name="underscore" unicode="_" d="M14 -159 L14 -71 L567 -71 L567 -159 L14 -159 Z" /><glyph glyph-name="grave" unicode="`" d="M316 666 L113 846 L216 946 L391 738 L316 666 Z" /><glyph glyph-name="a" unicode="a" d="M222 -14 Q146 -14 99 34 Q52 82 52 156 Q52 248 130.5 298.5 Q209 349 382 368 Q378 467 285 467 Q219 467 127 413 L73 512 Q196 588 312 588 Q421 588 476.5 524 Q532 460 532 335 L532 0 L410 0 L398 61 L395 61 Q308 -14 222 -14 ZM271 103 Q325 103 382 160 L382 275 Q196 251 196 168 Q196 103 271 103 Z" /><glyph glyph-name="b" unicode="b" d="M369 -14 Q287 -14 215 60 L212 60 L199 0 L81 0 L81 817 L230 817 L230 611 L227 519 Q303 588 386 588 Q491 588 551.5 508.5 Q612 429 612 297 Q612 155 540.5 70.5 Q469 -14 369 -14 ZM335 110 Q390 110 424 157 Q458 204 458 294 Q458 464 344 464 Q290 464 230 404 L230 153 Q278 110 335 110 Z" /><glyph glyph-name="c" unicode="c" d="M325 -14 Q203 -14 124 67 Q45 148 45 286 Q45 424 130.5 506 Q216 588 338 588 Q430 588 505 524 L433 427 Q389 465 345 465 Q279 465 239 416 Q199 367 199 286 Q199 206 238.5 157.5 Q278 109 341 109 Q398 109 453 155 L512 55 Q434 -14 325 -14 Z" /><glyph glyph-name="d" unicode="d" d="M283 -14 Q176 -14 112 66.5 Q48 147 48 286 Q48 421 119.5 504.5 Q191 588 289 588 Q334 588 367 572.5 Q400 557 434 525 L428 615 L428 817 L579 817 L579 0 L457 0 L444 59 L441 59 Q366 -14 283 -14 ZM322 110 Q383 110 428 169 L428 421 Q381 464 322 464 Q271 464 237 417.5 Q203 371 203 288 Q203 110 322 110 Z" /><glyph glyph-name="e" unicode="e" d="M330 -14 Q207 -14 126 67 Q45 148 45 286 Q45 420 124.5 504 Q204 588 312 588 Q427 588 489.5 512 Q552 436 552 313 Q552 268 545 245 L191 245 Q200 176 242.5 138.5 Q285 101 350 101 Q416 101 479 141 L530 49 Q440 -14 330 -14 ZM189 344 L423 344 Q423 404 395.5 437.5 Q368 471 314 471 Q267 471 232 438 Q197 405 189 344 Z" /><glyph glyph-name="f" unicode="f" d="M415 811 L387 700 Q352 713 327 713 Q257 713 257 623 L257 573 L365 573 L365 455 L257 455 L257 0 L106 0 L106 455 L30 455 L30 566 L106 572 L106 620 Q106 716 154.5 773.5 Q203 831 306 831 Q363 831 415 811 Z" /><glyph glyph-name="g" unicode="g" d="M283 -249 Q176 -249 109.5 -211.5 Q43 -174 43 -101 Q43 -30 125 17 L125 23 Q73 56 73 119 Q73 180 136 226 L136 230 Q104 254 82 293.5 Q60 333 60 380 Q60 477 127.5 532.5 Q195 588 292 588 Q333 588 378 573 L585 573 L585 463 L486 463 Q513 429 513 376 Q513 283 451 232 Q389 181 292 181 Q262 181 218 195 Q194 176 194 145 Q194 121 214.5 109.5 Q235 98 284 98 L381 98 Q594 98 594 -45 Q594 -134 509 -191.5 Q424 -249 283 -249 ZM227.5 302.5 Q253 274 292 274 Q331 274 356 302 Q381 330 381 380 Q381 430 356 457.5 Q331 485 292 485 Q252 485 227 457.5 Q202 430 202 380 Q202 331 227.5 302.5 ZM205 -134 Q242 -154 305 -154 Q368 -154 409.5 -129.5 Q451 -105 451 -71 Q451 -42 427.5 -30.5 Q404 -19 355 -19 L286 -19 Q238 -19 206 -11 Q168 -40 168 -78 Q168 -114 205 -134 Z" /><glyph glyph-name="h" unicode="h" d="M81 0 L81 817 L230 817 L230 611 L224 504 Q314 588 404 588 Q582 588 582 357 L582 0 L431 0 L431 339 Q431 404 412 431.5 Q393 459 350 459 Q317 459 291.5 444 Q266 429 230 394 L230 0 L81 0 Z" /><glyph glyph-name="i" unicode="i" d="M81 0 L81 573 L230 573 L230 0 L81 0 ZM157 666 Q118 666 92.5 689.5 Q67 713 67 748 Q67 784 92.5 806.5 Q118 829 157 829 Q196 829 221 806.5 Q246 784 246 748 Q246 713 220.5 689.5 Q195 666 157 666 Z" /><glyph glyph-name="j" unicode="j" d="M41 -234 Q-12 -234 -55 -219 L-29 -108 Q-5 -116 18 -116 Q54 -116 68 -92.5 Q82 -69 82 -18 L82 573 L232 573 L232 -14 Q232 -234 41 -234 ZM158 666 Q119 666 93.5 689.5 Q68 713 68 748 Q68 784 93.5 806.5 Q119 829 158 829 Q197 829 222.5 806.5 Q248 784 248 748 Q248 713 222 689.5 Q196 666 158 666 Z" /><glyph glyph-name="k" unicode="k" d="M81 0 L81 817 L227 817 L227 326 L231 326 L430 573 L594 573 L395 339 L612 0 L450 0 L310 238 L227 143 L227 0 L81 0 Z" /><glyph glyph-name="l" unicode="l" d="M222 -14 Q81 -14 81 161 L81 817 L230 817 L230 154 Q230 131 239.5 120 Q249 109 261 109 Q272 109 282 111 L300 -1 Q268 -14 222 -14 Z" /><glyph glyph-name="m" unicode="m" d="M81 0 L81 573 L204 573 L214 497 L218 497 Q305 588 394 588 Q507 588 552 487 Q598 535 640.5 561.5 Q683 588 734 588 Q823 588 867.5 528 Q912 468 912 357 L912 0 L762 0 L762 339 Q762 404 742.5 431.5 Q723 459 682 459 Q633 459 571 394 L571 0 L421 0 L421 339 Q421 404 401.5 431.5 Q382 459 341 459 Q292 459 230 394 L230 0 L81 0 Z" /><glyph glyph-name="n" unicode="n" d="M81 0 L81 573 L204 573 L214 498 L218 498 Q310 588 404 588 Q582 588 582 357 L582 0 L431 0 L431 339 Q431 404 412 431.5 Q393 459 350 459 Q317 459 291.5 444 Q266 429 230 394 L230 0 L81 0 Z" /><glyph glyph-name="o" unicode="o" d="M515 68 Q434 -14 321 -14 Q208 -14 126.5 68 Q45 150 45 286 Q45 423 126.5 505.5 Q208 588 321 588 Q434 588 515 506 Q596 424 596 286 Q596 150 515 68 ZM231 156.5 Q263 109 321 109 Q379 109 410.5 156.5 Q442 204 442 286 Q442 369 410.5 417 Q379 465 321 465 Q263 465 231 417 Q199 369 199 286 Q199 204 231 156.5 Z" /><glyph glyph-name="p" unicode="p" d="M81 -220 L81 573 L204 573 L214 514 L218 514 Q305 588 387 588 Q492 588 552 508.5 Q612 429 612 296 Q612 154 540.5 70 Q469 -14 369 -14 Q294 -14 226 48 L230 -46 L230 -220 L81 -220 ZM230 153 Q280 110 335 110 Q390 110 424 157 Q458 204 458 294 Q458 464 344 464 Q290 464 230 404 L230 153 Z" /><glyph glyph-name="q" unicode="q" d="M428 -220 L428 -38 L434 54 Q368 -14 283 -14 Q176 -14 112 66.5 Q48 147 48 286 Q48 421 119.5 504.5 Q191 588 289 588 Q376 588 444 517 L449 517 L461 573 L579 573 L579 -220 L428 -220 ZM322 110 Q383 110 428 169 L428 421 Q381 464 322 464 Q271 464 237 417.5 Q203 371 203 288 Q203 110 322 110 Z" /><glyph glyph-name="r" unicode="r" d="M81 0 L81 573 L204 573 L214 472 L218 472 Q249 527 292.5 557.5 Q336 588 381 588 Q417 588 449 575 L422 445 Q390 455 362 455 Q325 455 289 427.5 Q253 400 230 342 L230 0 L81 0 Z" /><glyph glyph-name="s" unicode="s" d="M245 -14 Q188 -14 129 8.5 Q70 31 27 67 L95 161 Q175 98 249 98 Q290 98 311 114.5 Q332 131 332 159 Q332 166 330 172.5 Q328 179 323.5 184.5 Q319 190 314.5 194.5 Q310 199 301 204.5 Q292 210 287 213.5 Q282 217 269.5 222 Q257 227 251.5 229.5 Q246 232 231.5 237.5 Q217 243 212 245 Q180 257 156 270 Q132 283 107 303 Q82 323 68.5 350.5 Q55 378 55 412 Q55 490 113.5 539 Q172 588 268 588 Q369 588 464 517 L396 426 Q327 475 272 475 Q197 475 197 420 Q197 411 199.5 403.5 Q202 396 210 389.5 Q218 383 223.5 378.5 Q229 374 242.5 368 Q256 362 263 359 Q270 356 288 349.5 Q306 343 313 340 Q348 326 371 314.5 Q394 303 420.5 283 Q447 263 460 234 Q473 205 473 167 Q473 88 413 37 Q353 -14 245 -14 Z" /><glyph glyph-name="t" unicode="t" d="M291 -14 Q102 -14 102 201 L102 455 L22 455 L22 566 L110 573 L127 727 L253 727 L253 573 L394 573 L394 455 L253 455 L253 201 Q253 104 331 104 Q354 104 387 117 L412 7 Q347 -14 291 -14 Z" /><glyph glyph-name="u" unicode="u" d="M251 -14 Q75 -14 75 215 L75 573 L225 573 L225 234 Q225 169 244 142 Q263 115 305 115 Q340 115 366 131 Q392 147 422 186 L422 573 L572 573 L572 0 L450 0 L438 82 L434 82 Q353 -14 251 -14 Z" /><glyph glyph-name="v" unicode="v" d="M210 0 L14 573 L166 573 L250 288 Q258 257 274 197.5 Q290 138 296 114 L301 114 Q307 137 347 288 L431 573 L575 573 L384 0 L210 0 Z" /><glyph glyph-name="w" unicode="w" d="M176 0 L28 573 L178 573 L241 290 Q247 259 256 201.5 Q265 144 269 123 L273 123 Q296 239 309 290 L378 573 L512 573 L584 290 Q586 280 620 123 L625 123 Q629 144 638 201.5 Q647 259 653 290 L716 573 L855 573 L714 0 L537 0 L476 250 Q462 311 443 417 L438 417 Q409 259 407 250 L348 0 L176 0 Z" /><glyph glyph-name="x" unicode="x" d="M16 0 L196 299 L28 573 L189 573 L247 471 L298 375 L302 375 Q308 391 323 423 Q338 455 344 471 L392 573 L548 573 L380 282 L559 0 L397 0 L334 104 Q313 144 279 206 L273 206 Q249 156 225 104 L172 0 L16 0 Z" /><glyph glyph-name="y" unicode="y" d="M131 -230 Q88 -230 52 -219 L80 -103 Q107 -111 120 -111 Q199 -111 227 -24 L238 10 L14 573 L166 573 L257 307 Q264 286 305 145 L310 145 Q316 172 330 226 Q344 280 351 307 L430 573 L574 573 L371 -17 Q331 -125 276.5 -177.5 Q222 -230 131 -230 Z" /><glyph glyph-name="z" unicode="z" d="M42 0 L42 81 L298 455 L71 455 L71 573 L486 573 L486 493 L229 119 L495 119 L495 0 L42 0 Z" /><glyph glyph-name="braceleft" unicode="{" d="M338 -177 L271 -177 Q194 -177 160 -141 Q126 -105 126 -14 Q126 28 131 91 Q136 154 136 190 Q136 227 113 252.5 Q90 278 37 279 L37 368 Q90 369 113 393.5 Q136 418 136 455 Q136 492 131 554.5 Q126 617 126 659 Q126 750 160 786 Q194 822 271 822 L338 822 L338 742 L314 742 Q275 742 261.5 723.5 Q248 705 248 653 Q248 622 250.5 559 Q253 496 253 459 Q253 397 233.5 366.5 Q214 336 171 326 L171 321 Q214 311 233.5 280 Q253 249 253 187 Q253 150 250.5 87 Q248 24 248 -7 Q248 -59 261.5 -77 Q275 -95 314 -95 L338 -95 L338 -177 Z" /><glyph glyph-name="bar" unicode="|" d="M102 -290 L102 871 L201 871 L201 -290 L102 -290 Z" /><glyph glyph-name="braceright" unicode="}" d="M49 -177 L49 -95 L73 -95 Q112 -95 125.5 -76.5 Q139 -58 139 -7 Q139 24 136.5 87 Q134 150 134 187 Q134 249 153.5 280 Q173 311 216 321 L216 326 Q173 336 153.5 366.5 Q134 397 134 459 Q134 496 136.5 559 Q139 622 139 653 Q139 704 125.5 723 Q112 742 73 742 L49 742 L49 822 L116 822 Q193 822 227 786 Q261 750 261 659 Q261 617 255.5 554.5 Q250 492 250 455 Q250 419 273.5 394 Q297 369 349 368 L349 279 Q296 278 273 252.5 Q250 227 250 190 Q250 154 255.5 91 Q261 28 261 -14 Q261 -105 227 -141 Q193 -177 116 -177 L49 -177 Z" /><glyph glyph-name="asciitilde" unicode="~" d="M401 285 Q361 285 324.5 307.5 Q288 330 257 352.5 Q226 375 200 375 Q153 375 115 307 L36 367 Q109 482 203 482 Q243 482 279.5 459.5 Q316 437 347 414.5 Q378 392 403 392 Q450 392 488 459 L567 399 Q496 285 401 285 Z" /><glyph glyph-name="section" unicode="§" d="M571 764 L544 669 Q474 706 385 706 Q334 706 304 687 Q274 668 274 640 Q274 610 305.5 591 Q337 572 407 551 Q513 520 567 476 Q621 432 621 354 Q621 267 545 211 Q564 196 578.5 167.5 Q593 139 593 104 Q593 14 518 -33.5 Q443 -81 344 -81 Q210 -81 135 -30 L166 66 Q251 16 343 16 Q396 16 427 36 Q458 56 458 90 Q458 120 428 141 Q398 162 323 186 Q213 219 156.5 262.5 Q100 306 100 381 Q100 419 123 457.5 Q146 496 189 521 Q170 536 157 565.5 Q144 595 144 625 Q144 707 212.5 755 Q281 803 389 803 Q495 803 571 764 ZM261 477 Q218 450 218 408 Q218 378 243 355.5 Q268 333 330 312 Q450 270 467 261 Q503 283 503 331 Q503 369 464 394.5 Q425 420 354 443 Q283 466 261 477 Z" /><glyph glyph-name="dieresis" unicode="¨" d="M252.5 688.5 Q231 667 198 667 Q165 667 143.5 688.5 Q122 710 122 742 Q122 775 143.5 797 Q165 819 198 819 Q231 819 252.5 797 Q274 775 274 742 Q274 710 252.5 688.5 ZM497.5 688.5 Q476 667 443 667 Q410 667 388.5 688.5 Q367 710 367 742 Q367 775 388.5 797 Q410 819 443 819 Q476 819 497.5 797 Q519 775 519 742 Q519 710 497.5 688.5 Z" /><glyph glyph-name="degree" unicode="°" d="M207 472 Q140 472 93 518 Q46 564 46 634 Q46 704 93 750.5 Q140 797 207 797 Q275 797 322 750.5 Q369 704 369 634 Q369 564 322 518 Q275 472 207 472 ZM207 547 Q243 547 265.5 571.5 Q288 596 288 634 Q288 673 265.5 697.5 Q243 722 207 722 Q172 722 149.5 697.5 Q127 673 127 634 Q127 596 149.5 571.5 Q172 547 207 547 Z" /><glyph glyph-name="plusminus" unicode="±" d="M876 572 L876 469 L564 469 L564 210 L460 210 L460 469 L148 469 L148 572 L460 572 L460 831 L564 831 L564 572 L876 572 ZM148 114 L884 114 L884 9 L148 9 L148 114 Z" /><glyph glyph-name="acute" unicode="´" d="M325 666 L250 738 L425 946 L527 846 L325 666 Z" /><glyph glyph-name="paragraph" unicode="¶" d="M311 -57 L311 307 L303 307 Q281 307 255 314.5 Q229 322 201.5 340 Q174 358 152 382.5 Q130 407 115.5 445 Q101 483 100 527 Q99 578 114 622 Q129 666 164 706 Q199 746 267.5 769.5 Q336 793 432 793 Q528 793 586 781 L586 -57 L490 -57 L490 697 L407 697 L407 -57 L311 -57 Z" /><glyph glyph-name="multiply" unicode="×" d="M850 126 L776 52 L513 315 L250 52 L176 126 L439 389 L176 652 L250 726 L513 463 L776 726 L850 652 L587 389 L850 126 Z" /><glyph glyph-name="divide" unicode="÷" d="M423 646 Q423 682 449 708.5 Q475 735 512 735 Q549 735 575 708.5 Q601 682 601 646 Q601 609 575 583 Q549 557 512 557 Q475 557 449 583 Q423 609 423 646 ZM148 440 L876 440 L876 336 L148 336 L148 440 ZM423 130 Q423 167 449 193 Q475 219 512 219 Q549 219 575 193 Q601 167 601 130 Q601 94 575 67.5 Q549 41 512 41 Q475 41 449 67.5 Q423 94 423 130 Z" /><glyph glyph-name="cid00251" unicode="&#x391;" d="M236 312 L416 312 L393 395 Q380 439 358 524.5 Q336 610 327 643 L323 643 Q297 527 258 395 L236 312 ZM502 0 L449 195 L203 195 L150 0 L-4 0 L239 758 L417 758 L660 0 L502 0 Z" /><glyph glyph-name="cid00252" unicode="&#x392;" d="M93 0 L93 758 L344 758 Q618 758 618 571 Q618 517 590 471 Q562 425 515 408 L515 402 Q580 387 618.5 341.5 Q657 296 657 223 Q657 113 576.5 56.5 Q496 0 364 0 L93 0 ZM245 450 L333 450 Q471 450 471 549 Q471 598 438 620 Q405 642 335 642 L245 642 L245 450 ZM245 117 L350 117 Q510 117 510 232 Q510 337 350 337 L245 337 L245 117 Z" /><glyph glyph-name="cid00253" unicode="&#x393;" d="M93 0 L93 758 L560 758 L560 632 L245 632 L245 0 L93 0 Z" /><glyph glyph-name="cid00254" unicode="&#x394;" d="M38 0 L38 91 L273 758 L454 758 L689 91 L689 0 L38 0 ZM201 127 L523 127 L432 409 L362 639 L358 639 L290 409 L201 127 Z" /><glyph glyph-name="cid00255" unicode="&#x395;" d="M93 0 L93 758 L558 758 L558 632 L245 632 L245 457 L511 457 L511 330 L245 330 L245 127 L569 127 L569 0 L93 0 Z" /><glyph glyph-name="cid00256" unicode="&#x396;" d="M44 0 L44 91 L397 632 L78 632 L78 758 L583 758 L583 668 L230 127 L587 127 L587 0 L44 0 Z" /><glyph glyph-name="cid00257" unicode="&#x397;" d="M93 0 L93 758 L245 758 L245 460 L531 460 L531 758 L682 758 L682 0 L531 0 L531 328 L245 328 L245 0 L93 0 Z" /><glyph glyph-name="cid00258" unicode="&#x398;" d="M276 328 L276 460 L513 460 L513 328 L276 328 ZM639.5 92.5 Q546 -14 394 -14 Q242 -14 148.5 92.5 Q55 199 55 382 Q55 564 148 668 Q241 772 394 772 Q547 772 640 668 Q733 564 733 382 Q733 199 639.5 92.5 ZM259.5 188.5 Q309 117 394 117 Q479 117 529 189 Q579 261 579 382 Q579 503 529 572.5 Q479 642 394 642 Q309 642 259.5 573 Q210 504 210 382 Q210 260 259.5 188.5 Z" /><glyph glyph-name="cid00259" unicode="&#x399;" d="M93 0 L93 758 L245 758 L245 0 L93 0 Z" /><glyph glyph-name="cid00260" unicode="&#x39a;" d="M93 0 L93 758 L245 758 L245 429 L248 429 L499 758 L666 758 L434 460 L707 0 L540 0 L344 340 L245 213 L245 0 L93 0 Z" /><glyph glyph-name="cid00261" unicode="&#x39b;" d="M-5 0 L225 758 L407 758 L639 0 L479 0 L380 370 Q367 413 347 492.5 Q327 572 315 614 L310 614 Q296 567 276 486 Q256 405 247 370 L148 0 L-5 0 Z" /><glyph glyph-name="cid00262" unicode="&#x39c;" d="M93 0 L93 758 L261 758 L390 403 Q403 365 436 257 L441 257 Q448 278 463 327.5 Q478 377 487 403 L613 758 L781 758 L781 0 L643 0 L643 316 Q643 370 662 565 L657 565 L596 387 L479 69 L392 69 L274 387 L214 565 L210 565 Q229 370 229 316 L229 0 L93 0 Z" /><glyph glyph-name="cid00263" unicode="&#x39d;" d="M93 0 L93 758 L248 758 L468 354 L544 190 L549 190 Q529 388 529 456 L529 758 L673 758 L673 0 L519 0 L300 406 L223 568 L218 568 Q219 554 225.5 490.5 Q232 427 234.5 385 Q237 343 237 304 L237 0 L93 0 Z" /><glyph glyph-name="cid00264" unicode="&#x39e;" d="M60 0 L60 127 L592 127 L592 0 L60 0 ZM141 330 L141 457 L510 457 L510 330 L141 330 ZM72 632 L72 758 L580 758 L580 632 L72 632 Z" /><glyph glyph-name="cid00265" unicode="&#x39f;" d="M639.5 92.5 Q546 -14 394 -14 Q242 -14 148.5 92.5 Q55 199 55 382 Q55 564 148 668 Q241 772 394 772 Q547 772 640 668 Q733 564 733 382 Q733 199 639.5 92.5 ZM259.5 188.5 Q309 117 394 117 Q479 117 529 189 Q579 261 579 382 Q579 503 529 572.5 Q479 642 394 642 Q309 642 259.5 573 Q210 504 210 382 Q210 260 259.5 188.5 Z" /><glyph glyph-name="cid00266" unicode="&#x3a0;" d="M93 0 L93 758 L671 758 L671 0 L520 0 L520 632 L245 632 L245 0 L93 0 Z" /><glyph glyph-name="cid00267" unicode="&#x3a1;" d="M93 0 L93 758 L342 758 Q639 758 639 520 Q639 396 557.5 332.5 Q476 269 346 269 L245 269 L245 0 L93 0 ZM245 389 L336 389 Q490 389 490 520 Q490 584 451 611 Q412 638 331 638 L245 638 L245 389 Z" /><glyph glyph-name="cid00268" unicode="&#x3a3;" d="M46 0 L46 91 L288 384 L50 668 L50 758 L561 758 L561 632 L239 632 L439 387 L234 127 L594 127 L594 0 L46 0 Z" /><glyph glyph-name="cid00269" unicode="&#x3a4;" d="M244 0 L244 632 L31 632 L31 758 L610 758 L610 632 L395 632 L395 0 L244 0 Z" /><glyph glyph-name="cid00270" unicode="&#x3a5;" d="M221 0 L221 278 L-6 758 L155 758 L230 573 Q288 425 296 406 L300 406 Q347 520 368 573 L443 758 L601 758 L373 278 L373 0 L221 0 Z" /><glyph glyph-name="cid00271" unicode="&#x3a6;" d="M503 568 L503 191 Q580 201 625.5 252.5 Q671 304 671 382 Q671 460 625.5 509.5 Q580 559 503 568 ZM369 191 L369 568 Q291 559 245 509.5 Q199 460 199 382 Q199 303 245.5 251.5 Q292 200 369 191 ZM503 784 L503 683 Q647 672 730.5 594 Q814 516 814 382 Q814 248 730 168 Q646 88 503 78 L503 -26 L369 -26 L369 77 Q225 88 140 168 Q55 248 55 382 Q55 516 140 594.5 Q225 673 369 683 L369 784 L503 784 Z" /><glyph glyph-name="cid00272" unicode="&#x3a7;" d="M14 0 L227 391 L28 758 L196 758 L271 602 Q318 501 328 482 L333 482 Q354 536 383 602 L455 758 L614 758 L415 384 L628 0 L460 0 L375 168 Q368 182 348 224.5 Q328 267 315 293 L311 293 Q288 237 256 168 L175 0 L14 0 Z" /><glyph glyph-name="cid00273" unicode="&#x3a8;" d="M644 758 L793 758 L793 571 Q793 282 499 263 L499 0 L357 0 L357 263 Q63 282 63 571 L63 758 L211 758 L211 581 Q211 482 247 435.5 Q283 389 357 382 L357 758 L499 758 L499 382 Q573 389 608.5 435.5 Q644 482 644 581 L644 758 Z" /><glyph glyph-name="cid00274" unicode="&#x3a9;" d="M52 0 L52 122 L186 122 L186 126 Q138 175 103.5 249 Q69 323 69 414 Q69 573 162.5 672.5 Q256 772 408 772 Q560 772 654 672.5 Q748 573 748 414 Q748 323 713.5 249.5 Q679 176 630 126 L630 122 L764 122 L764 0 L465 0 L465 110 Q592 221 592 399 Q592 507 542.5 574.5 Q493 642 408 642 Q323 642 273 574.5 Q223 507 223 399 Q223 222 351 110 L351 0 L52 0 Z" /><glyph glyph-name="cid00275" unicode="&#x3b1;" d="M272 -14 Q169 -14 107 65 Q45 144 45 282 Q45 421 119 504.5 Q193 588 298 588 Q410 588 461 464 L465 464 L485 573 L633 573 Q629 557 614.5 489.5 Q600 422 593.5 391.5 Q587 361 577 310 Q567 259 563 223.5 Q559 188 559 162 Q559 109 615 109 Q635 109 653 116 L672 4 Q638 -14 579 -14 Q459 -14 440 87 L436 87 Q377 -14 272 -14 ZM307 110 Q350 110 386 151 Q422 192 426 248 L433 349 Q397 464 319 464 Q270 464 234.5 417.5 Q199 371 199 284 Q199 197 227.5 153.5 Q256 110 307 110 Z" /><glyph glyph-name="beta" unicode="&#x3b2;" d="M80 -206 L80 549 Q80 676 145 753.5 Q210 831 338 831 Q439 831 509.5 777.5 Q580 724 580 623 Q580 508 478 444 L478 439 Q550 426 596 368.5 Q642 311 642 229 Q642 113 574 49.5 Q506 -14 414 -14 Q296 -14 220 67 Q223 14 226.5 -80 Q230 -174 231 -206 L80 -206 ZM372 110 Q425 110 460 144 Q495 178 495 240 Q495 294 464 328 Q433 362 374 362 Q350 362 324 355 L304 466 Q435 488 435 609 Q435 659 407 686 Q379 713 339 713 Q284 713 255.5 667.5 Q227 622 225 538 Q220 390 220 184 Q278 110 372 110 Z" /><glyph glyph-name="cid00277" unicode="&#x3b3;" d="M374 -206 L218 -206 Q225 -149 225 -52 Q225 66 158 247 Q91 428 1 553 L154 588 Q197 523 242 408 Q287 293 316 171 L322 171 Q420 366 433 573 L583 573 Q557 418 510.5 298 Q464 178 359 12 Q374 -85 374 -206 Z" /><glyph glyph-name="cid00278" unicode="&#x3b4;" d="M319 109 Q375 109 406 146.5 Q437 184 437 258 Q437 309 411.5 348.5 Q386 388 338 425 Q270 407 232 363 Q194 319 194 251 Q194 185 230 147 Q266 109 319 109 ZM563 785 L529 673 Q399 719 311 719 Q248 719 248 681 Q248 667 255.5 654 Q263 641 282 624 Q301 607 315.5 596.5 Q330 586 363 562.5 Q396 539 412 528 Q499 464 541 405 Q583 346 583 258 Q583 135 511.5 60.5 Q440 -14 315 -14 Q205 -14 127.5 58 Q50 130 50 249 Q50 337 102.5 399.5 Q155 462 238 496 Q108 590 108 694 Q108 753 160 792 Q212 831 312 831 Q427 831 563 785 Z" /><glyph glyph-name="cid00279" unicode="&#x3b5;" d="M306 -14 Q193 -14 119 32.5 Q45 79 45 162 Q45 270 159 299 L159 304 Q117 317 94 352 Q71 387 71 426 Q71 506 139 547 Q207 588 309 588 Q414 588 504 527 L447 430 Q388 471 316 471 Q272 471 245 453.5 Q218 436 218 406 Q218 344 312 344 Q322 344 390 349 L390 240 Q308 245 294 245 Q193 245 193 176 Q193 141 226.5 121 Q260 101 322 101 Q394 101 457 150 L517 54 Q423 -14 306 -14 Z" /><glyph glyph-name="cid00280" unicode="&#x3b6;" d="M442 -216 L325 -176 Q347 -148 356 -135 Q365 -122 372 -105.5 Q379 -89 379 -75 Q379 -50 356 -37 Q333 -24 263 -9 Q217 1 182.5 17.5 Q148 34 116 64.5 Q84 95 67 145 Q50 195 50 263 Q50 368 131.5 491 Q213 614 336 708 Q98 699 86 698 L86 817 L502 817 L502 698 L496 698 Q383 627 293.5 497 Q204 367 204 271 Q204 195 237 159.5 Q270 124 350 109 Q438 91 474.5 59.5 Q511 28 511 -35 Q511 -67 493.5 -116.5 Q476 -166 442 -216 Z" /><glyph glyph-name="cid00281" unicode="&#x3b7;" d="M571 -206 L420 -206 Q430 156 430 339 Q430 405 413.5 432 Q397 459 356 459 Q321 459 292.5 437 Q264 415 230 364 L230 0 L81 0 L81 402 Q81 497 70 573 L204 573 L214 468 L218 468 Q305 588 407 588 Q571 588 571 357 L571 -206 Z" /><glyph glyph-name="cid00282" unicode="&#x3b8;" d="M423 361 L206 361 Q210 222 238.5 165.5 Q267 109 314 109 Q362 109 390.5 165.5 Q419 222 423 361 ZM206 463 L423 463 Q415 710 314 710 Q214 710 206 463 ZM127 724.5 Q195 831 314 831 Q433 831 501 724.5 Q569 618 569 411 Q569 200 501.5 93 Q434 -14 314 -14 Q195 -14 127 93.5 Q59 201 59 411 Q59 618 127 724.5 Z" /><glyph glyph-name="cid00283" unicode="&#x3b9;" d="M229 -14 Q148 -14 114.5 31 Q81 76 81 163 L81 573 L232 573 Q231 537 226.5 378 Q222 219 222 156 Q222 130 233 119.5 Q244 109 268 109 Q285 109 303 115 L322 4 Q281 -14 229 -14 Z" /><glyph glyph-name="cid00284" unicode="&#x3ba;" d="M624 0 L455 -12 Q378 85 298 241 L278 217 Q222 157 222 33 L222 0 L81 0 L81 402 Q81 503 69 573 L216 573 Q227 529 227 433 L227 307 L231 307 Q388 558 560 588 L571 446 Q490 427 394 340 Q437 255 501 160 Q565 65 624 0 Z" /><glyph glyph-name="cid00285" unicode="&#x3bb;" d="M178 -12 L16 0 L263 579 L259 596 Q246 649 216 677.5 Q186 706 146 706 Q112 706 67 686 L33 808 Q90 831 164 831 Q258 831 315.5 773.5 Q373 716 411 589 L617 0 L457 0 L333 411 L328 411 L178 -12 Z" /><glyph glyph-name="cid00286" unicode="&#x3bc;" d="M81 -206 L81 573 L230 573 L230 234 Q230 170 249 142.5 Q268 115 310 115 Q344 115 370.5 134 Q397 153 423 200 L423 573 L574 573 Q573 537 568.5 378 Q564 219 564 156 Q564 109 613 109 Q631 109 649 115 L667 4 Q627 -14 575 -14 Q461 -14 439 86 L436 86 Q387 -9 303 -9 Q248 -9 221 26 Q222 -90 232 -206 L81 -206 Z" /><glyph glyph-name="cid00287" unicode="&#x3bd;" d="M358 0 L215 0 Q189 153 131.5 297.5 Q74 442 1 553 L154 588 Q202 510 245.5 384.5 Q289 259 310 154 L315 154 Q405 356 422 573 L571 573 Q545 416 497 284.5 Q449 153 358 0 Z" /><glyph glyph-name="cid00288" unicode="&#x3be;" d="M447 -216 L330 -176 Q352 -148 361 -135 Q370 -122 377 -105.5 Q384 -89 384 -75 Q384 -50 360 -36.5 Q336 -23 268 -9 Q166 12 108.5 63 Q51 114 51 215 Q51 289 98 347.5 Q145 406 214 429 L214 433 Q162 454 133 495.5 Q104 537 104 591 Q104 668 166 708 Q105 705 24 698 L24 817 L506 817 L506 698 L371 698 Q320 698 287.5 668 Q255 638 255 587 Q255 540 288.5 505.5 Q322 471 368 471 Q414 471 451 481 L451 361 Q408 371 359 371 Q295 371 250.5 334 Q206 297 206 238 Q206 176 242 150.5 Q278 125 364 109 Q453 91 485 60.5 Q517 30 517 -35 Q517 -67 499 -116.5 Q481 -166 447 -216 Z" /><glyph glyph-name="cid00289" unicode="&#x3bf;" d="M512 67.5 Q432 -14 318 -14 Q204 -14 124.5 67.5 Q45 149 45 286 Q45 424 124.5 506 Q204 588 318 588 Q432 588 512 506 Q592 424 592 286 Q592 149 512 67.5 ZM229 155.5 Q259 109 318 109 Q377 109 407 155.5 Q437 202 437 286 Q437 370 407 417.5 Q377 465 318 465 Q259 465 229 417.5 Q199 370 199 286 Q199 202 229 155.5 Z" /><glyph glyph-name="pi" unicode="&#x3c0;" d="M594 -14 Q510 -14 473 32.5 Q436 79 436 168 Q436 187 438 293 Q440 399 441 454 L289 454 Q289 298 259 -8 L108 0 Q148 224 148 454 L22 454 L22 566 L106 573 L695 573 L695 454 L585 454 Q578 345 578 161 Q578 132 590.5 120.5 Q603 109 630 109 Q639 109 673 113 L691 2 Q647 -14 594 -14 Z" /><glyph glyph-name="cid00291" unicode="&#x3c1;" d="M76 -206 L76 280 Q76 432 150 510 Q224 588 344 588 Q468 588 537 510.5 Q606 433 606 296 Q606 155 536 70.5 Q466 -14 369 -14 Q275 -14 217 55 Q226 -146 227 -206 L76 -206 ZM335 110 Q387 110 420 157 Q453 204 453 294 Q453 464 339 464 Q286 464 252 417.5 Q218 371 218 290 L218 164 Q266 110 335 110 Z" /><glyph glyph-name="cid00292" unicode="&#x3c3;" d="M312 -14 Q198 -14 121.5 64.5 Q45 143 45 281 Q45 421 125 497 Q205 573 319 573 L644 573 L644 449 Q562 458 475 461 L475 456 Q521 430 546.5 378 Q572 326 572 257 Q572 132 499.5 59 Q427 -14 312 -14 ZM230 154.5 Q261 109 314 109 Q367 109 398 152 Q429 195 429 271 Q429 347 398 399 Q367 451 314 451 Q260 451 229.5 409 Q199 367 199 281 Q199 200 230 154.5 Z" /><glyph glyph-name="cid00293" unicode="&#x3c4;" d="M354 -14 Q274 -14 240 32.5 Q206 79 206 168 L206 455 L31 455 L31 566 L115 573 L531 573 L531 455 L352 455 Q347 320 347 161 Q347 109 392 109 Q422 109 455 117 L474 4 Q415 -14 354 -14 Z" /><glyph glyph-name="cid00294" unicode="&#x3c5;" d="M299 -14 Q181 -14 121.5 49.5 Q62 113 62 226 Q62 255 64.5 313.5 Q67 372 67 402 Q67 500 54 573 L200 573 Q211 524 211 433 Q211 410 207.5 332 Q204 254 204 214 Q204 162 230.5 135.5 Q257 109 299 109 Q407 109 407 290 Q407 418 366 554 L511 588 Q557 437 557 297 Q557 149 489.5 67.5 Q422 -14 299 -14 Z" /><glyph glyph-name="cid00295" unicode="&#x3c6;" d="M488 470 L488 103 Q556 106 598 155 Q640 204 640 287 Q640 372 599 419.5 Q558 467 488 470 ZM350 103 L350 470 Q282 467 240.5 419 Q199 371 199 287 Q199 203 240.5 154.5 Q282 106 350 103 ZM488 727 L488 583 Q615 577 704.5 498 Q794 419 794 287 Q794 156 704 76 Q614 -4 488 -10 L488 -206 L350 -206 L350 -9 Q223 -3 134 76 Q45 155 45 287 Q45 419 134 498 Q223 577 350 583 L350 727 L488 727 Z" /><glyph glyph-name="cid00296" unicode="&#x3c7;" d="M165 -219 L10 -206 L230 191 L10 553 L159 588 L303 324 L307 324 L421 573 L578 573 L379 195 L611 -186 L463 -219 L307 71 L303 71 L165 -219 Z" /><glyph glyph-name="cid00297" unicode="&#x3c8;" d="M606 554 L752 588 Q797 451 797 322 Q797 162 719.5 75.5 Q642 -11 494 -14 L494 -206 L355 -206 L355 -14 Q206 -11 137 66.5 Q68 144 68 270 L68 402 Q68 499 56 573 L202 573 Q212 523 212 433 Q212 407 211 343 Q210 279 210 259 Q210 190 244.5 147.5 Q279 105 355 104 L355 727 L494 727 L494 104 Q571 106 608.5 155.5 Q646 205 646 315 Q646 427 606 554 Z" /><glyph glyph-name="cid00298" unicode="&#x3c9;" d="M267 -14 Q167 -14 108.5 64 Q50 142 50 286 Q50 360 76 441 Q102 522 143 588 L284 532 Q193 386 193 257 Q193 188 214 148.5 Q235 109 274 109 Q357 109 357 224 Q357 283 344 378 L504 378 Q492 265 492 224 Q492 162 511.5 135.5 Q531 109 569 109 Q606 109 628.5 153.5 Q651 198 651 281 Q651 355 634 411 Q617 467 573 536 L711 588 Q802 443 802 290 Q802 143 747 64.5 Q692 -14 590 -14 Q470 -14 427 93 L423 93 Q379 -14 267 -14 Z" /><glyph glyph-name="cid00299" unicode="&#x401;" d="M93 0 L93 758 L558 758 L558 632 L245 632 L245 457 L511 457 L511 330 L245 330 L245 127 L569 127 L569 0 L93 0 ZM208 818 Q175 818 154 839.5 Q133 861 133 893 Q133 925 154 946 Q175 967 208 967 Q240 967 261.5 946 Q283 925 283 893 Q283 861 261.5 839.5 Q240 818 208 818 ZM461 818 Q428 818 407 839.5 Q386 861 386 893 Q386 925 407 946 Q428 967 461 967 Q493 967 514 946 Q535 925 535 893 Q535 861 514 839.5 Q493 818 461 818 Z" /><glyph glyph-name="afii10017" unicode="&#x410;" d="M236 312 L416 312 L393 395 Q380 439 358 524.5 Q336 610 327 643 L323 643 Q297 527 258 395 L236 312 ZM502 0 L449 195 L203 195 L150 0 L-4 0 L239 758 L417 758 L660 0 L502 0 Z" /><glyph glyph-name="cid00301" unicode="&#x411;" d="M93 0 L93 758 L598 758 L598 632 L245 632 L245 457 L360 457 Q491 457 569 405 Q647 353 647 238 Q647 117 570.5 58.5 Q494 0 365 0 L93 0 ZM245 117 L347 117 Q500 117 500 236 Q500 293 461.5 318.5 Q423 344 346 344 L245 344 L245 117 Z" /><glyph glyph-name="cid00302" unicode="&#x412;" d="M93 0 L93 758 L344 758 Q618 758 618 571 Q618 517 590 471 Q562 425 515 408 L515 402 Q580 387 618.5 341.5 Q657 296 657 223 Q657 113 576.5 56.5 Q496 0 364 0 L93 0 ZM245 450 L333 450 Q471 450 471 549 Q471 598 438 620 Q405 642 335 642 L245 642 L245 450 ZM245 117 L350 117 Q510 117 510 232 Q510 337 350 337 L245 337 L245 117 Z" /><glyph glyph-name="cid00303" unicode="&#x413;" d="M93 0 L93 758 L560 758 L560 632 L245 632 L245 0 L93 0 Z" /><glyph glyph-name="cid00304" unicode="&#x414;" d="M508 632 L342 632 Q310 440 298 372 Q267 209 216 127 L508 127 L508 632 ZM658 127 L749 127 L749 33 L735 -218 L601 -218 L601 0 L167 0 L167 -218 L33 -218 L19 33 L19 127 L54 127 Q114 149 162 392 Q173 453 183 509 Q193 565 205 634.5 Q217 704 226 758 L658 758 L658 127 Z" /><glyph glyph-name="afii10022" unicode="&#x415;" d="M93 0 L93 758 L558 758 L558 632 L245 632 L245 457 L511 457 L511 330 L245 330 L245 127 L569 127 L569 0 L93 0 Z" /><glyph glyph-name="cid00306" unicode="&#x416;" d="M762 401 L985 0 L822 0 L652 333 L565 333 L565 0 L422 0 L422 333 L336 333 L167 0 L3 0 L226 401 L157 555 Q136 599 116 615 Q96 631 69 631 Q52 631 37 626 L12 763 Q31 772 69 772 Q133 772 178 742 Q223 712 261 635 L345 455 L422 455 L422 758 L565 758 L565 455 L642 455 L727 635 Q765 712 810.5 742 Q856 772 920 772 Q957 772 976 763 L951 626 Q937 631 920 631 Q892 631 872 615 Q852 599 831 555 L762 401 Z" /><glyph glyph-name="cid00307" unicode="&#x417;" d="M321 -14 Q153 -14 43 92 L123 196 Q208 117 318 117 Q383 117 423.5 147 Q464 177 464 231 Q464 337 307 337 L211 337 L211 450 L285 450 Q427 450 427 548 Q427 595 394.5 618.5 Q362 642 308 642 Q222 642 146 580 L70 680 Q173 772 313 772 Q437 772 505.5 718.5 Q574 665 574 571 Q574 450 474 406 L474 400 Q535 386 573.5 338 Q612 290 612 221 Q612 110 530.5 48 Q449 -14 321 -14 Z" /><glyph glyph-name="afii10026" unicode="&#x418;" d="M93 0 L93 758 L243 758 L243 456 Q243 417 240 374 Q237 331 230.5 267 Q224 203 223 190 L228 190 L305 353 L526 758 L686 758 L686 0 L537 0 L537 304 Q537 373 556 568 L551 568 L474 407 L253 0 L93 0 Z" /><glyph glyph-name="cid00309" unicode="&#x419;" d="M93 0 L93 758 L243 758 L243 456 Q243 417 240 374 Q237 331 230.5 267 Q224 203 223 190 L228 190 L305 353 L526 758 L686 758 L686 0 L537 0 L537 304 Q537 373 556 568 L551 568 L474 407 L253 0 L93 0 ZM394 821 Q204 821 197 979 L324 979 Q329 897 394 897 Q462 897 465 979 L592 979 Q583 821 394 821 Z" /><glyph glyph-name="cid00310" unicode="&#x41a;" d="M460 403 L710 0 L551 0 L341 333 L245 333 L245 0 L93 0 L93 758 L245 758 L245 455 L341 455 L441 635 Q484 712 528 742 Q572 772 635 772 Q672 772 691 763 L666 626 Q652 631 635 631 Q609 631 590.5 615.5 Q572 600 546 555 L460 403 Z" /><glyph glyph-name="cid00311" unicode="&#x41b;" d="M74 -14 Q24 -14 -8 -3 L19 133 Q36 128 52 128 Q74 128 88 139 Q102 150 119.5 192 Q137 234 154 314 Q160 340 237 758 L662 758 L662 0 L511 0 L511 632 L353 632 Q343 574 293 299 Q259 117 210.5 51.5 Q162 -14 74 -14 Z" /><glyph glyph-name="cid00312" unicode="&#x41c;" d="M93 0 L93 758 L261 758 L390 403 Q403 365 436 257 L441 257 Q448 278 463 327.5 Q478 377 487 403 L613 758 L781 758 L781 0 L643 0 L643 316 Q643 370 662 565 L657 565 L596 387 L479 69 L392 69 L274 387 L214 565 L210 565 Q229 370 229 316 L229 0 L93 0 Z" /><glyph glyph-name="cid00313" unicode="&#x41d;" d="M93 0 L93 758 L245 758 L245 460 L531 460 L531 758 L682 758 L682 0 L531 0 L531 328 L245 328 L245 0 L93 0 Z" /><glyph glyph-name="afii10032" unicode="&#x41e;" d="M639.5 92.5 Q546 -14 394 -14 Q242 -14 148.5 92.5 Q55 199 55 382 Q55 564 148 668 Q241 772 394 772 Q547 772 640 668 Q733 564 733 382 Q733 199 639.5 92.5 ZM259.5 188.5 Q309 117 394 117 Q479 117 529 189 Q579 261 579 382 Q579 503 529 572.5 Q479 642 394 642 Q309 642 259.5 573 Q210 504 210 382 Q210 260 259.5 188.5 Z" /><glyph glyph-name="cid00315" unicode="&#x41f;" d="M93 0 L93 758 L671 758 L671 0 L520 0 L520 632 L245 632 L245 0 L93 0 Z" /><glyph glyph-name="cid00316" unicode="&#x420;" d="M93 0 L93 758 L342 758 Q639 758 639 520 Q639 396 557.5 332.5 Q476 269 346 269 L245 269 L245 0 L93 0 ZM245 389 L336 389 Q490 389 490 520 Q490 584 451 611 Q412 638 331 638 L245 638 L245 389 Z" /><glyph glyph-name="cid00317" unicode="&#x421;" d="M402 -14 Q252 -14 153.5 89.5 Q55 193 55 376 Q55 557 157 664.5 Q259 772 408 772 Q537 772 630 675 L550 579 Q485 642 411 642 Q323 642 266.5 571.5 Q210 501 210 381 Q210 258 263.5 187.5 Q317 117 408 117 Q495 117 564 191 L644 97 Q550 -14 402 -14 Z" /><glyph glyph-name="cid00318" unicode="&#x422;" d="M244 0 L244 632 L31 632 L31 758 L610 758 L610 632 L395 632 L395 0 L244 0 Z" /><glyph glyph-name="afii10037" unicode="&#x423;" d="M176 -14 Q125 -14 85 0 L114 131 Q140 123 168 123 Q226 123 248 165 L260 194 L3 758 L162 758 L265 506 L327 333 L332 333 L390 506 L484 758 L636 758 L397 163 Q362 76 309.5 31 Q257 -14 176 -14 Z" /><glyph glyph-name="cid00320" unicode="&#x424;" d="M504 558 L504 203 Q590 208 636.5 253.5 Q683 299 683 382 Q683 465 636.5 509 Q590 553 504 558 ZM373 203 L373 558 Q287 553 241 509 Q195 465 195 382 Q195 299 241.5 253.5 Q288 208 373 203 ZM504 772 L504 670 Q656 663 740 590 Q824 517 824 382 Q824 247 740 172.5 Q656 98 504 90 L504 -14 L373 -14 L373 90 Q221 98 137 172.5 Q53 247 53 382 Q53 517 137 590 Q221 663 373 670 L373 772 L504 772 Z" /><glyph glyph-name="cid00321" unicode="&#x425;" d="M14 0 L227 391 L28 758 L196 758 L271 602 Q318 501 328 482 L333 482 Q354 536 383 602 L455 758 L614 758 L415 384 L628 0 L460 0 L375 168 Q368 182 348 224.5 Q328 267 315 293 L311 293 Q288 237 256 168 L175 0 L14 0 Z" /><glyph glyph-name="cid00322" unicode="&#x426;" d="M659 127 L750 127 L750 33 L736 -218 L602 -218 L602 0 L93 0 L93 758 L245 758 L245 127 L509 127 L509 758 L659 758 L659 127 Z" /><glyph glyph-name="cid00323" unicode="&#x427;" d="M477 0 L477 316 Q424 307 356 307 Q217 307 145 369.5 Q73 432 73 575 L73 758 L220 758 L220 575 Q220 494 256.5 461 Q293 428 372 428 Q425 428 477 436 L477 758 L628 758 L628 0 L477 0 Z" /><glyph glyph-name="cid00324" unicode="&#x428;" d="M93 0 L93 758 L241 758 L241 127 L450 127 L450 758 L594 758 L594 127 L802 127 L802 758 L949 758 L949 0 L93 0 Z" /><glyph glyph-name="cid00325" unicode="&#x429;" d="M949 127 L1040 127 L1040 33 L1027 -218 L892 -218 L892 0 L93 0 L93 758 L241 758 L241 127 L450 127 L450 758 L594 758 L594 127 L802 127 L802 758 L949 758 L949 127 Z" /><glyph glyph-name="cid00326" unicode="&#x42a;" d="M258 0 L258 632 L31 632 L31 758 L410 758 L410 473 L503 473 Q633 473 716.5 415.5 Q800 358 800 245 Q800 118 721 59 Q642 0 509 0 L258 0 ZM410 120 L499 120 Q652 120 652 242 Q652 352 493 352 L410 352 L410 120 Z" /><glyph glyph-name="afii10045" unicode="&#x42b;" d="M93 0 L93 758 L245 758 L245 473 L331 473 Q466 473 545 417 Q624 361 624 245 Q624 118 544.5 59 Q465 0 329 0 L93 0 ZM245 120 L318 120 Q475 120 475 242 Q475 352 316 352 L245 352 L245 120 ZM729 0 L729 758 L880 758 L880 0 L729 0 Z" /><glyph glyph-name="cid00328" unicode="&#x42c;" d="M93 0 L93 758 L245 758 L245 473 L353 473 Q488 473 567 417 Q646 361 646 245 Q646 118 566.5 59 Q487 0 351 0 L93 0 ZM245 120 L341 120 Q499 120 499 242 Q499 352 340 352 L245 352 L245 120 Z" /><glyph glyph-name="afii10047" unicode="&#x42d;" d="M122 579 L42 675 Q85 717 149 744.5 Q213 772 282 772 Q433 772 525 670 Q617 568 617 376 Q617 186 522.5 86 Q428 -14 280 -14 Q131 -14 29 97 L109 191 Q183 117 276 117 Q358 117 407 169.5 Q456 222 466 330 L186 330 L186 457 L463 457 Q438 642 273 642 Q193 642 122 579 Z" /><glyph glyph-name="afii10048" unicode="&#x42e;" d="M707 117 Q789 117 834.5 188 Q880 259 880 382 Q880 505 835 573.5 Q790 642 707 642 Q624 642 578 573.5 Q532 505 532 382 Q532 259 578 188 Q624 117 707 117 ZM245 460 L387 460 Q406 609 490 690.5 Q574 772 707 772 Q858 772 946 668.5 Q1034 565 1034 382 Q1034 198 945.5 92 Q857 -14 707 -14 Q570 -14 484 77 Q398 168 385 328 L245 328 L245 0 L93 0 L93 758 L245 758 L245 460 Z" /><glyph glyph-name="afii10049" unicode="&#x42f;" d="M461 407 L461 638 L362 638 Q286 638 249 613 Q212 588 212 528 Q212 407 362 407 L461 407 ZM348 758 L612 758 L612 0 L461 0 L461 287 L361 287 L189 0 L16 0 L216 307 Q63 363 63 528 Q63 758 348 758 Z" /><glyph glyph-name="afii10065" unicode="&#x430;" d="M222 -14 Q146 -14 99 34 Q52 82 52 156 Q52 248 130.5 298.5 Q209 349 382 368 Q378 467 285 467 Q219 467 127 413 L73 512 Q196 588 312 588 Q421 588 476.5 524 Q532 460 532 335 L532 0 L410 0 L398 61 L395 61 Q308 -14 222 -14 ZM271 103 Q325 103 382 160 L382 275 Q196 251 196 168 Q196 103 271 103 Z" /><glyph glyph-name="cid00333" unicode="&#x431;" d="M196 354 L196 321 Q196 216 231 162.5 Q266 109 331 109 Q383 109 412.5 155.5 Q442 202 442 281 Q442 435 330 435 Q253 435 196 354 ZM546 848 L574 717 Q538 688 444 675 Q408 670 391 667 Q374 664 347.5 659 Q321 654 309 649 Q297 644 279 636 Q261 628 253 618 Q245 608 234 594 Q223 580 218 561.5 Q213 543 208.5 520 Q204 497 201 468 Q268 547 374 547 Q471 547 534 476.5 Q597 406 597 281 Q597 149 522 67.5 Q447 -14 333 -14 Q199 -14 125.5 82.5 Q52 179 52 355 Q52 459 69.5 536 Q87 613 116.5 661.5 Q146 710 194.5 742 Q243 774 293 789 Q343 804 414 814 Q493 824 546 848 Z" /><glyph glyph-name="cid00334" unicode="&#x432;" d="M81 0 L81 573 L318 573 Q544 573 544 424 Q544 382 519.5 349.5 Q495 317 447 304 L447 299 Q566 272 566 165 Q566 82 501 41 Q436 0 331 0 L81 0 ZM227 344 L306 344 Q399 344 399 408 Q399 472 308 472 L227 472 L227 344 ZM227 101 L322 101 Q420 101 420 174 Q420 206 394.5 225.5 Q369 245 318 245 L227 245 L227 101 Z" /><glyph glyph-name="cid00335" unicode="&#x433;" d="M81 0 L81 573 L465 573 L465 455 L230 455 L230 0 L81 0 Z" /><glyph glyph-name="cid00336" unicode="&#x434;" d="M266 455 L250 305 Q237 188 199 119 L406 119 L406 455 L266 455 ZM556 119 L645 119 L645 20 L631 -200 L502 -200 L502 0 L160 0 L160 -200 L31 -200 L15 20 L15 119 L49 119 Q73 132 89.5 176.5 Q106 221 120 338 L147 573 L556 573 L556 119 Z" /><glyph glyph-name="afii10070" unicode="&#x435;" d="M330 -14 Q207 -14 126 67 Q45 148 45 286 Q45 420 124.5 504 Q204 588 312 588 Q427 588 489.5 512 Q552 436 552 313 Q552 268 545 245 L191 245 Q200 176 242.5 138.5 Q285 101 350 101 Q416 101 479 141 L530 49 Q440 -14 330 -14 ZM189 344 L423 344 Q423 404 395.5 437.5 Q368 471 314 471 Q267 471 232 438 Q197 405 189 344 Z" /><glyph glyph-name="cid00338" unicode="&#x436;" d="M668 298 L849 0 L688 0 L561 237 L496 237 L496 0 L362 0 L362 237 L298 237 L171 0 L10 0 L191 297 L156 381 Q140 418 122.5 431 Q105 444 80 444 Q73 444 59 440 L35 580 Q56 588 78 588 Q139 588 180 561 Q221 534 251 466 L301 355 L362 355 L362 573 L496 573 L496 355 L556 355 L608 466 Q638 534 679 561 Q720 588 780 588 Q804 588 823 580 L800 440 Q786 444 778 444 Q754 444 736 430.5 Q718 417 703 381 L668 298 Z" /><glyph glyph-name="cid00339" unicode="&#x437;" d="M256 -14 Q128 -14 35 55 L94 151 Q162 101 242 101 Q292 101 325 121.5 Q358 142 358 176 Q358 245 254 245 L166 245 L166 344 L243 344 Q338 344 338 410 Q338 471 245 471 Q164 471 103 430 L46 526 Q137 588 254 588 Q351 588 417 546.5 Q483 505 483 426 Q483 387 459 352.5 Q435 318 391 304 L391 299 Q506 271 506 162 Q506 81 431.5 33.5 Q357 -14 256 -14 Z" /><glyph glyph-name="afii10074" unicode="&#x438;" d="M81 0 L81 573 L226 573 L226 392 Q226 372 213 187 L217 187 Q222 197 249 242 Q276 287 286 307 L454 573 L591 573 L591 0 L445 0 L445 180 Q445 218 459 386 L455 386 Q449 375 422.5 329.5 Q396 284 386 265 L218 0 L81 0 Z" /><glyph glyph-name="cid00341" unicode="&#x439;" d="M81 0 L81 573 L226 573 L226 392 Q226 372 213 187 L217 187 Q222 197 249 242 Q276 287 286 307 L454 573 L591 573 L591 0 L445 0 L445 180 Q445 218 459 386 L455 386 Q449 375 422.5 329.5 Q396 284 386 265 L218 0 L81 0 ZM341 666 Q246 666 197 716 Q148 766 145 852 L263 852 Q265 800 282.5 773 Q300 746 341 746 Q382 746 399 773 Q416 800 418 852 L536 852 Q534 766 485.5 716 Q437 666 341 666 Z" /><glyph glyph-name="cid00342" unicode="&#x43a;" d="M416 302 L609 0 L445 0 L306 237 L230 237 L230 0 L81 0 L81 573 L230 573 L230 355 L303 355 L355 466 Q387 536 427 562 Q467 588 528 588 Q552 588 571 580 L547 440 Q535 444 526 444 Q501 444 484.5 431.5 Q468 419 451 381 L416 302 Z" /><glyph glyph-name="cid00343" unicode="&#x43b;" d="M72 -14 Q36 -14 8 -2 L34 133 Q54 128 61 128 Q115 128 128 224 Q143 352 168 573 L572 573 L572 0 L422 0 L422 455 L287 455 Q269 291 253 183 Q227 -14 72 -14 Z" /><glyph glyph-name="cid00344" unicode="&#x43c;" d="M81 0 L81 573 L252 573 L336 357 Q343 336 357.5 292.5 Q372 249 379 226 L384 226 Q386 231 403 280 Q420 329 428 357 L507 573 L678 573 L678 0 L544 0 L544 177 Q544 243 560 411 L555 411 Q546 384 526.5 330.5 Q507 277 500 257 L422 51 L337 51 L257 257 Q249 280 229.5 334 Q210 388 202 411 L197 411 Q213 209 213 177 L213 0 L81 0 Z" /><glyph glyph-name="cid00345" unicode="&#x43d;" d="M81 0 L81 573 L230 573 L230 359 L439 359 L439 573 L590 573 L590 0 L439 0 L439 228 L230 228 L230 0 L81 0 Z" /><glyph glyph-name="afii10080" unicode="&#x43e;" d="M515 68 Q434 -14 321 -14 Q208 -14 126.5 68 Q45 150 45 286 Q45 423 126.5 505.5 Q208 588 321 588 Q434 588 515 506 Q596 424 596 286 Q596 150 515 68 ZM231 156.5 Q263 109 321 109 Q379 109 410.5 156.5 Q442 204 442 286 Q442 369 410.5 417 Q379 465 321 465 Q263 465 231 417 Q199 369 199 286 Q199 204 231 156.5 Z" /><glyph glyph-name="cid00347" unicode="&#x43f;" d="M81 0 L81 573 L580 573 L580 0 L429 0 L429 455 L230 455 L230 0 L81 0 Z" /><glyph glyph-name="cid00348" unicode="&#x440;" d="M81 -220 L81 573 L204 573 L214 514 L218 514 Q305 588 387 588 Q492 588 552 508.5 Q612 429 612 296 Q612 154 540.5 70 Q469 -14 369 -14 Q294 -14 226 48 L230 -46 L230 -220 L81 -220 ZM230 153 Q280 110 335 110 Q390 110 424 157 Q458 204 458 294 Q458 464 344 464 Q290 464 230 404 L230 153 Z" /><glyph glyph-name="cid00349" unicode="&#x441;" d="M325 -14 Q203 -14 124 67 Q45 148 45 286 Q45 424 130.5 506 Q216 588 338 588 Q430 588 505 524 L433 427 Q389 465 345 465 Q279 465 239 416 Q199 367 199 286 Q199 206 238.5 157.5 Q278 109 341 109 Q398 109 453 155 L512 55 Q434 -14 325 -14 Z" /><glyph glyph-name="cid00350" unicode="&#x442;" d="M206 0 L206 455 L31 455 L31 573 L531 573 L531 455 L355 455 L355 0 L206 0 Z" /><glyph glyph-name="afii10085" unicode="&#x443;" d="M131 -230 Q88 -230 52 -219 L80 -103 Q107 -111 120 -111 Q199 -111 227 -24 L238 10 L14 573 L166 573 L257 307 Q264 286 305 145 L310 145 Q316 172 330 226 Q344 280 351 307 L430 573 L574 573 L371 -17 Q331 -125 276.5 -177.5 Q222 -230 131 -230 Z" /><glyph glyph-name="cid00352" unicode="&#x444;" d="M372 -220 L372 -63 L377 23 Q317 -14 267 -14 Q167 -14 107.5 66.5 Q48 147 48 286 Q48 421 113 504.5 Q178 588 267 588 Q322 588 377 553 L372 637 L372 817 L518 817 L518 637 L513 549 Q575 588 633 588 Q730 588 786.5 508.5 Q843 429 843 296 Q843 154 777.5 70 Q712 -14 620 -14 Q563 -14 513 20 L518 -63 L518 -220 L372 -220 ZM305 110 Q348 110 377 139 L377 437 Q343 464 301 464 Q259 464 231 417.5 Q203 371 203 288 Q203 110 305 110 ZM586 110 Q632 110 660 157 Q688 204 688 294 Q688 464 590 464 Q550 464 513 435 L513 136 Q546 110 586 110 Z" /><glyph glyph-name="cid00353" unicode="&#x445;" d="M16 0 L196 299 L28 573 L189 573 L247 471 L298 375 L302 375 Q308 391 323 423 Q338 455 344 471 L392 573 L548 573 L380 282 L559 0 L397 0 L334 104 Q313 144 279 206 L273 206 Q249 156 225 104 L172 0 L16 0 Z" /><glyph glyph-name="cid00354" unicode="&#x446;" d="M573 119 L663 119 L663 20 L648 -200 L519 -200 L519 0 L81 0 L81 573 L230 573 L230 119 L423 119 L423 573 L573 573 L573 119 Z" /><glyph glyph-name="cid00355" unicode="&#x447;" d="M395 0 L395 204 Q346 195 292 195 Q183 195 121 247 Q59 299 59 410 L59 573 L210 573 L210 410 Q210 360 237.5 336 Q265 312 324 312 Q355 312 395 322 L395 573 L546 573 L546 0 L395 0 Z" /><glyph glyph-name="cid00356" unicode="&#x448;" d="M81 0 L81 573 L229 573 L229 119 L386 119 L386 573 L529 573 L529 119 L686 119 L686 573 L836 573 L836 0 L81 0 Z" /><glyph glyph-name="cid00357" unicode="&#x449;" d="M836 119 L924 119 L924 20 L910 -200 L781 -200 L781 0 L81 0 L81 573 L229 573 L229 119 L386 119 L386 573 L529 573 L529 119 L686 119 L686 573 L836 573 L836 119 Z" /><glyph glyph-name="cid00358" unicode="&#x44a;" d="M211 0 L211 455 L31 455 L31 573 L360 573 L360 382 L431 382 Q542 382 607 337 Q672 292 672 194 Q672 93 607 46.5 Q542 0 431 0 L211 0 ZM360 115 L423 115 Q527 115 527 195 Q527 271 423 271 L360 271 L360 115 Z" /><glyph glyph-name="afii10093" unicode="&#x44b;" d="M81 0 L81 573 L230 573 L230 382 L284 382 Q394 382 459 337 Q524 292 524 194 Q524 93 459 46.5 Q394 0 284 0 L81 0 ZM230 115 L274 115 Q380 115 380 195 Q380 271 274 271 L230 271 L230 115 ZM607 0 L607 573 L758 573 L758 0 L607 0 Z" /><glyph glyph-name="cid00360" unicode="&#x44c;" d="M81 0 L81 573 L230 573 L230 382 L307 382 Q418 382 483 337 Q548 292 548 194 Q548 93 483 46.5 Q418 0 307 0 L81 0 ZM230 115 L299 115 Q403 115 403 195 Q403 271 299 271 L230 271 L230 115 Z" /><glyph glyph-name="afii10095" unicode="&#x44d;" d="M100 433 L35 520 Q107 588 216 588 Q339 588 417 510.5 Q495 433 495 286 Q495 141 418 63.5 Q341 -14 215 -14 Q98 -14 26 55 L82 144 Q132 101 200 101 Q334 101 351 245 L137 245 L137 344 L349 344 Q328 471 207 471 Q148 471 100 433 Z" /><glyph glyph-name="afii10096" unicode="&#x44e;" d="M579 109 Q633 109 661.5 156 Q690 203 690 286 Q690 370 661.5 417.5 Q633 465 579 465 Q526 465 495 416.5 Q464 368 464 286 Q464 205 495 157 Q526 109 579 109 ZM230 357 L330 357 Q349 465 418.5 526.5 Q488 588 587 588 Q697 588 771 506.5 Q845 425 845 286 Q845 148 771 67 Q697 -14 587 -14 Q485 -14 414.5 50 Q344 114 328 226 L230 226 L230 0 L81 0 L81 573 L230 573 L230 357 Z" /><glyph glyph-name="afii10097" unicode="&#x44f;" d="M392 301 L392 462 L329 462 Q222 462 222 384 Q222 345 250 323 Q278 301 329 301 L392 301 ZM309 573 L543 573 L543 0 L392 0 L392 197 L317 197 L315 197 L190 0 L23 0 L181 225 Q74 276 74 388 Q74 573 309 573 Z" /><glyph glyph-name="cid00364" unicode="&#x451;" d="M330 -14 Q207 -14 126 67 Q45 148 45 286 Q45 420 124.5 504 Q204 588 312 588 Q427 588 489.5 512 Q552 436 552 313 Q552 268 545 245 L191 245 Q200 176 242.5 138.5 Q285 101 350 101 Q416 101 479 141 L530 49 Q440 -14 330 -14 ZM189 344 L423 344 Q423 404 395.5 437.5 Q368 471 314 471 Q267 471 232 438 Q197 405 189 344 ZM243.5 688.5 Q222 667 189 667 Q156 667 134.5 688.5 Q113 710 113 742 Q113 775 134.5 797 Q156 819 189 819 Q222 819 243.5 797 Q265 775 265 742 Q265 710 243.5 688.5 ZM489 688.5 Q467 667 434 667 Q401 667 379.5 688.5 Q358 710 358 742 Q358 775 379.5 797 Q401 819 434 819 Q467 819 489 797 Q511 775 511 742 Q511 710 489 688.5 Z" /><glyph glyph-name="cid00713" unicode="&#x2010;" d="M128 413 L384 413 L384 366 L128 366 L128 413 Z" /><glyph glyph-name="uni2015" unicode="&#x2015;" d="M76 413 L948 413 L948 366 L76 366 L76 413 Z" /><glyph glyph-name="quoteleft" unicode="&#x2018;" d="M218 798 L253 731 Q202 703 178 669 Q154 635 153 586 Q157 587 164 587 Q198 587 222 565.5 Q246 544 246 508 Q246 469 223 445.5 Q200 422 164 422 Q115 422 90 458 Q65 494 65 560 Q65 718 218 798 Z" /><glyph glyph-name="quoteright" unicode="&#x2019;" d="M114 434 L80 500 Q131 529 154.5 562.5 Q178 596 179 646 Q176 645 169 645 Q135 645 111 666.5 Q87 688 87 724 Q87 763 110 786.5 Q133 810 169 810 Q217 810 242.5 774 Q268 738 268 671 Q268 512 114 434 Z" /><glyph glyph-name="quotedblleft" unicode="&#x201c;" d="M218 798 L253 731 Q202 703 178 669 Q154 635 153 586 Q157 587 164 587 Q198 587 222 565.5 Q246 544 246 508 Q246 469 223 445.5 Q200 422 164 422 Q115 422 90 458 Q65 494 65 560 Q65 718 218 798 ZM474 798 L509 731 Q458 703 434 669 Q410 635 409 586 Q413 587 420 587 Q454 587 478 565.5 Q502 544 502 508 Q502 469 479 445.5 Q456 422 420 422 Q371 422 346 458 Q321 494 321 560 Q321 718 474 798 Z" /><glyph glyph-name="quotedblright" unicode="&#x201d;" d="M114 434 L80 500 Q131 529 154.5 562.5 Q178 596 179 646 Q176 645 169 645 Q135 645 111 666.5 Q87 688 87 724 Q87 763 110 786.5 Q133 810 169 810 Q217 810 242.5 774 Q268 738 268 671 Q268 512 114 434 ZM370 434 L336 500 Q387 529 410.5 562.5 Q434 596 435 646 Q432 645 425 645 Q391 645 367 666.5 Q343 688 343 724 Q343 763 366 786.5 Q389 810 425 810 Q473 810 498.5 774 Q524 738 524 671 Q524 512 370 434 Z" /><glyph glyph-name="dagger" unicode="&#x2020;" d="M388 791 L376 552 L573 562 L573 442 L376 453 L388 -58 L250 -58 L262 453 L65 442 L65 562 L262 552 L250 791 L388 791 Z" /><glyph glyph-name="daggerdbl" unicode="&#x2021;" d="M388 791 L376 568 L573 578 L573 458 L376 468 L377 267 L573 278 L573 158 L376 168 L388 -58 L250 -58 L262 168 L65 158 L65 278 L262 267 L262 468 L65 458 L65 578 L262 568 L250 791 L388 791 Z" /><glyph glyph-name="cid00727" unicode="&#x2025;" d="M197.5 330 Q173 354 173 389 Q173 424 197.5 448 Q222 472 256 472 Q290 472 314.5 448 Q339 424 339 389 Q339 354 314.5 330 Q290 306 256 306 Q222 306 197.5 330 ZM709.5 330 Q685 354 685 389 Q685 424 709.5 448 Q734 472 768 472 Q802 472 826.5 448 Q851 424 851 389 Q851 354 826.5 330 Q802 306 768 306 Q734 306 709.5 330 Z" /><glyph glyph-name="ellipsis" unicode="&#x2026;" d="M112 330 Q88 354 88 389 Q88 424 112 448 Q136 472 171 472 Q206 472 230 448 Q254 424 254 389 Q254 354 230 330 Q206 306 171 306 Q136 306 112 330 ZM453.5 330 Q429 354 429 389 Q429 424 453.5 448 Q478 472 512 472 Q546 472 570.5 448 Q595 424 595 389 Q595 354 570.5 330 Q546 306 512 306 Q478 306 453.5 330 ZM794 330 Q770 354 770 389 Q770 424 794 448 Q818 472 853 472 Q888 472 912 448 Q936 424 936 389 Q936 354 912 330 Q888 306 853 306 Q818 306 794 330 Z" /><glyph glyph-name="perthousand" unicode="&#x2030;" d="M119 -14 L520 773 L589 773 L187 -14 L119 -14 ZM31 537 Q31 637 67.5 704.5 Q104 772 168 771 Q215 771 245.5 734.5 Q276 698 287 648.5 Q298 599 298 540 Q298 426 260 366.5 Q222 307 167 307 Q99 307 65 374.5 Q31 442 31 537 ZM203 418 Q213 459 213 537 Q213 615 202.5 658.5 Q192 702 164 701 Q116 701 116 540 Q116 377 166 377 Q193 377 203 418 ZM411 223 Q411 323 447.5 391 Q484 459 548 458 Q595 458 625.5 421 Q656 384 667 334.5 Q678 285 678 226 Q678 112 640 53 Q602 -6 547 -6 Q479 -6 445 61.5 Q411 129 411 223 ZM726 223 Q726 323 762.5 391 Q799 459 863 458 Q910 458 940.5 421 Q971 384 982 334.5 Q993 285 993 226 Q993 112 955 53 Q917 -6 862 -6 Q794 -6 760 61.5 Q726 129 726 223 ZM583 104.5 Q593 146 593 224 Q593 302 582.5 345.5 Q572 389 544 388 Q496 388 496 226 Q496 63 546 63 Q573 63 583 104.5 ZM898 104.5 Q908 146 908 224 Q908 302 897.5 345.5 Q887 389 859 388 Q811 388 811 226 Q811 146 822 104.5 Q833 63 861 63 Q888 63 898 104.5 Z" /><glyph glyph-name="cid00731" unicode="&#x2032;" d="M95 471 L119 799 L268 798 L244 663 L194 470 L95 471 Z" /><glyph glyph-name="cid00732" unicode="&#x2033;" d="M95 471 L119 799 L268 798 L244 663 L194 470 L95 471 ZM351 471 L374 799 L524 798 L500 663 L450 470 L351 471 Z" /><glyph glyph-name="cid00735" unicode="&#x203b;" d="M566.5 735 Q589 712 589 681 Q589 650 566.5 627 Q544 604 512 604 Q480 604 457.5 627 Q435 650 435 681 Q435 712 457.5 735 Q480 758 512 758 Q544 758 566.5 735 ZM174 757 L512 419 L850 757 L880 727 L542 389 L880 51 L850 22 L512 359 L173 20 L143 50 L482 389 L144 727 L174 757 ZM165.5 443 Q188 466 220 466 Q252 466 274.5 443 Q297 420 297 389 Q297 358 274.5 335 Q252 312 220 312 Q188 312 165.5 335 Q143 358 143 389 Q143 420 165.5 443 ZM858.5 335 Q836 312 804 312 Q772 312 749.5 335 Q727 358 727 389 Q727 420 749.5 443 Q772 466 804 466 Q836 466 858.5 443 Q881 420 881 389 Q881 358 858.5 335 ZM457.5 43 Q435 66 435 97 Q435 128 457.5 151 Q480 174 512 174 Q544 174 566.5 151 Q589 128 589 97 Q589 66 566.5 43 Q544 20 512 20 Q480 20 457.5 43 Z" /><glyph glyph-name="cid00747" unicode="&#x2103;" d="M306 519.5 Q259 473 191 473 Q123 473 76 519.5 Q29 566 29 636 Q29 706 76 752.5 Q123 799 191 799 Q259 799 306 752.5 Q353 706 353 636 Q353 566 306 519.5 ZM133 572.5 Q155 548 191 548 Q227 548 249.5 572.5 Q272 597 272 636 Q272 674 249.5 699 Q227 724 191 724 Q155 724 133 699.5 Q111 675 111 636 Q111 597 133 572.5 ZM763 -14 Q610 -14 511 89 Q412 192 412 376 Q412 559 513.5 666.5 Q615 774 767 774 Q895 774 988 677 L904 583 Q845 642 769 642 Q680 642 623.5 571.5 Q567 501 567 382 Q567 259 620.5 188.5 Q674 118 765 118 Q850 118 916 189 L1001 97 Q908 -14 763 -14 Z" /><glyph glyph-name="cid00753" unicode="&#x2116;" d="M112 -14 Q90 -14 69 -8 L57 109 Q82 109 91.5 119 Q101 129 101 158 L101 738 L266 738 Q396 424 455 265 L496 165 L501 165 Q479 375 479 478 L479 610 Q479 753 603 753 Q626 753 647 746 L658 631 Q633 631 623 620.5 Q613 610 613 581 L613 0 L449 0 Q312 333 260 474 L219 573 L214 573 Q236 365 236 260 L236 128 Q236 -14 112 -14 ZM1026.5 366 Q972 314 893 314 Q814 314 759.5 366 Q705 418 705 506 Q705 595 759.5 647 Q814 699 893 699 Q972 699 1026.5 647.5 Q1081 596 1081 506 Q1081 418 1026.5 366 ZM893 408 Q964 408 964 506 Q964 606 893 606 Q860 606 841 581 Q822 556 822 506 Q822 458 841 433 Q860 408 893 408 ZM741 156 L741 238 L1044 238 L1044 156 L741 156 Z" /><glyph glyph-name="uni2121" unicode="&#x2121;" d="M131 0 L131 650 L26 650 L26 761 L356 761 L356 650 L251 650 L251 0 L131 0 ZM401 0 L401 611 L669 611 L669 510 L521 510 L521 360 L630 360 L630 266 L521 266 L521 101 L680 101 L680 0 L401 0 ZM739 0 L739 611 L859 611 L859 108 L1004 108 L1004 0 L739 0 Z" /><glyph glyph-name="cid00758" unicode="&#x212b;" d="M420 312 L600 312 L578 396 Q565 440 542.5 526 Q520 612 511 643 L506 643 Q472 497 442 396 L420 312 ZM509 927 Q476 927 454.5 905 Q433 883 433 848 Q433 811 454 789.5 Q475 768 509 768 Q542 768 563.5 789.5 Q585 811 585 848 Q585 883 563 905 Q541 927 509 927 ZM685 0 L632 195 L387 195 L334 0 L178 0 L413 731 Q341 773 341 856 Q341 922 387.5 961.5 Q434 1001 509 1001 Q583 1001 630 961 Q677 921 677 856 Q677 776 609 734 L846 0 L685 0 Z" /><glyph glyph-name="cid00762" unicode="&#x2160;" d="M435 0 L435 761 L589 761 L589 0 L435 0 Z" /><glyph glyph-name="cid00763" unicode="&#x2161;" d="M266 0 L266 761 L419 761 L419 0 L266 0 ZM605 0 L605 761 L758 761 L758 0 L605 0 Z" /><glyph glyph-name="cid00764" unicode="&#x2162;" d="M96 0 L96 761 L250 761 L250 0 L96 0 ZM435 0 L435 761 L589 761 L589 0 L435 0 ZM775 0 L775 761 L928 761 L928 0 L775 0 Z" /><glyph glyph-name="cid00765" unicode="&#x2163;" d="M118 0 L118 761 L271 761 L271 0 L118 0 ZM591 0 L357 761 L518 761 L618 391 Q629 351 649 270.5 Q669 190 682 145 L687 145 Q700 190 720.5 271 Q741 352 752 391 L850 761 L1005 761 L772 0 L591 0 Z" /><glyph glyph-name="cid00766" unicode="&#x2164;" d="M421 0 L188 761 L349 761 L450 391 Q459 356 479 274.5 Q499 193 513 145 L518 145 Q531 190 551.5 271 Q572 352 583 391 L681 761 L836 761 L603 0 L421 0 Z" /><glyph glyph-name="cid00767" unicode="&#x2165;" d="M251 0 L18 761 L179 761 L280 391 Q289 356 309 274.5 Q329 193 343 145 L348 145 Q361 190 381.5 271 Q402 352 413 391 L511 761 L666 761 L433 0 L251 0 ZM753 0 L753 761 L905 761 L905 0 L753 0 Z" /><glyph glyph-name="cid00768" unicode="&#x2166;" d="M180 0 L14 761 L174 761 L234 391 Q253 273 280 145 L285 145 Q310 262 329 391 L388 761 L543 761 L377 0 L180 0 ZM584 0 L584 761 L737 761 L737 0 L584 0 ZM828 0 L828 761 L982 761 L982 0 L828 0 Z" /><glyph glyph-name="cid00769" unicode="&#x2167;" d="M153 0 L12 761 L142 761 L189 391 Q196 344 207 262.5 Q218 181 223 145 L228 145 Q260 376 262 391 L308 761 L431 761 L299 0 L153 0 ZM480 0 L480 761 L602 761 L602 0 L480 0 ZM667 0 L667 761 L790 761 L790 0 L667 0 ZM854 0 L854 761 L976 761 L976 0 L854 0 Z" /><glyph glyph-name="cid00770" unicode="&#x2168;" d="M114 0 L114 761 L266 761 L266 0 L114 0 ZM375 0 L587 392 L386 761 L556 761 L632 603 Q634 599 654 555.5 Q674 512 688 484 L693 484 Q700 501 742 603 L814 761 L976 761 L776 385 L989 0 L820 0 L734 169 Q691 260 677 292 L673 292 Q662 266 642.5 224 Q623 182 617 169 L537 0 L375 0 Z" /><glyph glyph-name="cid00771" unicode="&#x2169;" d="M205 0 L417 392 L216 761 L386 761 L462 603 Q467 594 518 484 L523 484 Q541 531 573 603 L645 761 L806 761 L606 385 L819 0 L650 0 L565 169 Q530 238 507 292 L503 292 Q492 265 471.5 221.5 Q451 178 447 169 L367 0 L205 0 Z" /><glyph glyph-name="cid00786" unicode="&#x2190;" d="M983 337 L259 337 Q331 285 395 197 L303 145 Q189 289 36 389 Q189 489 303 633 L395 582 Q329 492 259 441 L983 441 L983 337 Z" /><glyph glyph-name="cid00787" unicode="&#x2191;" d="M342 -82 L342 642 Q291 572 201 506 L150 598 Q294 712 394 865 Q494 712 638 598 L587 506 Q497 572 446 642 L446 -82 L342 -82 Z" /><glyph glyph-name="cid00788" unicode="&#x2192;" d="M41 337 L41 441 L765 441 Q695 492 629 582 L721 633 Q835 489 988 389 Q835 289 721 145 L629 197 Q693 285 765 337 L41 337 Z" /><glyph glyph-name="cid00789" unicode="&#x2193;" d="M446 860 L446 136 Q497 206 587 272 L638 180 Q494 66 394 -87 Q294 66 150 180 L201 272 Q291 206 342 136 L342 860 L446 860 Z" /><glyph glyph-name="cid00804" unicode="&#x21d2;" d="M41 298 L733 298 Q783 352 831 388 Q783 424 733 478 L41 478 L41 582 L644 582 Q595 641 567 691 L656 742 Q717 642 812 545 Q907 448 1001 388 Q907 328 812 231 Q717 134 656 34 L567 85 Q597 138 644 195 L41 195 L41 298 Z" /><glyph glyph-name="cid00805" unicode="&#x21d4;" d="M322 742 L412 691 Q385 638 342 582 L682 582 Q639 638 612 691 L702 742 Q756 641 838 544.5 Q920 448 1001 388 Q920 328 838 231.5 Q756 135 702 34 L612 85 Q640 141 682 195 L342 195 Q384 141 412 85 L322 34 Q268 135 186 231.5 Q104 328 23 388 Q104 448 186 544.5 Q268 641 322 742 ZM760 478 L264 478 Q219 422 177 388 Q219 354 264 298 L760 298 Q805 354 847 388 Q805 422 760 478 Z" /><glyph glyph-name="cid00811" unicode="&#x2200;" d="M819 791 L911 742 L514 -16 L510 -16 L113 742 L205 791 L329 553 L695 553 L819 791 ZM383 449 L510 204 L514 204 L641 449 L383 449 Z" /><glyph glyph-name="partialdiff" unicode="&#x2202;" d="M702 488 Q702 579 659.5 630 Q617 681 543 681 Q453 681 381 605 L307 693 Q422 787 559 787 Q675 787 752.5 707 Q830 627 830 484 Q830 421 817 355 Q804 289 774 222.5 Q744 156 702 104.5 Q660 53 595.5 21 Q531 -11 454 -11 Q333 -11 266.5 56.5 Q200 124 200 232 Q200 351 282 428.5 Q364 506 471 506 Q610 506 690 393 L692 393 Q702 442 702 488 ZM324 240 Q324 177 361 139.5 Q398 102 456 102 Q592 102 648 266 Q629 332 583.5 367 Q538 402 482 402 Q419 402 371.5 357.5 Q324 313 324 240 Z" /><glyph glyph-name="cid00813" unicode="&#x2203;" d="M194 765 L827 765 L827 11 L194 11 L194 115 L723 115 L723 337 L194 337 L194 441 L723 441 L723 662 L194 662 L194 765 Z" /><glyph glyph-name="cid00816" unicode="&#x2207;" d="M419 -13 L143 653 L143 744 L881 744 L881 653 L605 -13 L419 -13 ZM596 336 L709 617 L311 617 L421 336 L506 105 L511 105 L596 336 Z" /><glyph glyph-name="cid00817" unicode="&#x2208;" d="M892 613 L465 613 Q380 613 316.5 564.5 Q253 516 236 440 L892 440 L892 336 L236 336 Q253 260 316.5 211.5 Q380 163 465 163 L892 163 L892 59 L465 59 Q321 59 222.5 153.5 Q124 248 124 388 Q124 528 222.5 622.5 Q321 717 465 717 L892 717 L892 613 Z" /><glyph glyph-name="cid00820" unicode="&#x220b;" d="M559 613 L132 613 L132 717 L559 717 Q703 717 801.5 622.5 Q900 528 900 388 Q900 248 801.5 153.5 Q703 59 559 59 L132 59 L132 163 L559 163 Q644 163 707.5 211.5 Q771 260 788 336 L132 336 L132 440 L788 440 Q771 516 707.5 564.5 Q644 613 559 613 Z" /><glyph glyph-name="summation" unicode="&#x2211;" d="M400 127 L400 123 L820 123 L820 0 L204 0 L204 83 L458 376 L216 662 L216 752 L790 752 L790 630 L416 630 L416 627 L621 381 L400 127 Z" /><glyph glyph-name="radical" unicode="&#x221a;" d="M566 901 L1024 901 L1024 853 L601 853 L271 -94 L239 -94 L127 190 L57 93 L29 115 L177 323 L276 69 L566 901 Z" /><glyph glyph-name="cid00825" unicode="&#x221d;" d="M581 388 Q673 278 782 278 Q814 278 840 287 L879 190 Q835 174 780 174 Q633 174 512 308 Q392 174 244 174 Q160 174 94.5 231 Q29 288 29 388 Q29 488 95 545.5 Q161 603 244 603 Q391 603 512 468 Q634 603 780 603 Q833 603 879 586 L840 489 Q812 499 782 499 Q674 499 581 388 ZM164.5 468.5 Q133 438 133 388 Q133 338 164.5 308 Q196 278 242 278 Q350 278 444 388 Q349 499 242 499 Q196 499 164.5 468.5 Z" /><glyph glyph-name="infinity" unicode="&#x221e;" d="M512 468 Q634 603 780 603 Q863 603 928.5 545.5 Q994 488 994 388 Q994 288 928.5 231 Q863 174 780 174 Q633 174 512 308 Q392 174 244 174 Q160 174 94.5 231 Q29 288 29 388 Q29 488 95 545.5 Q161 603 244 603 Q391 603 512 468 ZM164.5 468.5 Q133 438 133 388 Q133 338 164.5 308 Q196 278 242 278 Q350 278 444 388 Q349 499 242 499 Q196 499 164.5 468.5 ZM581 388 Q673 278 782 278 Q828 278 859.5 308 Q891 338 891 388 Q891 438 859.5 468.5 Q828 499 782 499 Q674 499 581 388 Z" /><glyph glyph-name="cid00827" unicode="&#x221f;" d="M268 115 L892 115 L892 11 L164 11 L164 768 L268 768 L268 115 Z" /><glyph glyph-name="cid00828" unicode="&#x2220;" d="M344 136 L344 133 L908 133 L908 30 L98 30 L98 34 L770 709 L844 635 L344 136 Z" /><glyph glyph-name="cid00830" unicode="&#x2225;" d="M195 140 L521 792 L613 744 L289 94 L195 140 ZM503 -13 L411 34 L735 683 L829 637 L503 -13 Z" /><glyph glyph-name="cid00832" unicode="&#x2227;" d="M113 39 L510 797 L514 797 L911 39 L819 -10 L514 577 L510 577 L205 -10 L113 39 Z" /><glyph glyph-name="cid00833" unicode="&#x2228;" d="M911 737 L514 -20 L510 -20 L113 737 L205 786 L510 200 L514 200 L819 786 L911 737 Z" /><glyph glyph-name="cid00834" unicode="&#x2229;" d="M183 8 L183 435 Q183 579 277.5 677.5 Q372 776 512 776 Q652 776 746.5 677.5 Q841 579 841 435 L841 8 L737 8 L737 435 Q737 536 672.5 604.5 Q608 673 512 673 Q416 673 351.5 604.5 Q287 536 287 435 L287 8 L183 8 Z" /><glyph glyph-name="cid00835" unicode="&#x222a;" d="M841 768 L841 341 Q841 197 746.5 98.5 Q652 0 512 0 Q372 0 277.5 98.5 Q183 197 183 341 L183 768 L287 768 L287 341 Q287 240 351.5 172 Q416 104 512 104 Q608 104 672.5 172 Q737 240 737 341 L737 768 L841 768 Z" /><glyph glyph-name="integral" unicode="&#x222b;" d="M449 193 L449 609 Q449 872 646 872 Q677 872 712 865 L700 748 Q680 752 658 752 Q614 752 594.5 716.5 Q575 681 575 586 L575 169 Q575 -94 378 -94 Q347 -94 312 -87 L324 31 Q344 27 366 27 Q410 27 429.5 62.5 Q449 98 449 193 Z" /><glyph glyph-name="cid00837" unicode="&#x222c;" d="M246 193 L246 609 Q246 872 443 872 Q474 872 509 865 L498 748 Q478 752 456 752 Q413 752 393.5 717 Q374 682 374 586 L374 169 Q374 -94 175 -94 Q145 -94 110 -87 L121 31 Q141 27 164 27 Q207 27 226.5 62.5 Q246 98 246 193 ZM650 193 L650 609 Q650 872 849 872 Q879 872 914 865 L903 748 Q883 752 860 752 Q817 752 797.5 716.5 Q778 681 778 586 L778 169 Q778 -94 581 -94 Q550 -94 515 -87 L526 31 Q546 27 568 27 Q611 27 630.5 62 Q650 97 650 193 Z" /><glyph glyph-name="cid00839" unicode="&#x222e;" d="M449 180 L449 212 Q393 231 358 279.5 Q323 328 323 389 Q323 450 358 498.5 Q393 547 449 566 L449 609 Q449 872 646 872 Q677 872 712 865 L700 748 Q680 752 658 752 Q616 752 596 719.5 Q576 687 575 598 L575 566 Q631 547 666 498.5 Q701 450 701 389 Q701 328 666 279.5 Q631 231 575 212 L575 169 Q575 -94 378 -94 Q347 -94 312 -87 L324 31 Q344 27 366 27 Q409 27 428.5 59.5 Q448 92 449 180 ZM449 271 L449 507 Q416 490 396 458.5 Q376 427 376 389 Q376 351 396 319.5 Q416 288 449 271 ZM575 507 L575 271 Q608 288 628 319.5 Q648 351 648 389 Q648 427 628 458.5 Q608 490 575 507 Z" /><glyph glyph-name="cid00840" unicode="&#x2234;" d="M423 618 Q423 655 449 681.5 Q475 708 512 708 Q549 708 575 681.5 Q601 655 601 618 Q601 582 575 555.5 Q549 529 512 529 Q475 529 449 555.5 Q423 582 423 618 ZM173 158 Q173 194 199 220.5 Q225 247 262 247 Q298 247 324.5 220.5 Q351 194 351 158 Q351 121 324.5 95 Q298 69 262 69 Q225 69 199 95 Q173 121 173 158 ZM674 158 Q674 194 700 220.5 Q726 247 762 247 Q799 247 825 220.5 Q851 194 851 158 Q851 121 825 95 Q799 69 762 69 Q726 69 700 95 Q674 121 674 158 Z" /><glyph glyph-name="cid00841" unicode="&#x2235;" d="M173 618 Q173 655 199 681.5 Q225 708 262 708 Q298 708 324.5 681.5 Q351 655 351 618 Q351 582 324.5 555.5 Q298 529 262 529 Q225 529 199 555.5 Q173 582 173 618 ZM674 618 Q674 655 700 681.5 Q726 708 762 708 Q799 708 825 681.5 Q851 655 851 618 Q851 582 825 555.5 Q799 529 762 529 Q726 529 700 555.5 Q674 582 674 618 ZM423 158 Q423 194 449 220.5 Q475 247 512 247 Q549 247 575 220.5 Q601 194 601 158 Q601 121 575 95 Q549 69 512 69 Q475 69 449 95 Q423 121 423 158 Z" /><glyph glyph-name="cid00844" unicode="&#x223d;" d="M475 425 Q541 508 613 555.5 Q685 603 780 603 Q863 603 928.5 545.5 Q994 488 994 388 Q994 287 928.5 230.5 Q863 174 776 174 Q720 174 678 190 L717 287 Q742 278 778 278 Q828 278 859.5 307.5 Q891 337 891 388 Q891 438 859.5 468.5 Q828 499 782 499 Q732 499 687 476 Q642 453 613 424.5 Q584 396 548 350 Q483 268 411.5 221 Q340 174 244 174 Q160 174 94.5 231 Q29 288 29 388 Q29 489 95 546 Q161 603 248 603 Q300 603 346 586 L307 489 Q279 499 246 499 Q196 499 164.5 469 Q133 439 133 388 Q133 338 164.5 308 Q196 278 242 278 Q314 278 367.5 316.5 Q421 355 475 425 Z" /><glyph glyph-name="cid00849" unicode="&#x2252;" d="M242 689 Q242 726 268 752 Q294 778 331 778 Q367 778 393 752 Q419 726 419 689 Q419 653 393 627 Q367 601 331 601 Q294 601 268 627 Q242 653 242 689 ZM148 531 L876 531 L876 443 L148 443 L148 531 ZM148 333 L876 333 L876 245 L148 245 L148 333 ZM605 87 Q605 123 631 149 Q657 175 693 175 Q730 175 756 149 Q782 123 782 87 Q782 50 756 24 Q730 -2 693 -2 Q657 -2 631 24 Q605 50 605 87 Z" /><glyph glyph-name="notequal" unicode="&#x2260;" d="M876 454 L591 454 L543 322 L876 322 L876 217 L505 217 L437 29 L339 65 L395 217 L148 217 L148 322 L432 322 L480 454 L148 454 L148 557 L518 557 L587 748 L685 712 L629 557 L876 557 L876 454 Z" /><glyph glyph-name="cid00851" unicode="&#x2261;" d="M148 660 L876 660 L876 564 L148 564 L148 660 ZM148 436 L876 436 L876 340 L148 340 L148 436 ZM148 212 L876 212 L876 116 L148 116 L148 212 Z" /><glyph glyph-name="cid00855" unicode="&#x2266;" d="M873 872 L909 774 L399 582 L399 579 L909 385 L873 288 L103 579 L103 582 L873 872 ZM132 234 L892 234 L892 138 L132 138 L132 234 ZM132 43 L892 43 L892 -53 L132 -53 L132 43 Z" /><glyph glyph-name="cid00856" unicode="&#x2267;" d="M151 872 L921 582 L921 579 L151 288 L115 385 L625 579 L625 582 L115 774 L151 872 ZM132 234 L892 234 L892 138 L132 138 L132 234 ZM132 43 L892 43 L892 -53 L132 -53 L132 43 Z" /><glyph glyph-name="cid00857" unicode="&#x226a;" d="M601 787 L651 715 L184 390 L184 386 L651 61 L601 -11 L33 386 L33 390 L601 787 ZM940 787 L990 715 L524 390 L524 386 L990 61 L940 -11 L372 386 L372 390 L940 787 Z" /><glyph glyph-name="cid00858" unicode="&#x226b;" d="M84 787 L652 390 L652 386 L84 -11 L34 61 L500 386 L500 390 L34 715 L84 787 ZM423 787 L991 390 L991 386 L423 -11 L373 61 L840 386 L840 390 L373 715 L423 787 Z" /><glyph glyph-name="cid00865" unicode="&#x2282;" d="M892 59 L465 59 Q321 59 222.5 153.5 Q124 248 124 388 Q124 528 222.5 622.5 Q321 717 465 717 L892 717 L892 613 L465 613 Q364 613 296 548.5 Q228 484 228 388 Q228 292 296 227.5 Q364 163 465 163 L892 163 L892 59 Z" /><glyph glyph-name="cid00866" unicode="&#x2283;" d="M132 717 L559 717 Q703 717 801.5 622.5 Q900 528 900 388 Q900 248 801.5 153.5 Q703 59 559 59 L132 59 L132 163 L559 163 Q660 163 728.5 227.5 Q797 292 797 388 Q797 484 728.5 548.5 Q660 613 559 613 L132 613 L132 717 Z" /><glyph glyph-name="cid00869" unicode="&#x2286;" d="M892 683 L417 683 Q333 683 280.5 633 Q228 583 228 509 Q228 436 280.5 385.5 Q333 335 417 335 L892 335 L892 231 L416 231 Q290 231 207 312 Q124 393 124 509 Q124 626 207 706.5 Q290 787 416 787 L892 787 L892 683 ZM132 93 L892 93 L892 -11 L132 -11 L132 93 Z" /><glyph glyph-name="cid00870" unicode="&#x2287;" d="M132 335 L608 335 Q691 335 744 385.5 Q797 436 797 509 Q797 582 744 632.5 Q691 683 608 683 L132 683 L132 787 L608 787 Q734 787 817 706.5 Q900 626 900 509 Q900 393 817 312 Q734 231 608 231 L132 231 L132 335 ZM132 93 L892 93 L892 -11 L132 -11 L132 93 Z" /><glyph glyph-name="cid00879" unicode="&#x22a5;" d="M564 135 L927 135 L927 31 L97 31 L97 135 L460 135 L460 755 L564 755 L564 135 Z" /><glyph glyph-name="cid00880" unicode="&#x22bf;" d="M889 11 L82 11 L82 15 L885 817 L889 817 L889 11 ZM785 115 L785 571 L782 571 L329 118 L329 115 L785 115 Z" /><glyph glyph-name="cid00886" unicode="&#x2312;" d="M63 571 L20 670 Q219 871 512 871 Q805 871 1004 670 L961 571 Q762 756 512 756 Q262 756 63 571 Z" /><glyph glyph-name="cid00909" unicode="&#x2460;" d="M512 -94 Q381 -94 270 -29 Q159 36 94 147 Q29 258 29 389 Q29 520 94 631 Q159 742 270 807 Q381 872 512 872 Q643 872 754 807 Q865 742 930 631 Q995 520 995 389 Q995 257 929.5 146 Q864 35 753 -29.5 Q642 -94 512 -94 ZM197.5 74 Q328 -56 512 -56 Q696 -56 826.5 74 Q957 204 957 389 Q957 574 826.5 704.5 Q696 835 512 835 Q327 835 197 704 Q67 573 67 389 Q67 204 197.5 74 ZM470 125 L470 530 L358 530 L358 612 Q447 630 503 663 L601 663 L601 125 L470 125 Z" /><glyph glyph-name="cid00910" unicode="&#x2461;" d="M512 -94 Q381 -94 270 -29 Q159 36 94 147 Q29 258 29 389 Q29 520 94 631 Q159 742 270 807 Q381 872 512 872 Q643 872 754 807 Q865 742 930 631 Q995 520 995 389 Q995 257 929.5 146 Q864 35 753 -29.5 Q642 -94 512 -94 ZM197.5 74 Q328 -56 512 -56 Q696 -56 826.5 74 Q957 204 957 389 Q957 574 826.5 704.5 Q696 835 512 835 Q327 835 197 704 Q67 573 67 389 Q67 204 197.5 74 ZM325 125 L325 201 Q457 311 517 376.5 Q577 442 577 494 Q577 573 496 573 Q445 573 385 519 L313 589 Q398 675 511 675 Q598 675 650 628.5 Q702 582 702 506 Q702 443 650.5 375 Q599 307 511 229 Q561 234 613 234 L723 234 L723 125 L325 125 Z" /><glyph glyph-name="cid00911" unicode="&#x2462;" d="M512 -94 Q381 -94 270 -29 Q159 36 94 147 Q29 258 29 389 Q29 520 94 631 Q159 742 270 807 Q381 872 512 872 Q643 872 754 807 Q865 742 930 631 Q995 520 995 389 Q995 257 929.5 146 Q864 35 753 -29.5 Q642 -94 512 -94 ZM197.5 74 Q328 -56 512 -56 Q696 -56 826.5 74 Q957 204 957 389 Q957 574 826.5 704.5 Q696 835 512 835 Q327 835 197 704 Q67 573 67 389 Q67 204 197.5 74 ZM501 113 Q366 113 297 190 L357 272 Q419 215 499 215 Q538 215 563 233 Q588 251 588 281 Q588 318 553 336 Q518 354 426 354 L426 445 Q569 445 569 516 Q569 575 495 575 Q435 575 380 526 L315 605 Q396 675 498 675 Q591 675 645 635.5 Q699 596 699 524 Q699 446 600 407 L600 403 Q655 389 687.5 355 Q720 321 720 270 Q720 197 657.5 155 Q595 113 501 113 Z" /><glyph glyph-name="cid00912" unicode="&#x2463;" d="M391 348 L522 348 L522 432 Q522 480 526 552 L522 552 Q512 534 498 510 Q484 486 476 471 L391 348 ZM644 663 L644 348 L713 348 L713 252 L644 252 L644 125 L522 125 L522 252 L267 252 L267 342 L485 663 L644 663 ZM197.5 74 Q328 -56 512 -56 Q696 -56 826.5 74 Q957 204 957 389 Q957 574 826.5 704.5 Q696 835 512 835 Q327 835 197 704 Q67 573 67 389 Q67 204 197.5 74 ZM270 807 Q381 872 512 872 Q643 872 754 807 Q865 742 930 631 Q995 520 995 389 Q995 257 929.5 146 Q864 35 753 -29.5 Q642 -94 512 -94 Q381 -94 270 -29 Q159 36 94 147 Q29 258 29 389 Q29 520 94 631 Q159 742 270 807 Z" /><glyph glyph-name="cid00913" unicode="&#x2464;" d="M512 -94 Q381 -94 270 -29 Q159 36 94 147 Q29 258 29 389 Q29 520 94 631 Q159 742 270 807 Q381 872 512 872 Q643 872 754 807 Q865 742 930 631 Q995 520 995 389 Q995 257 929.5 146 Q864 35 753 -29.5 Q642 -94 512 -94 ZM197.5 74 Q328 -56 512 -56 Q696 -56 826.5 74 Q957 204 957 389 Q957 574 826.5 704.5 Q696 835 512 835 Q327 835 197 704 Q67 573 67 389 Q67 204 197.5 74 ZM508 114 Q384 114 304 189 L362 272 Q433 215 498 215 Q542 215 568 238 Q594 261 594 300 Q594 338 568 360.5 Q542 383 502 383 Q475 383 457 376 Q439 369 410 351 L351 389 L368 663 L697 663 L697 555 L475 555 L467 456 Q503 470 538 470 Q619 470 671.5 427 Q724 384 724 302 Q724 216 661.5 165 Q599 114 508 114 Z" /><glyph glyph-name="cid00914" unicode="&#x2465;" d="M514 210 Q546 210 568.5 232 Q591 254 591 291 Q591 329 568 350.5 Q545 372 507 372 Q455 372 413 319 Q430 210 514 210 ZM700 610 L632 532 Q590 570 537 570 Q417 570 409 404 Q434 431 470 447 Q506 463 541 463 Q616 463 663.5 420.5 Q711 378 711 296 Q711 212 654.5 162.5 Q598 113 513 113 Q417 113 353.5 180.5 Q290 248 290 383 Q290 526 359 600.5 Q428 675 530 675 Q629 675 700 610 ZM197.5 74 Q328 -56 512 -56 Q696 -56 826.5 74 Q957 204 957 389 Q957 574 826.5 704.5 Q696 835 512 835 Q327 835 197 704 Q67 573 67 389 Q67 204 197.5 74 ZM270 807 Q381 872 512 872 Q643 872 754 807 Q865 742 930 631 Q995 520 995 389 Q995 257 929.5 146 Q864 35 753 -29.5 Q642 -94 512 -94 Q381 -94 270 -29 Q159 36 94 147 Q29 258 29 389 Q29 520 94 631 Q159 742 270 807 Z" /><glyph glyph-name="cid00915" unicode="&#x2466;" d="M512 -94 Q381 -94 270 -29 Q159 36 94 147 Q29 258 29 389 Q29 520 94 631 Q159 742 270 807 Q381 872 512 872 Q643 872 754 807 Q865 742 930 631 Q995 520 995 389 Q995 257 929.5 146 Q864 35 753 -29.5 Q642 -94 512 -94 ZM197.5 74 Q328 -56 512 -56 Q696 -56 826.5 74 Q957 204 957 389 Q957 574 826.5 704.5 Q696 835 512 835 Q327 835 197 704 Q67 573 67 389 Q67 204 197.5 74 ZM550 125 L418 125 Q427 263 459.5 358 Q492 453 573 555 L318 555 L318 663 L715 663 L715 584 Q619 477 589 386 Q559 295 550 125 Z" /><glyph glyph-name="cid00916" unicode="&#x2467;" d="M512 -94 Q381 -94 270 -29 Q159 36 94 147 Q29 258 29 389 Q29 520 94 631 Q159 742 270 807 Q381 872 512 872 Q643 872 754 807 Q865 742 930 631 Q995 520 995 389 Q995 257 929.5 146 Q864 35 753 -29.5 Q642 -94 512 -94 ZM197.5 74 Q328 -56 512 -56 Q696 -56 826.5 74 Q957 204 957 389 Q957 574 826.5 704.5 Q696 835 512 835 Q327 835 197 704 Q67 573 67 389 Q67 204 197.5 74 ZM509 113 Q419 113 360.5 154 Q302 195 302 258 Q302 342 407 394 L407 397 Q325 450 325 525 Q325 593 377.5 634 Q430 675 510 675 Q594 675 644.5 635 Q695 595 695 531 Q695 459 617 410 L617 407 Q721 353 721 265 Q721 199 662 156 Q603 113 509 113 ZM545 438 Q587 474 587 518 Q587 549 565.5 568 Q544 587 508 587 Q477 587 457 571 Q437 555 437 525 Q437 471 545 438 ZM446.5 223.5 Q475 203 515 203 Q555 203 579 219.5 Q603 236 603 269 Q603 301 573 320 Q543 339 475 364 Q418 328 418 278 Q418 244 446.5 223.5 Z" /><glyph glyph-name="cid00917" unicode="&#x2468;" d="M515 416 Q569 416 609 470 Q592 579 510 579 Q478 579 456 557.5 Q434 536 434 496 Q434 456 456 436 Q478 416 515 416 ZM323 178 L391 256 Q435 216 489 216 Q542 216 575 256 Q608 296 612 383 Q562 327 488 327 Q410 327 361.5 369 Q313 411 313 494 Q313 577 369.5 626.5 Q426 676 509 676 Q605 676 669 609 Q733 542 733 407 Q733 264 664 188.5 Q595 113 494 113 Q392 113 323 178 ZM197.5 74 Q328 -56 512 -56 Q696 -56 826.5 74 Q957 204 957 389 Q957 574 826.5 704.5 Q696 835 512 835 Q327 835 197 704 Q67 573 67 389 Q67 204 197.5 74 ZM270 807 Q381 872 512 872 Q643 872 754 807 Q865 742 930 631 Q995 520 995 389 Q995 257 929.5 146 Q864 35 753 -29.5 Q642 -94 512 -94 Q381 -94 270 -29 Q159 36 94 147 Q29 258 29 389 Q29 520 94 631 Q159 742 270 807 Z" /><glyph glyph-name="cid00918" unicode="&#x2469;" d="M512 -94 Q381 -94 270 -29 Q159 36 94 147 Q29 258 29 389 Q29 520 94 631 Q159 742 270 807 Q381 872 512 872 Q643 872 754 807 Q865 742 930 631 Q995 520 995 389 Q995 257 929.5 146 Q864 35 753 -29.5 Q642 -94 512 -94 ZM197.5 74 Q328 -56 512 -56 Q696 -56 826.5 74 Q957 204 957 389 Q957 574 826.5 704.5 Q696 835 512 835 Q327 835 197 704 Q67 573 67 389 Q67 204 197.5 74 ZM278 125 L278 530 L187 530 L187 612 Q258 629 308 663 L398 663 L398 125 L278 125 ZM786.5 189.5 Q737 113 657 113 Q577 113 528 190 Q479 267 479 397 Q479 527 528 601.5 Q577 676 657 676 Q738 676 787 601.5 Q836 527 836 397 Q836 266 786.5 189.5 ZM657 217 Q716 217 716 397 Q716 573 657 573 Q600 573 600 397 Q600 217 657 217 Z" /><glyph glyph-name="cid00919" unicode="&#x246a;" d="M512 -94 Q381 -94 270 -29 Q159 36 94 147 Q29 258 29 389 Q29 520 94 631 Q159 742 270 807 Q381 872 512 872 Q643 872 754 807 Q865 742 930 631 Q995 520 995 389 Q995 257 929.5 146 Q864 35 753 -29.5 Q642 -94 512 -94 ZM197.5 74 Q328 -56 512 -56 Q696 -56 826.5 74 Q957 204 957 389 Q957 574 826.5 704.5 Q696 835 512 835 Q327 835 197 704 Q67 573 67 389 Q67 204 197.5 74 ZM319 125 L319 530 L229 530 L229 612 Q300 629 350 663 L440 663 L440 125 L319 125 ZM616 125 L616 530 L526 530 L526 612 Q598 629 646 663 L737 663 L737 125 L616 125 Z" /><glyph glyph-name="cid00920" unicode="&#x246b;" d="M512 -94 Q381 -94 270 -29 Q159 36 94 147 Q29 258 29 389 Q29 520 94 631 Q159 742 270 807 Q381 872 512 872 Q643 872 754 807 Q865 742 930 631 Q995 520 995 389 Q995 257 929.5 146 Q864 35 753 -29.5 Q642 -94 512 -94 ZM197.5 74 Q328 -56 512 -56 Q696 -56 826.5 74 Q957 204 957 389 Q957 574 826.5 704.5 Q696 835 512 835 Q327 835 197 704 Q67 573 67 389 Q67 204 197.5 74 ZM276 125 L276 530 L185 530 L185 612 Q255 628 306 663 L396 663 L396 125 L276 125 ZM488 125 L488 201 Q556 283 585.5 320.5 Q615 358 642.5 408 Q670 458 670 494 Q670 573 614 573 Q582 573 544 529 L479 599 Q545 675 635 675 Q702 675 743 628.5 Q784 582 784 506 Q784 463 761 410 Q738 357 713 320.5 Q688 284 646 229 Q686 234 726 234 L800 234 L800 125 L488 125 Z" /><glyph glyph-name="cid00921" unicode="&#x246c;" d="M512 -94 Q381 -94 270 -29 Q159 36 94 147 Q29 258 29 389 Q29 520 94 631 Q159 742 270 807 Q381 872 512 872 Q643 872 754 807 Q865 742 930 631 Q995 520 995 389 Q995 257 929.5 146 Q864 35 753 -29.5 Q642 -94 512 -94 ZM197.5 74 Q328 -56 512 -56 Q696 -56 826.5 74 Q957 204 957 389 Q957 574 826.5 704.5 Q696 835 512 835 Q327 835 197 704 Q67 573 67 389 Q67 204 197.5 74 ZM281 125 L281 530 L190 530 L190 612 Q262 629 310 663 L401 663 L401 125 L281 125 ZM631 113 Q525 113 473 179 L529 260 Q574 215 625 215 Q652 215 668.5 232.5 Q685 250 685 281 Q685 318 661 336 Q637 354 570 354 L570 445 Q670 445 670 516 Q670 544 656.5 559.5 Q643 575 620 575 Q583 575 546 538 L485 615 Q548 675 629 675 Q704 675 747.5 635.5 Q791 596 791 524 Q791 446 713 407 L713 403 Q756 389 781 355 Q806 321 806 270 Q806 198 755.5 155.5 Q705 113 631 113 Z" /><glyph glyph-name="cid00922" unicode="&#x246d;" d="M185 530 L185 612 Q255 628 306 663 L396 663 L396 125 L276 125 L276 530 L185 530 ZM574 348 L663 348 L663 432 Q663 452 665 497.5 Q667 543 667 552 L664 552 Q644 508 630 471 L574 348 ZM772 663 L772 348 L824 348 L824 252 L772 252 L772 125 L663 125 L663 252 L468 252 L468 342 L630 663 L772 663 ZM197.5 74 Q328 -56 512 -56 Q696 -56 826.5 74 Q957 204 957 389 Q957 574 826.5 704.5 Q696 835 512 835 Q327 835 197 704 Q67 573 67 389 Q67 204 197.5 74 ZM270 807 Q381 872 512 872 Q643 872 754 807 Q865 742 930 631 Q995 520 995 389 Q995 257 929.5 146 Q864 35 753 -29.5 Q642 -94 512 -94 Q381 -94 270 -29 Q159 36 94 147 Q29 258 29 389 Q29 520 94 631 Q159 742 270 807 Z" /><glyph glyph-name="cid00923" unicode="&#x246e;" d="M512 -94 Q381 -94 270 -29 Q159 36 94 147 Q29 258 29 389 Q29 520 94 631 Q159 742 270 807 Q381 872 512 872 Q643 872 754 807 Q865 742 930 631 Q995 520 995 389 Q995 257 929.5 146 Q864 35 753 -29.5 Q642 -94 512 -94 ZM197.5 74 Q328 -56 512 -56 Q696 -56 826.5 74 Q957 204 957 389 Q957 574 826.5 704.5 Q696 835 512 835 Q327 835 197 704 Q67 573 67 389 Q67 204 197.5 74 ZM276 125 L276 530 L185 530 L185 612 Q255 628 306 663 L396 663 L396 125 L276 125 ZM630 114 Q535 114 470 182 L523 265 Q573 215 621 215 Q652 215 670 237.5 Q688 260 688 300 Q688 338 671 360.5 Q654 383 626 383 Q592 383 560 351 L508 389 L519 663 L787 663 L787 555 L620 555 L615 456 Q640 470 665 470 Q727 470 767.5 427 Q808 384 808 302 Q808 216 756.5 165 Q705 114 630 114 Z" /><glyph glyph-name="cid00924" unicode="&#x246f;" d="M185 530 L185 612 Q255 628 306 663 L396 663 L396 125 L276 125 L276 530 L185 530 ZM656 210 Q678 210 693 232 Q708 254 708 291 Q708 329 692 350.5 Q676 372 651 372 Q615 372 589 316 Q602 210 656 210 ZM810 610 L746 531 Q719 570 675 570 Q591 570 586 404 Q626 463 683 463 Q742 463 779 421 Q816 379 816 296 Q816 212 770.5 162.5 Q725 113 655 113 Q579 113 528 180 Q477 247 477 383 Q477 526 532 600.5 Q587 675 669 675 Q751 675 810 610 ZM197.5 74 Q328 -56 512 -56 Q696 -56 826.5 74 Q957 204 957 389 Q957 574 826.5 704.5 Q696 835 512 835 Q327 835 197 704 Q67 573 67 389 Q67 204 197.5 74 ZM270 807 Q381 872 512 872 Q643 872 754 807 Q865 742 930 631 Q995 520 995 389 Q995 257 929.5 146 Q864 35 753 -29.5 Q642 -94 512 -94 Q381 -94 270 -29 Q159 36 94 147 Q29 258 29 389 Q29 520 94 631 Q159 742 270 807 Z" /><glyph glyph-name="cid00925" unicode="&#x2470;" d="M512 -94 Q381 -94 270 -29 Q159 36 94 147 Q29 258 29 389 Q29 520 94 631 Q159 742 270 807 Q381 872 512 872 Q643 872 754 807 Q865 742 930 631 Q995 520 995 389 Q995 257 929.5 146 Q864 35 753 -29.5 Q642 -94 512 -94 ZM197.5 74 Q328 -56 512 -56 Q696 -56 826.5 74 Q957 204 957 389 Q957 574 826.5 704.5 Q696 835 512 835 Q327 835 197 704 Q67 573 67 389 Q67 204 197.5 74 ZM281 125 L281 530 L190 530 L190 612 Q262 629 310 663 L401 663 L401 125 L281 125 ZM675 125 L555 125 Q561 265 586.5 359.5 Q612 454 676 555 L479 555 L479 663 L805 663 L805 584 Q728 479 705 389 Q682 299 675 125 Z" /><glyph glyph-name="cid00926" unicode="&#x2471;" d="M512 -94 Q381 -94 270 -29 Q159 36 94 147 Q29 258 29 389 Q29 520 94 631 Q159 742 270 807 Q381 872 512 872 Q643 872 754 807 Q865 742 930 631 Q995 520 995 389 Q995 257 929.5 146 Q864 35 753 -29.5 Q642 -94 512 -94 ZM197.5 74 Q328 -56 512 -56 Q696 -56 826.5 74 Q957 204 957 389 Q957 574 826.5 704.5 Q696 835 512 835 Q327 835 197 704 Q67 573 67 389 Q67 204 197.5 74 ZM278 125 L278 530 L187 530 L187 612 Q258 629 308 663 L398 663 L398 125 L278 125 ZM652 113 Q579 113 530.5 154 Q482 195 482 258 Q482 344 563 394 L563 397 Q498 450 498 525 Q498 594 541.5 634.5 Q585 675 653 675 Q721 675 763 635 Q805 595 805 531 Q805 456 743 410 L743 407 Q826 355 826 265 Q826 199 777.5 156 Q729 113 652 113 ZM679 438 Q706 477 706 518 Q706 549 691 568 Q676 587 651 587 Q629 587 615.5 571 Q602 555 602 525 Q602 469 679 438 ZM657 203 Q684 203 701 219.5 Q718 236 718 269 Q718 301 697 320.5 Q676 340 626 364 Q589 323 589 278 Q589 245 609 224 Q629 203 657 203 Z" /><glyph glyph-name="cid00927" unicode="&#x2472;" d="M185 530 L185 612 Q255 628 306 663 L396 663 L396 125 L276 125 L276 530 L185 530 ZM648 417 Q686 417 711 472 Q698 579 643 579 Q621 579 607 557 Q593 535 593 497 Q593 459 608 438 Q623 417 648 417 ZM490 177 L553 256 Q583 218 625 218 Q709 218 714 384 Q674 325 616 325 Q557 325 520 368 Q483 411 483 494 Q483 577 528.5 626 Q574 675 644 675 Q720 675 771 608.5 Q822 542 822 406 Q822 263 767.5 188 Q713 113 632 113 Q550 113 490 177 ZM197.5 74 Q328 -56 512 -56 Q696 -56 826.5 74 Q957 204 957 389 Q957 574 826.5 704.5 Q696 835 512 835 Q327 835 197 704 Q67 573 67 389 Q67 204 197.5 74 ZM270 807 Q381 872 512 872 Q643 872 754 807 Q865 742 930 631 Q995 520 995 389 Q995 257 929.5 146 Q864 35 753 -29.5 Q642 -94 512 -94 Q381 -94 270 -29 Q159 36 94 147 Q29 258 29 389 Q29 520 94 631 Q159 742 270 807 Z" /><glyph glyph-name="cid00928" unicode="&#x2473;" d="M512 -94 Q381 -94 270 -29 Q159 36 94 147 Q29 258 29 389 Q29 520 94 631 Q159 742 270 807 Q381 872 512 872 Q643 872 754 807 Q865 742 930 631 Q995 520 995 389 Q995 257 929.5 146 Q864 35 753 -29.5 Q642 -94 512 -94 ZM197.5 74 Q328 -56 512 -56 Q696 -56 826.5 74 Q957 204 957 389 Q957 574 826.5 704.5 Q696 835 512 835 Q327 835 197 704 Q67 573 67 389 Q67 204 197.5 74 ZM200 125 L200 201 Q267 283 296.5 320.5 Q326 358 353 408 Q380 458 380 494 Q380 573 325 573 Q293 573 255 529 L190 599 Q256 675 345 675 Q413 675 454 628.5 Q495 582 495 506 Q495 463 472 410 Q449 357 423.5 320 Q398 283 356 229 Q396 234 436 234 L510 234 L510 125 L200 125 ZM700 113 Q621 113 573 189.5 Q525 266 525 397 Q525 527 573 601.5 Q621 676 700 676 Q778 676 825.5 601 Q873 526 873 397 Q873 267 825 190 Q777 113 700 113 ZM647 397 Q647 217 700 217 Q753 217 753 397 Q753 573 700 573 Q647 573 647 397 Z" /><glyph glyph-name="cid01069" unicode="&#x2500;" d="M0 369 L0 410 L1024 410 L1024 369 L0 369 Z" /><glyph glyph-name="cid01070" unicode="&#x2501;" d="M0 328 L0 451 L1024 451 L1024 328 L0 328 Z" /><glyph glyph-name="cid01071" unicode="&#x2502;" d="M492 -123 L492 901 L532 901 L532 -123 L492 -123 Z" /><glyph glyph-name="cid01072" unicode="&#x2503;" d="M451 -123 L451 901 L573 901 L573 -123 L451 -123 Z" /><glyph glyph-name="cid01081" unicode="&#x250c;" d="M1024 369 L532 369 L532 -123 L492 -123 L492 410 L1024 410 L1024 369 Z" /><glyph glyph-name="cid01084" unicode="&#x250f;" d="M1024 328 L573 328 L573 -123 L451 -123 L451 451 L1024 451 L1024 328 Z" /><glyph glyph-name="cid01085" unicode="&#x2510;" d="M532 -123 L492 -123 L492 369 L0 369 L0 410 L532 410 L532 -123 Z" /><glyph glyph-name="cid01088" unicode="&#x2513;" d="M573 -123 L451 -123 L451 328 L0 328 L0 451 L573 451 L573 -123 Z" /><glyph glyph-name="cid01089" unicode="&#x2514;" d="M1024 369 L492 369 L492 901 L532 901 L532 410 L1024 410 L1024 369 Z" /><glyph glyph-name="cid01092" unicode="&#x2517;" d="M451 328 L451 901 L573 901 L573 451 L1024 451 L1024 328 L451 328 Z" /><glyph glyph-name="cid01093" unicode="&#x2518;" d="M532 369 L0 369 L0 410 L492 410 L492 901 L532 901 L532 369 Z" /><glyph glyph-name="cid01096" unicode="&#x251b;" d="M0 328 L0 451 L451 451 L451 901 L573 901 L573 328 L0 328 Z" /><glyph glyph-name="cid01097" unicode="&#x251c;" d="M1024 369 L532 369 L532 -123 L492 -123 L492 901 L532 901 L532 410 L1024 410 L1024 369 Z" /><glyph glyph-name="cid01098" unicode="&#x251d;" d="M1024 328 L532 328 L532 -123 L492 -123 L492 901 L532 901 L532 451 L1024 451 L1024 328 Z" /><glyph glyph-name="cid01101" unicode="&#x2520;" d="M1024 369 L573 369 L573 -123 L451 -123 L451 901 L573 901 L573 410 L1024 410 L1024 369 Z" /><glyph glyph-name="cid01104" unicode="&#x2523;" d="M1024 328 L573 328 L573 -123 L451 -123 L451 901 L573 901 L573 451 L1024 451 L1024 328 Z" /><glyph glyph-name="cid01105" unicode="&#x2524;" d="M532 -123 L492 -123 L492 369 L0 369 L0 410 L492 410 L492 901 L532 901 L532 -123 Z" /><glyph glyph-name="cid01106" unicode="&#x2525;" d="M532 -123 L492 -123 L492 328 L0 328 L0 451 L492 451 L492 901 L532 901 L532 -123 Z" /><glyph glyph-name="cid01109" unicode="&#x2528;" d="M573 -123 L451 -123 L451 369 L0 369 L0 410 L451 410 L451 901 L573 901 L573 -123 Z" /><glyph glyph-name="cid01112" unicode="&#x252b;" d="M573 -123 L451 -123 L451 328 L0 328 L0 451 L451 451 L451 901 L573 901 L573 -123 Z" /><glyph glyph-name="cid01113" unicode="&#x252c;" d="M1024 369 L532 369 L532 -123 L492 -123 L492 369 L0 369 L0 410 L1024 410 L1024 369 Z" /><glyph glyph-name="cid01116" unicode="&#x252f;" d="M1024 328 L532 328 L532 -123 L492 -123 L492 328 L0 328 L0 451 L1024 451 L1024 328 Z" /><glyph glyph-name="cid01117" unicode="&#x2530;" d="M1024 369 L573 369 L573 -123 L451 -123 L451 369 L0 369 L0 410 L1024 410 L1024 369 Z" /><glyph glyph-name="cid01120" unicode="&#x2533;" d="M1024 328 L573 328 L573 -123 L451 -123 L451 328 L0 328 L0 451 L1024 451 L1024 328 Z" /><glyph glyph-name="cid01121" unicode="&#x2534;" d="M1024 369 L0 369 L0 410 L492 410 L492 901 L532 901 L532 410 L1024 410 L1024 369 Z" /><glyph glyph-name="cid01124" unicode="&#x2537;" d="M1024 328 L0 328 L0 451 L492 451 L492 901 L532 901 L532 451 L1024 451 L1024 328 Z" /><glyph glyph-name="cid01125" unicode="&#x2538;" d="M1024 369 L0 369 L0 410 L451 410 L451 901 L573 901 L573 410 L1024 410 L1024 369 Z" /><glyph glyph-name="cid01128" unicode="&#x253b;" d="M1024 328 L0 328 L0 451 L451 451 L451 901 L573 901 L573 451 L1024 451 L1024 328 Z" /><glyph glyph-name="cid01129" unicode="&#x253c;" d="M1024 369 L532 369 L532 -123 L492 -123 L492 369 L0 369 L0 410 L492 410 L492 901 L532 901 L532 410 L1024 410 L1024 369 Z" /><glyph glyph-name="cid01132" unicode="&#x253f;" d="M1024 328 L532 328 L532 -123 L492 -123 L492 328 L0 328 L0 451 L492 451 L492 901 L532 901 L532 451 L1024 451 L1024 328 Z" /><glyph glyph-name="cid01135" unicode="&#x2542;" d="M1024 369 L573 369 L573 -123 L451 -123 L451 369 L0 369 L0 410 L451 410 L451 901 L573 901 L573 410 L1024 410 L1024 369 Z" /><glyph glyph-name="cid01144" unicode="&#x254b;" d="M1024 328 L573 328 L573 -123 L451 -123 L451 328 L0 328 L0 451 L451 451 L451 901 L573 901 L573 451 L1024 451 L1024 328 Z" /><glyph glyph-name="cid01229" unicode="&#x25a0;" d="M102 799 L922 799 L922 -20 L102 -20 L102 799 Z" /><glyph glyph-name="cid01230" unicode="&#x25a1;" d="M102 799 L922 799 L922 -20 L102 -20 L102 799 ZM147 754 L147 25 L877 25 L877 754 L147 754 Z" /><glyph glyph-name="cid01242" unicode="&#x25b2;" d="M512 846 L993 12 L31 12 L512 846 Z" /><glyph glyph-name="cid01243" unicode="&#x25b3;" d="M512 846 L993 12 L31 12 L512 846 ZM512 756 L109 57 L915 57 L512 756 Z" /><glyph glyph-name="cid01246" unicode="&#x25bc;" d="M31 766 L993 766 L512 -68 L31 766 Z" /><glyph glyph-name="cid01247" unicode="&#x25bd;" d="M31 766 L993 766 L512 -68 L31 766 ZM915 721 L109 721 L512 23 L915 721 Z" /><glyph glyph-name="cid01250" unicode="&#x25c6;" d="M512 889 L1012 389 L512 -111 L12 389 L512 889 Z" /><glyph glyph-name="cid01251" unicode="&#x25c7;" d="M512 889 L1012 389 L512 -111 L12 389 L512 889 ZM512 825 L77 389 L512 -47 L948 389 L512 825 Z" /><glyph glyph-name="cid01255" unicode="&#x25cb;" d="M838 63 Q703 -72 512 -72 Q321 -72 186 63 Q51 198 51 389 Q51 580 186 715 Q321 850 512 850 Q703 850 838 715 Q973 580 973 389 Q973 198 838 63 ZM218 683 Q96 561 96 389 Q96 217 218 95 Q340 -27 512 -27 Q684 -27 806 95 Q928 217 928 389 Q928 561 806 683 Q684 805 512 805 Q340 805 218 683 Z" /><glyph glyph-name="cid01257" unicode="&#x25ce;" d="M186 63 Q51 198 51 389 Q51 580 186 715 Q321 850 512 850 Q703 850 838 715 Q973 580 973 389 Q973 198 838 63 Q703 -72 512 -72 Q321 -72 186 63 ZM806 95 Q928 217 928 389 Q928 561 806 683 Q684 805 512 805 Q340 805 218 683 Q96 561 96 389 Q96 217 218 95 Q340 -27 512 -27 Q684 -27 806 95 ZM299 176 Q211 264 211 389 Q211 514 299 602 Q387 690 512 690 Q637 690 725 602 Q813 514 813 389 Q813 264 725 176 Q637 88 512 88 Q387 88 299 176 ZM698 203 Q775 280 775 389 Q775 498 698 575 Q621 652 512 652 Q403 652 326 575 Q249 498 249 389 Q249 280 326 203 Q403 126 512 126 Q621 126 698 203 Z" /><glyph glyph-name="cid01258" unicode="&#x25cf;" d="M838 63 Q703 -72 512 -72 Q321 -72 186 63 Q51 198 51 389 Q51 580 186 715 Q321 850 512 850 Q703 850 838 715 Q973 580 973 389 Q973 198 838 63 Z" /><glyph glyph-name="cid01268" unicode="&#x25ef;" d="M270 807 Q381 872 512 872 Q643 872 754 807 Q865 742 930 631 Q995 520 995 389 Q995 258 930 147 Q865 36 754 -29 Q643 -94 512 -94 Q381 -94 270 -29 Q159 36 94 147 Q29 258 29 389 Q29 520 94 631 Q159 742 270 807 ZM826.5 74 Q957 204 957 389 Q957 574 826.5 704.5 Q696 835 512 835 Q328 835 197.5 704.5 Q67 574 67 389 Q67 204 197.5 74 Q328 -56 512 -56 Q696 -56 826.5 74 Z" /><glyph glyph-name="cid01273" unicode="&#x2605;" d="M628 498 L985 498 L985 492 L696 282 L810 -63 L806 -66 L512 147 L218 -66 L214 -63 L328 282 L39 492 L39 498 L396 498 L509 841 L515 841 L628 498 Z" /><glyph glyph-name="cid01274" unicode="&#x2606;" d="M396 498 L507 841 L517 841 L628 498 L984 498 L987 487 L696 282 L812 -61 L805 -68 L512 147 L219 -68 L212 -61 L328 282 L37 487 L40 498 L396 498 ZM429 453 L268 453 L148 460 L148 458 L250 392 L381 299 L330 150 L283 31 L285 29 L386 112 L512 204 L638 112 L739 29 L741 31 L694 150 L643 299 L774 392 L876 458 L876 460 L756 453 L595 453 L543 610 L513 725 L511 725 L480 610 L429 453 Z" /><glyph glyph-name="cid01285" unicode="&#x2640;" d="M275 603 Q275 701 344.5 770.5 Q414 840 512 840 Q610 840 679.5 770.5 Q749 701 749 603 Q749 519 696.5 455 Q644 391 564 373 L564 289 L844 289 L844 184 L564 184 L564 -61 L460 -61 L460 184 L180 184 L180 289 L460 289 L460 373 Q380 391 327.5 455 Q275 519 275 603 ZM606.5 509 Q645 548 645 603 Q645 658 606 696.5 Q567 735 512 735 Q457 735 418 696.5 Q379 658 379 603 Q379 548 418 509 Q457 470 512 470 Q568 470 606.5 509 Z" /><glyph glyph-name="cid01287" unicode="&#x2642;" d="M588 228 Q588 130 518.5 61 Q449 -8 351 -8 Q253 -8 184 61 Q115 130 115 228 Q115 326 184 395.5 Q253 465 351 465 Q420 465 475 429 L719 673 L499 673 L499 776 L899 776 L899 376 L796 376 L796 603 L549 357 Q588 298 588 228 ZM218 228 Q218 172 257 133.5 Q296 95 351 95 Q406 95 445 134 Q484 173 484 228 Q484 283 445 322 Q406 361 351 361 Q296 361 257 322 Q218 283 218 228 Z" /><glyph glyph-name="cid01298" unicode="&#x266a;" d="M346 860 L371 860 Q371 739 490 635 Q622 520 622 404 Q622 294 536 155 L510 155 Q574 286 574 370 Q574 458 521 523 Q468 588 387 606 L387 92 Q387 15 331 -33.5 Q275 -82 199 -82 Q161 -82 132.5 -61.5 Q104 -41 104 -6 Q104 48 160.5 91.5 Q217 135 281 135 Q322 135 346 122 L346 860 Z" /><glyph glyph-name="cid01301" unicode="&#x266d;" d="M614 477 Q680 477 722.5 438.5 Q765 400 765 342 Q765 293 744.5 251 Q724 209 692 180 Q660 151 615.5 120 Q571 89 528.5 64 Q486 39 439.5 3 Q393 -33 361 -70 L352 -70 L352 849 L393 849 L393 335 Q429 400 487 438.5 Q545 477 614 477 ZM393 282 L393 2 Q419 32 467 77.5 Q515 123 544.5 152.5 Q574 182 598 228 Q622 274 622 322 Q622 408 550 408 Q513 408 471 375.5 Q429 343 393 282 Z" /><glyph glyph-name="cid01303" unicode="&#x266f;" d="M769 535 L630 514 L630 307 L769 328 L769 212 L630 190 L630 -42 L590 -42 L590 184 L428 161 L428 -73 L387 -73 L387 155 L248 134 L248 250 L387 270 L387 478 L248 457 L248 572 L387 594 L387 818 L428 818 L428 600 L590 624 L590 848 L630 848 L630 630 L769 651 L769 535 ZM590 301 L590 508 L428 484 L428 276 L590 301 Z" /><glyph glyph-name="cid01390" unicode="&#x3001;" d="M371 24 L261 -71 Q158 57 41 156 L147 248 Q199 206 264 140 Q329 74 371 24 Z" /><glyph glyph-name="cid01391" unicode="&#x3002;" d="M198 254 Q267 254 315.5 205 Q364 156 364 88 Q364 20 315.5 -29 Q267 -78 198 -78 Q130 -78 81.5 -29 Q33 20 33 88 Q33 156 81.5 205 Q130 254 198 254 ZM198 -3 Q236 -3 263 23.5 Q290 50 290 88 Q290 126 263 153 Q236 180 198 180 Q161 180 133.5 153 Q106 126 106 88 Q106 50 133.5 23.5 Q161 -3 198 -3 Z" /><glyph glyph-name="cid01392" unicode="&#x3003;" d="M226 634 L367 571 L134 116 L57 151 L226 634 ZM542 634 L684 571 L452 116 L374 151 L542 634 Z" /><glyph glyph-name="cid01394" unicode="&#x3005;" d="M797 627 L891 577 Q822 381 684 183 Q768 127 806 89 L721 -28 Q665 31 555 102.5 Q445 174 335 225 L411 328 Q497 290 570 251 Q653 367 710 500 L417 500 Q319 308 202 196 Q149 236 84 264 Q192 359 275 512 Q358 665 400 818 L537 787 Q509 702 473 622 L774 622 L797 627 Z" /><glyph glyph-name="cid01395" unicode="&#x3006;" d="M799 823 L918 748 Q825 643 673 444 Q800 353 899 271 L798 146 Q725 222 583 328 Q451 155 369 44 Q334 -4 276 -90 L154 -50 Q160 -4 160 16 Q158 162 137 284 L262 302 Q265 270 268 214 Q271 158 272 144 Q299 180 475 408 Q353 497 255 547 L349 658 Q478 579 563 521 Q612 585 693 688 Q774 791 799 823 Z" /><glyph glyph-name="cid01396" unicode="&#x3007;" d="M179.5 56.5 Q42 194 42 389 Q42 584 179.5 721.5 Q317 859 512 859 Q707 859 844.5 721.5 Q982 584 982 389 Q982 194 844.5 56.5 Q707 -81 512 -81 Q317 -81 179.5 56.5 ZM755 146 Q856 247 856 389 Q856 531 755 632 Q654 733 512 733 Q370 733 269 632 Q168 531 168 389 Q168 247 269 146 Q370 45 512 45 Q654 45 755 146 Z" /><glyph glyph-name="uni3008" unicode="&#x3008;" d="M189 389 L457 -50 L355 -94 L61 389 L355 872 L457 828 L189 389 Z" /><glyph glyph-name="uni3009" unicode="&#x3009;" d="M157 -94 L55 -50 L323 389 L55 828 L157 872 L451 389 L157 -94 Z" /><glyph glyph-name="cid01399" unicode="&#x300a;" d="M124 389 L317 -68 L232 -94 L28 389 L232 872 L317 846 L124 389 ZM300 389 L494 -68 L408 -94 L206 389 L408 872 L494 846 L300 389 Z" /><glyph glyph-name="cid01400" unicode="&#x300b;" d="M290 -94 L205 -68 L398 389 L205 846 L290 872 L494 389 L290 -94 ZM114 -94 L28 -68 L222 389 L28 846 L114 872 L316 389 L114 -94 Z" /><glyph glyph-name="cid01401" unicode="&#x300c;" d="M144 218 L144 872 L483 872 L483 762 L265 762 L265 218 L144 218 Z" /><glyph glyph-name="cid01402" unicode="&#x300d;" d="M369 560 L369 -94 L29 -94 L29 16 L247 16 L247 560 L369 560 Z" /><glyph glyph-name="cid01403" unicode="&#x300e;" d="M483 690 L299 690 L299 196 L102 196 L102 872 L483 872 L483 690 ZM438 827 L147 827 L147 241 L255 241 L255 735 L438 735 L438 827 Z" /><glyph glyph-name="cid01404" unicode="&#x300f;" d="M29 88 L213 88 L213 583 L410 583 L410 -94 L29 -94 L29 88 ZM74 -49 L365 -49 L365 538 L257 538 L257 43 L74 43 L74 -49 Z" /><glyph glyph-name="cid01405" unicode="&#x3010;" d="M164 872 L483 872 L483 867 Q394 791 337.5 665 Q281 539 281 389 Q281 239 337.5 113 Q394 -13 483 -89 L483 -94 L164 -94 L164 872 Z" /><glyph glyph-name="cid01406" unicode="&#x3011;" d="M348 872 L348 -94 L29 -94 L29 -89 Q118 -13 174.5 113 Q231 239 231 389 Q231 539 174.5 665 Q118 791 29 867 L29 872 L348 872 Z" /><glyph glyph-name="cid01407" unicode="&#x3012;" d="M169 743 L855 743 L855 635 L169 635 L169 743 ZM169 515 L855 515 L855 407 L570 407 L570 10 L454 10 L454 407 L169 407 L169 515 Z" /><glyph glyph-name="cid01408" unicode="&#x3013;" d="M922 799 L922 492 L102 492 L102 799 L922 799 ZM922 287 L922 -20 L102 -20 L102 287 L922 287 Z" /><glyph glyph-name="cid01409" unicode="&#x3014;" d="M437 -106 L198 47 L198 731 L437 885 L486 804 L310 691 L310 87 L486 -26 L437 -106 Z" /><glyph glyph-name="cid01410" unicode="&#x3015;" d="M314 47 L75 -106 L26 -26 L202 87 L202 691 L26 804 L75 885 L314 731 L314 47 Z" /><glyph glyph-name="cid01418" unicode="&#x301d;" d="M225 878 L461 703 L428 635 L169 770 L225 878 ZM225 672 L461 498 L428 429 L169 564 L225 672 Z" /><glyph glyph-name="cid01420" unicode="&#x301f;" d="M287 -99 L51 75 L84 143 L343 8 L287 -99 ZM287 106 L51 281 L84 349 L343 214 L287 106 Z" /><glyph glyph-name="cid01453" unicode="&#x3041;" d="M375 204 Q438 268 475 354 Q421 353 367 337 Q367 268 375 204 ZM201 100 Q234 100 279 125 Q265 202 262 288 Q219 257 191 216 Q163 175 163 138 Q163 100 201 100 ZM513 493 L618 467 Q616 464 605 429 Q682 404 726 347.5 Q770 291 770 217 Q770 122 702.5 48.5 Q635 -25 490 -50 L429 46 Q544 59 599.5 108.5 Q655 158 655 227 Q655 264 634 293.5 Q613 323 573 339 Q510 178 399 88 Q405 65 417 25 L312 -6 Q304 20 302 26 Q235 -6 180 -6 Q125 -6 91.5 23.5 Q58 53 58 118 Q58 201 116.5 276.5 Q175 352 263 395 Q264 434 270 497 L245 497 Q186 497 97 504 L94 607 Q181 595 245 595 L280 595 L285 641 Q289 669 287 692 L411 690 Q409 683 399 642 Q398 635 391 598 Q543 606 673 635 L674 530 Q548 509 377 501 Q376 493 374.5 479.5 Q373 466 372 454.5 Q371 443 371 433 Q433 446 490 446 L504 446 Q511 478 513 493 Z" /><glyph glyph-name="cid01454" unicode="&#x3042;" d="M419 403 L419 401 Q419 312 430 233 Q512 315 558 426 Q490 425 419 403 ZM178 164 Q178 115 225 115 Q272 115 327 147 Q308 258 305 350 Q249 312 213.5 259.5 Q178 207 178 164 ZM601 590 L726 561 Q718 542 707 509 Q797 479 850 413.5 Q903 348 903 260 Q903 142 823 54.5 Q743 -33 569 -59 L502 47 Q640 63 708.5 124 Q777 185 777 266 Q777 313 750.5 351 Q724 389 673 409 Q592 210 459 101 Q463 85 482 26 L365 -9 Q356 18 352 32 Q272 -9 195 -9 Q135 -9 96.5 28.5 Q58 66 58 139 Q58 234 129 327.5 Q200 421 307 472 Q313 558 317 599 L285 599 Q246 599 105 605 L101 723 Q195 710 289 710 L328 710 L334 764 Q338 802 337 824 L470 821 Q463 800 456 767 Q449 740 445 713 Q636 719 789 756 L790 639 Q643 612 430 602 Q424 542 423 511 Q502 529 574 529 L592 529 Q599 565 601 590 Z" /><glyph glyph-name="cid01455" unicode="&#x3043;" d="M57 594 L196 593 Q187 545 187 493 Q187 340 194 282 Q203 201 225 153 Q247 105 276 105 Q302 105 325.5 158.5 Q349 212 362 276 L458 167 Q418 58 376 9.5 Q334 -39 274 -39 Q203 -39 149 30.5 Q95 100 76 259 Q64 360 64 508 Q64 566 57 594 ZM498 535 L615 573 Q679 497 723 365.5 Q767 234 775 133 L650 85 Q638 206 601 334.5 Q564 463 498 535 Z" /><glyph glyph-name="cid01456" unicode="&#x3044;" d="M58 731 L213 729 Q201 667 201 606 Q199 486 207 391 Q231 145 316 145 Q348 145 376.5 206 Q405 267 423 344 L526 221 Q476 92 426 37.5 Q376 -17 313 -17 Q223 -17 160 72.5 Q97 162 76 355 Q65 469 65 629 Q65 695 58 731 ZM591 665 L720 708 Q789 623 843 467 Q897 311 906 189 L771 138 Q758 283 712.5 431 Q667 579 591 665 Z" /><glyph glyph-name="cid01457" unicode="&#x3045;" d="M514 260 Q514 304 482.5 331.5 Q451 359 393 359 Q305 359 171 316 Q131 304 94 287 L59 417 Q97 418 143 428 Q148 429 182 436.5 Q216 444 236 447.5 Q256 451 289 457 Q322 463 351 465.5 Q380 468 406 468 Q513 468 577 412.5 Q641 357 641 259 Q641 130 535.5 43.5 Q430 -43 234 -73 L170 42 Q514 83 514 260 ZM166 562 L183 671 Q361 638 570 632 L552 520 Q478 524 355.5 537 Q233 550 166 562 Z" /><glyph glyph-name="cid01458" unicode="&#x3046;" d="M605 337 Q605 390 566.5 424.5 Q528 459 459 458 Q432 458 403 455 Q374 452 353.5 449 Q333 446 303.5 439 Q274 432 263 429 Q252 426 224 417.5 Q196 409 195 409 Q178 404 143 391 Q108 378 96 374 L59 518 Q102 522 169 536 Q177 538 216.5 546.5 Q256 555 277.5 559.5 Q299 564 336 570 Q373 576 407 579 Q441 582 475 582 Q598 582 673.5 515.5 Q749 449 749 332 Q749 174 617 72.5 Q485 -29 266 -59 L193 68 Q605 115 605 337 ZM188 701 L208 824 Q292 805 434.5 791.5 Q577 778 664 778 L643 653 Q356 672 188 701 Z" /><glyph glyph-name="cid01459" unicode="&#x3047;" d="M224 561 L241 669 Q351 643 595 625 L578 516 Q372 534 224 561 ZM558 471 L622 398 L570 359 Q472 275 435 232 Q454 230 470 221 Q501 211 516 161 Q519 150 527 124.5 Q535 99 538 88 Q550 55 596 55 Q677 55 757 73 L749 -48 Q689 -59 578 -59 Q516 -59 484.5 -41.5 Q453 -24 440 11 Q434 25 426.5 54 Q419 83 416 91 Q402 138 370 138 Q352 138 315 101 Q250 34 171 -68 L60 9 Q69 16 108 51 Q346 281 402 345 Q390 344 348.5 341 Q307 338 270.5 335.5 Q234 333 214 331 Q191 329 135 319 L125 446 Q160 442 207 444 Q471 456 512 461 Q542 466 558 471 Z" /><glyph glyph-name="cid01460" unicode="&#x3048;" d="M256 710 L276 827 Q463 791 689 778 L673 658 Q462 676 256 710 ZM650 590 L725 505 Q722 503 659 454 Q539 349 494 301 Q516 301 532 293 Q573 281 594 224 Q598 213 607.5 179.5 Q617 146 622 132 Q635 85 693 85 Q805 85 892 102 L884 -31 Q810 -45 685 -45 Q611 -45 570.5 -26 Q530 -7 512 42 Q502 68 482 144 Q465 194 428 194 Q402 194 363 153 Q273 63 181 -54 L60 30 Q100 62 131 92 Q144 105 219 180.5 Q294 256 368 331.5 Q442 407 483 450 Q426 448 233 431 Q191 427 145 419 L133 559 Q169 556 230 556 Q274 556 405 563.5 Q536 571 593 578 Q628 582 650 590 Z" /><glyph glyph-name="cid01461" unicode="&#x3049;" d="M228 54 Q253 54 253 88 Q253 124 250 188 Q170 142 170 100 Q170 84 190 69 Q210 54 228 54 ZM513 563 L514 450 Q428 431 359 422 Q358 391 358 334 Q440 353 513 353 Q617 353 683.5 300.5 Q750 248 750 161 Q750 82 699.5 25 Q649 -32 541 -53 Q526 -56 446 -63 L407 55 Q469 55 504 61 Q558 69 593 95.5 Q628 122 628 163 Q628 205 596.5 228.5 Q565 252 510 252 Q432 252 359 231 Q363 91 363 62 Q363 -67 266 -67 Q199 -67 128.5 -18.5 Q58 30 58 94 Q58 151 112 205.5 Q166 260 248 297 L248 329 L248 411 Q233 410 202 410 Q147 410 81 416 L80 534 Q157 524 202 524 Q233 524 249 525 L249 575 Q249 622 244 652 L372 652 Q366 613 364 575 L362 535 Q454 547 513 563 ZM557 493 L612 589 Q748 521 821 468 L760 369 Q734 392 668.5 431 Q603 470 557 493 Z" /><glyph glyph-name="cid01462" unicode="&#x304a;" d="M258 91 Q290 91 290 135 Q290 180 287 260 Q240 236 212 207 Q184 178 184 151 Q184 129 210 110 Q236 91 258 91 ZM402 456 L402 420 Q508 446 597 446 Q717 446 796 386 Q875 326 875 224 Q875 29 652 -26 Q595 -38 519 -42 L472 88 Q555 88 597 95 Q663 106 703.5 139 Q744 172 744 225 Q744 276 703 305 Q662 334 595 334 Q506 334 404 306 Q405 276 406 231 Q407 186 408 157 Q409 128 409 113 Q409 24 380.5 -11 Q352 -46 298 -46 Q217 -46 137.5 12 Q58 70 58 146 Q58 210 122.5 274.5 Q187 339 285 381 Q284 405 284 452 L284 537 Q246 535 230 535 Q144 535 89 540 L87 663 Q163 654 227 654 Q245 654 285 656 Q286 692 286 739 Q286 786 279 828 L418 828 Q414 792 410 740 Q408 694 407 668 Q507 681 594 706 L597 579 Q516 560 403 547 Q402 516 402 456 ZM652 620 L708 719 Q867 642 957 577 L896 472 Q863 501 785.5 546.5 Q708 592 652 620 Z" /><glyph glyph-name="cid01463" unicode="&#x304b;" d="M320 821 L470 806 Q456 744 452 722 Q449 705 441.5 668 Q434 631 431 617 L516 622 Q699 622 699 428 Q699 175 642 58 Q618 7 577 -14 Q536 -35 475 -35 Q418 -35 354 -20 L332 114 Q410 92 456 92 Q513 92 532 136 Q574 217 574 414 Q574 471 551 488.5 Q528 506 474 506 Q463 506 405 502 Q315 147 199 -40 L66 13 Q186 174 270 487 Q211 480 183 476 Q136 471 71 461 L59 598 Q86 596 167 598 Q215 600 298 606 Q321 736 320 821 ZM697 659 L820 711 Q863 650 917 531.5 Q971 413 997 334 L869 273 Q847 366 797.5 481 Q748 596 697 659 Z" /><glyph glyph-name="cid01464" unicode="&#x304c;" d="M1008 748 L927 712 Q877 810 844 853 L925 887 Q976 816 1008 748 ZM319 814 L470 799 Q464 771 453 715 Q450 701 442.5 665.5 Q435 630 431 610 Q499 614 516 614 Q699 614 699 421 Q699 168 642 51 Q618 0 577.5 -21 Q537 -42 475 -42 Q414 -42 354 -28 L332 106 Q406 85 457 85 Q511 85 532 129 Q573 211 573 407 Q573 464 550 481.5 Q527 499 475 499 Q463 499 405 495 Q311 134 199 -47 L66 6 Q190 175 270 480 Q212 474 183 469 Q136 464 71 454 L59 591 Q86 589 167 591 Q215 593 298 599 Q320 724 319 814 ZM886 700 L833 678 Q875 612 924.5 504.5 Q974 397 998 325 L869 264 Q847 357 798 470 Q749 583 698 646 L792 686 Q747 775 723 807 L804 841 Q838 792 886 700 Z" /><glyph glyph-name="cid01465" unicode="&#x304d;" d="M96 288 L222 276 Q197 216 197 178 Q197 72 374 72 Q529 72 642 94 L638 -36 Q520 -55 377 -55 Q231 -55 151 -4 Q71 47 71 150 Q71 202 96 288 ZM765 582 L790 467 Q731 446 633 426 Q695 298 717 257 L657 180 Q526 203 436 214 L447 311 Q471 308 510 304 Q549 300 554 300 L508 406 Q294 382 63 399 L58 516 Q283 495 462 514 L445 554 L420 611 Q252 597 71 615 L65 731 Q241 713 372 720 L372 721 Q357 753 323 808 L467 836 Q475 800 499 734 Q602 750 694 781 L715 668 Q615 639 541 627 L560 583 L584 531 Q678 549 765 582 Z" /><glyph glyph-name="cid01466" unicode="&#x304e;" d="M97 279 L222 267 Q198 205 198 169 Q198 62 374 62 Q525 62 642 85 L638 -45 Q514 -65 378 -65 Q232 -65 151.5 -14 Q71 37 71 140 Q71 197 97 279 ZM766 572 L790 458 Q731 437 633 417 Q695 289 717 248 L657 171 Q523 195 436 205 L447 301 Q467 299 504 295.5 Q541 292 555 291 Q517 376 509 396 Q300 373 63 390 L58 507 Q284 486 462 505 L446 544 Q442 552 420 602 Q252 588 72 606 L65 722 Q240 704 372 711 L372 712 Q350 756 323 799 L468 826 Q475 793 500 725 Q582 738 657 763 L678 649 Q609 628 542 617 L562 573 L584 522 Q681 541 766 572 ZM657 805 L733 837 Q777 773 813 698 L737 664 Q694 753 657 805 ZM770 849 L845 883 Q890 822 931 748 L854 711 Q813 792 770 849 Z" /><glyph glyph-name="cid01467" unicode="&#x304f;" d="M504 841 L623 735 Q606 722 575 698.5 Q544 675 533 667 Q278 462 266 452 Q226 417 226.5 399.5 Q227 382 268 347 Q290 328 369.5 263 Q449 198 522.5 136 Q596 74 640 31 L522 -78 Q505 -60 474 -27.5 Q443 5 433 16 Q371 81 130 286 Q56 351 59 399 Q62 447 139 511 Q372 702 426 756 Q486 814 504 841 Z" /><glyph glyph-name="cid01468" unicode="&#x3050;" d="M477 559 L559 592 Q588 552 645 440 L561 404 Q557 411 537.5 449.5 Q518 488 504 514.5 Q490 541 477 559 ZM599 606 L683 641 Q710 603 770 489 L687 455 Q615 584 599 606 ZM502 841 L622 735 Q605 723 574.5 699.5 Q544 676 532 667 Q294 476 266 452 Q226 417 226 399.5 Q226 382 267 347 Q285 332 368 264 Q451 196 522.5 135 Q594 74 639 31 L521 -78 Q509 -64 494 -48 Q479 -32 461 -13 Q443 6 433 16 Q378 73 130 286 Q79 329 65 364 Q51 399 68.5 433.5 Q86 468 138 511 Q357 689 425 756 Q485 814 502 841 Z" /><glyph glyph-name="cid01469" unicode="&#x3051;" d="M97 809 L248 794 Q227 728 224 712 Q158 412 190 261 Q195 272 212 314.5 Q229 357 238 378 L302 338 Q258 209 233 90 Q226 64 226 41 L229 -1 L116 -12 Q95 47 76 139 Q57 231 57 316 Q57 507 91 721 Q97 756 97 809 ZM899 631 L898 499 Q824 490 748 486 L748 444 Q748 363 744.5 309.5 Q741 256 728.5 197 Q716 138 692 95.5 Q668 53 627.5 10 Q587 -33 527 -71 L410 22 Q485 55 528 102 Q584 160 603.5 235 Q623 310 623 444 L623 481 Q547 479 509 479 Q477 479 352 484 L352 613 Q423 603 506 603 Q543 603 621 605 Q620 674 615 741 Q611 788 604 811 L753 811 Q750 796 748 742 Q746 696 746 612 Q830 618 899 631 Z" /><glyph glyph-name="cid01470" unicode="&#x3052;" d="M878 677 L808 653 Q780 743 754 799 L824 820 Q862 736 878 677 ZM97 779 L247 765 Q232 722 223 682 Q158 388 189 243 Q223 326 237 359 L301 319 Q257 189 232 72 Q226 42 226 23 Q226 9 228 -19 L115 -31 Q94 24 75.5 118 Q57 212 57 298 Q57 475 91 692 Q95 717 97 779 ZM592 782 L740 782 Q737 756 735 713 L735 584 Q842 593 898 603 L897 470 Q836 463 736 458 L736 426 Q736 345 732.5 291.5 Q729 238 716.5 179 Q704 120 680 77.5 Q656 35 615.5 -8 Q575 -51 515 -89 L398 3 Q473 36 517 84 Q573 143 592 217.5 Q611 292 611 427 L611 453 Q541 451 507 451 Q453 451 351 457 L351 586 Q437 574 505 574 Q520 574 537 574.5 Q554 575 575 576 Q596 577 609 577 Q607 663 604 713 Q600 753 592 782 ZM860 831 L929 853 Q967 773 986 711 L916 688 Q884 782 860 831 Z" /><glyph glyph-name="cid01471" unicode="&#x3053;" d="M124 607 L124 742 Q238 730 401 730 Q559 730 695 744 L695 608 Q525 596 402 596 Q276 596 124 607 ZM77 325 L210 312 Q193 242 193 210 Q193 159 244.5 128.5 Q296 98 401 98 Q613 98 757 138 L758 -4 Q618 -39 406 -39 Q234 -39 145.5 17 Q57 73 57 178 Q57 230 77 325 Z" /><glyph glyph-name="cid01472" unicode="&#x3054;" d="M77 314 L210 302 Q193 232 193 200 Q193 149 244 118.5 Q295 88 400 88 Q613 88 757 128 L758 -15 Q608 -49 405 -49 Q233 -49 145 7 Q57 63 57 168 Q57 216 77 314 ZM643 807 L724 840 Q767 778 806 699 L723 664 Q719 672 709 691 Q699 710 694 720 L694 598 Q524 586 401 586 Q275 586 125 597 L125 732 Q237 720 400 720 Q542 720 687 733 Q665 776 643 807 ZM764 853 L845 886 Q892 822 928 746 L847 712 Q799 806 764 853 Z" /><glyph glyph-name="cid01473" unicode="&#x3055;" d="M107 333 L238 322 Q210 245 210 201 Q210 141 250 109 Q290 77 391 77 Q457 77 512.5 82 Q568 87 590.5 91 Q613 95 668 106 L665 -28 Q531 -52 391 -52 Q238 -52 158 4 Q78 60 78 166 Q78 228 107 333 ZM768 731 L792 603 Q700 578 620 562 Q688 419 751 303 L679 226 Q562 250 449 263 L460 368 Q473 367 518 362 Q563 357 580 356 Q565 387 491 542 Q305 523 64 542 L59 672 Q267 646 438 662 Q429 680 417 710 Q393 764 367 807 L510 835 Q533 762 569 680 Q674 699 768 731 Z" /><glyph glyph-name="cid01474" unicode="&#x3056;" d="M106 325 L238 314 Q210 241 210 193 Q210 133 250 101.5 Q290 70 391 70 Q414 70 434.5 70.5 Q455 71 475 72 Q495 73 508.5 74 Q522 75 540.5 77.5 Q559 80 567 80.5 Q575 81 594.5 84.5 Q614 88 618 88.5 Q622 89 643.5 93.5 Q665 98 667 98 L664 -36 Q530 -60 391 -60 Q238 -60 158 -4 Q78 52 78 158 Q78 224 106 325 ZM647 815 L728 849 Q776 779 809 709 L774 693 L792 595 Q697 569 620 554 Q682 420 750 295 L679 219 Q578 240 448 255 L459 359 Q566 350 579 349 Q572 365 540 431.5 Q508 498 491 534 Q304 515 63 534 L59 664 Q272 638 438 653 L416 701 Q388 764 366 799 L511 826 Q531 759 569 672 Q633 684 710 706 Q677 775 647 815 ZM769 859 L850 893 Q899 823 933 754 L852 718 Q804 812 769 859 Z" /><glyph glyph-name="cid01475" unicode="&#x3057;" d="M56 811 L220 809 Q209 739 207 674 Q194 391 194 212 Q194 77 334 77 Q545 77 681 284 L773 170 Q745 129 707.5 92.5 Q670 56 616 19.5 Q562 -17 488.5 -39 Q415 -61 333 -61 Q203 -61 131 -1 Q59 59 59 184 Q59 258 64 447.5 Q69 637 69 674 Q69 753 56 811 Z" /><glyph glyph-name="cid01476" unicode="&#x3058;" d="M394 686 L483 724 Q539 642 579 559 L487 519 Q441 619 394 686 ZM532 739 L620 779 Q682 695 719 620 L630 577 Q581 673 532 739 ZM56 805 L220 804 Q207 727 206 669 Q194 405 194 207 Q194 71 333 71 Q544 71 680 278 L773 165 Q745 124 707.5 87 Q670 50 616 13.5 Q562 -23 488 -45 Q414 -67 332 -67 Q202 -67 130.5 -7 Q59 53 59 179 Q59 253 64 442 Q69 631 69 669 Q69 747 56 805 Z" /><glyph glyph-name="cid01477" unicode="&#x3059;" d="M378 337 Q378 303 401 282 Q424 261 455 261 Q490 261 510.5 290.5 Q531 320 522 381 Q502 417 455 417 Q424 417 401 396 Q378 375 378 337 ZM918 705 L917 585 Q815 590 623 590 Q624 539 624 439 Q662 383 662 299 Q662 257 652.5 216.5 Q643 176 619 132 Q595 88 559 51 Q523 14 466 -18.5 Q409 -51 337 -71 L229 38 Q404 76 477 154 Q449 148 431 148 Q365 148 310.5 198 Q256 248 256 335 Q256 419 315 471.5 Q374 524 459 524 Q481 524 499 521 L497 589 Q303 586 62 573 L59 696 Q127 696 298.5 699.5 Q470 703 495 703 Q495 727 494 734 Q490 803 485 822 L633 822 Q629 802 625 735 Q625 732 624.5 722 Q624 712 624 705 L918 705 Z" /><glyph glyph-name="cid01478" unicode="&#x305a;" d="M975 751 L889 715 Q856 782 817 836 L902 870 Q952 797 975 751 ZM377 323 Q377 289 400.5 267.5 Q424 246 456 246 Q491 246 510.5 276 Q530 306 521 368 Q501 402 455 402 Q424 402 400.5 381 Q377 360 377 323 ZM837 721 L766 690 L918 690 L917 569 Q795 575 623 575 Q624 524 624 425 Q662 369 662 285 Q662 232 645.5 180.5 Q629 129 593 77.5 Q557 26 491.5 -17 Q426 -60 337 -85 L228 24 Q406 62 476 139 Q453 134 430 134 Q364 134 309.5 183.5 Q255 233 255 319 Q255 404 314 457 Q373 510 458 510 Q480 510 499 507 L498 574 Q279 571 62 559 L59 682 Q128 682 299 685.5 Q470 689 496 689 Q496 696 495.5 706 Q495 716 495 720 Q489 787 484 808 L632 808 Q630 796 625 721 Q625 718 624.5 707 Q624 696 624 690 L748 690 Q713 760 681 806 L765 841 Q807 783 837 721 Z" /><glyph glyph-name="cid01479" unicode="&#x305b;" d="M660 800 L797 800 Q793 782 791 713 Q790 660 788 603 Q848 607 865 608 Q870 608 907 611 Q944 614 962 615 L962 490 Q936 492 864 489 Q807 486 786 485 Q780 331 771 283 Q764 245 744 230.5 Q724 216 683 216 Q620 216 530 231 L533 343 Q597 331 626 331 Q642 331 649 335.5 Q656 340 658 354 Q663 391 665 476 Q526 465 390 451 Q388 264 390 221 Q391 187 394 170 Q397 153 405 136 Q413 119 431.5 113 Q450 107 478.5 103 Q507 99 554 99 Q710 99 857 126 L852 -13 Q705 -30 563 -30 Q483 -30 431 -22 Q379 -14 345.5 0.5 Q312 15 295 45 Q278 75 271.5 109.5 Q265 144 264 201 Q263 244 263 437 L194 430 Q191 430 72 412 L59 542 Q110 542 186 548 L263 555 L263 657 Q263 712 255 770 L398 770 Q392 719 392 665 Q392 607 391 567 Q412 569 512.5 578.5 Q613 588 667 593 L667 708 Q667 758 660 800 Z" /><glyph glyph-name="cid01480" unicode="&#x305c;" d="M932 643 L861 620 Q830 719 809 761 L879 783 Q918 695 932 643 ZM660 783 L797 783 Q794 766 791 696 Q790 649 788 587 Q850 591 864 592 L962 599 L962 474 Q952 475 912 474 Q872 473 863 473 Q810 471 786 469 Q780 320 770 265 Q763 227 743 213 Q723 199 682 199 Q626 199 530 215 L533 327 Q602 314 626 314 Q642 314 649 318.5 Q656 323 658 337 Q663 375 665 460 Q602 455 389 433 Q387 248 389 205 Q390 162 394 142.5 Q398 123 415 107 Q432 91 463 87 Q494 83 553 83 Q704 83 856 109 L851 -31 Q693 -47 562 -47 Q462 -47 404.5 -36.5 Q347 -26 315.5 3.5 Q284 33 274.5 72.5 Q265 112 263 184 Q262 227 262 420 L194 413 Q191 413 72 395 L59 525 Q109 525 186 531 L262 539 L262 641 Q262 697 254 753 L397 753 Q391 704 391 648 Q391 591 390 551 Q407 553 510 562.5 Q613 572 667 577 L667 690 Q667 739 660 783 ZM915 797 L984 818 Q1022 739 1040 679 L970 656 Q938 750 915 797 Z" /><glyph glyph-name="cid01481" unicode="&#x305d;" d="M224 651 L218 781 Q261 777 314 777 Q349 777 457.5 783 Q566 789 609 794 Q652 798 680 806 L760 713 Q692 666 681 656 Q644 627 558.5 557 Q473 487 439 461 Q672 485 866 485 L866 366 Q700 376 606 364 Q535 354 485 308.5 Q435 263 435 202 Q435 145 475 117 Q515 89 589 80 Q665 72 743 78 L717 -55 Q519 -63 412 -4 Q305 55 305 180 Q305 224 327 267.5 Q349 311 379 340 Q252 330 72 300 L59 423 Q78 425 236 443 Q343 513 522 674 Q514 673 426.5 667.5 Q339 662 315 660 Q300 659 268 655.5 Q236 652 224 651 Z" /><glyph glyph-name="cid01482" unicode="&#x305e;" d="M679 624 L755 656 Q791 603 824 535 L747 501 Q716 570 679 624 ZM793 668 L867 702 Q917 635 941 583 L865 548 Q821 632 793 668 ZM223 651 L217 781 Q260 777 313 777 Q348 777 456.5 783 Q565 789 608 794 Q651 798 679 806 L759 713 Q691 666 680 656 Q643 627 557.5 557 Q472 487 438 461 Q671 485 864 485 L865 366 Q699 376 605 364 Q534 354 484 308.5 Q434 263 434 202 Q434 145 474 117 Q514 89 588 80 Q665 72 743 78 L716 -55 Q518 -63 411 -4 Q304 55 304 180 Q304 224 326 267.5 Q348 311 378 340 Q251 330 71 300 L59 423 Q78 425 236 443 Q340 510 521 674 Q514 673 426.5 667.5 Q339 662 315 660 Q300 659 267 655.5 Q234 652 223 651 Z" /><glyph glyph-name="cid01483" unicode="&#x305f;" d="M510 388 L510 508 Q622 518 704 518 Q794 518 883 509 L879 387 Q779 399 705 399 Q597 399 510 388 ZM590 714 L590 586 Q491 565 393 553 Q381 492 362 423 Q332 310 286.5 174.5 Q241 39 202 -46 L59 1 Q102 73 152.5 208.5 Q203 344 234 458 Q235 464 243.5 494.5 Q252 525 256 542 Q208 540 189 540 Q138 540 66 544 L63 671 Q132 663 191 663 Q234 663 281 666 Q291 722 291 724 Q299 782 295 826 L449 814 Q446 803 428 719 L420 680 Q499 692 590 714 ZM447 264 L569 253 Q555 202 555 168 Q555 131 584 111 Q613 91 689 91 Q782 91 900 112 L895 -18 Q773 -33 688 -33 Q561 -33 495.5 9 Q430 51 430 129 Q430 179 447 264 Z" /><glyph glyph-name="cid01484" unicode="&#x3060;" d="M857 636 L775 600 Q732 691 695 742 L776 776 Q824 706 857 636 ZM509 377 L509 496 Q602 506 704 506 Q803 506 882 498 L879 375 Q771 388 705 388 Q608 388 509 377 ZM589 701 L589 574 Q504 554 392 541 Q376 464 362 411 Q333 300 287 164.5 Q241 29 201 -58 L59 -11 Q102 62 153 197 Q204 332 234 445 Q254 524 255 530 Q207 528 189 528 Q138 528 66 532 L63 658 Q124 651 191 651 Q234 651 281 654 Q286 680 290 712 Q298 770 294 815 L449 803 Q438 756 427 707 L419 669 Q504 681 589 701 ZM447 252 L568 242 Q554 190 554 157 Q554 120 583 99.5 Q612 79 688 79 Q777 79 899 99 L894 -31 Q780 -45 687 -45 Q560 -45 494.5 -3 Q429 39 429 117 Q429 164 447 252 ZM816 790 L897 822 Q948 751 980 683 L899 648 Q849 745 816 790 Z" /><glyph glyph-name="cid01485" unicode="&#x3061;" d="M757 727 L759 604 Q538 570 357 561 Q338 472 310 386 Q427 450 562 450 Q685 450 760 389.5 Q835 329 835 232 Q835 66 689 -2 Q543 -70 288 -43 L252 88 Q338 74 416 74 Q494 74 558.5 88 Q623 102 661 138 Q699 174 699 228 Q699 275 658.5 307.5 Q618 340 547 340 Q458 340 384 309 Q310 278 266 220 Q259 212 238 176 L118 219 Q182 343 234 559 Q147 560 59 569 L59 695 Q164 678 257 676 Q258 681 260 695.5 Q262 710 263 717 Q270 780 269 819 L412 813 Q403 785 388 710 L382 679 Q588 690 757 727 Z" /><glyph glyph-name="cid01486" unicode="&#x3062;" d="M743 702 L745 581 Q545 549 355 540 Q333 444 311 375 Q426 438 563 438 Q686 438 761 378 Q836 318 836 221 Q836 55 689.5 -13 Q543 -81 288 -54 L252 77 Q338 63 416 63 Q494 63 558.5 77 Q623 91 661 127 Q699 163 699 217 Q699 264 658.5 296.5 Q618 329 547 329 Q459 329 385.5 297.5 Q312 266 267 209 Q252 191 238 165 L118 208 Q179 326 231 538 Q145 539 59 548 L59 674 Q171 655 255 654 Q260 677 264 706 Q271 764 268 808 L412 802 Q404 776 388 698 L380 657 Q580 666 743 702 ZM702 807 L784 840 Q823 783 865 699 L783 665 Q779 672 765.5 697.5 Q752 723 744.5 737.5 Q737 752 724.5 772.5 Q712 793 702 807 ZM824 853 L905 886 Q946 829 987 746 L907 712 Q859 806 824 853 Z" /><glyph glyph-name="cid01487" unicode="&#x3063;" d="M111 302 L59 435 Q107 443 166 462 Q172 464 216 477.5 Q260 491 290.5 499 Q321 507 366.5 518.5 Q412 530 453.5 535.5 Q495 541 530 541 Q651 541 724 474 Q797 407 797 292 Q797 151 674 64 Q551 -23 314 -37 L260 89 Q443 94 553 144.5 Q663 195 663 294 Q663 351 623 387 Q583 423 517 423 Q396 423 111 302 Z" /><glyph glyph-name="cid01488" unicode="&#x3064;" d="M118 418 L60 561 Q103 568 184 592 Q192 594 232.5 607 Q273 620 299.5 628 Q326 636 373.5 648.5 Q421 661 457.5 668.5 Q494 676 538 682 Q582 688 617 688 Q759 688 852 609.5 Q945 531 945 395 Q945 224 791 119 Q637 14 369 0 L310 135 Q452 138 559.5 166 Q667 194 733.5 253 Q800 312 800 397 Q800 471 750.5 518 Q701 565 612 565 Q446 565 118 418 Z" /><glyph glyph-name="cid01489" unicode="&#x3065;" d="M725 790 L805 823 Q847 763 887 682 L805 647 Q744 764 725 790 ZM846 837 L927 869 Q973 805 1010 730 L928 695 Q889 778 846 837 ZM117 403 L60 546 Q86 550 185 577 Q188 578 215 586.5 Q242 595 254.5 599 Q267 603 298 612.5 Q329 622 349.5 627.5 Q370 633 401 641 Q432 649 457 654 Q482 659 511 663.5 Q540 668 566.5 670.5 Q593 673 617 673 Q759 673 852 595 Q945 517 945 380 Q945 209 791 104 Q637 -1 368 -14 L310 121 Q529 126 664 191.5 Q799 257 799 383 Q799 457 750 504 Q701 551 612 551 Q458 551 117 403 Z" /><glyph glyph-name="cid01490" unicode="&#x3066;" d="M71 563 L59 702 Q111 703 158 708 Q181 710 595 746 Q764 759 882 764 L883 633 Q747 633 688 620 Q598 596 536 512 Q474 428 474 336 Q474 276 500.5 230.5 Q527 185 574 158.5 Q621 132 677 118 Q733 104 801 100 L754 -40 Q672 -35 599 -10 Q526 15 467.5 57 Q409 99 374.5 164 Q340 229 340 308 Q340 409 385.5 493 Q431 577 490 621 Q196 591 71 563 Z" /><glyph glyph-name="cid01491" unicode="&#x3067;" d="M666 501 L742 532 Q798 449 824 393 L746 358 Q705 447 666 501 ZM782 545 L856 580 Q901 518 942 443 L866 407 Q827 484 782 545 ZM72 561 L59 700 Q114 701 158 706 Q195 709 261 715 Q327 721 426.5 729.5 Q526 738 596 744 Q767 757 883 762 L884 631 Q752 631 689 617 Q598 593 536 509.5 Q474 426 474 334 Q474 274 500.5 228.5 Q527 183 574 156 Q621 129 677.5 115 Q734 101 802 98 L755 -42 Q673 -37 600 -12.5 Q527 12 468.5 54 Q410 96 375.5 161 Q341 226 341 306 Q341 407 386 490.5 Q431 574 491 618 Q192 587 72 561 Z" /><glyph glyph-name="cid01492" unicode="&#x3068;" d="M651 714 L721 596 Q664 563 621 542 Q611 537 565 514 Q519 491 488.5 475.5 Q458 460 414 436 Q370 412 338 391 Q197 300 197 207 Q197 95 408 95 Q574 95 740 132 L738 -14 Q584 -39 412 -39 Q58 -39 58 191 Q58 334 226 459 Q158 585 83 761 L211 813 Q261 679 338 532 Q386 560 465 602 Q544 644 558 652 Q627 694 651 714 Z" /><glyph glyph-name="cid01493" unicode="&#x3069;" d="M627 685 L690 566 Q628 530 590 512 Q575 504 523.5 478.5 Q472 453 426.5 428 Q381 403 339 376 Q199 284 199 191 Q199 80 410 80 Q574 80 740 117 L738 -29 Q595 -54 413 -54 Q58 -54 58 177 Q58 256 102 319.5 Q146 383 226 443 Q165 557 85 745 L213 798 Q263 664 340 517 Q380 540 446 576 Q512 612 534 625 Q601 664 627 685 ZM625 783 L706 816 Q748 757 788 676 L705 641 Q664 728 625 783 ZM746 829 L827 863 Q877 791 909 723 L828 688 Q778 786 746 829 Z" /><glyph glyph-name="cid01494" unicode="&#x306a;" d="M956 559 L884 452 Q842 486 768.5 528.5 Q695 571 640 596 L706 696 Q762 671 840.5 628.5 Q919 586 956 559 ZM574 715 L577 597 Q486 573 401 562 Q365 454 305 334 Q245 214 184 128 L60 190 Q118 260 174 359.5 Q230 459 267 549 Q250 548 214 548 Q153 548 87 551 L78 670 Q140 663 213 663 Q257 663 304 666 Q329 767 332 836 L472 821 Q446 715 438 683 Q502 694 574 715 ZM598 151 L598 170 Q553 180 516 180 Q473 180 446.5 163.5 Q420 147 420 120 Q420 91 443 73.5 Q466 56 507 56 Q598 56 598 151 ZM582 506 L710 506 Q708 475 710 376 Q712 310 716 248 Q830 205 926 118 L858 9 Q780 81 721 117 L721 108 Q721 32 674.5 -14 Q628 -60 526 -60 Q427 -60 363.5 -16.5 Q300 27 300 108 Q300 184 361 234 Q422 284 525 284 Q549 284 593 280 Q593 292 582 506 Z" /><glyph glyph-name="cid01495" unicode="&#x306b;" d="M407 584 L406 715 Q506 703 629.5 704 Q753 705 842 715 L842 584 Q626 565 407 584 ZM371 292 L488 281 Q475 227 475 196 Q475 124 617 124 Q739 124 871 151 L874 13 Q764 -7 612 -7 Q484 -7 419 37 Q354 81 354 160 Q354 212 371 292 ZM108 794 L250 781 Q241 758 226 691 Q176 448 176 319 Q176 283 180 254 Q188 274 204.5 308.5 Q221 343 226 356 L289 307 Q230 135 216 58 Q210 30 210 11 Q211 5 211.5 -9.5 Q212 -24 212 -31 L95 -39 Q56 99 56 293 Q56 346 61.5 412.5 Q67 479 72 518 Q77 557 87 623 Q97 689 98 694 Q108 766 108 794 Z" /><glyph glyph-name="cid01496" unicode="&#x306c;" d="M655 87 Q713 87 752 159 Q704 182 662 182 Q632 182 614 168.5 Q596 155 596 135 Q596 87 655 87 ZM218 126 Q258 126 316 197 Q282 251 260 294 Q239 336 229 361 Q174 272 174 194 Q174 166 186 146 Q198 126 218 126 ZM468 554 Q383 529 315 466 Q324 441 344 401 Q357 372 391 312 Q417 364 429 401 Q453 477 468 554 ZM614 719 L610 680 Q745 674 832 587 Q919 500 919 361 Q919 275 900 194 Q952 155 1000 98 L925 2 Q898 36 854 82 Q786 -27 661 -27 Q581 -27 533 12.5 Q485 52 485 122 Q485 183 533.5 231.5 Q582 280 657 280 Q718 280 782 258 Q792 311 792 358 Q792 457 739 512.5 Q686 568 595 571 Q579 467 548 370 Q499 221 404 107 Q309 -7 210 -7 Q145 -7 101 40 Q57 87 57 171 Q57 326 150 451 Q168 474 180 488 Q168 522 156 559 Q129 641 113 678 L233 728 Q245 664 273 575 Q372 648 484 670 Q486 686 488 723 Q489 779 486 814 L628 810 Q624 789 619 754.5 Q614 720 614 719 Z" /><glyph glyph-name="cid01497" unicode="&#x306d;" d="M670 92 Q739 92 771 174 Q714 199 668 199 Q634 199 611 185 Q588 171 588 147 Q588 92 670 92 ZM401 553 L400 543 Q566 689 695 689 Q803 689 864 606.5 Q925 524 925 384 Q925 288 914 222 Q966 184 1019 128 L953 23 Q921 62 878 100 Q820 -23 678 -23 Q588 -23 533 18.5 Q478 60 478 142 Q478 211 533 256 Q588 301 679 301 Q741 301 795 283 Q800 340 800 393 Q800 475 765 524 Q730 573 672 573 Q554 573 390 391 Q387 340 387 295 Q387 127 393 32 Q394 21 397 -10.5 Q400 -42 400 -46 L261 -46 Q264 -13 264 29 Q265 70 266 140 Q267 210 268 252 Q198 146 140 65 L60 177 Q188 334 277 467 L281 538 Q257 535 191.5 526.5 Q126 518 97 514 L85 644 Q128 643 173 645 Q217 648 289 658 Q290 674 291 691.5 Q292 709 293 720 Q294 731 294 736 Q294 795 289 826 L438 822 Q426 763 415 678 L453 630 Q433 604 401 553 Z" /><glyph glyph-name="cid01498" unicode="&#x306e;" d="M269 184 Q332 184 392 385 Q428 497 447 631 Q329 606 259.5 517.5 Q190 429 190 337 Q190 265 214 224.5 Q238 184 269 184 ZM547 -42 L471 78 Q525 85 566 94 Q668 118 732 189 Q796 260 796 366 Q796 472 740.5 544 Q685 616 584 634 Q556 464 524 358 Q478 201 412 115 Q346 29 264 29 Q179 29 118.5 113.5 Q58 198 58 324 Q58 501 194 629.5 Q330 758 525 758 Q709 758 821.5 644.5 Q934 531 934 361 Q934 199 835 93 Q736 -13 547 -42 Z" /><glyph glyph-name="cid01499" unicode="&#x306f;" d="M108 800 L249 787 Q238 759 224 697 Q210 636 193 505 Q176 374 176 305 Q176 267 180 240 Q182 246 225 343 L288 293 Q230 128 215 51 Q208 21 210 4 Q210 -24 211 -38 L96 -46 Q56 96 56 278 Q56 427 98 700 Q108 772 108 800 ZM620 170 L620 187 Q574 199 538 199 Q495 199 468 182 Q441 165 441 137 Q441 108 467.5 93 Q494 78 536 78 Q581 78 600.5 101 Q620 124 620 170 ZM940 129 L871 23 Q809 82 749 124 Q744 47 696 2.5 Q648 -42 550 -42 Q445 -42 384 1.5 Q323 45 323 124 Q323 202 384 250 Q445 298 548 298 Q587 298 614 294 Q608 413 607 502 Q582 501 535 501 Q447 501 357 507 L357 628 Q454 618 535 618 Q558 618 606 620 Q606 639 605.5 664.5 Q605 690 604.5 706 Q604 722 604 732 Q604 759 598 799 L743 799 Q739 772 737 733 Q734 664 734 628 Q832 639 891 651 L891 525 Q812 514 733 508 Q735 418 744 260 Q844 219 940 129 Z" /><glyph glyph-name="cid01500" unicode="&#x3070;" d="M991 724 L920 701 Q888 795 865 842 L934 863 Q970 788 991 724 ZM883 691 L811 667 Q781 765 759 809 L829 830 Q861 763 883 691 ZM108 787 L248 776 Q240 755 224 685 Q210 623 192.5 492.5 Q175 362 175 293 Q175 264 180 227 Q187 248 204 284.5 Q221 321 225 332 L288 282 Q230 115 214 40 Q209 17 209 -7 Q209 -36 210 -50 L97 -57 Q56 73 56 265 Q56 390 98 688 Q107 753 108 787 ZM619 159 L619 176 Q577 187 538 187 Q495 187 468 170.5 Q441 154 441 126 Q441 97 467 82 Q493 67 536 67 Q580 67 599.5 89.5 Q619 112 619 159 ZM890 640 L890 513 Q827 504 733 497 Q735 407 744 249 Q840 209 940 118 L872 10 Q806 71 748 112 Q743 35 695 -9.5 Q647 -54 549 -54 Q444 -54 383.5 -10.5 Q323 33 323 112 Q323 190 384 238.5 Q445 287 548 287 Q587 287 614 283 Q608 403 607 489 Q594 489 570.5 488.5 Q547 488 535 488 Q461 488 358 495 L357 616 Q444 607 535 607 Q582 607 606 608 Q606 636 605.5 674 Q605 712 605 720 Q605 748 597 786 L743 786 Q739 759 737 722 Q734 653 734 616 Q806 623 890 640 Z" /><glyph glyph-name="cid01501" unicode="&#x3071;" d="M108 787 L248 776 Q240 755 224 685 Q210 623 192.5 492.5 Q175 362 175 293 Q175 264 180 227 Q187 248 204 284.5 Q221 321 225 332 L288 282 Q230 115 214 40 Q209 17 209 -7 Q209 -36 210 -50 L97 -57 Q56 73 56 265 Q56 390 98 688 Q107 753 108 787 ZM619 159 L619 176 Q577 187 538 187 Q495 187 468 170.5 Q441 154 441 126 Q441 97 467 82 Q493 67 536 67 Q580 67 599.5 89.5 Q619 112 619 159 ZM890 640 L890 513 Q827 504 733 497 Q735 407 744 249 Q840 209 940 118 L872 10 Q806 71 748 112 Q743 35 695 -9.5 Q647 -54 549 -54 Q444 -54 383.5 -10.5 Q323 33 323 112 Q323 190 384 238.5 Q445 287 548 287 Q587 287 614 283 Q608 403 607 489 Q594 489 570.5 488.5 Q547 488 535 488 Q461 488 358 495 L357 616 Q444 607 535 607 Q582 607 606 608 Q606 636 605.5 674 Q605 712 605 720 Q605 748 597 786 L743 786 Q739 759 737 722 Q734 653 734 616 Q806 623 890 640 ZM882 721 Q903 721 917.5 735 Q932 749 932 770 Q932 792 917.5 806 Q903 820 882 820 Q860 820 846 805.5 Q832 791 832 770 Q832 749 846 735 Q860 721 882 721 ZM803.5 848.5 Q836 881 882 881 Q928 881 960.5 848.5 Q993 816 993 770 Q993 724 960.5 692 Q928 660 882 660 Q836 660 803.5 692 Q771 724 771 770 Q771 816 803.5 848.5 Z" /><glyph glyph-name="cid01502" unicode="&#x3072;" d="M945 360 L851 259 Q805 318 759 396 Q762 306 742 226 Q722 146 679 81.5 Q636 17 562.5 -21 Q489 -59 393 -59 Q265 -59 186.5 17.5 Q108 94 108 223 Q108 331 154.5 438.5 Q201 546 268 622 Q216 615 137 600 Q129 598 110 594 Q91 590 78 587 L60 719 Q89 719 118 722 Q201 728 306.5 745.5 Q412 763 461 780 L499 668 Q453 648 448 645 Q420 623 385.5 582 Q351 541 317 487.5 Q283 434 260.5 367.5 Q238 301 238 241 Q238 161 283.5 119.5 Q329 78 399 78 Q551 78 618 245 Q685 412 625 683 Q618 702 604 742 L727 780 Q784 522 945 360 Z" /><glyph glyph-name="cid01503" unicode="&#x3073;" d="M996 715 L919 689 Q886 783 858 837 L932 862 Q966 797 996 715 ZM882 676 L805 650 Q771 752 746 800 L823 823 Q868 718 882 676 ZM604 726 L727 764 Q783 508 945 344 L850 244 Q807 299 759 379 Q762 290 742 210 Q722 130 679 65 Q636 0 562.5 -38 Q489 -76 393 -76 Q265 -76 187 0.5 Q109 77 109 207 Q109 314 155.5 421.5 Q202 529 269 605 Q199 596 137 584 Q118 580 78 570 L60 702 Q80 702 118 706 Q202 712 307.5 730 Q413 748 461 765 L499 651 Q463 638 449 629 Q382 577 310.5 458 Q239 339 239 225 Q239 144 284.5 102.5 Q330 61 400 61 Q552 61 619 228.5 Q686 396 626 667 Q624 672 616 693 Q608 714 604 726 Z" /><glyph glyph-name="cid01504" unicode="&#x3074;" d="M604 726 L727 764 Q783 508 945 344 L851 244 Q802 306 759 380 Q763 290 742.5 210 Q722 130 679 65 Q636 0 562.5 -38 Q489 -76 393 -76 Q265 -76 187 0.5 Q109 77 109 207 Q109 314 155.5 421.5 Q202 529 269 605 Q199 596 137 584 Q118 580 78 570 L60 702 Q80 702 118 706 Q202 712 307.5 730 Q413 748 461 765 L499 651 Q463 638 449 629 Q382 577 310.5 458 Q239 339 239 225 Q239 144 284.5 102.5 Q330 61 400 61 Q552 61 619 228.5 Q686 396 626 667 Q624 672 616 693 Q608 714 604 726 ZM843 700 Q859 684 882 684 Q905 684 921.5 700 Q938 716 938 740 Q938 763 921.5 779.5 Q905 796 882 796 Q859 796 843 779.5 Q827 763 827 740 Q827 716 843 700 ZM797.5 823.5 Q832 858 882 858 Q932 858 966.5 823.5 Q1001 789 1001 740 Q1001 691 966.5 656.5 Q932 622 882 622 Q832 622 797.5 656.5 Q763 691 763 740 Q763 789 797.5 823.5 Z" /><glyph glyph-name="cid01505" unicode="&#x3075;" d="M587 500 L505 573 Q544 600 568 621 Q493 672 366 719 L441 814 Q614 748 702 692 L733 612 Q648 542 587 500 ZM352 -28 L332 106 Q418 83 489 83 Q576 83 576 148 Q576 189 539 247 Q502 305 460 347 Q415 390 367 427 L466 510 Q483 492 511.5 464.5 Q540 437 549 428 Q634 342 675.5 272 Q717 202 717 134 Q717 40 660.5 -1 Q604 -42 515 -42 Q428 -42 352 -28 ZM1017 94 L894 29 Q873 109 828 205 Q783 301 734 362 L844 421 Q890 364 941.5 265.5 Q993 167 1017 94 ZM317 321 L394 221 Q281 100 137 12 L59 122 Q125 157 198.5 214 Q272 271 317 321 Z" /><glyph glyph-name="cid01506" unicode="&#x3076;" d="M759 664 L840 696 Q881 639 922 556 L840 520 Q781 632 759 664 ZM881 710 L962 742 Q1008 678 1045 603 L963 568 Q926 647 881 710 ZM589 492 L506 566 Q523 577 569 613 Q489 668 367 712 L442 806 Q605 746 704 685 L734 605 Q652 538 589 492 ZM353 -35 L334 99 Q417 75 491 75 Q578 75 578 141 Q578 182 540.5 240.5 Q503 299 462 339 Q414 385 368 419 L468 503 Q483 487 510 460.5 Q537 434 550 421 Q635 335 676.5 264.5 Q718 194 718 127 Q718 33 661.5 -8 Q605 -49 516 -49 Q428 -49 353 -35 ZM1018 87 L895 22 Q876 100 830.5 196 Q785 292 735 355 L846 414 Q891 357 942.5 258.5 Q994 160 1018 87 ZM319 313 L395 213 Q280 92 137 4 L60 115 Q126 150 200 206.5 Q274 263 319 313 Z" /><glyph glyph-name="cid01507" unicode="&#x3077;" d="M858 630 Q858 606 875.5 588.5 Q893 571 918 571 Q943 571 960 588.5 Q977 606 977 630 Q977 655 960 672.5 Q943 690 918 690 Q893 690 875.5 672.5 Q858 655 858 630 ZM831 543.5 Q795 579 795 630 Q795 681 831 717 Q867 753 918 753 Q969 753 1004.5 717 Q1040 681 1040 630 Q1040 579 1004.5 543.5 Q969 508 918 508 Q867 508 831 543.5 ZM589 492 L506 566 Q523 577 569 613 Q489 668 367 712 L442 806 Q605 746 704 685 L734 605 Q652 538 589 492 ZM353 -35 L334 99 Q417 75 491 75 Q578 75 578 141 Q578 182 540.5 240.5 Q503 299 462 339 Q414 385 368 419 L468 503 Q483 487 510 460.5 Q537 434 550 421 Q635 335 676.5 264.5 Q718 194 718 127 Q718 33 661.5 -8 Q605 -49 516 -49 Q428 -49 353 -35 ZM1018 87 L895 22 Q876 100 830.5 196 Q785 292 735 355 L846 414 Q891 357 942.5 258.5 Q994 160 1018 87 ZM319 313 L395 213 Q280 92 137 4 L60 115 Q126 150 200 206.5 Q274 263 319 313 Z" /><glyph glyph-name="cid01508" unicode="&#x3078;" d="M182 180 L59 307 Q104 345 144 387 Q171 415 243.5 504 Q316 593 332 612 Q386 673 436.5 677.5 Q487 682 543 629 Q583 589 660 498.5 Q737 408 753 391 Q889 242 1001 142 L897 23 Q798 116 672 264 Q646 294 579.5 376.5 Q513 459 486 488 Q458 516 441.5 515 Q425 514 402 485 Q379 456 319 374.5 Q259 293 246 276 L182 180 Z" /><glyph glyph-name="cid01509" unicode="&#x3079;" d="M661 669 L750 706 Q805 625 847 542 L755 502 Q704 609 661 669 ZM799 721 L887 762 Q940 692 988 602 L898 559 Q847 657 799 721 ZM181 163 L59 290 Q102 323 145 369 Q172 397 244.5 487.5 Q317 578 332 595 Q386 655 436.5 659.5 Q487 664 543 610 Q584 569 667 473 Q750 377 753 373 Q897 219 1001 125 L895 5 Q828 68 673 251 Q651 277 611 326 Q571 375 539.5 413 Q508 451 487 474 Q459 503 442 501.5 Q425 500 402 471 Q400 468 245 263 Q231 244 208.5 207.5 Q186 171 181 163 Z" /><glyph glyph-name="cid01510" unicode="&#x307a;" d="M778 663 Q759 644 759 617 Q759 590 778 571 Q797 552 825 552 Q852 552 870.5 571 Q889 590 889 617 Q889 644 870.5 663 Q852 682 825 682 Q797 682 778 663 ZM730.5 522.5 Q692 561 692 617 Q692 673 730.5 712 Q769 751 825 751 Q880 751 919 712 Q958 673 958 617 Q958 561 919.5 522.5 Q881 484 825 484 Q769 484 730.5 522.5 ZM181 163 L59 290 Q102 323 145 369 Q172 397 244.5 487.5 Q317 578 332 595 Q386 655 436.5 659.5 Q487 664 543 610 Q584 569 667 473 Q750 377 753 373 Q897 219 1001 125 L895 5 Q828 68 673 251 Q651 277 611 326 Q571 375 539.5 413 Q508 451 487 474 Q459 503 442 501.5 Q425 500 402 471 Q400 468 245 263 Q231 244 208.5 207.5 Q186 171 181 163 Z" /><glyph glyph-name="cid01511" unicode="&#x307b;" d="M107 801 L249 788 Q238 757 225 698 Q212 638 195 506 Q178 374 178 305 Q178 264 182 237 Q190 257 206 293 Q222 329 228 343 L292 293 Q236 131 218 51 Q213 28 213 4 Q213 -24 214 -38 L98 -46 Q57 86 57 278 Q57 410 98 701 Q107 764 107 801 ZM612 155 L612 178 Q575 188 538 188 Q496 188 472 173 Q448 158 448 133 Q448 76 529 76 Q612 76 612 155 ZM892 535 L892 417 Q814 407 721 403 Q722 342 728 252 Q838 212 936 124 L869 13 Q804 80 733 124 L733 114 Q733 43 687 3 Q641 -37 546 -37 Q452 -37 392.5 4 Q333 45 333 124 Q333 194 388 239 Q443 284 542 284 Q579 284 608 280 Q604 357 603 399 Q490 396 373 402 L373 520 Q491 511 602 514 L602 641 Q478 639 388 644 L388 757 Q636 738 870 770 L870 657 Q805 650 720 645 L720 519 Q774 522 892 535 Z" /><glyph glyph-name="cid01512" unicode="&#x307c;" d="M995 723 L925 699 Q895 788 870 840 L939 862 Q977 783 995 723 ZM106 786 L247 774 Q238 752 223 684 Q210 625 193.5 493 Q177 361 177 291 Q177 242 181 222 Q189 243 206 282 Q223 321 226 329 L289 279 Q231 114 216 37 Q210 9 210 -10 Q210 -24 212 -52 L96 -60 Q56 69 56 263 Q56 403 96 687 Q105 749 106 786 ZM610 140 L610 164 Q573 174 535 174 Q493 174 469.5 159 Q446 144 446 119 Q446 91 467.5 76 Q489 61 527 61 Q610 61 610 140 ZM890 520 L890 402 Q823 394 719 389 Q720 330 726 237 Q836 198 934 110 L868 -1 Q799 68 732 110 L732 99 Q732 29 685 -11 Q638 -51 543 -51 Q449 -51 390 -10 Q331 31 331 110 Q331 180 385.5 224.5 Q440 269 539 269 Q577 269 606 265 Q600 379 600 385 Q465 383 371 388 L370 506 Q488 497 599 500 L599 626 Q495 624 385 630 L385 742 Q596 727 789 746 Q776 783 763 808 L833 829 Q871 747 887 689 L828 670 L828 640 Q777 634 718 631 L718 505 Q788 508 890 520 Z" /><glyph glyph-name="cid01513" unicode="&#x307d;" d="M106 786 L247 774 Q238 752 223 684 Q210 625 193.5 493 Q177 361 177 291 Q177 242 181 222 Q189 243 206 282 Q223 321 226 329 L289 279 Q231 114 216 37 Q210 9 210 -10 Q210 -24 212 -52 L96 -60 Q56 69 56 263 Q56 403 96 687 Q105 749 106 786 ZM890 830 Q868 830 854 815.5 Q840 801 840 780 Q840 758 854 744 Q868 730 890 730 Q911 730 925.5 744 Q940 758 940 780 Q940 801 925.5 815.5 Q911 830 890 830 ZM610 140 L610 164 Q573 174 535 174 Q493 174 469.5 159 Q446 144 446 119 Q446 91 467.5 76 Q489 61 527 61 Q610 61 610 140 ZM824 691 L824 639 Q771 633 718 630 L718 505 Q788 508 890 520 L890 402 Q823 394 719 389 Q720 330 726 237 Q836 198 934 110 L868 -1 Q799 68 732 110 L732 99 Q732 29 685 -11 Q638 -51 543 -51 Q449 -51 390 -10 Q331 31 331 110 Q331 180 385.5 224.5 Q440 269 539 269 Q577 269 606 265 Q600 379 600 385 Q465 383 371 388 L370 506 Q488 497 599 500 L599 626 Q498 624 385 630 L385 742 Q601 725 785 746 Q780 763 780 780 Q780 825 812 858 Q844 891 890 891 Q935 891 968 858 Q1001 825 1001 780 Q1001 735 968 702.5 Q935 670 890 670 Q853 670 824 691 Z" /><glyph glyph-name="cid01514" unicode="&#x307e;" d="M376 134 Q376 160 375 177 Q328 184 292 184 Q240 184 211 166.5 Q182 149 182 122 Q182 93 209 76 Q236 59 287 59 Q331 59 353.5 76 Q376 93 376 134 ZM782 109 L709 -5 Q614 85 504 135 Q505 122 505 99 Q505 31 454 -11.5 Q403 -54 306 -54 Q185 -54 121.5 -10 Q58 34 58 115 Q58 193 125.5 241 Q193 289 309 289 Q341 289 371 286 Q369 316 367 378 L315 378 Q182 378 71 391 L72 511 Q167 493 317 493 L365 493 L365 598 L317 598 Q194 598 97 613 L96 729 Q196 710 316 710 L366 710 L366 756 Q366 801 361 825 L499 825 Q493 787 492 754 L491 714 Q598 718 733 738 L736 622 Q543 605 490 602 L489 497 Q606 502 759 520 L759 400 Q610 384 491 380 Q496 294 498 262 Q654 217 782 109 Z" /><glyph glyph-name="cid01515" unicode="&#x307f;" d="M269 196 Q292 229 352 358 Q271 346 224.5 302.5 Q178 259 178 209 Q178 188 189 174.5 Q200 161 216 161 Q245 161 269 196 ZM980 276 L922 136 Q878 175 835 207 Q800 119 738 51.5 Q676 -16 577 -68 L469 20 Q664 103 727 275 Q606 341 489 357 Q406 167 372 114 Q314 25 214 25 Q146 25 102 69 Q58 113 58 188 Q58 306 155 387 Q252 468 404 475 Q476 640 485 657 Q379 654 312 650 Q277 648 229 641 L224 772 Q260 768 308 768 Q427 768 521 776 Q558 779 590 792 L671 728 Q647 702 637 685 Q613 646 538 468 Q642 452 756 402 Q758 426 759 437 Q763 509 758 548 L891 532 Q884 421 871 344 Q888 334 980 276 Z" /><glyph glyph-name="cid01516" unicode="&#x3080;" d="M166 306 Q166 274 182 255.5 Q198 237 222 237 Q255 237 270.5 267 Q286 297 286 343 Q286 372 273 389 Q260 406 238 406 Q208 406 187 378 Q166 350 166 306 ZM702 316 L842 273 Q842 176 841 155 Q836 81 805 38 Q774 -5 691 -30 Q624 -51 471 -51 Q403 -51 355 -42 Q307 -33 282 -21 Q257 -9 243.5 12.5 Q230 34 227.5 51 Q225 68 225 94 L225 116 Q220 115 209 115 Q147 115 103 160.5 Q59 206 59 297 Q59 388 111 447.5 Q163 507 246 507 L251 507 L251 574 L230 574 Q176 574 64 584 L57 703 Q155 689 221 689 L251 689 L251 697 Q251 778 240 825 L383 825 Q373 765 373 698 Q465 711 554 734 L554 611 Q476 594 373 583 L373 452 Q403 409 403 349 Q403 240 349 176 L349 136 Q349 100 372.5 85.5 Q396 71 480 71 Q572 71 636 89 Q709 111 709 191 Q709 261 702 316 ZM638 647 L724 732 Q769 703 835.5 642.5 Q902 582 939 539 L846 444 Q805 495 743 555.5 Q681 616 638 647 Z" /><glyph glyph-name="cid01517" unicode="&#x3081;" d="M235 146 Q283 146 345 223 Q300 291 251 418 Q177 330 177 227 Q177 190 192.5 168 Q208 146 235 146 ZM512 553 Q426 543 351 497 Q392 385 422 336 Q471 424 512 553 ZM677 697 L668 658 Q789 631 861.5 539.5 Q934 448 934 316 Q934 161 834.5 66.5 Q735 -28 569 -53 L491 63 Q649 76 725 148.5 Q801 221 801 324 Q801 408 757.5 467 Q714 526 637 547 Q575 338 500 224 Q523 196 555 164 L454 83 Q429 110 419 123 Q366 66 320 40 Q274 14 219 14 Q152 14 105 68.5 Q58 123 58 217 Q58 304 98 390.5 Q138 477 207 538 Q189 592 181 620 Q168 665 140 725 L273 766 Q281 724 295 670 Q300 651 314 607 Q423 663 543 668 Q544 674 553 717 Q562 770 560 813 L701 800 Q700 796 677 697 Z" /><glyph glyph-name="cid01518" unicode="&#x3082;" d="M637 419 L779 450 Q877 326 877 206 Q877 90 779.5 16.5 Q682 -57 518 -57 Q392 -57 319 1 Q246 59 246 181 Q246 210 253 284 Q137 295 58 317 L65 440 Q150 410 265 400 Q268 423 273.5 470 Q279 517 282 539 Q169 550 81 574 L88 692 Q174 664 296 654 Q299 677 304 735 Q308 791 306 825 L448 817 Q436 763 431 727 Q429 718 425.5 691.5 Q422 665 420 650 Q527 651 606 663 L602 542 Q502 532 404 532 Q394 457 387 394 L394 394 Q474 394 598 407 L595 286 Q481 276 415 276 L375 276 Q374 265 373 249 Q372 233 371 222 Q370 211 370 203 Q370 140 408.5 107 Q447 74 522 74 Q625 74 683 115.5 Q741 157 741 222 Q741 321 637 419 Z" /><glyph glyph-name="cid01519" unicode="&#x3083;" d="M563 580 L471 513 Q421 566 361 610 L451 676 Q473 662 508 631.5 Q543 601 563 580 ZM137 548 L264 596 Q286 557 295 537 Q298 531 305.5 516 Q313 501 320.5 487 Q328 473 334 459 Q534 543 622 543 Q725 543 780.5 489 Q836 435 836 362 Q836 266 781 212.5 Q726 159 615 159 Q548 159 488 184 L491 301 Q552 274 606 274 Q657 274 684 297.5 Q711 321 711 361 Q711 389 686 409 Q661 429 617 429 Q543 429 381 358 Q393 332 406 300 Q461 175 532 -54 L404 -85 Q363 80 294 251 Q290 260 281.5 279.5 Q273 299 270 307 Q236 291 183.5 264 Q131 237 117 231 L59 354 Q113 368 149 382 Q161 387 185 397 Q209 407 221 412 Q209 438 186 477 Q161 520 137 548 Z" /><glyph glyph-name="cid01520" unicode="&#x3084;" d="M638 733 L541 664 Q457 748 409 784 L502 850 Q580 791 638 733 ZM147 708 L278 758 Q311 692 319 679 Q358 600 366 583 Q598 685 715 685 Q830 685 898.5 624 Q967 563 967 472 Q967 365 899 303 Q831 241 714 241 Q635 241 559 269 L562 396 Q643 362 701 362 Q761 362 797 392 Q833 422 833 476 Q833 516 800.5 543 Q768 570 712 570 Q615 570 414 478 L443 416 Q531 207 603 -26 L462 -61 Q399 189 326 359 L300 422 Q273 408 233.5 388 Q194 368 166 354 Q138 340 119 332 L60 462 Q123 477 160 495 Q190 506 252 532 Q240 557 206 618 Q186 656 147 708 Z" /><glyph glyph-name="cid01521" unicode="&#x3085;" d="M514 161 Q648 174 648 309 Q648 425 526 442 Q530 394 530 332 Q530 234 514 161 ZM378 644 L503 646 Q511 596 516 549 Q634 543 701 476.5 Q768 410 768 310 Q768 194 695.5 117 Q623 40 490 40 Q477 40 471 41 Q427 -39 358 -90 L248 -27 Q311 13 352 75 Q277 118 238 195 L303 288 Q345 211 397 182 Q415 255 415 343 Q415 375 411 435 Q321 412 262 344 Q203 276 191 202 Q187 183 187 162 Q192 98 197 74 L88 59 Q57 159 57 288 Q57 393 78 549 Q81 573 79 600 L210 590 Q199 559 194 537 Q170 437 169 373 Q247 502 401 539 Q398 563 393 588 Q388 611 378 644 Z" /><glyph glyph-name="cid01522" unicode="&#x3086;" d="M581 223 Q665 230 711 277.5 Q757 325 757 401 Q757 473 716.5 522.5 Q676 572 595 581 Q600 504 600 438 Q600 319 581 223 ZM433 820 L567 823 Q578 755 585 693 Q721 687 803 606 Q885 525 885 403 Q885 267 799.5 182 Q714 97 557 97 Q545 97 539 98 Q489 -9 400 -73 L277 -1 Q360 46 410 132 Q311 181 265 276 L337 369 Q386 276 454 243 Q477 331 477 439 Q477 464 472 571 Q396 552 335.5 499.5 Q275 447 243 389 Q211 331 200 272 Q196 249 196 223 Q196 182 208 124 L93 109 Q57 227 57 390 Q57 428 60 476.5 Q63 525 66.5 557.5 Q70 590 75 634.5 Q80 679 81 689 Q86 724 84 750 L223 738 Q220 729 213 707.5 Q206 686 203 677 Q173 549 176 465 Q225 550 299 605 Q373 660 462 681 Q454 738 451 750 Q441 800 433 820 Z" /><glyph glyph-name="cid01523" unicode="&#x3087;" d="M335 109 L335 138 Q303 143 274 143 Q175 143 175 89 Q175 66 200.5 51.5 Q226 37 267 37 Q335 37 335 109 ZM699 71 L630 -39 Q543 48 460 93 L460 68 Q460 5 418.5 -35.5 Q377 -76 283 -76 Q186 -76 122 -34.5 Q58 7 58 83 Q58 157 119.5 200.5 Q181 244 290 244 Q304 244 330 242 Q325 384 325 404 L325 548 Q325 608 316 648 L454 648 Q445 605 445 549 L445 502 Q583 506 679 516 L682 403 Q596 395 445 391 Q445 385 453 217 Q591 171 699 71 Z" /><glyph glyph-name="cid01524" unicode="&#x3088;" d="M400 163 Q400 185 399 198 Q352 205 315 205 Q256 205 222.5 186 Q189 167 189 135 Q189 67 311 67 Q360 67 380 89.5 Q400 112 400 163 ZM838 116 L760 -5 Q655 100 536 154 Q537 141 537 119 Q537 42 487.5 -7 Q438 -56 321 -56 Q203 -56 130.5 -12 Q58 32 58 129 Q58 212 129 265 Q200 318 334 318 Q367 318 395 315 Q387 526 387 535 Q387 613 385 699 Q383 782 375 818 L528 818 Q522 769 518 699 L518 626 Q705 631 801 641 L806 520 Q706 511 518 506 Q520 435 530 290 Q712 235 838 116 Z" /><glyph glyph-name="cid01525" unicode="&#x3089;" d="M206 698 L239 821 Q306 800 438 775 Q570 750 645 742 L614 617 Q544 626 409.5 653.5 Q275 681 206 698 ZM108 636 L245 617 Q225 532 207 381 Q339 477 505 477 Q634 477 710.5 409.5 Q787 342 787 245 Q787 188 768.5 140.5 Q750 93 708.5 52 Q667 11 601 -13 Q535 -37 440 -47.5 Q345 -58 219 -46 L180 87 Q401 56 523 102 Q645 148 645 248 Q645 298 602.5 329.5 Q560 361 493 361 Q310 361 213 243 Q186 209 176 183 L58 213 Q73 291 88.5 418 Q104 545 108 636 Z" /><glyph glyph-name="cid01526" unicode="&#x308a;" d="M93 825 L233 819 Q203 712 192 609 Q234 677 299 725 Q364 773 443 773 Q551 773 622.5 674.5 Q694 576 694 412 Q694 20 249 -61 L172 56 Q244 67 298.5 82.5 Q353 98 403.5 125 Q454 152 485.5 189.5 Q517 227 536 283 Q555 339 555 411 Q555 528 519 591 Q483 654 419 654 Q362 654 308.5 603.5 Q255 553 224 480.5 Q193 408 190 341 Q188 287 195 233 L69 225 Q57 319 57 394 Q57 525 85 719 Q91 762 93 825 Z" /><glyph glyph-name="cid01527" unicode="&#x308b;" d="M468 61 Q491 61 527 65 Q522 115 495.5 144 Q469 173 428 173 Q400 173 382.5 159 Q365 145 365 125 Q365 97 394 79 Q423 61 468 61 ZM691 793 L757 702 Q751 698 686 656 Q662 639 624 609 Q586 579 530 532.5 Q474 486 462 477 Q504 488 557 488 Q686 488 773 415.5 Q860 343 860 233 Q860 107 765 27 Q670 -53 493 -53 Q386 -53 316 -7.5 Q246 38 246 113 Q246 176 297.5 223 Q349 270 428 270 Q518 270 575 221 Q632 172 644 97 Q727 142 727 236 Q727 303 667 345.5 Q607 388 517 388 Q408 388 325.5 337 Q243 286 151 182 L59 278 Q100 311 195.5 390.5 Q291 470 313 488 Q321 495 408 567 Q495 639 525 665 Q410 663 280 653 Q235 651 197 645 L193 777 Q241 772 286 772 Q499 772 613 782 Q661 785 691 793 Z" /><glyph glyph-name="cid01528" unicode="&#x308c;" d="M989 201 L1006 58 Q927 -18 816 -18 Q758 -18 723.5 22.5 Q689 63 689 135 Q689 193 707 317.5 Q725 442 725 486 Q725 561 657 561 Q604 561 531.5 507.5 Q459 454 389 377 Q387 319 387 295 Q387 127 393 32 Q394 21 397 -10.5 Q400 -42 400 -46 L261 -46 Q264 -13 264 29 Q265 70 266 140 Q267 210 268 252 Q160 92 140 65 L60 177 Q188 334 277 467 L281 538 Q257 535 191.5 526.5 Q126 518 97 514 L85 644 Q128 643 173 645 Q217 648 289 658 Q290 674 291 691.5 Q292 709 293 720 Q294 731 294 736 Q294 795 289 826 L438 822 Q426 763 415 678 L453 630 Q433 604 401 553 Q401 545 399 531 Q572 682 694 682 Q773 682 813.5 640.5 Q854 599 854 532 Q854 480 837 353 Q820 226 820 173 Q820 129 859 129 Q919 129 989 201 Z" /><glyph glyph-name="cid01529" unicode="&#x308d;" d="M209 639 L204 771 Q246 766 282 766 Q486 766 605 773 Q652 777 678 784 L745 695 Q719 681 689 662 Q533 549 456 482 Q506 497 559 497 Q691 497 775.5 427.5 Q860 358 860 252 Q860 177 828 117.5 Q796 58 732.5 16.5 Q669 -25 566 -42.5 Q463 -60 328 -49 L292 83 Q494 56 607.5 102 Q721 148 721 252 Q721 312 669 350 Q617 388 531 388 Q480 388 432.5 374.5 Q385 361 350 342.5 Q315 324 276 291.5 Q237 259 213 234 Q189 209 153 169 L59 269 Q128 332 301 480.5 Q474 629 506 659 Q475 658 389.5 653.5 Q304 649 289 648 Q257 646 209 639 Z" /><glyph glyph-name="cid01530" unicode="&#x308e;" d="M356 451 L354 431 Q472 513 585 513 Q692 513 758.5 448.5 Q825 384 825 285 Q825 20 508 -36 L451 75 Q706 110 706 288 Q706 336 669 371.5 Q632 407 568 407 Q463 407 346 309 Q345 289 345 252 Q345 141 353 15 Q353 -1 358 -46 L233 -46 Q236 5 236 13 Q237 62 239 209 Q227 191 187 128.5 Q147 66 130 42 L60 139 Q94 175 152.5 252.5 Q211 330 246 383 L249 428 Q159 415 90 401 L80 508 Q119 508 147 511 Q196 515 256 525 Q257 542 258.5 567.5 Q260 593 260 598 Q263 637 258 672 L386 669 Q376 621 365 532 L393 501 Q369 469 356 451 Z" /><glyph glyph-name="cid01531" unicode="&#x308f;" d="M415 678 L453 630 Q433 604 401 553 Q401 548 400 538 Q399 528 399 523 Q539 629 697 629 Q816 629 896.5 552.5 Q977 476 977 355 Q977 52 597 -23 L536 100 Q841 148 841 358 Q841 420 795.5 464.5 Q750 509 677 509 Q529 509 389 379 Q387 321 387 295 Q387 127 393 32 Q394 21 397 -10.5 Q400 -42 400 -46 L261 -46 Q264 -13 264 29 Q265 70 266 140 Q267 210 268 252 Q198 146 140 65 L60 177 Q188 334 277 467 L281 538 Q257 535 191.5 526.5 Q126 518 97 514 L85 644 Q128 643 173 645 Q217 648 289 658 Q290 674 291 691.5 Q292 709 293 720 Q294 731 294 736 Q294 795 289 826 L438 822 Q426 763 415 678 Z" /><glyph glyph-name="cid01532" unicode="&#x3090;" d="M600 57 Q638 57 675 72 Q656 158 588 158 Q563 158 546.5 145 Q530 132 530 110 Q530 87 549.5 72 Q569 57 600 57 ZM382 428 L387 444 Q290 397 231 313.5 Q172 230 172 169 Q172 148 181.5 136.5 Q191 125 204 125 Q232 125 252 152 Q309 226 382 428 ZM556 590 L561 590 Q717 590 814 499.5 Q911 409 911 267 Q911 131 835 40 Q759 -51 613 -51 Q529 -51 477 -11.5 Q425 28 425 99 Q425 162 472 206 Q519 250 588 250 Q706 250 758 154 Q784 208 784 270 Q784 365 723 423.5 Q662 482 560 482 Q547 482 521 480 Q514 458 499 414 Q484 370 477 348 Q399 126 323 39 Q274 -16 187 -16 Q135 -16 96.5 24 Q58 64 58 134 Q58 280 163.5 405 Q269 530 429 572 Q451 642 460 682 Q380 681 196 665 L189 790 Q237 785 262 785 Q369 782 475 791 Q515 796 543 805 L620 746 Q592 700 582 669 Q580 662 571 635 Q562 608 556 590 Z" /><glyph glyph-name="cid01533" unicode="&#x3091;" d="M459 414 Q436 414 418.5 404.5 Q401 395 401 378 Q401 342 479 334 Q514 354 514 380 Q514 395 499 404.5 Q484 414 459 414 ZM700 813 L769 724 Q727 713 660 684 Q593 655 540 625 Q571 630 613 630 Q722 629 791 575.5 Q860 522 860 446 Q860 374 813 323.5 Q766 273 695 251 Q624 229 536 229 Q504 229 467 234 Q453 224 427.5 204.5 Q402 185 392 177 Q471 179 517 96 Q553 146 605 175 Q657 204 713 204 Q800 204 867 146 Q934 88 975 -9 L845 -58 Q796 95 702 95 Q665 95 634 68 Q603 41 584 -5 Q575 -30 575 -49 L444 -48 Q440 -14 437 -2 Q412 89 338 89 Q294 89 255.5 51 Q217 13 171 -58 L60 5 Q238 190 345 280 Q300 314 300 367 Q300 419 349.5 451.5 Q399 484 468 484 Q539 484 580.5 455 Q622 426 622 382 Q622 361 612 339 Q666 350 699 378 Q732 406 732 444 Q732 488 684.5 519 Q637 550 567 550 Q462 550 387 513 Q296 469 191 377 L114 471 Q287 582 502 703 Q273 691 253 689 L248 795 Q299 792 338 792 Q547 792 627 800 Q663 802 700 813 Z" /><glyph glyph-name="cid01534" unicode="&#x3092;" d="M621 147 L499 147 Q501 175 503 268 Q387 205 387 137 Q387 97 422 81.5 Q457 66 535 66 Q680 66 823 95 L819 -37 Q683 -53 532 -53 Q253 -53 253 116 Q253 162 273 203.5 Q293 245 330 278.5 Q367 312 404.5 336.5 Q442 361 492 386 Q470 421 421 421 Q380 421 337 401 Q294 381 263 351 Q230 318 168 240 L60 321 Q216 465 283 599 L271 599 Q177 599 100 606 L100 725 Q170 714 278 714 L327 714 Q347 789 348 829 L481 818 Q472 772 456 718 Q626 727 743 748 L742 629 Q604 609 411 602 Q385 544 353 500 Q395 520 467 520 Q514 520 550 499.5 Q586 479 603 441 Q647 462 740 502 Q762 512 800 530 Q838 548 851 554 L903 436 Q869 428 782 393 Q680 354 617 325 Q618 292 619.5 223 Q621 154 621 147 Z" /><glyph glyph-name="cid01535" unicode="&#x3093;" d="M453 828 L597 770 Q593 765 564 723 Q526 668 387 420 Q441 451 503 451 Q560 451 593 415.5 Q626 380 629 317 Q629 308 629.5 240.5 Q630 173 634 148 Q638 93 698 93 Q759 93 802 160.5 Q845 228 869 333 L979 244 Q893 -46 676 -46 Q597 -46 554 -5.5 Q511 35 508 95 Q506 124 504.5 189 Q503 254 502 273 Q497 330 442 330 Q393 330 352 287.5 Q311 245 281 177 Q248 107 204 -48 L60 0 Q110 134 228 378.5 Q346 623 402 725 Q406 733 424.5 768 Q443 803 453 828 Z" /><glyph glyph-name="cid01541" unicode="&#x309b;" d="M10 784 L98 819 Q127 779 198 650 L106 612 Q27 759 10 784 ZM143 835 L232 872 Q268 821 333 703 L243 666 Q175 794 143 835 Z" /><glyph glyph-name="cid01542" unicode="&#x309c;" d="M65.5 639 Q30 675 30 725 Q30 775 65.5 811 Q101 847 151 847 Q201 847 236.5 811 Q272 775 272 725 Q272 675 236.5 639 Q201 603 151 603 Q101 603 65.5 639 ZM108 767 Q90 750 90 725 Q90 700 108 682 Q126 664 151 664 Q176 664 193.5 682 Q211 700 211 725 Q211 750 193.5 767 Q176 784 151 784 Q126 784 108 767 Z" /><glyph glyph-name="cid01543" unicode="&#x309d;" d="M553 268 L519 163 Q411 126 191 36 L127 162 Q252 210 374 258 Q337 315 237 422 Q137 529 60 597 L174 680 Q267 595 385 466.5 Q503 338 553 268 Z" /><glyph glyph-name="cid01544" unicode="&#x309e;" d="M319 701 L405 736 Q428 704 498 580 L409 543 Q404 553 383.5 590.5 Q363 628 347.5 655.5 Q332 683 319 701 ZM457 744 L545 780 Q597 705 638 624 L550 587 Q484 708 457 744 ZM553 247 L519 141 Q395 98 191 15 L127 141 Q180 160 375 238 Q337 295 237 401.5 Q137 508 60 575 L173 659 Q267 573 385 445 Q503 317 553 247 Z" /><glyph glyph-name="cid01547" unicode="&#x30a1;" d="M306 403 L447 403 Q442 246 426 179 Q390 23 247 -71 Q225 -86 201 -99 L93 -12 Q137 4 176 32 Q258 88 285.5 156 Q313 224 313 331 Q313 364 306 403 ZM723 580 L798 511 Q782 494 768 470 Q732 414 672.5 339 Q613 264 564 227 L461 299 Q502 328 545.5 374.5 Q589 421 609 455 L164 455 Q115 455 58 449 L58 581 Q116 572 164 572 L640 572 Q697 572 723 580 Z" /><glyph glyph-name="cid01548" unicode="&#x30a2;" d="M353 555 L501 555 Q501 487 500 448 Q499 409 493.5 350 Q488 291 477 253.5 Q466 216 445.5 168 Q425 120 395 84.5 Q365 49 320 11.5 Q275 -26 216 -57 L98 40 Q155 59 205 96 Q297 160 328.5 243 Q360 326 360 463 Q360 509 353 555 ZM837 769 L919 693 Q891 660 879 640 Q836 569 768.5 488.5 Q701 408 632 359 L527 444 Q584 479 638 536 Q692 593 715 635 L182 635 Q141 635 57 628 L57 770 Q122 760 182 760 L734 760 Q810 760 837 769 Z" /><glyph glyph-name="cid01549" unicode="&#x30a3;" d="M685 642 L788 547 Q707 458 557 361 L557 20 Q557 -67 564 -90 L413 -90 Q418 -57 418 20 L418 284 Q260 209 129 172 L60 291 Q153 311 254 350.5 Q355 390 422 429 Q502 476 575 534.5 Q648 593 685 642 Z" /><glyph glyph-name="cid01550" unicode="&#x30a4;" d="M631 508 L631 89 Q631 -12 640 -45 L478 -45 Q485 -1 485 89 L485 425 Q303 333 133 286 L59 411 Q316 467 525 596 Q605 646 678 709 Q751 772 793 827 L902 728 Q778 604 631 508 Z" /><glyph glyph-name="cid01551" unicode="&#x30a5;" d="M676 532 L766 485 Q755 456 750 416 Q741 359 717 285.5 Q693 212 663 158 Q613 67 518.5 1.5 Q424 -64 305 -93 L203 23 Q273 34 328 55 Q460 104 525 197 Q592 291 602 407 L187 407 L187 287 Q187 249 190 225 L60 225 Q64 265 64 294 L64 450 Q64 470 58 530 Q105 525 156 525 L331 525 L331 580 Q331 614 324 655 L468 655 Q462 602 462 580 L462 525 L605 525 Q656 525 676 532 Z" /><glyph glyph-name="cid01552" unicode="&#x30a6;" d="M786 675 L875 621 Q864 590 854 539 Q825 372 759 249 Q698 137 588.5 57.5 Q479 -22 341 -58 L235 65 Q312 78 379 104 Q530 161 612 280 Q682 380 703 543 L195 543 L195 393 Q195 347 198 317 L57 317 Q62 360 62 403 L62 581 Q62 638 57 669 Q102 664 161 664 L380 664 L380 742 Q380 787 372 837 L530 837 Q523 775 523 742 L523 664 L701 664 Q755 664 786 675 Z" /><glyph glyph-name="cid01553" unicode="&#x30a7;" d="M486 100 L708 100 Q726 100 786 106 L786 -28 Q759 -23 708 -23 L142 -23 Q94 -23 59 -28 L59 106 Q113 100 142 100 L351 100 L351 430 L192 430 Q157 430 111 426 L111 555 Q140 550 192 550 L661 550 Q698 550 740 555 L740 426 Q688 430 661 430 L486 430 L486 100 Z" /><glyph glyph-name="cid01554" unicode="&#x30a8;" d="M563 161 L834 161 Q877 161 929 169 L929 20 Q886 26 834 26 L159 26 Q110 26 59 20 L59 169 Q102 161 159 161 L419 161 L419 579 L222 579 Q189 579 124 574 L124 715 Q164 709 222 709 L779 709 Q815 709 875 715 L875 574 Q798 579 779 579 L563 579 L563 161 Z" /><glyph glyph-name="cid01555" unicode="&#x30a9;" d="M593 489 L714 489 Q737 489 797 496 L797 372 Q749 374 719 374 L596 374 Q602 142 603 8 Q604 -32 576 -57 Q548 -82 504 -82 Q422 -82 345 -77 L337 40 Q400 31 455 31 Q481 31 481 62 Q481 109 479 265 Q424 195 331 118.5 Q238 42 149 -4 L60 98 Q165 147 263.5 224 Q362 301 418 374 L199 374 Q163 374 103 370 L103 496 Q161 489 196 489 L474 489 Q474 514 472 552 Q470 592 464 637 L596 637 Q592 604 592 552 L593 489 Z" /><glyph glyph-name="cid01556" unicode="&#x30aa;" d="M694 643 L822 643 Q879 643 929 651 L929 515 Q830 518 829 518 L697 518 Q698 466 702 302 Q706 138 707 59 Q708 9 679 -17.5 Q650 -44 592 -44 Q501 -44 414 -38 L402 95 Q471 83 539 83 Q558 83 566 93 Q574 103 574 126 Q574 297 572 402 Q503 311 388.5 215 Q274 119 155 56 L60 163 Q203 231 324 328.5 Q445 426 511 518 L231 518 Q187 518 115 514 L115 650 Q167 643 228 643 L567 643 Q566 677 564 717 Q560 777 554 820 L699 820 Q693 772 693 717 L694 643 Z" /><glyph glyph-name="cid01557" unicode="&#x30ab;" d="M779 645 L867 602 Q860 562 860 548 Q846 158 799 47 Q764 -32 667 -32 Q597 -32 497 -24 L482 114 Q565 99 625 99 Q668 99 684 135 Q704 179 715.5 297 Q727 415 727 515 L496 515 Q468 315 392.5 184 Q317 53 178 -46 L59 50 Q137 93 193 151 Q328 285 362 515 L227 515 Q136 515 92 511 L92 645 Q167 638 227 638 L373 638 Q375 696 375 727 Q375 777 368 821 L519 821 Q516 793 513 730 Q511 670 509 638 L701 638 Q734 638 779 645 Z" /><glyph glyph-name="cid01558" unicode="&#x30ac;" d="M863 679 L781 644 Q738 735 702 786 L782 819 Q820 765 863 679 ZM509 628 L702 628 Q743 628 779 635 L867 591 Q860 554 860 538 Q846 144 800 36 Q765 -42 668 -42 Q598 -42 498 -34 L482 102 Q569 88 626 88 Q650 88 663 96.5 Q676 105 684 125 Q704 169 715.5 287 Q727 405 727 505 L497 505 Q469 305 393.5 174 Q318 43 178 -56 L60 40 Q142 86 194 139 Q329 272 363 505 L227 505 Q147 505 92 500 L92 635 Q152 628 227 628 L374 628 Q376 686 376 717 Q376 767 369 811 L519 811 Q516 782 513 719 Q511 661 509 628 ZM822 833 L903 866 Q952 796 986 727 L904 691 Q867 770 822 833 Z" /><glyph glyph-name="cid01559" unicode="&#x30ad;" d="M871 434 L898 299 Q878 298 790 284 Q600 253 568 248 Q577 200 590 137 Q603 74 605 63 Q606 57 632 -37 L484 -63 Q472 29 470 40 Q468 53 463 79.5 Q458 106 449.5 149 Q441 192 435 226 Q296 203 190 184 Q124 172 88 163 L59 300 Q82 301 166 311 Q189 314 273.5 328 Q358 342 411 350 L381 514 Q329 506 258.5 494 Q188 482 180 481 Q129 471 86 460 L58 601 Q109 603 153 608 Q201 613 356 638 Q351 663 345 695 Q339 727 338 731 Q336 742 317 809 L462 833 Q463 829 466.5 798.5 Q470 768 473 753 Q475 736 489 658 Q638 682 691 692 Q741 701 787 714 L812 580 Q799 579 764 573.5 Q729 568 718 567 L513 535 L545 372 Q712 399 767 410 Q838 424 871 434 Z" /><glyph glyph-name="cid01560" unicode="&#x30ae;" d="M963 751 L882 715 Q834 809 799 856 L880 890 Q924 828 963 751 ZM512 516 L544 353 Q711 380 766 391 Q804 398 871 416 L898 281 Q890 280 790 265 Q600 234 568 229 Q577 183 590 120.5 Q603 58 605 45 Q611 18 631 -55 L484 -81 Q473 2 469 23 Q464 54 435 208 Q296 185 190 166 Q122 154 89 145 L59 282 Q81 283 165 293 Q188 296 273.5 310 Q359 324 411 332 L380 496 Q328 488 258 476 Q188 464 180 463 Q140 455 85 441 L58 583 Q116 586 153 590 Q201 595 356 620 Q351 645 344.5 677 Q338 709 337 713 Q331 743 317 791 L461 814 L473 734 Q477 708 490 640 Q643 665 691 674 Q696 675 749 686 Q711 762 678 810 L759 844 Q802 782 841 703 L790 681 L811 561 Q808 561 717 549 L512 516 Z" /><glyph glyph-name="cid01561" unicode="&#x30af;" d="M804 701 L909 637 Q885 596 875 563 Q815 369 697 221 Q547 37 283 -68 L162 41 Q308 84 404 146.5 Q500 209 575 294 Q626 352 666.5 432.5 Q707 513 720 573 L432 573 Q317 425 174 326 L60 411 Q259 533 379 740 Q412 797 425 848 L575 799 Q542 751 512 694 L509 689 L715 689 Q763 689 804 701 Z" /><glyph glyph-name="cid01562" unicode="&#x30b0;" d="M899 698 L823 667 L910 613 Q885 571 876 541 Q816 345 697 199 Q548 14 284 -91 L163 17 Q309 60 404.5 122.5 Q500 185 576 271 Q626 328 667 409 Q708 490 721 550 L433 550 Q318 400 175 302 L60 388 Q261 510 379 717 Q412 771 426 824 L576 775 Q541 724 513 671 L509 666 L715 666 Q765 666 804 678 L812 674 Q772 757 737 806 L818 839 Q854 787 899 698 ZM858 852 L939 885 Q980 828 1021 745 L940 711 Q902 793 858 852 Z" /><glyph glyph-name="cid01563" unicode="&#x30b1;" d="M414 644 L856 644 Q922 644 962 651 L962 511 Q924 515 856 515 L712 515 Q686 124 402 -56 L264 36 Q320 59 361 93 Q549 236 570 515 L354 515 Q279 379 189 300 L60 378 Q151 445 237 589 Q271 645 297 728 Q315 780 318 834 L476 802 Q456 755 443 719 Q430 683 414 644 Z" /><glyph glyph-name="cid01564" unicode="&#x30b2;" d="M1019 735 L938 699 Q889 796 856 841 L937 874 Q988 800 1019 735 ZM897 687 L816 652 Q759 760 735 795 L817 827 Q852 778 897 687 ZM414 621 L855 621 Q922 621 962 628 L962 487 Q899 492 855 492 L712 492 Q686 100 402 -80 L264 12 Q314 32 361 70 Q549 213 570 492 L354 492 Q279 355 188 276 L60 353 Q147 418 237 564 Q270 621 296 705 Q315 761 318 809 L476 778 Q455 728 443 694 Q437 677 414 621 Z" /><glyph glyph-name="cid01565" unicode="&#x30b3;" d="M805 -23 L656 -23 Q657 -7 657 31 L191 31 Q126 31 58 25 L58 171 Q130 165 186 165 L659 165 L659 589 L199 589 Q130 589 72 585 L72 727 Q129 721 199 721 L714 721 Q770 721 804 723 Q801 651 801 629 L801 98 Q801 39 805 -23 Z" /><glyph glyph-name="cid01566" unicode="&#x30b4;" d="M799 596 L799 66 Q799 -3 804 -55 L656 -55 Q657 -39 657 -2 L189 -2 Q126 -2 58 -8 L58 138 Q128 132 185 132 L658 132 L658 556 L197 556 Q128 556 70 552 L70 694 Q128 688 197 688 L691 688 Q659 760 615 820 L699 855 Q745 789 779 718 L708 688 L713 688 Q768 688 802 690 Q799 618 799 596 ZM752 853 L837 888 Q880 827 919 753 L834 716 Q777 820 752 853 Z" /><glyph glyph-name="cid01567" unicode="&#x30b5;" d="M765 612 L841 612 Q908 612 953 620 L953 483 Q919 486 841 486 L765 486 L765 453 Q765 373 756.5 311.5 Q748 250 727.5 193 Q707 136 672 91 Q637 46 584 6.5 Q531 -33 457 -65 L347 39 Q451 75 510 120 Q569 165 600.5 244 Q632 323 632 447 L632 486 L389 486 L389 347 Q389 320 393 240 L250 240 Q256 280 256 347 L256 486 L169 486 Q104 486 58 482 L58 622 Q118 612 169 612 L256 612 L256 714 Q256 749 250 806 L395 806 Q389 768 389 713 L389 612 L632 612 L632 720 Q632 775 626 815 L771 815 Q765 755 765 720 L765 612 Z" /><glyph glyph-name="cid01568" unicode="&#x30b6;" d="M1014 690 L944 668 Q916 756 888 807 L958 829 Q992 755 1014 690 ZM907 656 L836 634 Q806 727 784 774 L853 797 Q890 716 907 656 ZM765 596 L840 596 Q908 596 953 604 L953 468 Q918 471 841 471 L765 471 L765 437 Q765 337 751.5 263.5 Q738 190 703.5 125 Q669 60 608.5 10 Q548 -40 456 -81 L347 23 Q452 60 510.5 105 Q569 150 600 228.5 Q631 307 631 432 L631 471 L389 471 L389 332 Q389 304 393 224 L249 224 Q256 271 256 332 L256 471 L169 471 Q104 471 58 467 L58 606 Q118 596 169 596 L256 596 L256 698 Q256 724 249 791 L395 791 Q389 734 389 697 L389 596 L631 596 L631 705 Q631 761 625 799 L772 799 Q765 752 765 705 L765 596 Z" /><glyph glyph-name="cid01569" unicode="&#x30b7;" d="M217 698 L291 811 Q416 741 525 665 L448 551 Q323 639 217 698 ZM178 -51 L101 84 Q295 116 450 199 Q579 271 682.5 371.5 Q786 472 848 583 L927 443 Q856 337 751 242.5 Q646 148 520 76 Q444 33 346.5 -3 Q249 -39 178 -51 ZM59 464 L134 578 Q253 514 367 433 L292 318 Q143 421 59 464 Z" /><glyph glyph-name="cid01570" unicode="&#x30b8;" d="M650 751 L734 786 Q787 709 829 628 L740 590 Q695 688 650 751 ZM789 800 L876 836 Q914 787 972 683 L885 644 Q842 729 789 800 ZM216 693 L290 806 Q396 748 524 659 L448 547 Q334 627 216 693 ZM177 -55 L101 79 Q297 111 449 195 Q578 267 682 367.5 Q786 468 847 579 L926 439 Q784 225 519 71 Q443 29 345 -7 Q247 -43 177 -55 ZM59 460 L132 572 Q259 505 367 428 L292 313 Q163 404 59 460 Z" /><glyph glyph-name="cid01571" unicode="&#x30b9;" d="M752 757 L836 694 Q816 666 800 631 Q729 469 639 349 Q712 286 794.5 200.5 Q877 115 925 56 L808 -45 Q709 91 550 245 Q370 55 165 -43 L60 68 Q177 112 290 193 Q403 274 480 361 Q531 419 573 488 Q615 557 632 612 L285 612 Q266 612 241.5 610.5 Q217 609 194 607 Q171 605 164 605 L164 751 Q220 743 285 743 L646 743 Q712 743 752 757 Z" /><glyph glyph-name="cid01572" unicode="&#x30ba;" d="M1001 749 L921 714 Q871 809 838 854 L918 888 Q962 826 1001 749 ZM813 687 L837 670 Q813 633 801 605 Q732 448 640 325 Q713 262 795.5 176.5 Q878 91 926 32 L809 -71 Q706 71 551 219 Q367 27 166 -68 L60 43 Q177 86 289.5 167.5 Q402 249 480 337 Q531 395 573.5 464.5 Q616 534 633 588 L286 588 Q267 588 242.5 586.5 Q218 585 195 583 Q172 581 165 581 L165 726 Q214 719 286 719 L647 719 Q719 719 753 731 L765 722 Q742 767 709 818 L789 852 Q836 784 871 712 L813 687 Z" /><glyph glyph-name="cid01573" unicode="&#x30bb;" d="M697 232 L584 299 Q631 340 677 400 Q723 460 748 506 L433 443 L433 172 Q433 122 457.5 104 Q482 86 563 86 Q706 86 887 120 L882 -18 Q719 -41 565 -41 Q479 -41 425.5 -31 Q372 -21 344 3 Q316 27 307 56.5 Q298 86 298 136 L298 416 Q154 388 83 371 L58 505 Q110 512 298 545 L298 691 Q298 758 290 808 L442 808 Q433 752 433 691 L433 570 Q618 605 772 638 Q819 649 845 663 L943 586 Q916 544 909 530 Q871 459 810 370.5 Q749 282 697 232 Z" /><glyph glyph-name="cid01574" unicode="&#x30bc;" d="M1018 744 L937 709 Q887 807 856 850 L936 884 Q986 812 1018 744 ZM896 697 L815 662 Q758 770 734 804 L816 838 Q851 786 896 697 ZM433 671 L433 551 Q663 594 771 618 Q818 629 843 643 L942 566 Q917 528 909 511 Q871 440 810 351.5 Q749 263 697 213 L584 280 Q631 321 676.5 380.5 Q722 440 747 486 Q658 469 433 424 L433 153 Q433 103 457.5 85 Q482 67 563 67 Q711 67 886 100 L882 -38 Q726 -60 564 -60 Q478 -60 424.5 -50 Q371 -40 343 -16 Q315 8 306 38 Q297 68 297 117 L297 396 Q153 368 82 351 L58 485 Q107 491 297 525 L297 671 Q297 738 289 788 L442 788 Q433 732 433 671 Z" /><glyph glyph-name="cid01575" unicode="&#x30bd;" d="M335 -45 L213 60 Q434 152 563 338 Q649 462 684 647 Q699 718 697 771 L863 748 Q850 705 832 629 Q783 412 690 269 Q557 63 335 -45 ZM60 698 L191 766 Q268 657 369 466 L233 389 Q148 573 60 698 Z" /><glyph glyph-name="cid01576" unicode="&#x30be;" d="M368 439 L233 362 Q199 435 149 526 Q99 617 60 672 L192 739 Q269 627 368 439 ZM833 718 L752 684 L850 665 Q839 628 821 556 Q807 500 791 452 Q775 404 748.5 344.5 Q722 285 685.5 232 Q649 179 600.5 125 Q552 71 484.5 20.5 Q417 -30 335 -72 L212 34 Q312 76 391 134.5 Q470 193 516 247 Q562 301 597 367.5 Q632 434 646.5 478 Q661 522 673 575 Q690 657 689 696 L747 685 Q713 759 668 820 L753 855 Q799 789 833 718 ZM806 853 L891 888 Q934 827 973 753 L888 716 Q831 820 806 853 Z" /><glyph glyph-name="cid01577" unicode="&#x30bf;" d="M816 718 L921 653 Q898 614 887 581 Q836 431 745 300 Q787 274 844 234 L751 115 Q729 135 655 187 Q497 15 278 -68 L159 36 Q384 104 541 265 Q446 326 349 382 L436 479 Q537 426 629 372 Q711 491 735 590 L441 590 Q317 427 171 326 L60 411 Q264 537 387 751 Q420 806 433 858 L582 812 Q548 763 518 708 L517 707 L727 707 Q780 707 816 718 Z" /><glyph glyph-name="cid01578" unicode="&#x30c0;" d="M902 700 L844 676 L919 630 Q896 589 885 556 Q836 407 744 276 Q827 222 842 211 L750 90 Q726 112 655 163 Q495 -9 277 -92 L158 11 Q383 79 539 241 Q454 296 349 357 L435 455 Q515 413 627 347 Q710 469 734 565 L440 565 Q318 404 170 301 L60 386 Q260 510 385 726 Q419 782 432 834 L580 787 Q549 742 518 683 L517 682 L726 682 Q771 682 807 691 Q770 765 740 808 L821 841 Q857 789 902 700 ZM861 854 L942 887 Q988 823 1024 748 L943 713 Q905 795 861 854 Z" /><glyph glyph-name="cid01579" unicode="&#x30c1;" d="M575 484 L833 484 Q857 484 926 490 L926 358 Q870 362 836 362 L571 362 Q547 84 309 -58 L179 30 Q408 136 436 362 L154 362 Q112 362 58 358 L58 490 Q114 484 152 484 L441 484 L441 630 Q326 621 166 616 L135 735 Q329 730 484 752 Q665 777 742 813 L826 700 Q805 695 777.5 688.5 Q750 682 747 681 Q670 661 575 647 L575 484 Z" /><glyph glyph-name="cid01580" unicode="&#x30c2;" d="M996 575 L921 540 Q881 616 845 664 L919 698 Q954 650 996 575 ZM730 622 L806 653 Q850 590 879 528 L802 495 Q759 582 730 622 ZM575 472 L833 472 Q867 472 927 477 L927 346 Q885 349 837 349 L571 349 Q545 69 309 -72 L179 16 Q407 122 435 349 L154 349 Q99 349 58 346 L58 478 Q114 472 153 472 L440 472 L440 617 Q343 609 167 604 L134 723 Q341 718 484 739 Q665 764 742 801 L826 688 Q805 683 777.5 676.5 Q750 670 747 669 Q674 650 575 635 L575 472 Z" /><glyph glyph-name="cid01581" unicode="&#x30c3;" d="M297 569 L419 609 Q475 480 503 385 L380 342 Q371 380 343.5 455 Q316 530 297 569 ZM653 581 L797 535 Q783 496 772 460 Q724 277 633 160 Q497 -16 290 -94 L183 15 Q274 39 368 96 Q462 153 523 229 Q575 294 610 389 Q645 484 653 581 ZM59 511 L182 555 Q226 466 277 322 L152 274 Q137 321 106.5 400.5 Q76 480 59 511 Z" /><glyph glyph-name="cid01582" unicode="&#x30c4;" d="M346 756 L474 798 Q494 759 531 665.5 Q568 572 582 523 L453 478 Q439 528 404 618.5 Q369 709 346 756 ZM789 760 L941 716 Q927 679 916 636 Q853 394 744 251 Q665 148 559.5 71 Q454 -6 341 -49 L227 66 Q339 98 448 166.5 Q557 235 631 330 Q691 406 734 527.5 Q777 649 789 760 ZM59 689 L190 734 Q214 686 252 593.5 Q290 501 308 447 L176 399 Q161 450 121 549.5 Q81 649 59 689 Z" /><glyph glyph-name="cid01583" unicode="&#x30c5;" d="M348 726 L476 768 Q495 730 531.5 637 Q568 544 583 494 L454 449 Q439 500 405 590 Q371 680 348 726 ZM780 667 L930 632 Q924 618 904 552 Q846 355 745 221 Q666 117 560.5 40 Q455 -37 343 -79 L228 36 Q340 68 449.5 137 Q559 206 633 300 Q743 438 780 667 ZM60 658 L191 705 Q267 543 310 418 L178 370 Q159 426 120 523 Q81 620 60 658 ZM702 821 L787 856 Q830 794 867 719 L782 683 Q745 763 702 821 ZM841 854 L926 889 Q967 830 1007 753 L922 717 Q863 825 841 854 Z" /><glyph glyph-name="cid01584" unicode="&#x30c6;" d="M698 657 L287 657 Q240 657 178 653 L178 785 Q224 778 286 778 L698 778 Q760 778 809 785 L809 653 Q737 657 698 657 ZM156 517 L827 517 Q878 517 920 523 L920 390 Q881 393 827 393 L580 393 Q571 239 515 130 Q487 75 431.5 21 Q376 -33 309 -67 L189 20 Q242 40 292 80.5 Q342 121 374 167 Q431 253 438 393 L156 393 Q116 393 58 389 L58 523 Q120 517 156 517 Z" /><glyph glyph-name="cid01585" unicode="&#x30c7;" d="M996 751 L915 715 Q867 808 833 856 L914 890 Q965 816 996 751 ZM874 703 L792 668 Q737 772 711 810 L793 844 Q832 787 874 703 ZM621 644 L286 644 Q224 644 177 641 L177 773 Q230 765 286 765 L621 765 Q676 765 732 773 L732 641 Q680 644 621 644 ZM156 505 L827 505 Q880 505 920 511 L920 378 Q881 381 827 381 L580 381 Q571 230 514 118 Q486 63 430.5 9 Q375 -45 309 -79 L189 8 Q243 29 293 69 Q343 109 374 155 Q432 241 438 381 L156 381 Q116 381 58 377 L58 511 Q104 505 156 505 Z" /><glyph glyph-name="cid01586" unicode="&#x30c8;" d="M637 377 L578 236 Q437 310 209 388 L209 98 Q209 48 218 -44 L58 -44 Q69 29 69 98 L69 686 Q69 753 58 810 L218 810 Q209 729 209 686 L209 536 Q312 506 439.5 458.5 Q567 411 637 377 Z" /><glyph glyph-name="cid01587" unicode="&#x30c9;" d="M706 667 L620 625 Q579 705 525 778 L610 818 Q670 736 706 667 ZM569 607 L479 567 Q435 662 389 725 L475 762 Q533 676 569 607 ZM207 672 L207 522 Q311 491 438.5 443.5 Q566 396 635 362 L578 220 Q428 299 207 373 L207 83 Q207 25 217 -59 L57 -59 Q67 8 67 83 L67 672 Q67 743 57 796 L216 796 Q207 715 207 672 Z" /><glyph glyph-name="cid01588" unicode="&#x30ca;" d="M579 578 L810 578 Q855 578 921 584 L921 444 Q811 449 809 449 L578 449 Q573 283 508 160 Q443 37 286 -57 L159 37 Q302 102 366.5 205.5 Q431 309 437 449 L176 449 Q154 449 58 443 L58 585 Q130 578 172 578 L438 578 L438 690 Q438 764 425 810 L587 810 Q579 767 579 689 L579 578 Z" /><glyph glyph-name="cid01589" unicode="&#x30cb;" d="M58 38 L58 195 Q165 187 186 187 L774 187 Q816 187 886 195 L886 38 Q832 44 774 44 L186 44 Q134 44 58 38 ZM144 547 L144 695 Q200 689 264 689 L688 689 Q743 689 801 695 L801 547 Q791 547 768 548.5 Q745 550 724.5 550.5 Q704 551 688 551 L265 551 Q214 551 144 547 Z" /><glyph glyph-name="cid01590" unicode="&#x30cc;" d="M729 756 L826 683 Q810 655 795 614 Q727 417 634 282 Q745 201 826 128 L731 14 Q649 92 545 172 Q469 94 371 31.5 Q273 -31 173 -68 L60 47 Q279 116 428 257 Q276 365 175 420 L259 520 Q373 459 519 361 Q607 489 638 613 L264 613 Q252 613 132 609 L132 748 Q212 740 264 740 L652 740 Q689 740 729 756 Z" /><glyph glyph-name="cid01591" unicode="&#x30cd;" d="M797 699 L881 616 Q846 581 802 531 Q706 422 587 331 Q587 288 586.5 195.5 Q586 103 586 73 Q586 17 593 -58 L445 -58 Q454 7 454 73 L454 248 Q323 178 139 122 L60 243 Q289 294 478 414 Q597 491 650 567 L279 567 Q199 567 146 562 L146 696 Q192 689 277 689 L455 689 L455 742 Q455 792 448 837 L595 837 Q589 787 589 742 L589 689 L712 689 Q761 689 797 699 ZM651 274 L736 373 Q879 295 982 224 L896 112 Q786 199 651 274 Z" /><glyph glyph-name="cid01592" unicode="&#x30ce;" d="M642 791 L802 750 Q789 724 757 635 Q666 386 564 259 Q493 169 390 87.5 Q287 6 176 -38 L60 82 Q177 122 278 192 Q379 262 449 348 Q519 433 569 553 Q619 673 642 791 Z" /><glyph glyph-name="cid01593" unicode="&#x30cf;" d="M218 338 Q297 535 315 727 L465 695 Q445 622 440 594 Q429 534 403.5 443.5 Q378 353 353 286 Q292 122 203 -7 L59 53 Q159 186 218 338 ZM724 359 Q656 547 575 696 L711 740 Q787 596 863 404 Q927 239 982 47 L830 -2 Q779 209 724 359 Z" /><glyph glyph-name="cid01594" unicode="&#x30d0;" d="M741 783 L822 817 Q863 757 903 677 L821 641 Q762 754 741 783 ZM862 829 L943 863 Q988 798 1025 724 L944 688 Q909 764 862 829 ZM220 318 Q299 516 317 708 L466 677 Q452 629 442 574 Q412 422 355 266 Q294 103 203 -27 L60 34 Q160 163 220 318 ZM725 340 Q653 539 577 677 L713 721 Q792 572 864 385 Q925 233 984 28 L832 -22 Q784 181 725 340 Z" /><glyph glyph-name="cid01595" unicode="&#x30d1;" d="M843 736 Q843 712 860.5 695 Q878 678 903 678 Q928 678 945 695 Q962 712 962 736 Q962 761 945 778.5 Q928 796 903 796 Q878 796 860.5 778.5 Q843 761 843 736 ZM780 736 Q780 787 816 823 Q852 859 903 859 Q954 859 989.5 823 Q1025 787 1025 736 Q1025 686 989.5 650 Q954 614 903 614 Q852 614 816 650 Q780 686 780 736 ZM220 318 Q299 516 317 708 L466 677 Q452 629 442 574 Q412 422 355 266 Q294 103 203 -27 L60 34 Q160 163 220 318 ZM725 340 Q653 539 577 677 L713 721 Q795 565 864 385 Q925 233 984 28 L832 -22 Q784 181 725 340 Z" /><glyph glyph-name="cid01596" unicode="&#x30d2;" d="M200 373 L200 183 Q200 152 215 139 Q230 126 266 119 Q313 113 384 113 Q473 113 577.5 122.5 Q682 132 741 148 L741 -1 Q590 -23 376 -23 Q279 -23 204 -11 Q64 14 64 142 L64 700 Q64 756 56 807 L207 807 Q200 762 200 700 L200 507 Q411 561 558 622 Q618 646 669 677 L724 548 Q709 542 667 524 Q625 506 605 499 Q436 433 200 373 Z" /><glyph glyph-name="cid01597" unicode="&#x30d3;" d="M731 689 L648 654 Q605 745 568 796 L649 829 Q694 764 731 689 ZM199 351 L199 162 Q199 131 214 117.5 Q229 104 266 97 Q313 91 385 91 Q471 91 576.5 101 Q682 111 741 127 L741 -23 Q597 -44 376 -44 Q279 -44 204 -32 Q64 -8 64 121 L64 679 Q64 734 56 785 L207 785 Q199 734 199 679 L199 485 Q408 537 553 599 Q614 622 665 654 L720 524 Q713 521 667 502 Q621 483 601 476 Q433 409 199 351 ZM689 843 L770 876 Q807 825 852 736 L772 701 Q722 798 689 843 Z" /><glyph glyph-name="cid01598" unicode="&#x30d4;" d="M744 668 Q769 668 786 685 Q803 702 803 727 Q803 752 786 769 Q769 786 744 786 Q720 786 703 769 Q686 752 686 727 Q686 702 703 685 Q720 668 744 668 ZM199 679 L199 485 Q408 537 553 599 Q599 616 652 646 Q622 683 622 727 Q622 778 657.5 814 Q693 850 744 850 Q795 850 831 814 Q867 778 867 727 Q867 676 831 640 Q795 604 744 604 Q708 604 678 624 L720 524 Q713 521 667 502 Q621 483 601 476 Q433 409 199 351 L199 162 Q199 131 214 117.5 Q229 104 266 97 Q313 91 385 91 Q471 91 576.5 101 Q682 111 741 127 L741 -23 Q597 -44 376 -44 Q279 -44 204 -32 Q64 -8 64 121 L64 679 Q64 734 56 785 L207 785 Q199 734 199 679 Z" /><glyph glyph-name="cid01599" unicode="&#x30d5;" d="M734 746 L834 682 Q822 655 812 610 Q753 366 658 238 Q507 38 247 -45 L135 78 Q391 137 536 317 Q630 435 656 606 L179 606 Q111 606 57 602 L57 746 Q140 738 180 738 L653 738 Q702 738 734 746 Z" /><glyph glyph-name="cid01600" unicode="&#x30d6;" d="M808 728 L770 712 L835 670 Q826 652 812 599 Q752 349 659 226 Q511 28 247 -56 L135 66 Q279 100 374 160 Q469 220 537 306 Q585 366 615.5 444 Q646 522 658 595 L180 595 Q112 595 58 591 L58 735 Q118 727 180 727 L654 727 Q685 727 703 729 Q685 764 645 828 L729 863 Q774 798 808 728 ZM788 854 L873 889 Q912 833 954 754 L870 717 Q813 821 788 854 Z" /><glyph glyph-name="cid01601" unicode="&#x30d7;" d="M834 692 Q858 692 875 709.5 Q892 727 892 751 Q892 776 875 793 Q858 810 834 810 Q809 810 791.5 793 Q774 776 774 751 Q774 727 791.5 709.5 Q809 692 834 692 ZM180 727 L654 727 Q682 727 713 731 Q711 743 711 751 Q711 802 747 837.5 Q783 873 834 873 Q884 873 920 837.5 Q956 802 956 751 Q956 701 920 665 Q884 629 834 629 Q824 629 820 630 L812 599 Q752 349 659 226 Q511 28 247 -56 L135 66 Q279 100 374 160 Q469 220 537 306 Q585 366 615.5 444 Q646 522 658 595 L180 595 Q112 595 58 591 L58 735 Q118 727 180 727 Z" /><glyph glyph-name="cid01602" unicode="&#x30d8;" d="M183 182 L60 309 Q91 334 144 387 Q174 418 341 618 Q388 673 432.5 676 Q477 679 541 627 Q619 563 750 419 Q927 230 1002 143 L893 24 Q848 81 673 289 Q542 445 486 492 Q459 515 442 514 Q425 513 403 485 Q380 456 321 376 Q262 296 248 278 L183 182 Z" /><glyph glyph-name="cid01603" unicode="&#x30d9;" d="M660 673 L749 710 Q806 625 845 546 L753 506 Q705 611 660 673 ZM798 726 L886 766 Q944 687 986 606 L896 563 Q846 662 798 726 ZM181 167 L60 291 Q97 322 144 369 Q160 385 185.5 414.5 Q211 444 232.5 469.5 Q254 495 288 536.5 Q322 578 340 600 Q387 656 432 658.5 Q477 661 541 609 Q623 540 750 401 Q968 164 1002 125 L892 6 Q793 132 673 274 Q550 422 485 477 Q458 501 441 499.5 Q424 498 402 471 Q378 441 315 355.5 Q252 270 246 262 Q214 219 181 167 Z" /><glyph glyph-name="cid01604" unicode="&#x30da;" d="M782 673 Q763 654 763 627 Q763 600 782 581 Q801 562 828 562 Q855 562 874 581 Q893 600 893 627 Q893 654 874 673 Q855 692 828 692 Q801 692 782 673 ZM696 627 Q696 683 734.5 721.5 Q773 760 828 760 Q883 760 922 721 Q961 682 961 627 Q961 572 922.5 533.5 Q884 495 828 495 Q773 495 734.5 533.5 Q696 572 696 627 ZM181 167 L60 291 Q97 322 144 369 Q160 385 185.5 414.5 Q211 444 232.5 469.5 Q254 495 288 536.5 Q322 578 340 600 Q387 656 432 658.5 Q477 661 541 609 Q623 540 750 401 Q968 164 1002 125 L892 6 Q793 132 673 274 Q550 422 485 477 Q458 501 441 499.5 Q424 498 402 471 Q378 441 315 355.5 Q252 270 246 262 Q214 219 181 167 Z" /><glyph glyph-name="cid01605" unicode="&#x30db;" d="M253 434 L369 380 Q335 314 275 227.5 Q215 141 172 94 L60 170 Q112 219 167 294 Q222 369 253 434 ZM840 525 L601 525 L601 49 Q601 4 574 -21.5 Q547 -47 493 -47 Q405 -47 328 -38 L315 88 Q374 77 429 77 Q449 77 457 85.5 Q465 94 466 114 Q467 152 467 524 L467 525 L207 525 Q147 525 108 521 L108 656 Q180 649 207 649 L467 649 L467 731 Q467 775 459 820 L610 820 Q601 778 601 730 L601 649 L838 649 Q891 649 940 656 L940 522 Q892 525 840 525 ZM697 377 L809 437 Q900 321 984 168 L864 102 Q777 274 697 377 Z" /><glyph glyph-name="cid01606" unicode="&#x30dc;" d="M1015 725 L934 689 Q887 781 855 824 L935 857 Q979 798 1015 725 ZM880 694 L798 659 Q754 749 721 795 L802 828 Q849 759 880 694 ZM252 422 L368 368 Q333 301 273.5 214.5 Q214 128 171 82 L60 158 Q111 207 165.5 282 Q220 357 252 422 ZM839 513 L600 513 L600 37 Q600 -8 573 -33.5 Q546 -59 493 -59 Q404 -59 326 -50 L314 77 Q380 65 428 65 Q448 65 456 73 Q464 81 465 101 Q466 139 466 512 L466 513 L206 513 Q146 513 107 509 L107 645 Q169 637 206 637 L466 637 L466 719 Q466 770 457 808 L609 808 Q600 745 600 719 L600 637 L838 637 Q892 637 939 644 L939 510 Q891 513 839 513 ZM697 365 L809 425 Q900 309 984 156 L863 90 Q828 160 780 240.5 Q732 321 697 365 Z" /><glyph glyph-name="cid01607" unicode="&#x30dd;" d="M869 823 Q845 823 829 807 Q813 791 813 768 Q813 745 829 728.5 Q845 712 869 712 Q892 712 908 728.5 Q924 745 924 768 Q924 791 908 807 Q892 823 869 823 ZM869 649 Q819 649 784.5 683.5 Q750 718 750 768 Q750 817 784.5 851.5 Q819 886 869 886 Q919 886 953 852 Q987 818 987 768 Q987 718 952.5 683.5 Q918 649 869 649 ZM252 422 L368 368 Q333 301 273.5 214.5 Q214 128 171 82 L60 158 Q111 207 165.5 282 Q220 357 252 422 ZM839 513 L600 513 L600 37 Q600 -8 573 -33.5 Q546 -59 493 -59 Q404 -59 326 -50 L314 77 Q380 65 428 65 Q448 65 456 73 Q464 81 465 101 Q466 139 466 512 L466 513 L206 513 Q146 513 107 509 L107 645 Q169 637 206 637 L466 637 L466 719 Q466 770 457 808 L609 808 Q600 745 600 719 L600 637 L838 637 Q892 637 939 644 L939 510 Q891 513 839 513 ZM697 365 L809 425 Q900 309 984 156 L863 90 Q828 160 780 240.5 Q732 321 697 365 Z" /><glyph glyph-name="cid01608" unicode="&#x30de;" d="M839 729 L942 645 Q911 610 907 602 Q846 504 753 394 Q660 284 558 202 Q647 113 717 29 L597 -67 Q529 23 401 155 Q356 201 288.5 259.5 Q221 318 176 351 L284 438 Q359 381 458 296 Q540 361 609.5 442 Q679 523 718 591 L176 591 Q135 591 58 584 L58 727 Q119 718 176 718 L744 718 Q804 718 839 729 Z" /><glyph glyph-name="cid01609" unicode="&#x30df;" d="M163 681 L211 802 Q318 789 497.5 751 Q677 713 769 681 L717 553 Q629 585 451 626 Q273 667 163 681 ZM117 402 L164 526 Q291 504 450.5 468 Q610 432 699 401 L649 273 Q565 305 403.5 343.5 Q242 382 117 402 ZM60 104 L112 233 Q250 212 445.5 165 Q641 118 742 80 L686 -48 Q590 -9 395.5 37 Q201 83 60 104 Z" /><glyph glyph-name="cid01610" unicode="&#x30e0;" d="M972 15 L834 -46 Q819 -6 786 75 Q414 33 179 9 Q165 7 131.5 3 Q98 -1 83 -3 L59 146 Q138 146 172 147 L200 148 Q290 381 377 687 Q397 760 402 805 L564 772 Q541 721 520 658 Q379 232 353 161 Q478 173 727 202 Q665 329 620 389 L748 441 Q802 359 869 231 Q936 103 972 15 Z" /><glyph glyph-name="cid01611" unicode="&#x30e1;" d="M671 807 L827 752 Q805 713 785 660 Q726 503 647 382 Q788 266 891 157 L785 39 Q688 153 559 264 Q396 66 178 -52 L60 53 Q295 167 449 355 Q283 485 175 549 L263 654 Q391 575 533 470 Q595 568 646 713 Q662 760 671 807 Z" /><glyph glyph-name="cid01612" unicode="&#x30e2;" d="M476 330 L476 173 Q476 131 503.5 113.5 Q531 96 593 96 Q703 96 857 111 L848 -28 Q714 -36 570 -36 Q438 -36 387 6 Q336 48 336 132 L336 330 L169 330 Q135 330 58 325 L58 459 Q131 454 169 454 L336 454 L336 628 L224 628 Q170 628 125 625 L125 753 Q200 748 224 748 L717 748 Q769 748 809 753 L809 625 Q728 628 717 628 L476 628 L476 454 L786 454 Q831 454 885 458 L886 327 Q857 330 789 330 L476 330 Z" /><glyph glyph-name="cid01613" unicode="&#x30e3;" d="M607 172 L494 228 Q532 263 578 319 Q624 375 645 413 Q507 385 408 364 Q495 52 507 12 Q508 10 518.5 -25 Q529 -60 534 -72 L395 -105 Q391 -65 377 -16 Q330 155 282 338 Q153 311 91 297 L59 420 Q113 425 153 432 Q173 435 252 450 Q243 485 225 545 Q217 574 196 617 L334 650 Q337 629 350 572 L378 473 Q636 523 691 535 Q721 540 743 551 L825 493 Q792 424 726 326.5 Q660 229 607 172 Z" /><glyph glyph-name="cid01614" unicode="&#x30e4;" d="M716 272 L583 335 Q635 378 690 446 Q745 514 774 563 Q708 552 465 501 Q561 147 585 66 Q606 1 618 -31 L466 -66 Q455 -3 443 38 Q440 48 326 472 Q124 429 95 423 L59 561 Q119 567 175 574 Q273 592 294 596 Q263 703 261 712 Q243 772 226 802 L377 836 Q385 785 396 744 Q400 730 412 689 Q424 648 431 622 Q816 697 818 698 Q845 702 878 717 L973 649 Q938 573 859.5 459 Q781 345 716 272 Z" /><glyph glyph-name="cid01615" unicode="&#x30e5;" d="M632 112 L697 112 Q762 112 798 116 L798 -16 Q738 -13 700 -13 L161 -13 Q117 -13 59 -16 L59 117 Q106 112 161 112 L493 112 Q528 332 532 401 L256 401 Q229 401 154 396 L154 531 Q208 525 255 525 L517 525 Q572 525 594 537 L692 488 Q689 480 682 445 Q673 375 632 112 Z" /><glyph glyph-name="cid01616" unicode="&#x30e6;" d="M731 177 L842 177 Q865 177 937 185 L937 37 Q901 42 842 42 L159 42 Q102 42 58 37 L58 185 Q111 177 159 177 L582 177 Q637 500 639 572 L286 572 Q219 572 170 568 L170 713 Q236 705 285 705 L609 705 Q672 705 704 718 L810 665 Q803 639 800 618 Q786 511 731 177 Z" /><glyph glyph-name="cid01617" unicode="&#x30e7;" d="M661 507 L661 -7 Q661 -15 661.5 -41.5 Q662 -68 662 -77 L533 -77 Q534 -68 534 -36 L146 -36 Q109 -36 58 -39 L58 87 Q92 83 147 83 L534 83 L534 219 L207 219 Q144 219 96 217 L96 338 Q137 335 207 335 L534 335 L534 459 L196 459 Q119 459 69 455 L69 579 Q123 573 196 573 L583 573 Q630 573 662 575 Q661 562 661 507 Z" /><glyph glyph-name="cid01618" unicode="&#x30e8;" d="M780 657 L780 39 Q780 28 780.5 0 Q781 -28 781 -38 L640 -38 Q640 -6 641 13 L163 13 Q102 13 58 9 L58 145 Q98 141 164 141 L641 141 L641 323 L241 323 Q164 323 106 321 L106 452 Q174 446 241 446 L641 446 L641 613 L226 613 Q168 613 72 610 L72 743 Q129 738 226 738 L692 738 Q741 738 781 740 Q780 724 780 657 Z" /><glyph glyph-name="cid01619" unicode="&#x30e9;" d="M759 545 L850 488 Q837 463 830 445 Q774 267 679 162 Q538 5 313 -59 L211 56 Q436 102 566 236 Q640 311 672 413 L177 413 Q112 413 58 408 L58 541 Q122 535 177 535 L684 535 Q736 535 759 545 ZM152 653 L152 785 Q188 780 259 780 L653 780 Q728 780 764 785 L764 653 Q722 656 651 656 L259 656 Q197 656 152 653 Z" /><glyph glyph-name="cid01620" unicode="&#x30ea;" d="M56 785 L206 785 Q203 750 203 708 L203 361 Q203 308 206 272 L55 272 Q55 278 56.5 295.5 Q58 313 59 330.5 Q60 348 60 362 L60 708 Q60 754 56 785 ZM527 795 L678 795 Q674 737 674 692 L674 489 Q674 333 645.5 246 Q617 159 555 91 Q467 -6 307 -57 L199 55 Q367 95 450 184 Q500 240 516.5 306 Q533 372 533 498 L533 692 Q533 752 527 795 Z" /><glyph glyph-name="cid01621" unicode="&#x30eb;" d="M185 -45 L60 38 Q180 122 234 283 Q264 374 264 688 Q264 744 255 781 L405 781 Q398 753 398 689 Q398 363 367 249 Q321 75 185 -45 ZM619 -48 L534 23 Q542 61 542 98 L542 695 Q542 759 534 783 L687 783 Q679 759 679 694 L679 159 Q744 187 813 245 Q882 303 932 375 L1011 262 Q950 182 852.5 105.5 Q755 29 664 -17 Q651 -24 619 -48 Z" /><glyph glyph-name="cid01622" unicode="&#x30ec;" d="M154 -43 L58 41 Q71 69 71 108 L71 663 Q71 725 60 778 L220 778 Q210 713 210 663 L210 131 Q343 169 493 262 Q643 355 737 469 L809 353 Q610 115 215 -15 Q180 -28 154 -43 Z" /><glyph glyph-name="cid01623" unicode="&#x30ed;" d="M689 594 L194 594 L194 169 L689 169 L689 594 ZM826 627 L826 125 Q826 107 826.5 73 Q827 39 827.5 11.5 Q828 -16 828 -17 L687 -17 L688 39 L194 39 L195 -17 L54 -17 Q57 -2 57 126 L57 627 Q57 697 55 726 Q139 724 164 724 L727 724 Q791 724 828 726 Q826 695 826 627 Z" /><glyph glyph-name="cid01624" unicode="&#x30ee;" d="M668 573 L761 515 Q747 493 741 456 Q697 215 620 119 Q504 -30 305 -104 L198 4 Q391 54 494 180 Q579 283 595 447 L195 447 L195 319 Q195 287 198 245 L58 245 Q63 290 63 319 L63 497 Q63 525 59 569 Q99 566 165 566 L588 566 Q641 566 668 573 Z" /><glyph glyph-name="cid01625" unicode="&#x30ef;" d="M767 749 L867 686 Q858 663 848 617 Q835 540 825.5 494 Q816 448 789.5 371.5 Q763 295 726 238 Q596 34 338 -56 L224 60 Q336 88 439.5 152 Q543 216 600 307 Q678 434 694 614 L202 614 L202 443 Q202 392 206 359 L56 359 Q61 412 61 443 L61 659 Q61 698 56 745 Q122 741 181 741 L670 741 Q724 741 767 749 Z" /><glyph glyph-name="cid01626" unicode="&#x30f0;" d="M388 282 L582 282 L582 534 L388 534 L388 282 ZM714 282 L828 282 Q860 282 923 289 L923 153 Q894 157 828 157 L714 157 L714 43 Q714 4 718 -54 L578 -54 Q582 2 582 41 L582 157 L159 157 Q93 157 59 153 L59 289 Q105 282 159 282 L259 282 L259 534 L196 534 Q139 534 95 529 L95 663 Q139 655 196 655 L582 655 L582 729 Q582 746 578 809 L717 809 Q714 746 714 729 L714 655 L804 655 Q846 655 900 663 L900 529 Q863 534 804 534 L714 534 L714 282 Z" /><glyph glyph-name="cid01627" unicode="&#x30f1;" d="M738 598 L236 598 L114 593 L114 732 Q175 725 226 725 L772 725 Q814 725 850 736 L935 678 Q917 651 909 635 Q878 570 818 488.5 Q758 407 702 357 L589 432 Q684 507 738 598 ZM548 155 L841 155 Q874 155 939 162 L939 12 Q887 17 841 17 L162 17 Q119 17 59 12 L59 162 Q107 155 162 155 L407 155 L407 410 Q407 492 402 527 L554 527 Q548 477 548 409 L548 155 Z" /></font>
</defs>
</svg>
