<?xml version="1.0" standalone="no"?><!DOCTYPE svg PUBLIC "-//W3C//DTD SVG 1.1//EN" "http://www.w3.org/Graphics/SVG/1.1/DTD/svg11.dtd" ><svg xmlns="http://www.w3.org/2000/svg"><metadata></metadata><defs><font id="1.002.20150607;MM;GenShinGothic-P-Regular;MM" horiz-adv-x="1146"><font-face font-family="Gen Shin Gothic P Regular" font-weight="400" font-stretch="normal" units-per-em="1024" panose-1="2 11 3 2 2 2 3 2 2 7" ascent="1101" descent="-328" x-height="7" bbox="-45 -286 1085 982" underline-thickness="51" underline-position="-128" unicode-range="U+0021-ffe5" /><missing-glyph horiz-adv-x="372"  /><glyph glyph-name="exclam" unicode="!" d="M133 226 L121 660 L118 767 L213 767 L210 660 L198 226 L133 226 ZM165 -13 Q137 -13 117 6.5 Q97 26 97 57 Q97 88 117 109 Q137 130 165 130 Q194 130 213 109 Q232 88 232 57 Q232 26 213 6.5 Q194 -13 165 -13 Z" /><glyph glyph-name="quotedbl" unicode="&quot;" d="M113 495 L94 684 L92 790 L190 790 L188 684 L170 495 L113 495 ZM314 495 L296 684 L293 790 L392 790 L390 684 L371 495 L314 495 Z" /><glyph glyph-name="numbersign" unicode="#" d="M103 0 L131 233 L41 233 L41 299 L139 299 L161 469 L63 469 L63 534 L168 534 L195 743 L255 743 L229 534 L381 534 L409 743 L468 743 L442 534 L534 534 L534 469 L435 469 L414 299 L511 299 L511 233 L406 233 L378 0 L316 0 L344 233 L193 233 L164 0 L103 0 ZM201 299 L352 299 L374 469 L221 469 L201 299 Z" /><glyph glyph-name="dollar" unicode="$" d="M484 656 L434 601 Q399 635 369 650.5 Q339 666 295 666 Q242 666 210.5 635.5 Q179 605 179 555 Q179 516 203 486.5 Q227 457 262.5 440 Q298 423 339.5 401 Q381 379 416.5 355.5 Q452 332 476 289 Q500 246 500 188 Q500 107 452.5 54 Q405 1 323 -10 L323 -126 L255 -126 L255 -12 Q143 -1 59 76 L103 139 Q190 65 280 65 Q343 65 376 96 Q409 127 409 182 Q409 220 391.5 249 Q374 278 345.5 297.5 Q317 317 283 334.5 Q249 352 214.5 371 Q180 390 151.5 412.5 Q123 435 105.5 470.5 Q88 506 88 551 Q88 627 134 678 Q180 729 255 740 L255 856 L323 856 L323 742 Q411 732 484 656 Z" /><glyph glyph-name="percent" unicode="%" d="M334.5 354 Q288 291 210 291 Q132 291 86 354 Q40 417 40 529 Q40 641 86 703 Q132 765 210 765 Q288 765 334.5 703 Q381 641 381 529 Q381 417 334.5 354 ZM210 349 Q256 349 283 395 Q310 441 310 529 Q310 616 283 662 Q256 708 210 708 Q165 708 138 662 Q111 616 111 529 Q111 442 138 395.5 Q165 349 210 349 ZM232 -13 L646 765 L710 765 L295 -13 L232 -13 ZM857 49.5 Q811 -13 733 -13 Q655 -13 608.5 49.5 Q562 112 562 224 Q562 335 608.5 397.5 Q655 460 733 460 Q811 460 857 398 Q903 336 903 224 Q903 112 857 49.5 ZM733 44 Q778 44 805.5 90.5 Q833 137 833 224 Q833 311 805.5 356.5 Q778 402 733 402 Q687 402 660 356.5 Q633 311 633 224 Q633 136 660 90 Q687 44 733 44 Z" /><glyph glyph-name="ampersand" unicode="&amp;" d="M128 200 Q128 138 170 99.5 Q212 61 276 61 Q349 61 420 122 Q299 228 222 346 Q128 270 128 200 ZM216 589 Q216 528 252 456 Q315 498 347.5 533.5 Q380 569 380 614 Q380 650 362 673.5 Q344 697 308 697 Q267 697 241.5 666.5 Q216 636 216 589 ZM679 65 L653 -13 Q571 9 482 73 Q388 -13 265 -13 Q164 -13 100.5 45.5 Q37 104 37 195 Q37 263 76 314 Q115 365 184 412 Q135 507 135 587 Q135 663 183.5 714 Q232 765 308 765 Q377 765 416.5 723.5 Q456 682 456 616 Q456 581 443 550 Q430 519 401.5 489.5 Q373 460 350 441.5 Q327 423 287 394 Q362 275 477 182 Q548 274 584 404 L670 404 Q625 249 539 136 Q614 82 679 65 Z" /><glyph glyph-name="quotesingle" unicode="&#39;" d="M113 495 L94 684 L92 790 L190 790 L188 684 L170 495 L113 495 Z" /><glyph glyph-name="parenleft" unicode="(" d="M303 -174 L245 -202 Q94 45 94 318 Q94 592 245 838 L303 811 Q172 596 172 318 Q172 39 303 -174 Z" /><glyph glyph-name="parenright" unicode=")" d="M101 -202 L44 -174 Q175 42 175 318 Q175 594 44 811 L101 838 Q253 593 253 318 Q253 44 101 -202 Z" /><glyph glyph-name="asterisk" unicode="*" d="M158 482 L113 515 L177 622 L66 668 L84 720 L201 691 L211 815 L266 815 L276 692 L393 720 L411 668 L299 622 L365 515 L319 482 L239 580 L158 482 Z" /><glyph glyph-name="plus" unicode="+" d="M247 119 L247 343 L39 343 L39 413 L247 413 L247 636 L322 636 L322 413 L529 413 L529 343 L322 343 L322 119 L247 119 Z" /><glyph glyph-name="comma" unicode="," d="M77 -195 L54 -139 Q155 -94 157 0 Q153 -1 145 -1 Q116 -1 96.5 16.5 Q77 34 77 65 Q77 94 97.5 112 Q118 130 147 130 Q184 130 205 100.5 Q226 71 226 19 Q226 -54 186.5 -109.5 Q147 -165 77 -195 Z" /><glyph glyph-name="hyphen" unicode="-" d="M47 251 L47 323 L309 323 L309 251 L47 251 Z" /><glyph glyph-name="period" unicode="." d="M190 6.5 Q170 -13 142 -13 Q114 -13 94.5 6.5 Q75 26 75 57 Q75 88 94.5 109 Q114 130 142 130 Q170 130 190 109 Q210 88 210 57 Q210 26 190 6.5 Z" /><glyph glyph-name="slash" unicode="/" d="M11 -183 L318 812 L386 812 L80 -183 L11 -183 Z" /><glyph glyph-name="zero" unicode="0" d="M285 -13 Q175 -13 112.5 86.5 Q50 186 50 378 Q50 569 112.5 667 Q175 765 285 765 Q394 765 456 667 Q518 569 518 378 Q518 186 456 86.5 Q394 -13 285 -13 ZM285 61 Q351 61 389 139.5 Q427 218 427 378 Q427 536 389.5 612.5 Q352 689 285 689 Q218 689 179.5 612.5 Q141 536 141 378 Q141 218 179.5 139.5 Q218 61 285 61 Z" /><glyph glyph-name="one" unicode="1" d="M90 0 L90 78 L257 78 L257 638 L124 638 L124 697 Q216 713 280 751 L351 751 L351 78 L502 78 L502 0 L90 0 Z" /><glyph glyph-name="two" unicode="2" d="M45 0 L45 55 Q223 210 306 327 Q389 444 389 540 Q389 607 353.5 647.5 Q318 688 251 688 Q168 688 95 601 L41 654 Q91 709 143 737 Q195 765 262 765 Q362 765 421 704.5 Q480 644 480 543 Q480 437 405 323.5 Q330 210 186 74 Q277 81 309 81 L517 81 L517 0 L45 0 Z" /><glyph glyph-name="three" unicode="3" d="M270 -13 Q124 -13 30 89 L77 151 Q159 65 263 65 Q331 65 373.5 102.5 Q416 140 416 204 Q416 354 182 354 L182 426 Q390 426 390 569 Q390 624 356 656 Q322 688 263 690 Q180 687 108 615 L57 675 Q154 765 267 765 Q364 765 424.5 715.5 Q485 666 485 577 Q485 511 449 464.5 Q413 418 351 395 L351 391 Q421 375 466 325 Q511 275 511 201 Q511 103 442 45 Q373 -13 270 -13 Z" /><glyph glyph-name="four" unicode="4" d="M118 282 L347 282 L347 512 Q347 531 353 648 L349 648 Q325 598 289 538 L118 282 ZM536 282 L536 207 L436 207 L436 0 L347 0 L347 207 L20 207 L20 268 L333 751 L436 751 L436 282 L536 282 Z" /><glyph glyph-name="five" unicode="5" d="M267 -13 Q128 -13 29 86 L75 147 Q157 65 259 65 Q327 65 373 113.5 Q419 162 419 242 Q419 322 376.5 367.5 Q334 413 263 413 Q203 413 138 369 L88 399 L112 751 L477 751 L477 671 L194 671 L175 454 Q228 483 287 483 Q387 483 450 423 Q513 363 513 245 Q513 127 440.5 57 Q368 -13 267 -13 Z" /><glyph glyph-name="six" unicode="6" d="M308 59 Q363 59 399 106.5 Q435 154 435 230 Q435 308 401 352 Q367 396 300 396 Q213 396 146 300 Q154 183 196 121 Q238 59 308 59 ZM510 688 L459 630 Q412 687 338 687 Q254 687 200.5 613 Q147 539 144 375 Q178 417 224.5 441.5 Q271 466 315 466 Q412 466 467.5 405.5 Q523 345 523 230 Q523 123 460.5 55 Q398 -13 308 -13 Q196 -13 126.5 82.5 Q57 178 57 358 Q57 464 79.5 545 Q102 626 142 672.5 Q182 719 230.5 742 Q279 765 335 765 Q438 765 510 688 Z" /><glyph glyph-name="seven" unicode="7" d="M300 0 L203 0 Q212 217 259 368 Q306 519 414 671 L50 671 L50 751 L520 751 L520 694 Q395 534 352 386 Q309 238 300 0 Z" /><glyph glyph-name="eight" unicode="8" d="M455.5 42 Q390 -13 286 -13 Q182 -13 114 43 Q46 99 46 186 Q46 255 85.5 308.5 Q125 362 184 393 L184 398 Q83 468 83 571 Q83 656 141 709 Q199 762 289 762 Q384 762 439.5 707 Q495 652 495 564 Q495 510 464.5 462 Q434 414 394 383 L394 378 Q521 305 521 181 Q521 97 455.5 42 ZM337 408 Q415 477 415 559 Q415 616 380.5 654.5 Q346 693 287 693 Q235 693 201.5 659 Q168 625 168 571 Q168 539 181 513.5 Q194 488 221 468.5 Q248 449 272.5 436.5 Q297 424 337 408 ZM288 56 Q352 56 392 91.5 Q432 127 432 183 Q432 219 417.5 246.5 Q403 274 370 296.5 Q337 319 310.5 331.5 Q284 344 233 365 Q131 299 131 195 Q131 135 175.5 95.5 Q220 56 288 56 Z" /><glyph glyph-name="nine" unicode="9" d="M267 354 Q354 354 424 455 Q417 571 374.5 631 Q332 691 260 691 Q205 691 169 644 Q133 597 133 521 Q133 443 167.5 398.5 Q202 354 267 354 ZM59 63 L111 122 Q162 65 237 65 Q317 65 368.5 139.5 Q420 214 425 378 Q391 335 345 310 Q299 285 252 285 Q156 285 100.5 345.5 Q45 406 45 521 Q45 628 107.5 696.5 Q170 765 260 765 Q373 765 442.5 673 Q512 581 512 408 Q512 298 489.5 214.5 Q467 131 428.5 82.5 Q390 34 342.5 10.5 Q295 -13 240 -13 Q132 -13 59 63 Z" /><glyph glyph-name="colon" unicode=":" d="M190 419.5 Q170 399 142 399 Q114 399 94.5 419.5 Q75 440 75 470 Q75 502 94.5 522.5 Q114 543 142 543 Q170 543 190 522.5 Q210 502 210 470 Q210 440 190 419.5 ZM190 6.5 Q170 -13 142 -13 Q114 -13 94.5 6.5 Q75 26 75 57 Q75 88 94.5 109 Q114 130 142 130 Q170 130 190 109 Q210 88 210 57 Q210 26 190 6.5 Z" /><glyph glyph-name="semicolon" unicode=";" d="M190 419.5 Q170 399 142 399 Q114 399 94.5 419.5 Q75 440 75 470 Q75 502 94.5 522.5 Q114 543 142 543 Q170 543 190 522.5 Q210 502 210 470 Q210 440 190 419.5 ZM77 -195 L54 -139 Q155 -94 157 0 Q153 -1 145 -1 Q116 -1 96.5 16.5 Q77 34 77 65 Q77 94 97.5 112 Q118 130 147 130 Q184 130 205 100.5 Q226 71 226 19 Q226 -54 186.5 -109.5 Q147 -165 77 -195 Z" /><glyph glyph-name="less" unicode="&lt;" d="M529 150 L39 342 L39 417 L529 609 L529 528 L288 439 L134 382 L134 378 L288 321 L529 231 L529 150 Z" /><glyph glyph-name="equal" unicode="=" d="M39 465 L39 535 L529 535 L529 465 L39 465 ZM39 220 L39 290 L529 290 L529 220 L39 220 Z" /><glyph glyph-name="greater" unicode="&gt;" d="M39 150 L39 231 L281 321 L434 378 L434 382 L281 439 L39 528 L39 609 L529 417 L529 342 L39 150 Z" /><glyph glyph-name="question" unicode="?" d="M265 226 L182 226 Q175 275 189 319.5 Q203 364 227.5 397.5 Q252 431 277.5 461 Q303 491 321.5 525 Q340 559 340 592 Q340 640 311 671 Q282 702 229 702 Q154 702 97 637 L44 686 Q126 780 240 780 Q327 780 379 731 Q431 682 431 598 Q431 557 412 518 Q393 479 367 447.5 Q341 416 315.5 384 Q290 352 275 311.5 Q260 271 265 226 ZM226 -13 Q198 -13 178.5 6.5 Q159 26 159 57 Q159 88 178.5 109 Q198 130 226 130 Q255 130 275 109 Q295 88 295 57 Q295 26 275 6.5 Q255 -13 226 -13 Z" /><glyph glyph-name="at" unicode="@" d="M461 -177 Q286 -177 171.5 -69 Q57 39 57 232 Q57 344 96 440 Q135 536 200.5 601 Q266 666 353 702.5 Q440 739 535 739 Q706 739 808 634.5 Q910 530 910 360 Q910 220 839 138 Q768 56 682 56 Q634 56 601.5 78.5 Q569 101 564 143 L561 143 Q495 65 422 65 Q362 65 323.5 108 Q285 151 285 227 Q285 325 347.5 409 Q410 493 505 493 Q566 493 596 436 L598 436 L611 483 L673 483 L628 255 Q596 121 690 121 Q749 121 797 186 Q845 251 845 356 Q845 499 762 588 Q679 677 527 677 Q450 677 378 645 Q306 613 250.5 557 Q195 501 161 417 Q127 333 127 236 Q127 73 222 -21 Q317 -115 467 -115 Q565 -115 653 -63 L678 -119 Q581 -177 461 -177 ZM440 129 Q490 129 546 197 L579 379 Q549 427 505 427 Q442 427 400.5 365 Q359 303 359 232 Q359 179 381 154 Q403 129 440 129 Z" /><glyph glyph-name="A" unicode="a" d="M196 305 L423 305 L387 420 Q363 492 311 674 L307 674 Q272 548 232 420 L196 305 ZM518 0 L446 229 L172 229 L99 0 L3 0 L258 751 L364 751 L618 0 L518 0 Z" /><glyph glyph-name="B" unicode="b" d="M102 0 L102 751 L326 751 Q447 751 515.5 706.5 Q584 662 584 567 Q584 510 554.5 465.5 Q525 421 473 404 L473 399 Q543 386 585 340 Q627 294 627 220 Q627 113 549.5 56.5 Q472 0 342 0 L102 0 ZM198 431 L309 431 Q490 431 490 555 Q490 620 446.5 648 Q403 676 313 676 L198 676 L198 431 ZM198 76 L329 76 Q534 76 534 223 Q534 358 329 358 L198 358 L198 76 Z" /><glyph glyph-name="C" unicode="c" d="M386 -13 Q243 -13 151 91.5 Q59 196 59 375 Q59 554 152.5 659.5 Q246 765 392 765 Q515 765 598 672 L547 610 Q480 682 393 682 Q286 682 221.5 600 Q157 518 157 378 Q157 236 220 153 Q283 70 390 70 Q486 70 564 154 L616 94 Q525 -13 386 -13 Z" /><glyph glyph-name="D" unicode="d" d="M102 0 L102 751 L291 751 Q463 751 554 654.5 Q645 558 645 378 Q645 198 554 99 Q463 0 295 0 L102 0 ZM198 78 L283 78 Q414 78 480.5 156 Q547 234 547 378 Q547 522 480.5 598 Q414 674 283 674 L198 674 L198 78 Z" /><glyph glyph-name="E" unicode="e" d="M102 0 L102 751 L536 751 L536 671 L198 671 L198 435 L482 435 L482 354 L198 354 L198 81 L547 81 L547 0 L102 0 Z" /><glyph glyph-name="F" unicode="f" d="M102 0 L102 751 L536 751 L536 671 L198 671 L198 417 L484 417 L484 337 L198 337 L198 0 L102 0 Z" /><glyph glyph-name="G" unicode="g" d="M397 -13 Q246 -13 152.5 91 Q59 195 59 375 Q59 554 155 659.5 Q251 765 403 765 Q533 765 620 672 L568 610 Q500 682 406 682 Q292 682 224.5 600 Q157 518 157 378 Q157 235 222.5 152.5 Q288 70 407 70 Q496 70 543 114 L543 310 L384 310 L384 389 L630 389 L630 74 Q592 35 531 11 Q470 -13 397 -13 Z" /><glyph glyph-name="H" unicode="h" d="M102 0 L102 751 L198 751 L198 436 L548 436 L548 751 L642 751 L642 0 L548 0 L548 354 L198 354 L198 0 L102 0 Z" /><glyph glyph-name="I" unicode="i" d="M102 0 L102 751 L198 751 L198 0 L102 0 Z" /><glyph glyph-name="J" unicode="j" d="M243 -13 Q103 -13 36 105 L103 154 Q151 70 233 70 Q295 70 324.5 107.5 Q354 145 354 229 L354 751 L449 751 L449 220 Q449 116 398 51.5 Q347 -13 243 -13 Z" /><glyph glyph-name="K" unicode="k" d="M102 0 L102 751 L198 751 L198 374 L201 374 L514 751 L621 751 L386 465 L657 0 L551 0 L327 391 L198 238 L198 0 L102 0 Z" /><glyph glyph-name="L" unicode="l" d="M102 0 L102 751 L198 751 L198 81 L525 81 L525 0 L102 0 Z" /><glyph glyph-name="M" unicode="m" d="M102 0 L102 751 L217 751 L361 349 L415 193 L420 193 L471 349 L614 751 L729 751 L729 0 L640 0 L640 416 Q640 479 652 637 L648 637 L589 466 L446 76 L383 76 L241 466 L181 637 L177 637 Q188 456 188 416 L188 0 L102 0 Z" /><glyph glyph-name="N" unicode="n" d="M102 0 L102 751 L201 751 L474 278 L554 123 L559 123 Q547 305 547 360 L547 751 L637 751 L637 0 L540 0 L266 474 L185 629 L181 629 Q182 605 185.5 556.5 Q189 508 191 468.5 Q193 429 193 394 L193 0 L102 0 Z" /><glyph glyph-name="O" unicode="o" d="M611.5 93 Q523 -13 380 -13 Q237 -13 148 93 Q59 199 59 378 Q59 556 148 660.5 Q237 765 380 765 Q523 765 611.5 660.5 Q700 556 700 378 Q700 199 611.5 93 ZM218 154 Q279 70 380 70 Q481 70 542 154 Q603 238 603 378 Q603 518 542 600 Q481 682 380 682 Q278 682 217.5 600 Q157 518 157 378 Q157 238 218 154 Z" /><glyph glyph-name="P" unicode="p" d="M102 0 L102 751 L316 751 Q598 751 598 530 Q598 415 524 356.5 Q450 298 322 298 L198 298 L198 0 L102 0 ZM198 375 L309 375 Q409 375 456.5 412.5 Q504 450 504 530 Q504 609 456 641.5 Q408 674 305 674 L198 674 L198 375 Z" /><glyph glyph-name="Q" unicode="q" d="M157 378 Q157 235 218 150 Q279 65 380 65 Q481 65 542 150 Q603 235 603 378 Q603 518 542 600 Q481 682 380 682 Q278 682 217.5 600 Q157 518 157 378 ZM698 -98 L717 -172 Q671 -188 609 -188 Q509 -188 438 -139.5 Q367 -91 334 -10 Q209 7 134 111 Q59 215 59 378 Q59 556 148 660.5 Q237 765 380 765 Q523 765 611.5 660.5 Q700 556 700 378 Q700 218 628 115 Q556 12 435 -9 Q460 -58 508.5 -84 Q557 -110 620 -110 Q660 -110 698 -98 Z" /><glyph glyph-name="R" unicode="r" d="M198 674 L198 395 L324 395 Q506 395 506 540 Q506 612 461 643 Q416 674 324 674 L198 674 ZM623 0 L515 0 L333 318 L198 318 L198 0 L102 0 L102 751 L338 751 Q600 751 600 540 Q600 455 554.5 401.5 Q509 348 430 329 L623 0 Z" /><glyph glyph-name="S" unicode="s" d="M311 -13 Q154 -13 48 98 L104 163 Q194 70 312 70 Q385 70 427.5 103.5 Q470 137 470 193 Q470 221 462 241 Q454 261 433 277 Q412 293 396 301.5 Q380 310 345 326 L237 373 Q84 439 84 565 Q84 652 151.5 708.5 Q219 765 321 765 Q452 765 542 672 L492 611 Q416 682 321 682 Q257 682 218.5 652 Q180 622 180 571 Q180 550 188 532 Q196 514 206 503 Q216 492 236.5 479.5 Q257 467 268 462 Q279 457 304 446 L412 400 Q487 367 526.5 322.5 Q566 278 566 200 Q566 109 496 48 Q426 -13 311 -13 Z" /><glyph glyph-name="T" unicode="t" d="M259 0 L259 671 L32 671 L32 751 L582 751 L582 671 L354 671 L354 0 L259 0 Z" /><glyph glyph-name="U" unicode="u" d="M639 310 Q639 -13 369 -13 Q99 -13 99 310 L99 751 L195 751 L195 307 Q195 70 369 70 Q548 70 548 307 L548 751 L639 751 L639 310 Z" /><glyph glyph-name="V" unicode="v" d="M241 0 L1 751 L100 751 L222 344 Q232 310 255.5 227.5 Q279 145 295 96 L299 96 Q314 144 337 225 Q360 306 372 344 L493 751 L589 751 L350 0 L241 0 Z" /><glyph glyph-name="W" unicode="w" d="M185 0 L26 751 L124 751 L203 342 Q210 302 225 221 Q240 140 247 99 L251 99 L305 342 L409 751 L495 751 L600 342 Q633 194 653 99 L658 99 Q666 145 681 229 Q696 313 701 342 L780 751 L871 751 L716 0 L602 0 L488 453 L452 624 L447 624 Q442 601 429.5 543.5 Q417 486 410 453 L298 0 L185 0 Z" /><glyph glyph-name="X" unicode="x" d="M17 0 L237 388 L32 751 L136 751 L239 559 Q245 547 256 526.5 Q267 506 277 487.5 Q287 469 298 450 L302 450 Q331 512 355 559 L456 751 L555 751 L350 383 L569 0 L465 0 L354 203 Q315 280 290 324 L286 324 Q263 278 225 203 L117 0 L17 0 Z" /><glyph glyph-name="Y" unicode="y" d="M224 0 L224 292 L-1 751 L100 751 L197 539 Q205 521 230 464 Q255 407 270 375 L274 375 Q322 475 349 539 L446 751 L545 751 L319 292 L319 0 L224 0 Z" /><glyph glyph-name="Z" unicode="z" d="M51 0 L51 56 L447 671 L87 671 L87 751 L564 751 L564 695 L168 81 L568 81 L568 0 L51 0 Z" /><glyph glyph-name="bracketleft" unicode="[" d="M108 -174 L108 810 L311 810 L311 758 L178 758 L178 -121 L311 -121 L311 -174 L108 -174 Z" /><glyph glyph-name="backslash" unicode="\" d="M322 -183 L15 812 L83 812 L389 -183 L322 -183 Z" /><glyph glyph-name="bracketright" unicode="]" d="M35 -174 L35 -121 L168 -121 L168 758 L35 758 L35 810 L239 810 L239 -174 L35 -174 Z" /><glyph glyph-name="asciicircum" unicode="^" d="M69 325 L243 767 L326 767 L500 325 L418 325 L342 527 L287 680 L282 680 L225 527 L151 325 L69 325 Z" /><glyph glyph-name="underscore" unicode="_" d="M13 -143 L13 -81 L558 -81 L558 -143 L13 -143 Z" /><glyph glyph-name="grave" unicode="`" d="M327 656 L147 830 L213 893 L375 702 L327 656 Z" /><glyph glyph-name="a" unicode="a" d="M222 -13 Q150 -13 104.5 29 Q59 71 59 144 Q59 234 140.5 283 Q222 332 401 352 Q401 493 287 493 Q208 493 120 433 L83 498 Q194 570 302 570 Q400 570 447.5 509.5 Q495 449 495 342 L495 0 L418 0 L410 67 L407 67 Q311 -13 222 -13 ZM249 61 Q318 61 401 135 L401 291 Q265 274 208 240.5 Q151 207 151 151 Q151 106 178 83.5 Q205 61 249 61 Z" /><glyph glyph-name="b" unicode="b" d="M339 -13 Q256 -13 180 57 L177 57 L169 0 L94 0 L94 815 L187 815 L187 592 L184 492 Q273 570 358 570 Q464 570 522.5 494 Q581 418 581 288 Q581 150 510.5 68.5 Q440 -13 339 -13 ZM324 65 Q394 65 438.5 124.5 Q483 184 483 286 Q483 492 337 492 Q269 492 187 415 L187 123 Q253 65 324 65 Z" /><glyph glyph-name="c" unicode="c" d="M313 -13 Q199 -13 125.5 65 Q52 143 52 278 Q52 412 130.5 491 Q209 570 321 570 Q409 570 483 505 L435 442 Q379 493 324 493 Q248 493 199 433 Q150 373 150 278 Q150 182 197.5 123.5 Q245 65 322 65 Q393 65 453 120 L493 57 Q417 -13 313 -13 Z" /><glyph glyph-name="d" unicode="d" d="M284 -13 Q178 -13 116 64 Q54 141 54 278 Q54 409 125 489.5 Q196 570 295 570 Q342 570 377 554.5 Q412 539 452 505 L446 601 L446 815 L540 815 L540 0 L464 0 L455 66 L453 66 Q372 -13 284 -13 ZM191 121.5 Q231 65 304 65 Q377 65 446 141 L446 433 Q380 492 311 492 Q243 492 197 432.5 Q151 373 151 279 Q151 178 191 121.5 Z" /><glyph glyph-name="e" unicode="e" d="M318 -13 Q204 -13 128 66 Q52 145 52 278 Q52 408 127 489 Q202 570 303 570 Q408 570 466 500 Q524 430 524 309 Q524 282 520 256 L145 256 Q149 167 200 114 Q251 61 330 61 Q405 61 469 105 L503 44 Q416 -13 318 -13 ZM144 323 L442 323 Q442 407 406 451.5 Q370 496 304 496 Q243 496 197.5 449.5 Q152 403 144 323 Z" /><glyph glyph-name="f" unicode="f" d="M365 810 L344 739 Q311 754 282 754 Q203 754 203 644 L203 556 L321 556 L321 480 L203 480 L203 0 L110 0 L110 480 L34 480 L34 551 L110 556 L110 645 Q110 732 150 780 Q190 828 271 828 Q321 828 365 810 Z" /><glyph glyph-name="g" unicode="g" d="M282 -256 Q178 -256 114.5 -216.5 Q51 -177 51 -106 Q51 -35 134 19 L134 24 Q83 53 83 115 Q83 175 145 218 L145 222 Q73 280 73 372 Q73 461 133.5 515.5 Q194 570 282 570 Q321 570 359 556 L553 556 L553 484 L439 484 Q484 441 484 370 Q484 283 426.5 229.5 Q369 176 282 176 Q241 176 199 196 Q163 165 163 129 Q163 69 260 69 L369 69 Q562 69 562 -63 Q562 -143 484.5 -199.5 Q407 -256 282 -256 ZM282 240 Q331 240 365 276.5 Q399 313 399 372 Q399 431 366 466.5 Q333 502 282 502 Q231 502 197 467 Q163 432 163 372 Q163 313 197.5 276.5 Q232 240 282 240 ZM295 -193 Q372 -193 422 -158 Q472 -123 472 -78 Q472 -41 444 -25 Q416 -9 358 -9 L262 -9 Q228 -9 190 0 Q133 -41 133 -94 Q133 -139 176.5 -166 Q220 -193 295 -193 Z" /><glyph glyph-name="h" unicode="h" d="M94 0 L94 815 L187 815 L187 592 L184 477 Q277 570 369 570 Q539 570 539 352 L539 0 L445 0 L445 340 Q445 418 420 453 Q395 488 340 488 Q300 488 266 468 Q232 448 187 403 L187 0 L94 0 Z" /><glyph glyph-name="i" unicode="i" d="M94 0 L94 556 L187 556 L187 0 L94 0 ZM187.5 688 Q169 671 141 671 Q113 671 95 688 Q77 705 77 731 Q77 759 95 775.5 Q113 792 141 792 Q169 792 187.5 775.5 Q206 759 206 731 Q206 705 187.5 688 Z" /><glyph glyph-name="j" unicode="j" d="M37 -249 Q-4 -249 -45 -234 L-27 -163 Q1 -173 26 -173 Q66 -173 80.5 -145.5 Q95 -118 95 -63 L95 556 L188 556 L188 -63 Q188 -249 37 -249 ZM142 671 Q114 671 96 688 Q78 705 78 731 Q78 759 96 775.5 Q114 792 142 792 Q170 792 188.5 775.5 Q207 759 207 731 Q207 705 188 688 Q169 671 142 671 Z" /><glyph glyph-name="k" unicode="k" d="M94 0 L94 815 L186 815 L186 262 L188 262 L427 556 L530 556 L344 333 L555 0 L454 0 L291 268 L186 146 L186 0 L94 0 Z" /><glyph glyph-name="l" unicode="l" d="M193 -13 Q94 -13 94 111 L94 815 L187 815 L187 104 Q187 65 214 65 Q223 65 233 67 L247 -5 Q226 -13 193 -13 Z" /><glyph glyph-name="m" unicode="m" d="M94 0 L94 556 L171 556 L179 475 L182 475 Q268 570 355 570 Q472 570 509 464 Q606 570 692 570 Q861 570 861 352 L861 0 L768 0 L768 340 Q768 418 743.5 453 Q719 488 665 488 Q602 488 524 403 L524 0 L431 0 L431 340 Q431 418 406.5 453 Q382 488 328 488 Q263 488 187 403 L187 0 L94 0 Z" /><glyph glyph-name="n" unicode="n" d="M94 0 L94 556 L171 556 L179 476 L182 476 Q278 570 369 570 Q539 570 539 352 L539 0 L445 0 L445 340 Q445 418 420 453 Q395 488 340 488 Q300 488 266 468 Q232 448 187 403 L187 0 L94 0 Z" /><glyph glyph-name="o" unicode="o" d="M492.5 66 Q417 -13 310 -13 Q203 -13 127.5 66 Q52 145 52 278 Q52 411 127.5 490.5 Q203 570 310 570 Q417 570 492.5 490.5 Q568 411 568 278 Q568 145 492.5 66 ZM194 123.5 Q238 65 310 65 Q382 65 427 123.5 Q472 182 472 278 Q472 374 427 433.5 Q382 493 310 493 Q238 493 194 433.5 Q150 374 150 278 Q150 182 194 123.5 Z" /><glyph glyph-name="p" unicode="p" d="M94 -234 L94 556 L171 556 L179 493 L182 493 Q276 570 359 570 Q465 570 523 493.5 Q581 417 581 287 Q581 150 510.5 68.5 Q440 -13 339 -13 Q263 -13 185 51 L187 -46 L187 -234 L94 -234 ZM187 123 Q254 65 324 65 Q394 65 438.5 124.5 Q483 184 483 286 Q483 492 337 492 Q270 492 187 415 L187 123 Z" /><glyph glyph-name="q" unicode="q" d="M446 -234 L446 -37 L452 65 Q372 -13 284 -13 Q178 -13 116 64 Q54 141 54 278 Q54 409 125 489.5 Q196 570 295 570 Q381 570 454 503 L457 503 L466 556 L540 556 L540 -234 L446 -234 ZM191 121.5 Q231 65 304 65 Q377 65 446 141 L446 433 Q380 492 311 492 Q243 492 197 432.5 Q151 373 151 279 Q151 178 191 121.5 Z" /><glyph glyph-name="r" unicode="r" d="M94 0 L94 556 L171 556 L179 455 L182 455 Q212 509 253 539.5 Q294 570 340 570 Q376 570 399 558 L382 476 Q359 485 328 485 Q289 485 251 454 Q213 423 187 357 L187 0 L94 0 Z" /><glyph glyph-name="s" unicode="s" d="M240 -13 Q124 -13 32 63 L78 125 Q159 59 243 59 Q296 59 324 83.5 Q352 108 352 146 Q352 166 342 182 Q332 198 310 211.5 Q288 225 272 232.5 Q256 240 225 252 Q189 266 165 277 Q141 288 114 307 Q87 326 73 353 Q59 380 59 413 Q59 481 111 525.5 Q163 570 251 570 Q344 570 424 508 L379 447 Q312 497 251 497 Q201 497 175.5 474.5 Q150 452 150 417 Q150 399 158 385.5 Q166 372 184.5 360.5 Q203 349 217 343 Q231 337 259 326 Q268 323 272 321 Q306 308 322 301 Q338 294 365.5 278.5 Q393 263 406.5 247.5 Q420 232 431 207 Q442 182 442 152 Q442 81 388.5 34 Q335 -13 240 -13 Z" /><glyph glyph-name="t" unicode="t" d="M269 -13 Q184 -13 147.5 35 Q111 83 111 172 L111 480 L28 480 L28 551 L115 556 L126 712 L204 712 L204 556 L354 556 L354 480 L204 480 L204 170 Q204 116 223.5 89 Q243 62 290 62 Q314 62 353 77 L372 7 Q308 -13 269 -13 Z" /><glyph glyph-name="u" unicode="u" d="M256 -13 Q87 -13 87 204 L87 556 L180 556 L180 215 Q180 138 205 103 Q230 68 285 68 Q327 68 361 89.5 Q395 111 435 162 L435 556 L528 556 L528 0 L451 0 L443 87 L440 87 Q353 -13 256 -13 Z" /><glyph glyph-name="v" unicode="v" d="M214 0 L13 556 L111 556 L215 240 Q257 107 267 76 L271 76 Q278 97 296 153.5 Q314 210 323 240 L428 556 L520 556 L323 0 L214 0 Z" /><glyph glyph-name="w" unicode="w" d="M182 0 L28 556 L123 556 L206 234 Q210 216 221.5 162.5 Q233 109 239 79 L244 79 Q266 176 282 234 L368 556 L459 556 L546 234 Q553 204 567 150 Q581 96 585 79 L589 79 Q596 109 608.5 165 Q621 221 624 234 L706 556 L794 556 L644 0 L531 0 L451 300 Q445 323 413 460 L408 460 Q387 364 370 298 L292 0 L182 0 Z" /><glyph glyph-name="x" unicode="x" d="M15 0 L199 290 L30 556 L130 556 L205 433 Q215 416 234 384.5 Q253 353 260 341 L264 341 Q307 419 314 433 L383 556 L480 556 L311 281 L495 0 L392 0 L310 130 Q294 160 251 229 L246 229 Q200 152 188 130 L114 0 L15 0 Z" /><glyph glyph-name="y" unicode="y" d="M103 -240 Q67 -240 38 -228 L56 -154 Q81 -163 98 -163 Q184 -163 224 -43 L237 -1 L13 556 L111 556 L224 247 Q233 221 252 166.5 Q271 112 278 91 L283 91 Q320 214 330 247 L429 556 L520 556 L310 -46 Q277 -138 229 -189 Q181 -240 103 -240 Z" /><glyph glyph-name="z" unicode="z" d="M36 0 L36 50 L329 480 L68 480 L68 556 L446 556 L446 506 L154 76 L457 76 L457 0 L36 0 Z" /><glyph glyph-name="braceleft" unicode="{" d="M311 -174 L261 -174 Q190 -174 158.5 -141 Q127 -108 127 -22 Q127 20 132 90.5 Q137 161 137 199 Q137 288 39 289 L39 347 Q137 348 137 436 Q137 474 132 544.5 Q127 615 127 657 Q127 743 158.5 776.5 Q190 810 261 810 L311 810 L311 758 L282 758 Q238 758 221 733.5 Q204 709 204 652 Q204 618 207 551.5 Q210 485 210 444 Q210 388 194 359.5 Q178 331 141 321 L141 316 Q178 306 194 276 Q210 246 210 191 Q210 151 207 84.5 Q204 18 204 -16 Q204 -73 220.5 -97 Q237 -121 282 -121 L311 -121 L311 -174 Z" /><glyph glyph-name="bar" unicode="|" d="M105 -286 L105 858 L171 858 L171 -286 L105 -286 Z" /><glyph glyph-name="braceright" unicode="}" d="M35 -174 L35 -121 L65 -121 Q110 -121 126 -97.5 Q142 -74 142 -16 Q142 18 139.5 84.5 Q137 151 137 191 Q137 246 153 276 Q169 306 205 316 L205 321 Q168 331 152.5 359.5 Q137 388 137 444 Q137 485 139.5 551.5 Q142 618 142 652 Q142 710 126 734 Q110 758 65 758 L35 758 L35 810 L86 810 Q156 810 187.5 776.5 Q219 743 219 657 Q219 615 214.5 544.5 Q210 474 210 436 Q210 348 307 347 L307 289 Q210 288 210 199 Q210 161 214.5 90.5 Q219 20 219 -22 Q219 -108 187.5 -141 Q156 -174 86 -174 L35 -174 Z" /><glyph glyph-name="asciitilde" unicode="~" d="M385 294 Q354 294 324 309 Q294 324 273.5 342.5 Q253 361 227.5 376 Q202 391 181 391 Q131 391 93 322 L41 358 Q101 461 184 461 Q214 461 244 446 Q274 431 294.5 413 Q315 395 340.5 380 Q366 365 387 365 Q437 365 474 434 L527 396 Q468 294 385 294 Z" /><glyph glyph-name="section" unicode="§" d="M538 749 L512 685 Q443 730 347 730 Q291 730 255.5 702.5 Q220 675 220 641 Q220 599 259 576 Q298 553 379 531 Q477 505 527 464.5 Q577 424 577 357 Q577 269 509 213 Q526 200 539 172 Q552 144 552 112 Q552 33 486 -16.5 Q420 -66 323 -66 Q198 -66 131 -14 L160 48 Q223 -2 325 -2 Q390 -2 429 27.5 Q468 57 468 102 Q468 143 434 169 Q400 195 307 223 Q199 255 149.5 294.5 Q100 334 100 401 Q100 433 120 470 Q140 507 179 536 Q160 550 148.5 576.5 Q137 603 138 629 Q138 700 198 747.5 Q258 795 357 795 Q460 795 538 749 ZM227 504 Q177 463 177 414 Q177 380 204 355 Q231 330 316 302 Q436 262 460 247 Q500 282 500 339 Q500 370 480.5 393 Q461 416 428 430.5 Q395 445 361 456 Q327 467 288 479.5 Q249 492 227 504 Z" /><glyph glyph-name="dieresis" unicode="¨" d="M201 672 Q176 672 159.5 688.5 Q143 705 143 728 Q143 753 159.5 769 Q176 785 201 785 Q226 785 241.5 769 Q257 753 257 728 Q257 704 241 688 Q225 672 201 672 ZM460 688 Q444 672 420 672 Q396 672 380 688 Q364 704 364 728 Q364 753 379.5 769 Q395 785 420 785 Q445 785 460.5 769 Q476 753 476 728 Q476 704 460 688 Z" /><glyph glyph-name="degree" unicode="°" d="M189 492 Q130 492 88 532.5 Q46 573 46 637 Q46 702 88 742.5 Q130 783 189 783 Q249 783 291 742.5 Q333 702 333 637 Q333 573 291 532.5 Q249 492 189 492 ZM127 570 Q151 544 189 544 Q227 544 251 570 Q275 596 275 637 Q275 678 251 704.5 Q227 731 189 731 Q151 731 127 704.5 Q103 678 103 637 Q103 596 127 570 Z" /><glyph glyph-name="plusminus" unicode="±" d="M884 543 L884 472 L547 472 L547 190 L477 190 L477 472 L140 472 L140 543 L477 543 L477 823 L547 823 L547 543 L884 543 ZM140 89 L888 89 L888 18 L140 18 L140 89 Z" /><glyph glyph-name="acute" unicode="´" d="M294 656 L246 702 L408 893 L473 830 L294 656 Z" /><glyph glyph-name="paragraph" unicode="¶" d="M340 -58 L340 301 L331 301 Q247 301 174 360 Q101 419 100 524 Q99 563 107.5 597.5 Q116 632 138.5 666.5 Q161 701 196.5 726 Q232 751 290 766.5 Q348 782 423 782 Q518 782 559 773 L559 -58 L493 -58 L493 718 L406 718 L406 -58 L340 -58 Z" /><glyph glyph-name="multiply" unicode="×" d="M842 104 L793 55 L512 336 L232 55 L182 104 L463 385 L182 665 L232 715 L512 434 L793 715 L842 666 L562 385 L842 104 Z" /><glyph glyph-name="divide" unicode="÷" d="M438 645 Q438 676 459.5 698 Q481 720 512 720 Q543 720 564.5 698 Q586 676 586 645 Q586 615 564.5 593 Q543 571 512 571 Q481 571 459.5 593 Q438 615 438 645 ZM140 420 L884 420 L884 349 L140 349 L140 420 ZM438 124 Q438 154 459.5 176 Q481 198 512 198 Q543 198 564.5 176 Q586 154 586 124 Q586 93 564.5 71 Q543 49 512 49 Q481 49 459.5 71 Q438 93 438 124 Z" /><glyph glyph-name="cid00251" unicode="&#x391;" d="M196 305 L423 305 L387 420 Q363 492 311 674 L307 674 Q272 548 232 420 L196 305 ZM518 0 L446 229 L172 229 L99 0 L3 0 L258 751 L364 751 L618 0 L518 0 Z" /><glyph glyph-name="cid00252" unicode="&#x392;" d="M102 0 L102 751 L326 751 Q447 751 515.5 706.5 Q584 662 584 567 Q584 510 554.5 465.5 Q525 421 473 404 L473 399 Q543 386 585 340 Q627 294 627 220 Q627 113 549.5 56.5 Q472 0 342 0 L102 0 ZM198 431 L309 431 Q490 431 490 555 Q490 620 446.5 648 Q403 676 313 676 L198 676 L198 431 ZM198 76 L329 76 Q534 76 534 223 Q534 358 329 358 L198 358 L198 76 Z" /><glyph glyph-name="cid00253" unicode="&#x393;" d="M102 0 L102 751 L536 751 L536 671 L198 671 L198 0 L102 0 Z" /><glyph glyph-name="cid00254" unicode="&#x394;" d="M34 0 L34 56 L283 751 L390 751 L638 56 L638 0 L34 0 ZM136 81 L534 81 L416 424 L338 667 L333 667 L254 424 L136 81 Z" /><glyph glyph-name="cid00255" unicode="&#x395;" d="M102 0 L102 751 L536 751 L536 671 L198 671 L198 435 L482 435 L482 354 L198 354 L198 81 L547 81 L547 0 L102 0 Z" /><glyph glyph-name="cid00256" unicode="&#x396;" d="M51 0 L51 56 L447 671 L87 671 L87 751 L564 751 L564 695 L168 81 L568 81 L568 0 L51 0 Z" /><glyph glyph-name="cid00257" unicode="&#x397;" d="M102 0 L102 751 L198 751 L198 436 L548 436 L548 751 L642 751 L642 0 L548 0 L548 354 L198 354 L198 0 L102 0 Z" /><glyph glyph-name="cid00258" unicode="&#x398;" d="M251 354 L251 436 L509 436 L509 354 L251 354 ZM611.5 93 Q523 -13 380 -13 Q237 -13 148 93 Q59 199 59 378 Q59 556 148 660.5 Q237 765 380 765 Q523 765 611.5 660.5 Q700 556 700 378 Q700 199 611.5 93 ZM218 154 Q279 70 380 70 Q481 70 542 154 Q603 238 603 378 Q603 518 542 600 Q481 682 380 682 Q278 682 217.5 600 Q157 518 157 378 Q157 238 218 154 Z" /><glyph glyph-name="cid00259" unicode="&#x399;" d="M102 0 L102 751 L198 751 L198 0 L102 0 Z" /><glyph glyph-name="cid00260" unicode="&#x39a;" d="M102 0 L102 751 L198 751 L198 374 L201 374 L514 751 L621 751 L386 465 L657 0 L551 0 L327 391 L198 238 L198 0 L102 0 Z" /><glyph glyph-name="cid00261" unicode="&#x39b;" d="M1 0 L239 751 L348 751 L589 0 L488 0 L367 408 Q357 440 333.5 522.5 Q310 605 294 654 L290 654 Q272 598 218 408 L96 0 L1 0 Z" /><glyph glyph-name="cid00262" unicode="&#x39c;" d="M102 0 L102 751 L217 751 L361 349 L415 193 L420 193 L471 349 L614 751 L729 751 L729 0 L640 0 L640 416 Q640 479 652 637 L648 637 L589 466 L446 76 L383 76 L241 466 L181 637 L177 637 Q188 456 188 416 L188 0 L102 0 Z" /><glyph glyph-name="cid00263" unicode="&#x39d;" d="M102 0 L102 751 L201 751 L474 278 L554 123 L559 123 Q547 305 547 360 L547 751 L637 751 L637 0 L540 0 L266 474 L185 629 L181 629 Q182 605 185.5 556.5 Q189 508 191 468.5 Q193 429 193 394 L193 0 L102 0 Z" /><glyph glyph-name="cid00264" unicode="&#x39e;" d="M56 0 L56 81 L554 81 L554 0 L56 0 ZM142 354 L142 435 L468 435 L468 354 L142 354 ZM68 671 L68 751 L542 751 L542 671 L68 671 Z" /><glyph glyph-name="cid00265" unicode="&#x39f;" d="M611.5 93 Q523 -13 380 -13 Q237 -13 148 93 Q59 199 59 378 Q59 556 148 660.5 Q237 765 380 765 Q523 765 611.5 660.5 Q700 556 700 378 Q700 199 611.5 93 ZM218 154 Q279 70 380 70 Q481 70 542 154 Q603 238 603 378 Q603 518 542 600 Q481 682 380 682 Q278 682 217.5 600 Q157 518 157 378 Q157 238 218 154 Z" /><glyph glyph-name="cid00266" unicode="&#x3a0;" d="M102 0 L102 751 L635 751 L635 0 L541 0 L541 671 L198 671 L198 0 L102 0 Z" /><glyph glyph-name="cid00267" unicode="&#x3a1;" d="M102 0 L102 751 L316 751 Q598 751 598 530 Q598 415 524 356.5 Q450 298 322 298 L198 298 L198 0 L102 0 ZM198 375 L309 375 Q409 375 456.5 412.5 Q504 450 504 530 Q504 609 456 641.5 Q408 674 305 674 L198 674 L198 375 Z" /><glyph glyph-name="cid00268" unicode="&#x3a3;" d="M50 0 L50 56 L309 381 L55 695 L55 751 L540 751 L540 671 L175 671 L406 383 L170 81 L573 81 L573 0 L50 0 Z" /><glyph glyph-name="cid00269" unicode="&#x3a4;" d="M259 0 L259 671 L32 671 L32 751 L582 751 L582 671 L354 671 L354 0 L259 0 Z" /><glyph glyph-name="cid00270" unicode="&#x3a5;" d="M224 0 L224 292 L-1 751 L100 751 L197 539 Q205 521 230 464 Q255 407 270 375 L274 375 Q322 475 349 539 L446 751 L545 751 L319 292 L319 0 L224 0 Z" /><glyph glyph-name="cid00271" unicode="&#x3a6;" d="M454 597 L454 157 Q556 162 615.5 222 Q675 282 675 378 Q675 474 615.5 532.5 Q556 591 454 597 ZM369 157 L369 597 Q267 591 206.5 532.5 Q146 474 146 378 Q146 283 206.5 222.5 Q267 162 369 157 ZM454 776 L454 670 Q598 664 683 587 Q768 510 768 378 Q768 247 682.5 168 Q597 89 454 83 L454 -25 L369 -25 L369 83 Q226 89 140.5 168 Q55 247 55 378 Q55 510 140 587 Q225 664 369 670 L369 776 L454 776 Z" /><glyph glyph-name="cid00272" unicode="&#x3a7;" d="M17 0 L237 388 L32 751 L136 751 L239 559 Q245 547 256 526.5 Q267 506 277 487.5 Q287 469 298 450 L302 450 Q331 512 355 559 L456 751 L555 751 L350 383 L569 0 L465 0 L354 203 Q315 280 290 324 L286 324 Q263 278 225 203 L117 0 L17 0 Z" /><glyph glyph-name="cid00273" unicode="&#x3a8;" d="M633 751 L726 751 L726 566 Q726 292 444 281 L444 0 L354 0 L354 281 Q73 292 73 566 L73 751 L165 751 L165 571 Q165 464 212 412.5 Q259 361 354 356 L354 751 L444 751 L444 356 Q539 361 586 412.5 Q633 464 633 571 L633 751 Z" /><glyph glyph-name="cid00274" unicode="&#x3a9;" d="M52 0 L52 78 L202 78 L202 82 Q68 212 68 402 Q68 562 155.5 663.5 Q243 765 388 765 Q533 765 621 663 Q709 561 709 402 Q709 213 574 82 L574 78 L724 78 L724 0 L458 0 L458 69 Q611 190 611 396 Q611 521 551 601.5 Q491 682 388 682 Q285 682 225 601.5 Q165 521 165 396 Q165 189 318 69 L318 0 L52 0 Z" /><glyph glyph-name="cid00275" unicode="&#x3b1;" d="M267 -13 Q169 -13 110.5 60.5 Q52 134 52 268 Q52 405 123.5 487.5 Q195 570 296 570 Q353 570 399 534.5 Q445 499 468 424 L471 424 L495 556 L587 556 Q517 215 517 122 Q517 95 532.5 80 Q548 65 572 65 Q591 65 610 72 L625 1 Q593 -13 553 -13 Q501 -13 471.5 14.5 Q442 42 443 99 L439 99 Q376 -13 267 -13 ZM286 65 Q342 65 387 116.5 Q432 168 438 238 L446 343 Q408 492 306 492 Q242 492 196 432.5 Q150 373 150 269 Q150 172 185.5 118.5 Q221 65 286 65 Z" /><glyph glyph-name="beta" unicode="&#x3b2;" d="M91 -204 L91 562 Q91 682 148.5 755 Q206 828 319 828 Q406 828 467 777 Q528 726 528 632 Q528 508 417 441 L417 436 Q500 425 548 367 Q596 309 596 221 Q596 113 532 50 Q468 -13 378 -13 Q255 -13 179 72 Q179 66 185 -204 L91 -204 ZM356 65 Q419 65 461 108.5 Q503 152 503 226 Q503 296 462.5 339.5 Q422 383 346 383 Q320 383 289 376 L274 447 Q357 464 397 513.5 Q437 563 437 625 Q437 687 403.5 720.5 Q370 754 321 754 Q256 754 219.5 701 Q183 648 182 549 Q179 351 179 152 Q247 65 356 65 Z" /><glyph glyph-name="cid00277" unicode="&#x3b3;" d="M322 -204 L225 -204 Q229 -154 229 -67 Q229 68 161.5 250 Q94 432 7 546 L100 570 Q155 494 208 365 Q261 236 285 110 L290 110 Q421 365 436 556 L530 556 Q507 414 458.5 292 Q410 170 309 5 Q322 -92 322 -204 Z" /><glyph glyph-name="cid00278" unicode="&#x3b4;" d="M310 65 Q384 65 422.5 114 Q461 163 461 250 Q461 314 429 361 Q397 408 339 453 Q250 432 200.5 377 Q151 322 151 242 Q151 162 197.5 113.5 Q244 65 310 65 ZM542 783 L518 710 Q387 757 301 757 Q255 757 232 740 Q209 723 209 698 Q209 685 213 673 Q217 661 227 649 Q237 637 246 627 Q255 617 273 602.5 Q291 588 303 579 Q315 570 338.5 553 Q362 536 376 526 Q432 485 466 452.5 Q500 420 526.5 367 Q553 314 553 251 Q553 131 488 59 Q423 -13 308 -13 Q207 -13 133 56.5 Q59 126 59 240 Q59 336 118.5 403 Q178 470 274 500 Q201 551 160.5 598 Q120 645 120 703 Q120 757 166.5 792.5 Q213 828 303 828 Q408 828 542 783 Z" /><glyph glyph-name="cid00279" unicode="&#x3b5;" d="M288 -13 Q184 -13 118 32.5 Q52 78 52 154 Q52 210 84.5 244.5 Q117 279 168 292 L168 297 Q127 312 103.5 346 Q80 380 80 421 Q80 493 140.5 531.5 Q201 570 292 570 Q389 570 472 509 L434 446 Q367 496 295 496 Q241 496 207 473 Q173 450 173 409 Q173 369 204.5 346 Q236 323 301 323 Q330 323 370 326 L370 253 Q322 256 284 256 Q146 256 146 161 Q146 115 186 88 Q226 61 297 61 Q379 61 450 118 L489 55 Q400 -13 288 -13 Z" /><glyph glyph-name="cid00280" unicode="&#x3b6;" d="M412 -211 L337 -180 Q370 -139 381 -120 Q392 -101 392 -79 Q392 -53 367 -39 Q342 -25 264 -9 Q218 0 183.5 16.5 Q149 33 118.5 62.5 Q88 92 71.5 140 Q55 188 55 254 Q55 374 150.5 515 Q246 656 364 745 Q136 741 90 739 L90 815 L467 815 L467 739 L462 739 Q348 658 250 514 Q152 370 152 259 Q152 166 193.5 123.5 Q235 81 318 66 Q403 50 439.5 24 Q476 -2 476 -57 Q476 -121 412 -211 Z" /><glyph glyph-name="cid00281" unicode="&#x3b7;" d="M532 -204 L438 -204 Q444 68 444 340 Q444 419 423 453.5 Q402 488 353 488 Q307 488 270 461 Q233 434 187 364 L187 0 L94 0 L94 403 Q94 490 86 556 L171 556 L179 439 L182 439 Q226 506 273.5 538 Q321 570 381 570 Q532 570 532 352 L532 -204 Z" /><glyph glyph-name="cid00282" unicode="&#x3b8;" d="M437 379 L160 379 Q167 65 299 65 Q430 65 437 379 ZM160 445 L437 445 Q433 601 396 676.5 Q359 752 299 752 Q238 752 201 676.5 Q164 601 160 445 ZM299 828 Q407 828 468 720 Q529 612 529 411 Q529 196 469 91.5 Q409 -13 299 -13 Q189 -13 129 91.5 Q69 196 69 411 Q69 613 129.5 720.5 Q190 828 299 828 Z" /><glyph glyph-name="cid00283" unicode="&#x3b9;" d="M200 -13 Q144 -13 119 19.5 Q94 52 94 116 L94 556 L188 556 Q187 513 184 350 Q181 187 181 109 Q181 65 220 65 Q236 65 254 71 L267 0 Q241 -13 200 -13 Z" /><glyph glyph-name="cid00284" unicode="&#x3ba;" d="M568 0 L465 -9 Q363 110 280 273 Q278 270 257.5 245 Q237 220 227 205 Q183 146 181 29 L181 0 L94 0 L94 403 Q94 502 84 556 L176 556 Q186 513 186 426 L186 252 L190 252 Q260 374 348 461 Q436 548 522 570 L530 481 Q441 453 337 340 Q437 141 568 0 Z" /><glyph glyph-name="cid00285" unicode="&#x3bb;" d="M118 -9 L18 0 L260 569 L254 592 Q229 672 198 711 Q167 750 121 750 Q87 750 49 731 L26 809 Q73 828 131 828 Q211 828 259 771 Q307 714 346 588 L557 0 L458 0 L304 462 L300 462 L118 -9 Z" /><glyph glyph-name="cid00286" unicode="&#x3bc;" d="M94 -204 L94 556 L187 556 L187 215 Q187 141 211.5 104.5 Q236 68 290 68 Q333 68 367 90 Q401 112 437 175 L437 556 L531 556 Q530 505 528.5 411 Q527 317 526 242.5 Q525 168 525 109 Q525 65 566 65 Q580 65 599 71 L611 0 Q585 -13 546 -13 Q499 -13 474.5 12.5 Q450 38 445 94 L443 94 Q383 -11 288 -11 Q213 -11 180 42 Q181 -108 188 -204 L94 -204 Z" /><glyph glyph-name="cid00287" unicode="&#x3bd;" d="M313 0 L221 0 Q190 154 134 297.5 Q78 441 7 546 L100 570 Q155 484 205.5 349 Q256 214 281 95 L286 95 Q407 350 425 556 L519 556 Q477 284 313 0 Z" /><glyph glyph-name="cid00288" unicode="&#x3be;" d="M420 -211 L345 -180 Q378 -139 389 -120 Q400 -101 400 -79 Q400 -53 373.5 -38.5 Q347 -24 272 -9 Q170 12 112.5 61.5 Q55 111 55 212 Q55 291 105 352 Q155 413 227 434 L227 438 Q174 461 142.5 503 Q111 545 111 604 Q111 699 194 745 Q113 744 33 739 L33 815 L475 815 L475 739 L345 739 Q287 739 246.5 702 Q206 665 206 602 Q206 543 250 502 Q294 461 347 461 Q387 461 422 468 L422 389 Q386 395 342 395 Q266 395 209.5 348.5 Q153 302 153 224 Q153 184 165.5 155.5 Q178 127 204.5 110 Q231 93 259.5 83.5 Q288 74 331 66 Q417 51 450.5 25 Q484 -1 484 -57 Q484 -121 420 -211 Z" /><glyph glyph-name="cid00289" unicode="&#x3bf;" d="M486.5 65.5 Q414 -13 306 -13 Q198 -13 125 65.5 Q52 144 52 278 Q52 413 125 491.5 Q198 570 306 570 Q414 570 486.5 491.5 Q559 413 559 278 Q559 144 486.5 65.5 ZM191 122.5 Q232 65 306 65 Q380 65 421.5 122.5 Q463 180 463 278 Q463 376 421 434.5 Q379 493 306 493 Q233 493 191.5 434.5 Q150 376 150 278 Q150 180 191 122.5 Z" /><glyph glyph-name="pi" unicode="&#x3c0;" d="M554 -13 Q491 -13 462 21.5 Q433 56 433 125 Q433 152 435.5 283 Q438 414 439 479 L242 479 Q242 336 209 -5 L115 0 Q154 245 154 479 L26 479 L26 551 L105 556 L642 556 L642 479 L529 479 Q521 334 521 119 Q521 65 573 65 Q581 65 618 70 L631 -1 Q598 -13 554 -13 Z" /><glyph glyph-name="cid00291" unicode="&#x3c1;" d="M89 -204 L89 285 Q89 422 158.5 496 Q228 570 335 570 Q450 570 512 495 Q574 420 574 287 Q574 151 506 69 Q438 -13 345 -13 Q245 -13 177 66 Q182 -98 183 -204 L89 -204 ZM329 65 Q393 65 435.5 125 Q478 185 478 286 Q478 382 442 437 Q406 492 331 492 Q266 492 222 437.5 Q178 383 178 283 L178 140 Q241 65 329 65 Z" /><glyph glyph-name="cid00292" unicode="&#x3c3;" d="M476 60.5 Q407 -13 302 -13 Q197 -13 124.5 63 Q52 139 52 271 Q52 410 125.5 483 Q199 556 306 556 L610 556 L610 476 Q515 484 435 485 L435 481 Q545 419 545 260 Q545 134 476 60.5 ZM303 65 Q370 65 412 120 Q454 175 454 267 Q454 355 413.5 416.5 Q373 478 304 478 Q235 478 192.5 425 Q150 372 150 271 Q150 177 192.5 121 Q235 65 303 65 Z" /><glyph glyph-name="cid00293" unicode="&#x3c4;" d="M330 -13 Q269 -13 242.5 21 Q216 55 216 125 L216 480 L30 480 L30 551 L110 556 L497 556 L497 480 L307 480 Q304 354 304 119 Q304 65 350 65 Q375 65 404 73 L419 1 Q373 -13 330 -13 Z" /><glyph glyph-name="cid00294" unicode="&#x3c5;" d="M285 -13 Q184 -13 129 42.5 Q74 98 74 207 Q74 240 76 305 Q78 370 78 403 Q78 498 69 556 L160 556 Q168 511 168 426 Q168 396 164.5 316 Q161 236 161 201 Q161 131 196 98 Q231 65 286 65 Q350 65 388 117.5 Q426 170 426 274 Q426 419 380 548 L471 570 Q520 426 520 278 Q520 140 456 63.5 Q392 -13 285 -13 Z" /><glyph glyph-name="cid00295" unicode="&#x3c6;" d="M432 495 L432 61 Q516 64 572.5 123 Q629 182 629 279 Q629 377 574.5 434.5 Q520 492 432 495 ZM345 61 L345 495 Q261 492 205.5 433.5 Q150 375 150 279 Q150 182 205.5 123 Q261 64 345 61 ZM432 712 L432 567 Q556 562 640.5 485.5 Q725 409 725 279 Q725 149 639 71.5 Q553 -6 432 -10 L432 -204 L345 -204 L345 -10 Q224 -6 138 72 Q52 150 52 279 Q52 408 138 485 Q224 562 345 567 L345 712 L432 712 Z" /><glyph glyph-name="cid00296" unicode="&#x3c7;" d="M105 -218 L10 -204 L231 187 L14 546 L106 570 L275 271 L280 271 L424 556 L522 556 L325 188 L558 -195 L467 -218 L280 110 L275 110 L105 -218 Z" /><glyph glyph-name="cid00297" unicode="&#x3c8;" d="M583 548 L674 570 Q723 435 723 304 Q723 155 647 72.5 Q571 -10 434 -13 L434 -204 L348 -204 L348 -13 Q212 -12 145 60 Q78 132 78 255 L78 403 Q78 490 70 556 L161 556 Q168 510 168 426 Q168 393 167 328.5 Q166 264 166 249 Q166 163 212 113 Q258 63 348 62 L348 712 L434 712 L434 62 Q629 68 629 302 Q629 419 583 548 Z" /><glyph glyph-name="cid00298" unicode="&#x3c9;" d="M252 -13 Q165 -13 111.5 58 Q58 129 58 262 Q58 414 162 570 L246 531 Q195 458 171 393 Q147 328 147 245 Q147 160 177.5 112.5 Q208 65 256 65 Q300 65 328.5 98 Q357 131 357 203 Q357 268 347 352 L451 352 Q441 254 441 203 Q441 65 541 65 Q590 65 619 114.5 Q648 164 648 260 Q648 343 627.5 402 Q607 461 558 535 L643 570 Q692 496 717 425.5 Q742 355 742 265 Q742 129 691.5 58 Q641 -13 553 -13 Q503 -13 462.5 12 Q422 37 401 87 L397 87 Q357 -13 252 -13 Z" /><glyph glyph-name="cid00299" unicode="&#x401;" d="M102 0 L102 751 L536 751 L536 671 L198 671 L198 435 L482 435 L482 354 L198 354 L198 81 L547 81 L547 0 L102 0 ZM248 834.5 Q232 819 208 819 Q184 819 168.5 834 Q153 849 153 874 Q153 899 168.5 914.5 Q184 930 208 930 Q232 930 248 914.5 Q264 899 264 874 Q264 850 248 834.5 ZM443 819 Q418 819 402.5 834 Q387 849 387 874 Q387 899 402.5 914.5 Q418 930 443 930 Q467 930 483 914.5 Q499 899 499 874 Q499 850 483 834.5 Q467 819 443 819 Z" /><glyph glyph-name="afii10017" unicode="&#x410;" d="M196 305 L423 305 L387 420 Q363 492 311 674 L307 674 Q272 548 232 420 L196 305 ZM518 0 L446 229 L172 229 L99 0 L3 0 L258 751 L364 751 L618 0 L518 0 Z" /><glyph glyph-name="cid00301" unicode="&#x411;" d="M102 0 L102 751 L566 751 L566 671 L198 671 L198 435 L342 435 Q470 435 543 385 Q616 335 616 227 Q616 113 545 56.5 Q474 0 346 0 L102 0 ZM198 76 L331 76 Q428 76 475.5 112 Q523 148 523 225 Q523 296 474.5 329 Q426 362 328 362 L198 362 L198 76 Z" /><glyph glyph-name="cid00302" unicode="&#x412;" d="M102 0 L102 751 L326 751 Q447 751 515.5 706.5 Q584 662 584 567 Q584 510 554.5 465.5 Q525 421 473 404 L473 399 Q543 386 585 340 Q627 294 627 220 Q627 113 549.5 56.5 Q472 0 342 0 L102 0 ZM198 431 L309 431 Q490 431 490 555 Q490 620 446.5 648 Q403 676 313 676 L198 676 L198 431 ZM198 76 L329 76 Q534 76 534 223 Q534 358 329 358 L198 358 L198 76 Z" /><glyph glyph-name="cid00303" unicode="&#x413;" d="M102 0 L102 751 L536 751 L536 671 L198 671 L198 0 L102 0 Z" /><glyph glyph-name="cid00304" unicode="&#x414;" d="M522 671 L310 671 Q299 608 283 503.5 Q267 399 255 335 Q218 148 171 81 L522 81 L522 671 ZM616 81 L700 81 L700 24 L689 -215 L606 -215 L606 0 L123 0 L123 -215 L40 -215 L30 24 L30 81 L65 81 Q122 103 169 350 Q193 479 237 751 L616 751 L616 81 Z" /><glyph glyph-name="afii10022" unicode="&#x415;" d="M102 0 L102 751 L536 751 L536 671 L198 671 L198 435 L482 435 L482 354 L198 354 L198 81 L547 81 L547 0 L102 0 Z" /><glyph glyph-name="cid00306" unicode="&#x416;" d="M684 400 L912 0 L809 0 L613 356 L505 356 L505 0 L415 0 L415 356 L307 356 L112 0 L7 0 L237 400 L157 579 Q130 637 108 655.5 Q86 674 58 674 Q42 674 31 669 L15 758 Q29 765 56 765 Q110 765 148 736.5 Q186 708 225 626 L312 434 L415 434 L415 751 L505 751 L505 434 L607 434 L695 626 Q734 708 772 736.5 Q810 765 864 765 Q890 765 905 758 L889 669 Q879 674 862 674 Q833 674 812 656 Q791 638 764 579 L684 400 Z" /><glyph glyph-name="cid00307" unicode="&#x417;" d="M317 -13 Q156 -13 48 95 L101 161 Q151 111 200.5 90.5 Q250 70 317 70 Q393 70 444 109 Q495 148 495 217 Q495 358 292 358 L207 358 L207 431 L268 431 Q456 431 456 561 Q456 619 415 650.5 Q374 682 308 682 Q208 682 132 611 L82 675 Q123 716 183 740.5 Q243 765 310 765 Q417 765 483 713.5 Q549 662 549 573 Q549 512 519.5 467 Q490 422 437 403 L437 398 Q504 385 546 336 Q588 287 588 213 Q588 108 511 47.5 Q434 -13 317 -13 Z" /><glyph glyph-name="afii10026" unicode="&#x418;" d="M102 0 L102 751 L197 751 L197 360 Q197 321 184 123 L189 123 L270 275 L548 751 L648 751 L648 0 L554 0 L554 394 Q554 447 566 629 L561 629 L480 476 L203 0 L102 0 Z" /><glyph glyph-name="cid00309" unicode="&#x419;" d="M102 0 L102 751 L197 751 L197 360 Q197 321 184 123 L189 123 L270 275 L548 751 L648 751 L648 0 L554 0 L554 394 Q554 447 566 629 L561 629 L480 476 L203 0 L102 0 ZM380 812 Q292 812 251.5 854 Q211 896 207 962 L289 962 Q295 864 380 864 Q467 864 471 962 L552 962 Q542 812 380 812 Z" /><glyph glyph-name="cid00310" unicode="&#x41a;" d="M403 400 L660 0 L558 0 L327 356 L198 356 L198 0 L102 0 L102 751 L198 751 L198 434 L328 434 L433 626 Q477 708 513 736.5 Q549 765 601 765 Q628 765 643 758 L627 669 Q616 674 600 674 Q573 674 553 656 Q533 638 501 579 L403 400 Z" /><glyph glyph-name="cid00311" unicode="&#x41b;" d="M65 -13 Q25 -13 0 -3 L19 84 Q34 77 52 77 Q74 77 89 89.5 Q104 102 122 148 Q140 194 157 279 Q159 291 243 751 L617 751 L617 0 L523 0 L523 671 L317 671 Q303 599 280.5 465 Q258 331 246 268 Q225 155 199 93 Q173 31 142.5 9 Q112 -13 65 -13 Z" /><glyph glyph-name="cid00312" unicode="&#x41c;" d="M102 0 L102 751 L217 751 L361 349 L415 193 L420 193 L471 349 L614 751 L729 751 L729 0 L640 0 L640 416 Q640 479 652 637 L648 637 L589 466 L446 76 L383 76 L241 466 L181 637 L177 637 Q188 456 188 416 L188 0 L102 0 Z" /><glyph glyph-name="cid00313" unicode="&#x41d;" d="M102 0 L102 751 L198 751 L198 436 L548 436 L548 751 L642 751 L642 0 L548 0 L548 354 L198 354 L198 0 L102 0 Z" /><glyph glyph-name="afii10032" unicode="&#x41e;" d="M611.5 93 Q523 -13 380 -13 Q237 -13 148 93 Q59 199 59 378 Q59 556 148 660.5 Q237 765 380 765 Q523 765 611.5 660.5 Q700 556 700 378 Q700 199 611.5 93 ZM218 154 Q279 70 380 70 Q481 70 542 154 Q603 238 603 378 Q603 518 542 600 Q481 682 380 682 Q278 682 217.5 600 Q157 518 157 378 Q157 238 218 154 Z" /><glyph glyph-name="cid00315" unicode="&#x41f;" d="M102 0 L102 751 L635 751 L635 0 L541 0 L541 671 L198 671 L198 0 L102 0 Z" /><glyph glyph-name="cid00316" unicode="&#x420;" d="M102 0 L102 751 L316 751 Q598 751 598 530 Q598 415 524 356.5 Q450 298 322 298 L198 298 L198 0 L102 0 ZM198 375 L309 375 Q409 375 456.5 412.5 Q504 450 504 530 Q504 609 456 641.5 Q408 674 305 674 L198 674 L198 375 Z" /><glyph glyph-name="cid00317" unicode="&#x421;" d="M386 -13 Q243 -13 151 91.5 Q59 196 59 375 Q59 554 152.5 659.5 Q246 765 392 765 Q515 765 598 672 L547 610 Q480 682 393 682 Q286 682 221.5 600 Q157 518 157 378 Q157 236 220 153 Q283 70 390 70 Q486 70 564 154 L616 94 Q525 -13 386 -13 Z" /><glyph glyph-name="cid00318" unicode="&#x422;" d="M259 0 L259 671 L32 671 L32 751 L582 751 L582 671 L354 671 L354 0 L259 0 Z" /><glyph glyph-name="afii10037" unicode="&#x423;" d="M155 -13 Q111 -13 81 -2 L101 83 Q120 75 148 75 Q218 75 246 136 L262 176 L6 751 L105 751 L247 416 L304 268 L308 268 L361 416 L490 751 L588 751 L341 136 Q311 62 267 24.5 Q223 -13 155 -13 Z" /><glyph glyph-name="cid00320" unicode="&#x424;" d="M460 585 L460 167 Q572 170 632 225 Q692 280 692 378 Q692 475 632.5 528.5 Q573 582 460 585 ZM377 167 L377 585 Q264 582 204 528.5 Q144 475 144 378 Q144 281 204.5 225.5 Q265 170 377 167 ZM460 765 L460 657 Q614 652 699 580.5 Q784 509 784 378 Q784 247 698.5 173 Q613 99 460 94 L460 -13 L377 -13 L377 94 Q224 99 138.5 173 Q53 247 53 378 Q53 509 138 580.5 Q223 652 377 657 L377 765 L460 765 Z" /><glyph glyph-name="cid00321" unicode="&#x425;" d="M17 0 L237 388 L32 751 L136 751 L239 559 Q245 547 256 526.5 Q267 506 277 487.5 Q287 469 298 450 L302 450 Q331 512 355 559 L456 751 L555 751 L350 383 L569 0 L465 0 L354 203 Q315 280 290 324 L286 324 Q263 278 225 203 L117 0 L17 0 Z" /><glyph glyph-name="cid00322" unicode="&#x426;" d="M622 81 L705 81 L705 24 L695 -215 L611 -215 L611 0 L102 0 L102 751 L198 751 L198 81 L526 81 L526 751 L622 751 L622 81 Z" /><glyph glyph-name="cid00323" unicode="&#x427;" d="M486 0 L486 337 Q418 326 349 326 Q216 326 146.5 382.5 Q77 439 77 569 L77 751 L169 751 L169 569 Q169 478 215.5 440.5 Q262 403 358 403 Q424 403 486 415 L486 751 L581 751 L581 0 L486 0 Z" /><glyph glyph-name="cid00324" unicode="&#x428;" d="M102 0 L102 751 L196 751 L196 81 L449 81 L449 751 L541 751 L541 81 L794 81 L794 751 L886 751 L886 0 L102 0 Z" /><glyph glyph-name="cid00325" unicode="&#x429;" d="M886 81 L970 81 L970 24 L959 -215 L877 -215 L877 0 L102 0 L102 751 L196 751 L196 81 L449 81 L449 751 L541 751 L541 81 L794 81 L794 751 L886 751 L886 81 Z" /><glyph glyph-name="cid00326" unicode="&#x42a;" d="M273 0 L273 671 L32 671 L32 751 L368 751 L368 443 L492 443 Q619 443 696 389.5 Q773 336 773 230 Q773 114 701 57 Q629 0 499 0 L273 0 ZM368 77 L487 77 Q680 77 680 228 Q680 367 479 367 L368 367 L368 77 Z" /><glyph glyph-name="afii10045" unicode="&#x42b;" d="M102 0 L102 751 L198 751 L198 443 L314 443 Q444 443 518 391 Q592 339 592 230 Q592 114 519 57 Q446 0 315 0 L102 0 ZM198 77 L304 77 Q499 77 499 228 Q499 367 301 367 L198 367 L198 77 ZM715 0 L715 751 L809 751 L809 0 L715 0 Z" /><glyph glyph-name="cid00328" unicode="&#x42c;" d="M102 0 L102 751 L198 751 L198 443 L336 443 Q466 443 539 391 Q612 339 612 230 Q612 114 539.5 57 Q467 0 337 0 L102 0 ZM198 77 L325 77 Q520 77 520 228 Q520 367 323 367 L198 367 L198 77 Z" /><glyph glyph-name="afii10047" unicode="&#x42d;" d="M106 610 L54 672 Q92 711 152.5 738 Q213 765 279 765 Q423 765 508.5 663.5 Q594 562 594 375 Q594 190 507 88.5 Q420 -13 279 -13 Q133 -13 37 94 L88 154 Q170 70 275 70 Q376 70 435 142.5 Q494 215 499 354 L183 354 L183 435 L498 435 Q488 555 430 618.5 Q372 682 274 682 Q178 682 106 610 Z" /><glyph glyph-name="afii10048" unicode="&#x42e;" d="M517 153.5 Q574 70 671 70 Q768 70 825 153.5 Q882 237 882 378 Q882 519 825.5 600.5 Q769 682 671 682 Q573 682 516.5 600.5 Q460 519 460 378 Q460 237 517 153.5 ZM198 436 L368 436 Q381 590 462.5 677.5 Q544 765 671 765 Q810 765 894.5 661 Q979 557 979 378 Q979 199 894 93 Q809 -13 671 -13 Q537 -13 454.5 85.5 Q372 184 366 354 L198 354 L198 0 L102 0 L102 751 L198 751 L198 436 Z" /><glyph glyph-name="afii10049" unicode="&#x42f;" d="M468 395 L468 674 L341 674 Q250 674 205 643 Q160 612 160 540 Q160 395 341 395 L468 395 ZM328 751 L562 751 L562 0 L468 0 L468 318 L330 318 L134 0 L26 0 L236 329 Q158 348 112 401 Q66 454 66 540 Q66 751 328 751 Z" /><glyph glyph-name="afii10065" unicode="&#x430;" d="M222 -13 Q150 -13 104.5 29 Q59 71 59 144 Q59 234 140.5 283 Q222 332 401 352 Q401 493 287 493 Q208 493 120 433 L83 498 Q194 570 302 570 Q400 570 447.5 509.5 Q495 449 495 342 L495 0 L418 0 L410 67 L407 67 Q311 -13 222 -13 ZM249 61 Q318 61 401 135 L401 291 Q265 274 208 240.5 Q151 207 151 151 Q151 106 178 83.5 Q205 61 249 61 Z" /><glyph glyph-name="cid00333" unicode="&#x431;" d="M323 65 Q388 65 429 123 Q470 181 470 275 Q470 363 431.5 413.5 Q393 464 321 464 Q229 464 151 362 L151 319 Q151 196 194.5 130.5 Q238 65 323 65 ZM524 836 L544 751 Q506 727 429 715 Q388 709 366 705 Q344 701 313.5 693.5 Q283 686 267.5 677.5 Q252 669 232 654.5 Q212 640 201.5 622 Q191 604 180 578 Q169 552 163.5 518 Q158 484 155 441 Q231 537 344 537 Q444 537 505.5 466.5 Q567 396 567 275 Q567 145 497 66 Q427 -13 324 -13 Q199 -13 130 78 Q61 169 61 337 Q61 448 78 527.5 Q95 607 121.5 655 Q148 703 196 734 Q244 765 291 779 Q338 793 410 804 Q477 814 524 836 Z" /><glyph glyph-name="cid00334" unicode="&#x432;" d="M94 0 L94 556 L308 556 Q513 556 513 415 Q513 370 488.5 339.5 Q464 309 420 297 L420 292 Q472 280 504.5 247.5 Q537 215 537 160 Q537 79 477.5 39.5 Q418 0 316 0 L94 0 ZM186 323 L292 323 Q421 323 421 407 Q421 489 298 489 L186 489 L186 323 ZM186 67 L306 67 Q444 67 444 165 Q444 208 407 232 Q370 256 300 256 L186 256 L186 67 Z" /><glyph glyph-name="cid00335" unicode="&#x433;" d="M94 0 L94 556 L440 556 L440 480 L187 480 L187 0 L94 0 Z" /><glyph glyph-name="cid00336" unicode="&#x434;" d="M230 480 L210 292 Q194 144 148 76 L409 76 L409 480 L230 480 ZM503 76 L583 76 L583 17 L573 -197 L493 -197 L493 0 L113 0 L113 -197 L32 -197 L23 17 L23 76 L49 76 Q76 89 94 136.5 Q112 184 127 309 L157 556 L503 556 L503 76 Z" /><glyph glyph-name="afii10070" unicode="&#x435;" d="M318 -13 Q204 -13 128 66 Q52 145 52 278 Q52 408 127 489 Q202 570 303 570 Q408 570 466 500 Q524 430 524 309 Q524 282 520 256 L145 256 Q149 167 200 114 Q251 61 330 61 Q405 61 469 105 L503 44 Q416 -13 318 -13 ZM144 323 L442 323 Q442 407 406 451.5 Q370 496 304 496 Q243 496 197.5 449.5 Q152 403 144 323 Z" /><glyph glyph-name="cid00338" unicode="&#x436;" d="M588 293 L763 0 L662 0 L522 251 L431 251 L431 0 L347 0 L347 251 L256 251 L116 0 L15 0 L189 293 L145 402 Q126 448 108 463.5 Q90 479 65 479 Q58 479 47 476 L30 564 Q48 570 62 570 Q110 570 145 543.5 Q180 517 209 451 L261 327 L347 327 L347 556 L431 556 L431 327 L516 327 L569 451 Q597 517 632 543.5 Q667 570 715 570 Q732 570 748 564 L731 476 Q720 479 713 479 Q688 479 669.5 463.5 Q651 448 633 402 L588 293 Z" /><glyph glyph-name="cid00339" unicode="&#x437;" d="M253 -13 Q129 -13 42 57 L82 118 Q151 61 245 61 Q304 61 343.5 88.5 Q383 116 383 161 Q383 256 241 256 L164 256 L164 323 L227 323 Q293 323 327 346.5 Q361 370 361 411 Q361 453 330 474.5 Q299 496 246 496 Q164 496 94 446 L55 508 Q141 570 251 570 Q337 570 395 531.5 Q453 493 453 421 Q453 380 428 347 Q403 314 360 297 L360 292 Q413 279 445 244.5 Q477 210 477 154 Q477 79 411.5 33 Q346 -13 253 -13 Z" /><glyph glyph-name="afii10074" unicode="&#x438;" d="M94 0 L94 556 L185 556 L185 324 Q185 290 181 210.5 Q177 131 176 119 L180 119 Q224 187 254 238 L465 556 L552 556 L552 0 L461 0 L461 232 Q461 274 470 438 L466 438 Q413 353 392 318 L181 0 L94 0 Z" /><glyph glyph-name="cid00341" unicode="&#x439;" d="M94 0 L94 556 L185 556 L185 324 Q185 290 181 210.5 Q177 131 176 119 L180 119 Q224 187 254 238 L465 556 L552 556 L552 0 L461 0 L461 232 Q461 274 470 438 L466 438 Q413 353 392 318 L181 0 L94 0 ZM459 705.5 Q416 656 327 656 Q238 656 194.5 705.5 Q151 755 147 830 L223 830 Q228 711 327 711 Q424 711 428 830 L505 830 Q502 755 459 705.5 Z" /><glyph glyph-name="cid00342" unicode="&#x43a;" d="M366 293 L555 0 L453 0 L297 251 L187 251 L187 0 L94 0 L94 556 L187 556 L187 327 L295 327 L350 451 Q380 520 413.5 545 Q447 570 496 570 Q512 570 528 564 L512 476 Q503 479 494 479 Q469 479 451 464 Q433 449 413 402 L366 293 Z" /><glyph glyph-name="cid00343" unicode="&#x43b;" d="M62 -13 Q37 -13 11 -5 L30 81 Q44 77 54 77 Q116 77 129 196 Q147 341 172 556 L513 556 L513 0 L419 0 L419 480 L246 480 Q220 262 208 172 Q186 -13 62 -13 Z" /><glyph glyph-name="cid00344" unicode="&#x43c;" d="M94 0 L94 556 L202 556 L311 295 Q319 273 335.5 227.5 Q352 182 360 159 L366 159 Q415 289 417 295 L523 556 L631 556 L631 0 L546 0 L546 251 Q546 300 556 442 L552 442 Q543 416 523.5 369 Q504 322 500 311 L394 52 L332 52 L224 311 Q191 392 173 442 L168 442 Q178 252 178 251 L178 0 L94 0 Z" /><glyph glyph-name="cid00345" unicode="&#x43d;" d="M94 0 L94 556 L187 556 L187 331 L456 331 L456 556 L549 556 L549 0 L456 0 L456 248 L187 248 L187 0 L94 0 Z" /><glyph glyph-name="afii10080" unicode="&#x43e;" d="M492.5 66 Q417 -13 310 -13 Q203 -13 127.5 66 Q52 145 52 278 Q52 411 127.5 490.5 Q203 570 310 570 Q417 570 492.5 490.5 Q568 411 568 278 Q568 145 492.5 66 ZM194 123.5 Q238 65 310 65 Q382 65 427 123.5 Q472 182 472 278 Q472 374 427 433.5 Q382 493 310 493 Q238 493 194 433.5 Q150 374 150 278 Q150 182 194 123.5 Z" /><glyph glyph-name="cid00347" unicode="&#x43f;" d="M94 0 L94 556 L539 556 L539 0 L445 0 L445 480 L187 480 L187 0 L94 0 Z" /><glyph glyph-name="cid00348" unicode="&#x440;" d="M94 -234 L94 556 L171 556 L179 493 L182 493 Q276 570 359 570 Q465 570 523 493.5 Q581 417 581 287 Q581 150 510.5 68.5 Q440 -13 339 -13 Q263 -13 185 51 L187 -46 L187 -234 L94 -234 ZM187 123 Q254 65 324 65 Q394 65 438.5 124.5 Q483 184 483 286 Q483 492 337 492 Q270 492 187 415 L187 123 Z" /><glyph glyph-name="cid00349" unicode="&#x441;" d="M313 -13 Q199 -13 125.5 65 Q52 143 52 278 Q52 412 130.5 491 Q209 570 321 570 Q409 570 483 505 L435 442 Q379 493 324 493 Q248 493 199 433 Q150 373 150 278 Q150 182 197.5 123.5 Q245 65 322 65 Q393 65 453 120 L493 57 Q417 -13 313 -13 Z" /><glyph glyph-name="cid00350" unicode="&#x442;" d="M216 0 L216 480 L30 480 L30 556 L497 556 L497 480 L309 480 L309 0 L216 0 Z" /><glyph glyph-name="afii10085" unicode="&#x443;" d="M103 -240 Q67 -240 38 -228 L56 -154 Q81 -163 98 -163 Q184 -163 224 -43 L237 -1 L13 556 L111 556 L224 247 Q233 221 252 166.5 Q271 112 278 91 L283 91 Q320 214 330 247 L429 556 L520 556 L310 -46 Q277 -138 229 -189 Q181 -240 103 -240 Z" /><glyph glyph-name="cid00352" unicode="&#x444;" d="M374 -234 L374 -55 L376 28 Q321 -13 264 -13 Q168 -13 111 64 Q54 141 54 278 Q54 409 115 489.5 Q176 570 264 570 Q316 570 376 530 L374 611 L374 815 L465 815 L465 611 L463 527 Q525 570 583 570 Q680 570 732 494 Q784 418 784 287 Q784 149 723 68 Q662 -13 573 -13 Q518 -13 463 27 L465 -55 L465 -234 L374 -234 ZM285 65 Q336 65 376 104 L376 454 Q334 492 281 492 Q225 492 188 432.5 Q151 373 151 279 Q151 178 186 121.5 Q221 65 285 65 ZM557 65 Q616 65 652.5 124.5 Q689 184 689 286 Q689 383 657.5 437.5 Q626 492 560 492 Q508 492 463 453 L463 102 Q505 65 557 65 Z" /><glyph glyph-name="cid00353" unicode="&#x445;" d="M15 0 L199 290 L30 556 L130 556 L205 433 Q215 416 234 384.5 Q253 353 260 341 L264 341 Q307 419 314 433 L383 556 L480 556 L311 281 L495 0 L392 0 L310 130 Q294 160 251 229 L246 229 Q200 152 188 130 L114 0 L15 0 Z" /><glyph glyph-name="cid00354" unicode="&#x446;" d="M530 76 L611 76 L611 17 L602 -197 L522 -197 L522 0 L94 0 L94 556 L187 556 L187 76 L437 76 L437 556 L530 556 L530 76 Z" /><glyph glyph-name="cid00355" unicode="&#x447;" d="M398 0 L398 222 Q340 210 289 210 Q69 210 69 403 L69 556 L161 556 L161 403 Q161 341 196 314 Q231 287 308 287 Q352 287 398 297 L398 556 L492 556 L492 0 L398 0 Z" /><glyph glyph-name="cid00356" unicode="&#x448;" d="M94 0 L94 556 L186 556 L186 76 L383 76 L383 556 L473 556 L473 76 L671 76 L671 556 L763 556 L763 0 L94 0 Z" /><glyph glyph-name="cid00357" unicode="&#x449;" d="M763 76 L843 76 L843 17 L834 -197 L754 -197 L754 0 L94 0 L94 556 L186 556 L186 76 L383 76 L383 556 L473 556 L473 76 L671 76 L671 556 L763 556 L763 76 Z" /><glyph glyph-name="cid00358" unicode="&#x44a;" d="M226 0 L226 480 L30 480 L30 556 L321 556 L321 350 L413 350 Q516 350 575 307.5 Q634 265 634 177 Q634 88 575 44 Q516 0 413 0 L226 0 ZM321 75 L403 75 Q474 75 508.5 99.5 Q543 124 543 177 Q543 230 508.5 254.5 Q474 279 403 279 L321 279 L321 75 Z" /><glyph glyph-name="afii10093" unicode="&#x44b;" d="M94 0 L94 556 L187 556 L187 350 L266 350 Q369 350 428 307.5 Q487 265 487 177 Q487 88 428 44 Q369 0 266 0 L94 0 ZM187 75 L256 75 Q327 75 361 99.5 Q395 124 395 177 Q395 230 361 254.5 Q327 279 256 279 L187 279 L187 75 ZM584 0 L584 556 L677 556 L677 0 L584 0 Z" /><glyph glyph-name="cid00360" unicode="&#x44c;" d="M94 0 L94 556 L187 556 L187 350 L293 350 Q396 350 454.5 307.5 Q513 265 513 177 Q513 88 454.5 44 Q396 0 293 0 L94 0 ZM187 75 L283 75 Q354 75 388 99.5 Q422 124 422 177 Q422 230 388 254.5 Q354 279 283 279 L187 279 L187 75 Z" /><glyph glyph-name="afii10095" unicode="&#x44d;" d="M83 446 L39 503 Q110 570 215 570 Q325 570 396.5 495 Q468 420 468 278 Q468 136 397 61.5 Q326 -13 209 -13 Q100 -13 28 57 L66 115 Q125 61 201 61 Q280 61 327 110.5 Q374 160 378 256 L133 256 L133 323 L377 323 Q368 408 323 452 Q278 496 210 496 Q140 496 83 446 Z" /><glyph glyph-name="afii10096" unicode="&#x44e;" d="M436.5 123.5 Q479 65 547 65 Q615 65 655 123 Q695 181 695 278 Q695 375 655 434 Q615 493 547 493 Q479 493 436.5 433.5 Q394 374 394 278 Q394 182 436.5 123.5 ZM187 327 L309 327 Q321 441 387.5 505.5 Q454 570 551 570 Q654 570 723 491.5 Q792 413 792 278 Q792 144 723 65.5 Q654 -13 551 -13 Q451 -13 383.5 56 Q316 125 307 245 L187 245 L187 0 L94 0 L94 556 L187 556 L187 327 Z" /><glyph glyph-name="afii10097" unicode="&#x44f;" d="M400 288 L400 483 L313 483 Q173 483 173 389 Q173 340 209.5 314 Q246 288 313 288 L400 288 ZM298 556 L494 556 L494 0 L400 0 L400 220 L298 220 L296 220 L142 0 L37 0 L207 232 Q80 271 80 391 Q80 556 298 556 Z" /><glyph glyph-name="cid00364" unicode="&#x451;" d="M318 -13 Q204 -13 128 66 Q52 145 52 278 Q52 408 127 489 Q202 570 303 570 Q408 570 466 500 Q524 430 524 309 Q524 282 520 256 L145 256 Q149 167 200 114 Q251 61 330 61 Q405 61 469 105 L503 44 Q416 -13 318 -13 ZM144 323 L442 323 Q442 407 406 451.5 Q370 496 304 496 Q243 496 197.5 449.5 Q152 403 144 323 ZM193 672 Q169 672 152.5 688.5 Q136 705 136 728 Q136 753 152.5 769 Q169 785 193 785 Q218 785 234 769 Q250 753 250 728 Q250 704 234 688 Q218 672 193 672 ZM413 672 Q388 672 371.5 688.5 Q355 705 355 728 Q355 753 371.5 769 Q388 785 413 785 Q437 785 453 769 Q469 753 469 728 Q469 705 453 688.5 Q437 672 413 672 Z" /><glyph glyph-name="cid00713" unicode="&#x2010;" d="M128 411 L384 411 L384 368 L128 368 L128 411 Z" /><glyph glyph-name="uni2015" unicode="&#x2015;" d="M74 411 L950 411 L950 368 L74 368 L74 411 Z" /><glyph glyph-name="quoteleft" unicode="&#x2018;" d="M186 797 L213 753 Q169 723 148 690.5 Q127 658 126 610 Q129 611 136 611 Q161 611 179 596 Q197 581 197 554 Q197 525 180.5 508.5 Q164 492 136 492 Q102 492 83.5 518.5 Q65 545 65 594 Q65 727 186 797 Z" /><glyph glyph-name="quoteright" unicode="&#x2019;" d="M98 494 L72 538 Q116 569 136.5 601 Q157 633 158 680 Q155 679 147 679 Q122 679 105 694.5 Q88 710 88 737 Q88 766 104 783 Q120 800 147 800 Q181 800 200.5 772.5 Q220 745 220 696 Q220 565 98 494 Z" /><glyph glyph-name="quotedblleft" unicode="&#x201c;" d="M186 797 L213 753 Q169 723 148 690.5 Q127 658 126 610 Q129 611 136 611 Q161 611 179 596 Q197 581 197 554 Q197 525 180.5 508.5 Q164 492 136 492 Q102 492 83.5 518.5 Q65 545 65 594 Q65 727 186 797 ZM387 797 L414 753 Q370 723 349.5 690 Q329 657 328 610 Q331 611 337 611 Q362 611 380 596 Q398 581 398 554 Q398 525 381.5 508.5 Q365 492 337 492 Q303 492 284.5 518.5 Q266 545 266 594 Q266 726 387 797 Z" /><glyph glyph-name="quotedblright" unicode="&#x201d;" d="M98 494 L72 538 Q116 569 136.5 601 Q157 633 158 680 Q155 679 147 679 Q122 679 105 694.5 Q88 710 88 737 Q88 766 104 783 Q120 800 147 800 Q181 800 200.5 772.5 Q220 745 220 696 Q220 565 98 494 ZM299 494 L272 538 Q317 569 337.5 600.5 Q358 632 359 680 Q356 679 349 679 Q324 679 306.5 694.5 Q289 710 289 737 Q289 766 305.5 783 Q322 800 349 800 Q383 800 402 772.5 Q421 745 421 696 Q421 565 299 494 Z" /><glyph glyph-name="dagger" unicode="&#x2020;" d="M354 782 L347 535 L555 540 L555 462 L347 468 L354 -57 L266 -57 L273 468 L65 462 L65 540 L273 535 L266 782 L354 782 Z" /><glyph glyph-name="daggerdbl" unicode="&#x2021;" d="M354 782 L347 547 L555 553 L555 475 L347 481 L347 244 L555 250 L555 171 L347 177 L354 -57 L266 -57 L273 177 L65 171 L65 250 L273 244 L273 481 L65 475 L65 553 L273 547 L266 782 L354 782 Z" /><glyph glyph-name="cid00727" unicode="&#x2025;" d="M188 389 Q188 418 208 437.5 Q228 457 256 457 Q284 457 304 437.5 Q324 418 324 389 Q324 361 304.5 341.5 Q285 322 256 322 Q227 322 207.5 341.5 Q188 361 188 389 ZM700 389 Q700 418 720 437.5 Q740 457 768 457 Q796 457 816 437.5 Q836 418 836 389 Q836 361 816.5 341.5 Q797 322 768 322 Q739 322 719.5 341.5 Q700 361 700 389 Z" /><glyph glyph-name="ellipsis" unicode="&#x2026;" d="M103 389 Q103 418 122.5 437.5 Q142 457 171 457 Q200 457 219.5 437.5 Q239 418 239 389 Q239 361 219.5 341.5 Q200 322 171 322 Q142 322 122.5 341.5 Q103 361 103 389 ZM444 389 Q444 418 464 437.5 Q484 457 512 457 Q540 457 560 437.5 Q580 418 580 389 Q580 361 560.5 341.5 Q541 322 512 322 Q483 322 463.5 341.5 Q444 361 444 389 ZM785 389 Q785 418 804.5 437.5 Q824 457 853 457 Q882 457 901.5 437.5 Q921 418 921 389 Q921 361 901.5 341.5 Q882 322 853 322 Q824 322 804.5 341.5 Q785 361 785 389 Z" /><glyph glyph-name="perthousand" unicode="&#x2030;" d="M128 -16 L523 768 L575 768 L181 -16 L128 -16 ZM35 535 Q35 641 73 702.5 Q111 764 169 763 Q229 763 264 700.5 Q299 638 299 535 Q299 424 261 366 Q223 308 168 308 Q109 308 72 370.5 Q35 433 35 535 ZM240 535 Q240 567 237 595.5 Q234 624 226.5 652 Q219 680 203.5 696.5 Q188 713 166 713 Q139 713 122.5 683.5 Q106 654 100.5 617 Q95 580 95 536 Q95 358 167 358 Q240 358 240 535 ZM406 217 Q406 323 444 385 Q482 447 540 446 Q600 446 635 383.5 Q670 321 670 218 Q670 106 632 48.5 Q594 -9 539 -9 Q479 -9 442.5 52.5 Q406 114 406 217 ZM725 217 Q725 323 762.5 385 Q800 447 858 446 Q918 446 953.5 383.5 Q989 321 989 218 Q989 106 951 48.5 Q913 -9 857 -9 Q798 -9 761.5 53 Q725 115 725 217 ZM610 217 Q610 249 607 277.5 Q604 306 596.5 334.5 Q589 363 574 379.5 Q559 396 537 396 Q510 396 493.5 366.5 Q477 337 471.5 300 Q466 263 466 218 Q466 41 538 41 Q610 41 610 217 ZM929 217 Q929 249 926 277.5 Q923 306 915.5 334.5 Q908 363 893 379.5 Q878 396 856 396 Q829 396 812 366.5 Q795 337 789.5 299.5 Q784 262 784 218 Q784 41 857 41 Q929 41 929 217 Z" /><glyph glyph-name="cid00731" unicode="&#x2032;" d="M93 516 L119 790 L210 788 L195 685 L155 515 L93 516 Z" /><glyph glyph-name="cid00732" unicode="&#x2033;" d="M93 516 L119 790 L210 788 L195 685 L155 515 L93 516 ZM295 516 L319 790 L412 788 L395 685 L356 515 L295 516 Z" /><glyph glyph-name="cid00735" unicode="&#x203b;" d="M566.5 735 Q589 712 589 681 Q589 650 566.5 627 Q544 604 512 604 Q480 604 457.5 627 Q435 650 435 681 Q435 712 457.5 735 Q480 758 512 758 Q544 758 566.5 735 ZM174 757 L512 419 L850 757 L880 727 L542 389 L880 51 L850 22 L512 359 L173 20 L143 50 L482 389 L144 727 L174 757 ZM165.5 443 Q188 466 220 466 Q252 466 274.5 443 Q297 420 297 389 Q297 358 274.5 335 Q252 312 220 312 Q188 312 165.5 335 Q143 358 143 389 Q143 420 165.5 443 ZM858.5 335 Q836 312 804 312 Q772 312 749.5 335 Q727 358 727 389 Q727 420 749.5 443 Q772 466 804 466 Q836 466 858.5 443 Q881 420 881 389 Q881 358 858.5 335 ZM457.5 43 Q435 66 435 97 Q435 128 457.5 151 Q480 174 512 174 Q544 174 566.5 151 Q589 128 589 97 Q589 66 566.5 43 Q544 20 512 20 Q480 20 457.5 43 Z" /><glyph glyph-name="cid00747" unicode="&#x2103;" d="M193 488 Q133 488 90.5 529.5 Q48 571 48 635 Q48 701 90 741 Q132 781 193 781 Q253 781 294.5 741 Q336 701 336 635 Q336 571 294 529.5 Q252 488 193 488 ZM193 542 Q230 542 254.5 568 Q279 594 279 635 Q279 676 255 702 Q231 728 193 728 Q155 728 130.5 702 Q106 676 106 635 Q106 594 130.5 568 Q155 542 193 542 ZM753 -13 Q608 -13 515.5 91 Q423 195 423 374 Q423 553 516.5 658 Q610 763 758 763 Q878 763 964 671 L908 609 Q843 677 759 677 Q653 677 588.5 595.5 Q524 514 524 376 Q524 237 586.5 155 Q649 73 755 73 Q852 73 925 155 L981 94 Q891 -13 753 -13 Z" /><glyph glyph-name="cid00753" unicode="&#x2116;" d="M106 -13 Q93 -13 78 -10 L70 65 Q91 65 99.5 75 Q108 85 108 112 L108 730 L213 730 Q325 478 417 260 L481 111 L485 111 Q473 285 473 449 L473 632 Q473 743 560 743 Q575 743 590 739 L597 666 Q576 666 567 655.5 Q558 645 558 618 L558 0 L454 0 Q345 243 251 471 L185 620 L181 620 Q193 446 193 282 L193 98 Q193 -13 106 -13 ZM831 316 Q757 316 706.5 365.5 Q656 415 656 500 Q656 586 706 635 Q756 684 831 684 Q906 684 957 635 Q1008 586 1008 500 Q1008 415 957 365.5 Q906 316 831 316 ZM759 411 Q786 378 831 378 Q876 378 903.5 411 Q931 444 931 500 Q931 558 904 590.5 Q877 623 831 623 Q786 623 759 590.5 Q732 558 732 500 Q732 444 759 411 ZM687 172 L687 228 L976 228 L976 172 L687 172 Z" /><glyph glyph-name="uni2121" unicode="&#x2121;" d="M153 0 L153 676 L27 676 L27 750 L359 750 L359 676 L233 676 L233 0 L153 0 ZM410 0 L410 592 L666 592 L666 523 L489 523 L489 341 L624 341 L624 276 L489 276 L489 69 L677 69 L677 0 L410 0 ZM744 0 L744 592 L825 592 L825 72 L993 72 L993 0 L744 0 Z" /><glyph glyph-name="cid00758" unicode="&#x212b;" d="M398 304 L622 304 L587 417 Q565 484 512 670 L507 670 Q468 524 434 417 L398 304 ZM510 931 Q473 931 449 906.5 Q425 882 425 843 Q425 801 449 777.5 Q473 754 510 754 Q545 754 569 778 Q593 802 593 843 Q593 882 569 906.5 Q545 931 510 931 ZM717 0 L646 226 L375 226 L303 0 L204 0 L446 723 Q408 738 386 771 Q364 804 364 848 Q364 908 405 945 Q446 982 510 982 Q573 982 614.5 945 Q656 908 656 848 Q656 805 633.5 772 Q611 739 574 724 L820 0 L717 0 Z" /><glyph glyph-name="cid00762" unicode="&#x2160;" d="M463 0 L463 750 L561 750 L561 0 L463 0 Z" /><glyph glyph-name="cid00763" unicode="&#x2161;" d="M312 0 L312 750 L411 750 L411 0 L312 0 ZM614 0 L614 750 L712 750 L712 0 L614 0 Z" /><glyph glyph-name="cid00764" unicode="&#x2162;" d="M161 0 L161 750 L259 750 L259 0 L161 0 ZM463 0 L463 750 L561 750 L561 0 L463 0 ZM765 0 L765 750 L863 750 L863 0 L765 0 Z" /><glyph glyph-name="cid00765" unicode="&#x2163;" d="M168 0 L168 750 L266 750 L266 0 L168 0 ZM606 0 L368 750 L471 750 L592 346 Q601 317 624 233 Q647 149 663 99 L668 99 Q683 146 705 226.5 Q727 307 739 346 L858 750 L957 750 L720 0 L606 0 Z" /><glyph glyph-name="cid00766" unicode="&#x2164;" d="M456 0 L218 750 L321 750 L441 346 Q502 131 512 99 L517 99 Q532 146 554.5 227 Q577 308 589 346 L708 750 L807 750 L569 0 L456 0 Z" /><glyph glyph-name="cid00767" unicode="&#x2165;" d="M305 0 L67 750 L169 750 L290 346 Q301 309 323 228 Q345 147 360 99 L366 99 Q381 146 403.5 227 Q426 308 438 346 L557 750 L655 750 L419 0 L305 0 ZM757 0 L757 750 L855 750 L855 0 L757 0 Z" /><glyph glyph-name="cid00768" unicode="&#x2166;" d="M207 0 L8 750 L112 750 L205 346 Q213 315 224 266 Q235 217 244.5 177.5 Q254 138 266 99 L270 99 Q294 175 332 346 L426 750 L525 750 L327 0 L207 0 ZM607 0 L607 750 L706 750 L706 0 L607 0 ZM846 0 L846 750 L944 750 L944 0 L846 0 Z" /><glyph glyph-name="cid00769" unicode="&#x2167;" d="M151 0 L4 750 L94 750 L160 346 Q167 302 202 99 L206 99 Q234 251 248 346 L311 750 L397 750 L257 0 L151 0 ZM483 0 L483 750 L568 750 L568 0 L483 0 ZM675 0 L675 750 L760 750 L760 0 L675 0 ZM865 0 L865 750 L950 750 L950 0 L865 0 Z" /><glyph glyph-name="cid00770" unicode="&#x2168;" d="M169 0 L169 750 L267 750 L267 0 L169 0 ZM386 0 L603 387 L399 750 L508 750 L608 559 Q629 517 668 451 L672 451 Q677 461 724 559 L822 750 L926 750 L721 382 L939 0 L831 0 L723 201 L659 321 L655 321 Q643 298 623.5 258.5 Q604 219 595 201 L488 0 L386 0 Z" /><glyph glyph-name="cid00771" unicode="&#x2169;" d="M234 0 L452 387 L248 750 L356 750 L458 559 Q495 488 516 451 L520 451 Q530 473 572 559 L672 750 L774 750 L569 382 L788 0 L680 0 L571 201 Q545 251 508 321 L504 321 Q493 298 473 258.5 Q453 219 444 201 L337 0 L234 0 Z" /><glyph glyph-name="cid00786" unicode="&#x2190;" d="M983 354 L194 354 Q291 280 359 186 L298 151 Q247 217 176.5 280.5 Q106 344 36 389 Q106 433 176.5 497.5 Q247 562 298 628 L359 592 Q291 498 194 424 L983 424 L983 354 Z" /><glyph glyph-name="cid00787" unicode="&#x2191;" d="M354 -82 L354 708 Q278 609 186 542 L150 603 Q216 654 280.5 724.5 Q345 795 389 865 Q433 795 497.5 724.5 Q562 654 628 603 L592 542 Q500 609 424 708 L424 -82 L354 -82 Z" /><glyph glyph-name="cid00788" unicode="&#x2192;" d="M41 354 L41 424 L830 424 Q733 498 665 592 L726 628 Q777 562 847.5 497.5 Q918 433 988 389 Q918 344 847.5 280.5 Q777 217 726 151 L665 186 Q733 280 830 354 L41 354 Z" /><glyph glyph-name="cid00789" unicode="&#x2193;" d="M424 860 L424 71 Q500 170 592 237 L628 175 Q562 124 497.5 53.5 Q433 -17 389 -87 Q345 -17 280.5 53.5 Q216 124 150 175 L186 237 Q278 170 354 71 L354 860 L424 860 Z" /><glyph glyph-name="cid00804" unicode="&#x21d2;" d="M41 278 L761 278 Q823 342 882 385 Q828 423 761 492 L41 492 L41 562 L699 562 Q645 623 604 689 L665 724 Q725 629 816.5 535.5 Q908 442 999 385 Q908 327 816.5 233.5 Q725 140 665 45 L604 80 Q645 146 699 207 L41 207 L41 278 Z" /><glyph glyph-name="cid00805" unicode="&#x21d4;" d="M337 724 L396 689 Q361 628 306 562 L718 562 Q663 628 628 689 L687 724 Q743 629 828.5 535.5 Q914 442 999 385 Q914 327 828.5 233.5 Q743 140 687 45 L628 80 Q663 141 718 207 L306 207 Q361 141 396 80 L337 45 Q281 140 195.5 233.5 Q110 327 25 385 Q110 442 195.5 535.5 Q281 629 337 724 ZM774 492 L250 492 Q186 423 134 385 Q190 343 250 278 L774 278 Q834 343 890 385 Q838 423 774 492 Z" /><glyph glyph-name="cid00811" unicode="&#x2200;" d="M846 782 L908 751 L514 -15 L510 -15 L116 751 L178 782 L313 517 L711 517 L846 782 ZM350 447 L511 132 L513 132 L674 447 L350 447 Z" /><glyph glyph-name="partialdiff" unicode="&#x2202;" d="M723 500 Q723 603 678 658 Q633 713 555 713 Q457 713 387 623 L337 678 Q440 781 562 781 Q670 781 737 707.5 Q804 634 804 502 Q804 410 780 319.5 Q756 229 712 154.5 Q668 80 598.5 34 Q529 -12 446 -12 Q341 -12 281.5 51.5 Q222 115 222 215 Q222 329 301.5 408.5 Q381 488 481 488 Q633 488 701 352 L703 352 Q723 432 723 500 ZM301 215 Q301 146 341.5 103 Q382 60 450 60 Q521 61 577.5 111 Q634 161 669 256 Q660 329 608 375.5 Q556 422 488 422 Q415 422 358 361.5 Q301 301 301 215 Z" /><glyph glyph-name="cid00813" unicode="&#x2203;" d="M200 757 L818 757 L818 12 L200 12 L200 83 L748 83 L748 350 L200 350 L200 420 L748 420 L748 686 L200 686 L200 757 Z" /><glyph glyph-name="cid00816" unicode="&#x2207;" d="M458 -16 L155 677 L155 734 L867 734 L867 677 L566 -16 L458 -16 ZM610 309 L758 653 L263 653 L410 309 L508 68 L513 68 L610 309 Z" /><glyph glyph-name="cid00817" unicode="&#x2208;" d="M893 644 L471 644 Q365 644 289.5 580.5 Q214 517 202 420 L893 420 L893 349 L202 349 Q214 252 289.5 188.5 Q365 125 471 125 L893 125 L893 54 L471 54 Q325 54 226 149.5 Q127 245 127 385 Q127 524 226 619.5 Q325 715 471 715 L893 715 L893 644 Z" /><glyph glyph-name="cid00820" unicode="&#x220b;" d="M553 644 L131 644 L131 715 L553 715 Q699 715 798 619.5 Q897 524 897 385 Q897 245 798 149.5 Q699 54 553 54 L131 54 L131 125 L553 125 Q659 125 734.5 188.5 Q810 252 822 349 L131 349 L131 420 L822 420 Q810 517 734.5 580.5 Q659 644 553 644 Z" /><glyph glyph-name="summation" unicode="&#x2211;" d="M334 81 L334 77 L818 77 L818 0 L206 0 L206 54 L500 371 L222 686 L222 743 L780 743 L780 668 L350 668 L350 664 L605 373 L334 81 Z" /><glyph glyph-name="radical" unicode="&#x221a;" d="M573 901 L1024 901 L1024 859 L603 859 L274 -88 L244 -88 L133 199 L61 97 L35 117 L175 314 L276 48 L573 901 Z" /><glyph glyph-name="cid00825" unicode="&#x221d;" d="M557 385 Q655 251 781 251 Q818 251 847 260 L872 194 Q828 180 779 180 Q632 180 512 329 Q392 180 244 180 Q162 180 98.5 234.5 Q35 289 35 385 Q35 480 98.5 534.5 Q162 589 244 589 Q392 589 512 440 Q632 589 779 589 Q828 589 872 575 L847 510 Q818 519 781 519 Q657 519 557 385 ZM105 385 Q105 323 145.5 287 Q186 251 243 251 Q369 251 467 385 Q367 519 243 519 Q186 519 145.5 482.5 Q105 446 105 385 Z" /><glyph glyph-name="infinity" unicode="&#x221e;" d="M512 440 Q632 589 779 589 Q861 589 924.5 534.5 Q988 480 988 385 Q988 289 924.5 234.5 Q861 180 779 180 Q632 180 512 329 Q392 180 244 180 Q162 180 98.5 234.5 Q35 289 35 385 Q35 480 98.5 534.5 Q162 589 244 589 Q392 589 512 440 ZM105 385 Q105 323 145.5 287 Q186 251 243 251 Q367 251 467 385 Q366 519 243 519 Q186 519 145.5 482.5 Q105 446 105 385 ZM557 385 Q655 251 781 251 Q837 251 877.5 287 Q918 323 918 385 Q918 446 877.5 482.5 Q837 519 781 519 Q657 519 557 385 Z" /><glyph glyph-name="cid00827" unicode="&#x221f;" d="M234 83 L893 83 L893 12 L165 12 L165 765 L234 765 L234 83 Z" /><glyph glyph-name="cid00828" unicode="&#x2220;" d="M270 101 L270 98 L900 98 L900 28 L104 28 L104 32 L783 712 L833 662 L270 101 Z" /><glyph glyph-name="cid00830" unicode="&#x2225;" d="M210 123 L544 788 L606 758 L273 92 L210 123 ZM480 -12 L418 19 L751 685 L814 654 L480 -12 Z" /><glyph glyph-name="cid00832" unicode="&#x2227;" d="M116 24 L510 788 L514 788 L908 24 L846 -9 L513 641 L511 641 L178 -9 L116 24 Z" /><glyph glyph-name="cid00833" unicode="&#x2228;" d="M908 745 L514 -19 L510 -19 L116 745 L178 778 L511 128 L513 128 L846 778 L908 745 Z" /><glyph glyph-name="cid00834" unicode="&#x2229;" d="M182 4 L182 425 Q182 572 277 670.5 Q372 769 512 769 Q652 769 747 670.5 Q842 572 842 425 L842 4 L771 4 L771 425 Q771 542 696.5 620 Q622 698 512 698 Q402 698 327.5 620 Q253 542 253 425 L253 4 L182 4 Z" /><glyph glyph-name="cid00835" unicode="&#x222a;" d="M842 765 L842 344 Q842 197 747 98.5 Q652 0 512 0 Q372 0 277 98.5 Q182 197 182 344 L182 765 L253 765 L253 344 Q253 227 327.5 149 Q402 71 512 71 Q622 71 696.5 149 Q771 227 771 344 L771 765 L842 765 Z" /><glyph glyph-name="integral" unicode="&#x222b;" d="M471 170 L471 620 Q471 866 653 866 Q677 866 700 861 L693 786 Q675 791 659 791 Q611 791 582 754 Q553 717 553 608 L553 159 Q553 -88 371 -88 Q347 -88 324 -83 L331 -8 Q346 -12 365 -12 Q413 -12 442 24.5 Q471 61 471 170 Z" /><glyph glyph-name="cid00837" unicode="&#x222c;" d="M272 170 L272 620 Q272 866 455 866 Q479 866 502 861 L495 786 Q477 791 461 791 Q413 791 383.5 754 Q354 717 354 608 L354 159 Q354 -88 172 -88 Q148 -88 125 -83 L132 -8 Q147 -12 166 -12 Q214 -12 243 24.5 Q272 61 272 170 ZM670 170 L670 620 Q670 866 852 866 Q876 866 899 861 L892 786 Q874 791 858 791 Q810 791 781 754 Q752 717 752 608 L752 159 Q752 -88 569 -88 Q545 -88 522 -83 L529 -8 Q544 -12 563 -12 Q611 -12 640.5 24.5 Q670 61 670 170 Z" /><glyph glyph-name="cid00839" unicode="&#x222e;" d="M471 163 L471 224 Q414 237 377 283 Q340 329 340 389 Q340 449 377 495 Q414 541 471 554 L471 620 Q471 866 653 866 Q677 866 700 861 L693 786 Q675 791 659 791 Q637 791 621 785 Q605 779 588.5 762 Q572 745 562.5 708 Q553 671 553 615 L553 554 Q610 541 647 495 Q684 449 684 389 Q684 329 647 283 Q610 237 553 224 L553 159 Q553 -88 371 -88 Q347 -88 324 -83 L331 -8 Q346 -12 365 -12 Q387 -12 403 -6 Q419 0 435.5 16.5 Q452 33 461.5 70 Q471 107 471 163 ZM471 267 L471 511 Q432 500 406.5 465.5 Q381 431 381 389 Q381 347 406.5 312.5 Q432 278 471 267 ZM553 511 L553 267 Q592 278 617.5 312.5 Q643 347 643 389 Q643 431 617.5 465.5 Q592 500 553 511 Z" /><glyph glyph-name="cid00840" unicode="&#x2234;" d="M438 627 Q438 657 459.5 678.5 Q481 700 512 700 Q543 700 564.5 678.5 Q586 657 586 627 Q586 596 564.5 574 Q543 552 512 552 Q481 552 459.5 574 Q438 596 438 627 ZM167 142 Q167 173 189 195 Q211 217 242 217 Q273 217 294 195 Q315 173 315 142 Q315 112 294 90.5 Q273 69 242 69 Q211 69 189 90.5 Q167 112 167 142 ZM709 142 Q709 173 730.5 195 Q752 217 783 217 Q814 217 835.5 195 Q857 173 857 142 Q857 112 835.5 90.5 Q814 69 783 69 Q752 69 730.5 90.5 Q709 112 709 142 Z" /><glyph glyph-name="cid00841" unicode="&#x2235;" d="M167 627 Q167 657 189 678.5 Q211 700 242 700 Q273 700 294 678.5 Q315 657 315 627 Q315 596 294 574 Q273 552 242 552 Q211 552 189 574 Q167 596 167 627 ZM709 627 Q709 657 730.5 678.5 Q752 700 783 700 Q814 700 835.5 678.5 Q857 657 857 627 Q857 596 835.5 574 Q814 552 783 552 Q752 552 730.5 574 Q709 596 709 627 ZM438 142 Q438 173 459.5 195 Q481 217 512 217 Q543 217 564.5 195 Q586 173 586 142 Q586 112 564.5 90.5 Q543 69 512 69 Q481 69 459.5 90.5 Q438 112 438 142 Z" /><glyph glyph-name="cid00844" unicode="&#x223d;" d="M487 410 Q616 589 779 589 Q861 589 924.5 534.5 Q988 480 988 385 Q988 288 924.5 234 Q861 180 777 180 Q729 180 684 194 L711 260 Q740 251 779 251 Q837 251 877.5 287 Q918 323 918 385 Q918 446 877.5 482.5 Q837 519 781 519 Q707 519 648.5 476.5 Q590 434 537 358 Q406 180 244 180 Q162 180 98.5 234.5 Q35 289 35 385 Q35 481 99 535 Q163 589 246 589 Q294 589 339 575 L313 510 Q283 519 245 519 Q187 519 146 482.5 Q105 446 105 385 Q105 323 145.5 287 Q186 251 243 251 Q316 251 374 292.5 Q432 334 487 410 Z" /><glyph glyph-name="cid00849" unicode="&#x2252;" d="M273.5 630.5 Q252 652 252 683 Q252 714 273.5 736 Q295 758 326 758 Q357 758 378.5 736 Q400 714 400 683 Q400 652 378.5 630.5 Q357 609 326 609 Q295 609 273.5 630.5 ZM140 518 L884 518 L884 456 L140 456 L140 518 ZM140 313 L884 313 L884 251 L140 251 L140 313 ZM645.5 33 Q624 55 624 86 Q624 117 645.5 138.5 Q667 160 698 160 Q729 160 750.5 138.5 Q772 117 772 86 Q772 55 750.5 33 Q729 11 698 11 Q667 11 645.5 33 Z" /><glyph glyph-name="notequal" unicode="&#x2260;" d="M884 457 L575 457 L522 308 L884 308 L884 238 L497 238 L418 23 L352 47 L421 238 L140 238 L140 308 L446 308 L501 457 L140 457 L140 527 L526 527 L606 746 L672 722 L601 527 L884 527 L884 457 Z" /><glyph glyph-name="cid00851" unicode="&#x2261;" d="M140 639 L884 639 L884 572 L140 572 L140 639 ZM140 418 L884 418 L884 351 L140 351 L140 418 ZM140 197 L884 197 L884 130 L140 130 L140 197 Z" /><glyph glyph-name="cid00855" unicode="&#x2266;" d="M880 866 L903 800 L304 569 L304 565 L903 335 L880 268 L106 565 L106 569 L880 866 ZM131 191 L893 191 L893 125 L131 125 L131 191 ZM131 19 L893 19 L893 -47 L131 -47 L131 19 Z" /><glyph glyph-name="cid00856" unicode="&#x2267;" d="M144 866 L918 569 L918 565 L144 268 L121 335 L720 565 L720 569 L121 800 L144 866 ZM131 191 L893 191 L893 125 L131 125 L131 191 ZM131 19 L893 19 L893 -47 L131 -47 L131 19 Z" /><glyph glyph-name="cid00857" unicode="&#x226a;" d="M622 781 L657 730 L164 387 L164 383 L657 39 L622 -12 L55 383 L55 387 L622 781 ZM932 781 L968 730 L473 387 L473 383 L968 39 L932 -12 L366 383 L366 387 L932 781 Z" /><glyph glyph-name="cid00858" unicode="&#x226b;" d="M92 781 L658 387 L658 383 L92 -12 L56 39 L551 383 L551 387 L56 730 L92 781 ZM402 781 L969 387 L969 383 L402 -12 L367 39 L860 383 L860 387 L367 730 L402 781 Z" /><glyph glyph-name="cid00865" unicode="&#x2282;" d="M893 54 L471 54 Q325 54 226 149.5 Q127 245 127 385 Q127 524 226 619.5 Q325 715 471 715 L893 715 L893 644 L471 644 Q354 644 276 569.5 Q198 495 198 385 Q198 274 276 199.5 Q354 125 471 125 L893 125 L893 54 Z" /><glyph glyph-name="cid00866" unicode="&#x2283;" d="M131 715 L553 715 Q699 715 798 619.5 Q897 524 897 385 Q897 245 798 149.5 Q699 54 553 54 L131 54 L131 125 L553 125 Q670 125 748 199.5 Q826 274 826 385 Q826 495 748 569.5 Q670 644 553 644 L131 644 L131 715 Z" /><glyph glyph-name="cid00869" unicode="&#x2286;" d="M893 711 L419 711 Q317 711 257.5 652.5 Q198 594 198 512 Q198 429 257 370.5 Q316 312 419 312 L893 312 L893 242 L419 242 Q287 242 207 321 Q127 400 127 512 Q127 623 207 702 Q287 781 419 781 L893 781 L893 711 ZM131 58 L893 58 L893 -12 L131 -12 L131 58 Z" /><glyph glyph-name="cid00870" unicode="&#x2287;" d="M131 312 L605 312 Q708 312 767 370.5 Q826 429 826 512 Q826 594 766.5 652.5 Q707 711 605 711 L131 711 L131 781 L605 781 Q737 781 817 702 Q897 623 897 512 Q897 400 817 321 Q737 242 605 242 L131 242 L131 312 ZM131 58 L893 58 L893 -12 L131 -12 L131 58 Z" /><glyph glyph-name="cid00879" unicode="&#x22a5;" d="M547 108 L916 108 L916 37 L108 37 L108 108 L477 108 L477 757 L547 757 L547 108 Z" /><glyph glyph-name="cid00880" unicode="&#x22bf;" d="M885 12 L96 12 L96 16 L881 800 L885 800 L885 12 ZM814 83 L814 634 L811 634 L262 86 L262 83 L814 83 Z" /><glyph glyph-name="cid00886" unicode="&#x2312;" d="M56 600 L25 662 Q231 865 512 865 Q793 865 999 662 L968 600 Q771 791 512 791 Q253 791 56 600 Z" /><glyph glyph-name="cid00909" unicode="&#x2460;" d="M512 -88 Q315 -88 175 52 Q35 192 35 389 Q35 586 175 726 Q315 866 512 866 Q709 866 849 726 Q989 586 989 389 Q989 191 848.5 51.5 Q708 -88 512 -88 ZM198 74.5 Q328 -55 512 -55 Q696 -55 826 74.5 Q956 204 956 389 Q956 574 826 704 Q696 834 512 834 Q327 834 197.5 703.5 Q68 573 68 389 Q68 204 198 74.5 ZM492 130 L492 564 L383 564 L383 618 Q452 629 511 660 L575 660 L575 130 L492 130 Z" /><glyph glyph-name="cid00910" unicode="&#x2461;" d="M512 -88 Q315 -88 175 52 Q35 192 35 389 Q35 586 175 726 Q315 866 512 866 Q709 866 849 726 Q989 586 989 389 Q989 191 848.5 51.5 Q708 -88 512 -88 ZM198 74.5 Q328 -55 512 -55 Q696 -55 826 74.5 Q956 204 956 389 Q956 574 826 704 Q696 834 512 834 Q327 834 197.5 703.5 Q68 573 68 389 Q68 204 198 74.5 ZM335 130 L335 179 Q481 307 543 378.5 Q605 450 605 508 Q605 554 579 579.5 Q553 605 501 605 Q438 605 376 545 L328 590 Q406 673 509 673 Q591 673 639 629.5 Q687 586 687 514 Q687 447 630.5 376 Q574 305 457 198 Q519 202 561 202 L712 202 L712 130 L335 130 Z" /><glyph glyph-name="cid00911" unicode="&#x2462;" d="M512 -88 Q315 -88 175 52 Q35 192 35 389 Q35 586 175 726 Q315 866 512 866 Q709 866 849 726 Q989 586 989 389 Q989 191 848.5 51.5 Q708 -88 512 -88 ZM198 74.5 Q328 -55 512 -55 Q696 -55 826 74.5 Q956 204 956 389 Q956 574 826 704 Q696 834 512 834 Q327 834 197.5 703.5 Q68 573 68 389 Q68 204 198 74.5 ZM507 118 Q382 118 311 194 L352 248 Q419 185 505 185 Q555 185 586.5 210 Q618 235 618 275 Q618 374 434 374 L434 436 Q599 436 599 527 Q599 564 573 585 Q547 606 502 606 Q432 606 377 553 L333 605 Q408 673 504 673 Q585 673 634.5 635.5 Q684 598 684 532 Q684 449 580 410 L580 407 Q636 393 670.5 358 Q705 323 705 271 Q705 201 648.5 159.5 Q592 118 507 118 Z" /><glyph glyph-name="cid00912" unicode="&#x2463;" d="M366 336 L541 336 L541 471 Q541 532 544 578 L540 578 Q531 561 514.5 536.5 Q498 512 494 505 L366 336 ZM621 660 L621 336 L699 336 L699 271 L621 271 L621 130 L541 130 L541 271 L279 271 L279 328 L524 660 L621 660 ZM198 74.5 Q328 -55 512 -55 Q696 -55 826 74.5 Q956 204 956 389 Q956 574 826 704 Q696 834 512 834 Q327 834 197.5 703.5 Q68 573 68 389 Q68 204 198 74.5 ZM175 726 Q315 866 512 866 Q709 866 849 726 Q989 586 989 389 Q989 191 848.5 51.5 Q708 -88 512 -88 Q315 -88 175 52 Q35 192 35 389 Q35 586 175 726 Z" /><glyph glyph-name="cid00913" unicode="&#x2464;" d="M512 -88 Q315 -88 175 52 Q35 192 35 389 Q35 586 175 726 Q315 866 512 866 Q709 866 849 726 Q989 586 989 389 Q989 191 848.5 51.5 Q708 -88 512 -88 ZM198 74.5 Q328 -55 512 -55 Q696 -55 826 74.5 Q956 204 956 389 Q956 574 826 704 Q696 834 512 834 Q327 834 197.5 703.5 Q68 573 68 389 Q68 204 198 74.5 ZM510 118 Q396 118 318 190 L358 246 Q427 185 506 185 Q558 185 592 216 Q626 247 626 298 Q626 348 593.5 378 Q561 408 508 408 Q462 408 408 373 L365 399 L383 660 L682 660 L682 589 L455 589 L441 445 Q493 467 528 467 Q608 467 659.5 424.5 Q711 382 711 300 Q711 217 651.5 167.5 Q592 118 510 118 Z" /><glyph glyph-name="cid00914" unicode="&#x2465;" d="M514 183 Q555 183 584 213 Q613 243 613 289 Q613 339 585.5 366.5 Q558 394 506 394 Q439 394 385 329 Q401 183 514 183 ZM681 614 L635 562 Q596 603 536 603 Q469 603 427.5 553 Q386 503 383 391 Q444 457 525 457 Q602 457 647.5 414.5 Q693 372 693 291 Q693 214 641 166 Q589 118 513 118 Q419 118 361 184 Q303 250 303 377 Q303 525 369 599 Q435 673 534 673 Q620 673 681 614 ZM198 74.5 Q328 -55 512 -55 Q696 -55 826 74.5 Q956 204 956 389 Q956 574 826 704 Q696 834 512 834 Q327 834 197.5 703.5 Q68 573 68 389 Q68 204 198 74.5 ZM175 726 Q315 866 512 866 Q709 866 849 726 Q989 586 989 389 Q989 191 848.5 51.5 Q708 -88 512 -88 Q315 -88 175 52 Q35 192 35 389 Q35 586 175 726 Z" /><glyph glyph-name="cid00915" unicode="&#x2466;" d="M512 -88 Q315 -88 175 52 Q35 192 35 389 Q35 586 175 726 Q315 866 512 866 Q709 866 849 726 Q989 586 989 389 Q989 191 848.5 51.5 Q708 -88 512 -88 ZM198 74.5 Q328 -55 512 -55 Q696 -55 826 74.5 Q956 204 956 389 Q956 574 826 704 Q696 834 512 834 Q327 834 197.5 703.5 Q68 573 68 389 Q68 204 198 74.5 ZM525 130 L438 130 Q446 277 482.5 380 Q519 483 603 589 L327 589 L327 660 L699 660 L699 609 Q601 496 567 395.5 Q533 295 525 130 Z" /><glyph glyph-name="cid00916" unicode="&#x2467;" d="M512 -88 Q315 -88 175 52 Q35 192 35 389 Q35 586 175 726 Q315 866 512 866 Q709 866 849 726 Q989 586 989 389 Q989 191 848.5 51.5 Q708 -88 512 -88 ZM198 74.5 Q328 -55 512 -55 Q696 -55 826 74.5 Q956 204 956 389 Q956 574 826 704 Q696 834 512 834 Q327 834 197.5 703.5 Q68 573 68 389 Q68 204 198 74.5 ZM512 118 Q427 118 371 159 Q315 200 315 262 Q315 350 426 404 L426 409 Q342 461 342 532 Q342 595 391 634 Q440 673 513 673 Q592 673 638.5 633.5 Q685 594 685 531 Q685 458 604 403 L604 400 Q653 373 680.5 342.5 Q708 312 708 263 Q708 201 653.5 159.5 Q599 118 512 118 ZM551 423 Q612 471 612 524 Q612 562 584.5 587 Q557 612 511 612 Q470 612 444 590 Q418 568 418 532 Q418 492 452 468.5 Q486 445 551 423 ZM515 179 Q566 179 597.5 202.5 Q629 226 629 265 Q629 283 620.5 298.5 Q612 314 600.5 324.5 Q589 335 565.5 346.5 Q542 358 524.5 365 Q507 372 475 383 Q391 334 391 273 Q391 232 426.5 205.5 Q462 179 515 179 Z" /><glyph glyph-name="cid00917" unicode="&#x2468;" d="M516 394 Q582 394 636 461 Q621 608 509 608 Q468 608 440 578.5 Q412 549 412 501 Q412 394 516 394 ZM342 175 L388 226 Q428 186 488 186 Q553 186 594 236.5 Q635 287 638 398 Q580 334 500 334 Q423 334 377 376.5 Q331 419 331 500 Q331 576 382.5 624.5 Q434 673 509 673 Q602 673 660 607 Q718 541 718 414 Q718 265 653 191.5 Q588 118 490 118 Q399 118 342 175 ZM198 74.5 Q328 -55 512 -55 Q696 -55 826 74.5 Q956 204 956 389 Q956 574 826 704 Q696 834 512 834 Q327 834 197.5 703.5 Q68 573 68 389 Q68 204 198 74.5 ZM175 726 Q315 866 512 866 Q709 866 849 726 Q989 586 989 389 Q989 191 848.5 51.5 Q708 -88 512 -88 Q315 -88 175 52 Q35 192 35 389 Q35 586 175 726 Z" /><glyph glyph-name="cid00918" unicode="&#x2469;" d="M512 -88 Q315 -88 175 52 Q35 192 35 389 Q35 586 175 726 Q315 866 512 866 Q709 866 849 726 Q989 586 989 389 Q989 191 848.5 51.5 Q708 -88 512 -88 ZM198 74.5 Q328 -55 512 -55 Q696 -55 826 74.5 Q956 204 956 389 Q956 574 826 704 Q696 834 512 834 Q327 834 197.5 703.5 Q68 573 68 389 Q68 204 198 74.5 ZM299 130 L299 564 L212 564 L212 618 Q267 629 317 660 L379 660 L379 130 L299 130 ZM642 118 Q566 118 521 193 Q476 268 476 397 Q476 526 521 599.5 Q566 673 642 673 Q718 673 762.5 599.5 Q807 526 807 397 Q807 268 762 193 Q717 118 642 118 ZM580 239.5 Q603 186 642 186 Q681 186 704 239.5 Q727 293 727 397 Q727 501 704 553 Q681 605 642 605 Q603 605 580 553 Q557 501 557 397 Q557 293 580 239.5 Z" /><glyph glyph-name="cid00919" unicode="&#x246a;" d="M512 -88 Q315 -88 175 52 Q35 192 35 389 Q35 586 175 726 Q315 866 512 866 Q709 866 849 726 Q989 586 989 389 Q989 191 848.5 51.5 Q708 -88 512 -88 ZM198 74.5 Q328 -55 512 -55 Q696 -55 826 74.5 Q956 204 956 389 Q956 574 826 704 Q696 834 512 834 Q327 834 197.5 703.5 Q68 573 68 389 Q68 204 198 74.5 ZM346 130 L346 564 L259 564 L259 618 Q314 629 366 660 L426 660 L426 130 L346 130 ZM626 130 L626 564 L539 564 L539 618 Q594 629 644 660 L705 660 L705 130 L626 130 Z" /><glyph glyph-name="cid00920" unicode="&#x246b;" d="M512 -88 Q315 -88 175 52 Q35 192 35 389 Q35 586 175 726 Q315 866 512 866 Q709 866 849 726 Q989 586 989 389 Q989 191 848.5 51.5 Q708 -88 512 -88 ZM198 74.5 Q328 -55 512 -55 Q696 -55 826 74.5 Q956 204 956 389 Q956 574 826 704 Q696 834 512 834 Q327 834 197.5 703.5 Q68 573 68 389 Q68 204 198 74.5 ZM299 130 L299 564 L212 564 L212 618 Q268 629 316 660 L378 660 L378 130 L299 130 ZM485 130 L485 179 Q599 313 645.5 381.5 Q692 450 692 508 Q692 553 672 579 Q652 605 614 605 Q568 605 525 550 L480 594 Q544 673 625 673 Q691 673 729.5 629.5 Q768 586 768 514 Q768 468 741.5 412 Q715 356 684.5 314.5 Q654 273 594 198 Q644 202 676 202 L786 202 L786 130 L485 130 Z" /><glyph glyph-name="cid00921" unicode="&#x246c;" d="M512 -88 Q315 -88 175 52 Q35 192 35 389 Q35 586 175 726 Q315 866 512 866 Q709 866 849 726 Q989 586 989 389 Q989 191 848.5 51.5 Q708 -88 512 -88 ZM198 74.5 Q328 -55 512 -55 Q696 -55 826 74.5 Q956 204 956 389 Q956 574 826 704 Q696 834 512 834 Q327 834 197.5 703.5 Q68 573 68 389 Q68 204 198 74.5 ZM301 130 L301 564 L213 564 L213 618 Q268 629 318 660 L380 660 L380 130 L301 130 ZM625 118 Q528 118 471 189 L512 241 Q564 185 624 185 Q660 185 683.5 210 Q707 235 707 275 Q707 323 675.5 348.5 Q644 374 567 374 L567 436 Q691 436 691 527 Q691 564 671.5 585 Q652 606 620 606 Q570 606 530 560 L486 609 Q548 673 625 673 Q691 673 730.5 635.5 Q770 598 770 532 Q770 448 688 410 L688 407 Q732 393 759.5 358 Q787 323 787 271 Q787 201 740.5 159.5 Q694 118 625 118 Z" /><glyph glyph-name="cid00922" unicode="&#x246d;" d="M212 564 L212 618 Q268 629 316 660 L378 660 L378 130 L299 130 L299 564 L212 564 ZM540 336 L669 336 L669 471 Q669 532 672 578 L668 578 Q662 564 651 542 Q640 520 633 505 L540 336 ZM742 660 L742 336 L802 336 L802 271 L742 271 L742 130 L669 130 L669 271 L464 271 L464 328 L650 660 L742 660 ZM198 74.5 Q328 -55 512 -55 Q696 -55 826 74.5 Q956 204 956 389 Q956 574 826 704 Q696 834 512 834 Q327 834 197.5 703.5 Q68 573 68 389 Q68 204 198 74.5 ZM175 726 Q315 866 512 866 Q709 866 849 726 Q989 586 989 389 Q989 191 848.5 51.5 Q708 -88 512 -88 Q315 -88 175 52 Q35 192 35 389 Q35 586 175 726 Z" /><glyph glyph-name="cid00923" unicode="&#x246e;" d="M512 -88 Q315 -88 175 52 Q35 192 35 389 Q35 586 175 726 Q315 866 512 866 Q709 866 849 726 Q989 586 989 389 Q989 191 848.5 51.5 Q708 -88 512 -88 ZM198 74.5 Q328 -55 512 -55 Q696 -55 826 74.5 Q956 204 956 389 Q956 574 826 704 Q696 834 512 834 Q327 834 197.5 703.5 Q68 573 68 389 Q68 204 198 74.5 ZM299 130 L299 564 L212 564 L212 618 Q268 629 316 660 L378 660 L378 130 L299 130 ZM629 118 Q538 118 474 188 L511 243 Q565 185 624 185 Q662 185 687.5 216 Q713 247 713 298 Q713 348 689 378 Q665 408 627 408 Q591 408 550 373 L512 399 L525 660 L770 660 L770 589 L592 589 L584 445 Q622 467 648 467 Q711 467 752 424.5 Q793 382 793 300 Q793 217 744.5 167.5 Q696 118 629 118 Z" /><glyph glyph-name="cid00924" unicode="&#x246f;" d="M212 564 L212 618 Q268 629 316 660 L378 660 L378 130 L299 130 L299 564 L212 564 ZM650 183 Q681 183 702 213 Q723 243 723 289 Q723 338 702.5 366 Q682 394 644 394 Q594 394 556 327 Q568 183 650 183 ZM787 614 L745 562 Q715 603 668 603 Q558 603 554 391 Q602 457 664 457 Q725 457 761 414.5 Q797 372 797 291 Q797 214 754 166 Q711 118 649 118 Q575 118 527.5 184.5 Q480 251 480 377 Q480 525 533 599 Q586 673 666 673 Q739 673 787 614 ZM198 74.5 Q328 -55 512 -55 Q696 -55 826 74.5 Q956 204 956 389 Q956 574 826 704 Q696 834 512 834 Q327 834 197.5 703.5 Q68 573 68 389 Q68 204 198 74.5 ZM175 726 Q315 866 512 866 Q709 866 849 726 Q989 586 989 389 Q989 191 848.5 51.5 Q708 -88 512 -88 Q315 -88 175 52 Q35 192 35 389 Q35 586 175 726 Z" /><glyph glyph-name="cid00925" unicode="&#x2470;" d="M512 -88 Q315 -88 175 52 Q35 192 35 389 Q35 586 175 726 Q315 866 512 866 Q709 866 849 726 Q989 586 989 389 Q989 191 848.5 51.5 Q708 -88 512 -88 ZM198 74.5 Q328 -55 512 -55 Q696 -55 826 74.5 Q956 204 956 389 Q956 574 826 704 Q696 834 512 834 Q327 834 197.5 703.5 Q68 573 68 389 Q68 204 198 74.5 ZM301 130 L301 564 L213 564 L213 618 Q268 629 318 660 L380 660 L380 130 L301 130 ZM655 130 L577 130 Q583 279 611 381.5 Q639 484 706 589 L489 589 L489 660 L795 660 L795 609 Q716 497 689.5 397.5 Q663 298 655 130 Z" /><glyph glyph-name="cid00926" unicode="&#x2471;" d="M512 -88 Q315 -88 175 52 Q35 192 35 389 Q35 586 175 726 Q315 866 512 866 Q709 866 849 726 Q989 586 989 389 Q989 191 848.5 51.5 Q708 -88 512 -88 ZM198 74.5 Q328 -55 512 -55 Q696 -55 826 74.5 Q956 204 956 389 Q956 574 826 704 Q696 834 512 834 Q327 834 197.5 703.5 Q68 573 68 389 Q68 204 198 74.5 ZM299 130 L299 564 L212 564 L212 618 Q267 629 317 660 L379 660 L379 130 L299 130 ZM651 118 Q581 118 535.5 159 Q490 200 490 262 Q490 351 579 404 L579 409 Q512 460 512 532 Q512 596 551.5 634.5 Q591 673 652 673 Q716 673 754.5 633.5 Q793 594 793 531 Q793 455 729 403 L729 400 Q768 374 790 343 Q812 312 812 263 Q812 201 767 159.5 Q722 118 651 118 ZM682 423 Q726 470 726 524 Q726 563 705.5 587.5 Q685 612 650 612 Q619 612 600.5 591 Q582 570 582 532 Q582 492 607.5 468 Q633 444 682 423 ZM654 179 Q692 179 715 202.5 Q738 226 738 265 Q738 308 710.5 332 Q683 356 623 383 Q562 333 562 273 Q562 232 588.5 205.5 Q615 179 654 179 Z" /><glyph glyph-name="cid00927" unicode="&#x2472;" d="M212 564 L212 618 Q268 629 316 660 L378 660 L378 130 L299 130 L299 564 L212 564 ZM640 395 Q690 395 727 463 Q715 608 634 608 Q604 608 583 577.5 Q562 547 562 501 Q562 452 582.5 423.5 Q603 395 640 395 ZM497 175 L540 226 Q571 187 616 187 Q665 187 696 237.5 Q727 288 729 399 Q684 333 622 333 Q561 333 524.5 375.5 Q488 418 488 500 Q488 576 530.5 624.5 Q573 673 634 673 Q708 673 755.5 606.5 Q803 540 803 414 Q803 265 751 191.5 Q699 118 621 118 Q545 118 497 175 ZM198 74.5 Q328 -55 512 -55 Q696 -55 826 74.5 Q956 204 956 389 Q956 574 826 704 Q696 834 512 834 Q327 834 197.5 703.5 Q68 573 68 389 Q68 204 198 74.5 ZM175 726 Q315 866 512 866 Q709 866 849 726 Q989 586 989 389 Q989 191 848.5 51.5 Q708 -88 512 -88 Q315 -88 175 52 Q35 192 35 389 Q35 586 175 726 Z" /><glyph glyph-name="cid00928" unicode="&#x2473;" d="M512 -88 Q315 -88 175 52 Q35 192 35 389 Q35 586 175 726 Q315 866 512 866 Q709 866 849 726 Q989 586 989 389 Q989 191 848.5 51.5 Q708 -88 512 -88 ZM198 74.5 Q328 -55 512 -55 Q696 -55 826 74.5 Q956 204 956 389 Q956 574 826 704 Q696 834 512 834 Q327 834 197.5 703.5 Q68 573 68 389 Q68 204 198 74.5 ZM210 130 L210 179 Q324 313 370.5 381.5 Q417 450 417 508 Q417 553 397 579 Q377 605 339 605 Q293 605 249 550 L204 594 Q268 673 349 673 Q415 673 454 629.5 Q493 586 493 514 Q493 468 466 411.5 Q439 355 409 314.5 Q379 274 318 198 Q368 202 400 202 L511 202 L511 130 L210 130 ZM690 118 Q615 118 570.5 193 Q526 268 526 397 Q526 526 570 599.5 Q614 673 690 673 Q764 673 808.5 599 Q853 525 853 397 Q853 268 808.5 193 Q764 118 690 118 ZM690 186 Q728 186 750.5 239.5 Q773 293 773 397 Q773 501 750.5 553 Q728 605 690 605 Q651 605 628.5 553 Q606 501 606 397 Q606 292 628.5 239 Q651 186 690 186 Z" /><glyph glyph-name="cid01069" unicode="&#x2500;" d="M0 369 L0 410 L1024 410 L1024 369 L0 369 Z" /><glyph glyph-name="cid01070" unicode="&#x2501;" d="M0 328 L0 451 L1024 451 L1024 328 L0 328 Z" /><glyph glyph-name="cid01071" unicode="&#x2502;" d="M492 -123 L492 901 L532 901 L532 -123 L492 -123 Z" /><glyph glyph-name="cid01072" unicode="&#x2503;" d="M451 -123 L451 901 L573 901 L573 -123 L451 -123 Z" /><glyph glyph-name="cid01081" unicode="&#x250c;" d="M1024 369 L532 369 L532 -123 L492 -123 L492 410 L1024 410 L1024 369 Z" /><glyph glyph-name="cid01084" unicode="&#x250f;" d="M1024 328 L573 328 L573 -123 L451 -123 L451 451 L1024 451 L1024 328 Z" /><glyph glyph-name="cid01085" unicode="&#x2510;" d="M532 -123 L492 -123 L492 369 L0 369 L0 410 L532 410 L532 -123 Z" /><glyph glyph-name="cid01088" unicode="&#x2513;" d="M573 -123 L451 -123 L451 328 L0 328 L0 451 L573 451 L573 -123 Z" /><glyph glyph-name="cid01089" unicode="&#x2514;" d="M1024 369 L492 369 L492 901 L532 901 L532 410 L1024 410 L1024 369 Z" /><glyph glyph-name="cid01092" unicode="&#x2517;" d="M451 328 L451 901 L573 901 L573 451 L1024 451 L1024 328 L451 328 Z" /><glyph glyph-name="cid01093" unicode="&#x2518;" d="M532 369 L0 369 L0 410 L492 410 L492 901 L532 901 L532 369 Z" /><glyph glyph-name="cid01096" unicode="&#x251b;" d="M0 328 L0 451 L451 451 L451 901 L573 901 L573 328 L0 328 Z" /><glyph glyph-name="cid01097" unicode="&#x251c;" d="M1024 369 L532 369 L532 -123 L492 -123 L492 901 L532 901 L532 410 L1024 410 L1024 369 Z" /><glyph glyph-name="cid01098" unicode="&#x251d;" d="M1024 328 L532 328 L532 -123 L492 -123 L492 901 L532 901 L532 451 L1024 451 L1024 328 Z" /><glyph glyph-name="cid01101" unicode="&#x2520;" d="M1024 369 L573 369 L573 -123 L451 -123 L451 901 L573 901 L573 410 L1024 410 L1024 369 Z" /><glyph glyph-name="cid01104" unicode="&#x2523;" d="M1024 328 L573 328 L573 -123 L451 -123 L451 901 L573 901 L573 451 L1024 451 L1024 328 Z" /><glyph glyph-name="cid01105" unicode="&#x2524;" d="M532 -123 L492 -123 L492 369 L0 369 L0 410 L492 410 L492 901 L532 901 L532 -123 Z" /><glyph glyph-name="cid01106" unicode="&#x2525;" d="M532 -123 L492 -123 L492 328 L0 328 L0 451 L492 451 L492 901 L532 901 L532 -123 Z" /><glyph glyph-name="cid01109" unicode="&#x2528;" d="M573 -123 L451 -123 L451 369 L0 369 L0 410 L451 410 L451 901 L573 901 L573 -123 Z" /><glyph glyph-name="cid01112" unicode="&#x252b;" d="M573 -123 L451 -123 L451 328 L0 328 L0 451 L451 451 L451 901 L573 901 L573 -123 Z" /><glyph glyph-name="cid01113" unicode="&#x252c;" d="M1024 369 L532 369 L532 -123 L492 -123 L492 369 L0 369 L0 410 L1024 410 L1024 369 Z" /><glyph glyph-name="cid01116" unicode="&#x252f;" d="M1024 328 L532 328 L532 -123 L492 -123 L492 328 L0 328 L0 451 L1024 451 L1024 328 Z" /><glyph glyph-name="cid01117" unicode="&#x2530;" d="M1024 369 L573 369 L573 -123 L451 -123 L451 369 L0 369 L0 410 L1024 410 L1024 369 Z" /><glyph glyph-name="cid01120" unicode="&#x2533;" d="M1024 328 L573 328 L573 -123 L451 -123 L451 328 L0 328 L0 451 L1024 451 L1024 328 Z" /><glyph glyph-name="cid01121" unicode="&#x2534;" d="M1024 369 L0 369 L0 410 L492 410 L492 901 L532 901 L532 410 L1024 410 L1024 369 Z" /><glyph glyph-name="cid01124" unicode="&#x2537;" d="M1024 328 L0 328 L0 451 L492 451 L492 901 L532 901 L532 451 L1024 451 L1024 328 Z" /><glyph glyph-name="cid01125" unicode="&#x2538;" d="M1024 369 L0 369 L0 410 L451 410 L451 901 L573 901 L573 410 L1024 410 L1024 369 Z" /><glyph glyph-name="cid01128" unicode="&#x253b;" d="M1024 328 L0 328 L0 451 L451 451 L451 901 L573 901 L573 451 L1024 451 L1024 328 Z" /><glyph glyph-name="cid01129" unicode="&#x253c;" d="M1024 369 L532 369 L532 -123 L492 -123 L492 369 L0 369 L0 410 L492 410 L492 901 L532 901 L532 410 L1024 410 L1024 369 Z" /><glyph glyph-name="cid01132" unicode="&#x253f;" d="M1024 328 L532 328 L532 -123 L492 -123 L492 328 L0 328 L0 451 L492 451 L492 901 L532 901 L532 451 L1024 451 L1024 328 Z" /><glyph glyph-name="cid01135" unicode="&#x2542;" d="M1024 369 L573 369 L573 -123 L451 -123 L451 369 L0 369 L0 410 L451 410 L451 901 L573 901 L573 410 L1024 410 L1024 369 Z" /><glyph glyph-name="cid01144" unicode="&#x254b;" d="M1024 328 L573 328 L573 -123 L451 -123 L451 328 L0 328 L0 451 L451 451 L451 901 L573 901 L573 451 L1024 451 L1024 328 Z" /><glyph glyph-name="cid01229" unicode="&#x25a0;" d="M102 799 L922 799 L922 -20 L102 -20 L102 799 Z" /><glyph glyph-name="cid01230" unicode="&#x25a1;" d="M102 799 L922 799 L922 -20 L102 -20 L102 799 ZM140 761 L140 17 L884 17 L884 761 L140 761 Z" /><glyph glyph-name="cid01242" unicode="&#x25b2;" d="M512 846 L993 12 L31 12 L512 846 Z" /><glyph glyph-name="cid01243" unicode="&#x25b3;" d="M512 846 L993 12 L31 12 L512 846 ZM512 770 L96 50 L928 50 L512 770 Z" /><glyph glyph-name="cid01246" unicode="&#x25bc;" d="M31 766 L993 766 L512 -68 L31 766 Z" /><glyph glyph-name="cid01247" unicode="&#x25bd;" d="M31 766 L993 766 L512 -68 L31 766 ZM928 728 L96 728 L512 8 L928 728 Z" /><glyph glyph-name="cid01250" unicode="&#x25c6;" d="M512 889 L1012 389 L512 -111 L12 389 L512 889 Z" /><glyph glyph-name="cid01251" unicode="&#x25c7;" d="M512 889 L1012 389 L512 -111 L12 389 L512 889 ZM512 835 L67 389 L512 -56 L957 389 L512 835 Z" /><glyph glyph-name="cid01255" unicode="&#x25cb;" d="M838 63 Q703 -72 512 -72 Q321 -72 186 63 Q51 198 51 389 Q51 580 186 715 Q321 850 512 850 Q703 850 838 715 Q973 580 973 389 Q973 198 838 63 ZM213 688 Q89 564 89 389 Q89 214 213 90 Q337 -34 512 -34 Q687 -34 811 90 Q935 214 935 389 Q935 564 811 688 Q687 812 512 812 Q337 812 213 688 Z" /><glyph glyph-name="cid01257" unicode="&#x25ce;" d="M186 63 Q51 198 51 389 Q51 580 186 715 Q321 850 512 850 Q703 850 838 715 Q973 580 973 389 Q973 198 838 63 Q703 -72 512 -72 Q321 -72 186 63 ZM811 90 Q935 214 935 389 Q935 564 811 688 Q687 812 512 812 Q337 812 213 688 Q89 564 89 389 Q89 214 213 90 Q337 -34 512 -34 Q687 -34 811 90 ZM297.5 174.5 Q209 263 209 389 Q209 515 297.5 603.5 Q386 692 512 692 Q638 692 726.5 603.5 Q815 515 815 389 Q815 263 726.5 174.5 Q638 86 512 86 Q386 86 297.5 174.5 ZM703.5 197 Q783 276 783 389 Q783 502 703.5 581 Q624 660 512 660 Q400 660 320.5 581 Q241 502 241 389 Q241 276 320.5 197 Q400 118 512 118 Q624 118 703.5 197 Z" /><glyph glyph-name="cid01258" unicode="&#x25cf;" d="M838 63 Q703 -72 512 -72 Q321 -72 186 63 Q51 198 51 389 Q51 580 186 715 Q321 850 512 850 Q703 850 838 715 Q973 580 973 389 Q973 198 838 63 Z" /><glyph glyph-name="cid01268" unicode="&#x25ef;" d="M175 726 Q315 866 512 866 Q709 866 849 726 Q989 586 989 389 Q989 192 849 52 Q709 -88 512 -88 Q315 -88 175 52 Q35 192 35 389 Q35 586 175 726 ZM826 74.5 Q956 204 956 389 Q956 574 826 704 Q696 834 512 834 Q328 834 198 704 Q68 574 68 389 Q68 204 198 74.5 Q328 -55 512 -55 Q696 -55 826 74.5 Z" /><glyph glyph-name="cid01273" unicode="&#x2605;" d="M627 497 L985 497 L985 493 L695 283 L809 -63 L806 -65 L512 148 L218 -65 L215 -63 L329 283 L39 493 L39 497 L397 497 L510 841 L514 841 L627 497 Z" /><glyph glyph-name="cid01274" unicode="&#x2606;" d="M397 497 L508 841 L516 841 L627 497 L985 497 L986 487 L695 283 L811 -60 L804 -67 L512 148 L220 -67 L213 -60 L329 283 L38 487 L39 497 L397 497 ZM425 459 L232 459 L131 464 L131 462 L220 406 L374 297 L316 127 L274 18 L276 17 L369 90 L512 196 L655 90 L748 17 L750 18 L708 127 L650 297 L804 406 L893 462 L893 464 L791 459 L599 459 L540 642 L513 741 L511 741 L483 642 L425 459 Z" /><glyph glyph-name="cid01285" unicode="&#x2640;" d="M291 618 Q291 711 355.5 775.5 Q420 840 512 840 Q604 840 668.5 775.5 Q733 711 733 618 Q733 537 680 475.5 Q627 414 547 401 L547 291 L840 291 L840 221 L547 221 L547 -61 L477 -61 L477 221 L184 221 L184 291 L477 291 L477 401 Q397 414 344 475.5 Q291 537 291 618 ZM663 618 Q663 681 618.5 725 Q574 769 512 769 Q450 769 405.5 725 Q361 681 361 618 Q361 556 405.5 512.5 Q450 469 512 469 Q574 469 618.5 512.5 Q663 556 663 618 Z" /><glyph glyph-name="cid01287" unicode="&#x2642;" d="M561 217 Q561 126 496.5 61 Q432 -4 340 -4 Q248 -4 183.5 61 Q119 126 119 217 Q119 308 183.5 373 Q248 438 340 438 Q409 438 467 396 L762 690 L499 690 L499 761 L884 761 L884 376 L813 376 L813 642 L517 347 Q561 290 561 217 ZM233.5 323.5 Q189 279 189 217 Q189 155 233.5 111 Q278 67 340 67 Q402 67 446 111 Q490 155 490 217 Q490 279 446 323.5 Q402 368 340 368 Q278 368 233.5 323.5 Z" /><glyph glyph-name="cid01298" unicode="&#x266a;" d="M346 860 L371 860 Q371 739 490 635 Q622 520 622 404 Q622 294 536 155 L510 155 Q574 286 574 370 Q574 458 521 523 Q468 588 387 606 L387 92 Q387 15 331 -33.5 Q275 -82 199 -82 Q161 -82 132.5 -61.5 Q104 -41 104 -6 Q104 48 160.5 91.5 Q217 135 281 135 Q322 135 346 122 L346 860 Z" /><glyph glyph-name="cid01301" unicode="&#x266d;" d="M615 485 Q681 485 720 448.5 Q759 412 759 356 Q759 297 732 249.5 Q705 202 659 166 Q613 130 563.5 99 Q514 68 458 27 Q402 -14 366 -57 L356 -57 L356 836 L396 836 L396 340 Q433 405 491.5 445 Q550 485 615 485 ZM396 285 L396 17 Q429 52 483 97.5 Q537 143 570.5 171.5 Q604 200 630.5 244.5 Q657 289 657 339 Q657 383 634.5 405.5 Q612 428 575 428 Q533 428 484 392 Q435 356 396 285 Z" /><glyph glyph-name="cid01303" unicode="&#x266f;" d="M778 540 L640 519 L640 309 L778 330 L778 244 L640 224 L640 -26 L600 -26 L600 218 L421 193 L421 -57 L381 -57 L381 186 L242 166 L242 251 L381 271 L381 481 L242 461 L242 547 L381 567 L381 806 L421 806 L421 573 L600 599 L600 838 L640 838 L640 605 L778 625 L778 540 ZM600 303 L600 513 L421 487 L421 278 L600 303 Z" /><glyph glyph-name="cid01390" unicode="&#x3001;" d="M349 2 L280 -57 Q177 70 53 171 L120 229 Q236 136 349 2 Z" /><glyph glyph-name="cid01391" unicode="&#x3002;" d="M199 250 Q264 250 309.5 204.5 Q355 159 355 94 Q355 29 309.5 -16.5 Q264 -62 199 -62 Q135 -62 89 -16 Q43 30 43 94 Q43 158 89 204 Q135 250 199 250 ZM199 -10 Q242 -10 272 20 Q302 50 302 94 Q302 136 272 167 Q242 198 199 198 Q157 198 126 167 Q95 136 95 94 Q95 51 126 20.5 Q157 -10 199 -10 Z" /><glyph glyph-name="cid01392" unicode="&#x3003;" d="M230 637 L327 596 L116 131 L65 152 L230 637 ZM526 637 L623 596 L412 131 L361 152 L526 637 Z" /><glyph glyph-name="cid01394" unicode="&#x3005;" d="M802 604 L859 573 Q784 364 637 167 Q736 97 781 50 L727 -19 Q670 43 558.5 118.5 Q447 194 336 248 L385 309 Q483 263 568 211 Q673 348 748 524 L400 524 Q302 328 177 206 Q144 233 105 251 Q213 350 296.5 501.5 Q380 653 427 808 L512 788 Q483 699 437 601 L786 601 L802 604 Z" /><glyph glyph-name="cid01395" unicode="&#x3006;" d="M814 799 L888 751 Q791 638 628 428 Q751 340 867 240 L806 164 Q734 237 573 357 Q519 288 430 170 Q341 52 312 15 Q288 -15 254 -70 L178 -45 Q182 -22 182 8 Q178 151 162 258 L240 268 Q249 170 253 78 Q263 92 358.5 215.5 Q454 339 507 407 Q370 506 274 557 L333 626 Q415 577 561 476 Q710 668 814 799 Z" /><glyph glyph-name="cid01396" unicode="&#x3007;" d="M185.5 62.5 Q50 198 50 389 Q50 580 185.5 715.5 Q321 851 512 851 Q703 851 838.5 715.5 Q974 580 974 389 Q974 198 838.5 62.5 Q703 -73 512 -73 Q321 -73 185.5 62.5 ZM783 118 Q895 230 895 389 Q895 548 783 660 Q671 772 512 772 Q353 772 241 660 Q129 548 129 389 Q129 230 241 118 Q353 6 512 6 Q671 6 783 118 Z" /><glyph glyph-name="uni3008" unicode="&#x3008;" d="M172 389 L459 -58 L394 -88 L90 389 L394 866 L459 837 L172 389 Z" /><glyph glyph-name="uni3009" unicode="&#x3009;" d="M118 -88 L53 -58 L340 389 L53 837 L118 866 L422 389 L118 -88 Z" /><glyph glyph-name="cid01399" unicode="&#x300a;" d="M99 389 L319 -70 L264 -88 L37 389 L264 866 L319 848 L99 389 ZM261 389 L481 -70 L426 -88 L199 389 L426 866 L481 848 L261 389 Z" /><glyph glyph-name="cid01400" unicode="&#x300b;" d="M254 -88 L199 -70 L419 389 L199 848 L254 866 L481 389 L254 -88 ZM92 -88 L37 -70 L257 389 L37 848 L92 866 L319 389 L92 -88 Z" /><glyph glyph-name="cid01401" unicode="&#x300c;" d="M154 204 L154 866 L477 866 L477 796 L229 796 L229 204 L154 204 Z" /><glyph glyph-name="cid01402" unicode="&#x300d;" d="M358 574 L358 -88 L35 -88 L35 -17 L283 -17 L283 574 L358 574 Z" /><glyph glyph-name="cid01403" unicode="&#x300e;" d="M477 707 L276 707 L276 187 L101 187 L101 866 L477 866 L477 707 ZM443 833 L135 833 L135 221 L243 221 L243 740 L443 740 L443 833 Z" /><glyph glyph-name="cid01404" unicode="&#x300f;" d="M35 72 L236 72 L236 591 L411 591 L411 -88 L35 -88 L35 72 ZM69 -54 L377 -54 L377 557 L269 557 L269 38 L69 38 L69 -54 Z" /><glyph glyph-name="cid01405" unicode="&#x3010;" d="M170 866 L477 866 L477 861 Q388 786 331 662 Q274 538 274 389 Q274 240 331 116 Q388 -8 477 -83 L477 -88 L170 -88 L170 866 Z" /><glyph glyph-name="cid01406" unicode="&#x3011;" d="M342 866 L342 -88 L35 -88 L35 -83 Q124 -8 181 116 Q238 240 238 389 Q238 538 181 662 Q124 786 35 861 L35 866 L342 866 Z" /><glyph glyph-name="cid01407" unicode="&#x3012;" d="M169 735 L855 735 L855 652 L169 652 L169 735 ZM169 521 L855 521 L855 438 L557 438 L557 10 L467 10 L467 438 L169 438 L169 521 Z" /><glyph glyph-name="cid01408" unicode="&#x3013;" d="M922 799 L922 492 L102 492 L102 799 L922 799 ZM922 287 L922 -20 L102 -20 L102 287 L922 287 Z" /><glyph glyph-name="cid01409" unicode="&#x3014;" d="M438 -100 L218 43 L218 735 L438 879 L472 825 L290 709 L290 70 L472 -47 L438 -100 Z" /><glyph glyph-name="cid01410" unicode="&#x3015;" d="M295 43 L74 -100 L40 -47 L222 70 L222 709 L40 825 L74 879 L295 735 L295 43 Z" /><glyph glyph-name="cid01418" unicode="&#x301d;" d="M220 869 L459 701 L435 652 L179 793 L220 869 ZM220 677 L459 509 L435 461 L179 600 L220 677 Z" /><glyph glyph-name="cid01420" unicode="&#x301f;" d="M292 -91 L53 77 L77 126 L333 -14 L292 -91 ZM292 101 L53 269 L77 317 L333 178 L292 101 Z" /><glyph glyph-name="cid01453" unicode="&#x3041;" d="M342 348 L342 325 Q342 245 355 167 Q444 256 489 373 L479 373 Q415 373 342 348 ZM273 316 Q213 281 173.5 228.5 Q134 176 134 123 Q134 75 183 75 Q230 75 294 117 Q273 224 273 316 ZM522 486 L593 469 Q585 450 576 422 Q656 400 700 344.5 Q744 289 744 216 Q744 123 676.5 52.5 Q609 -18 466 -41 L426 23 Q538 34 605 88 Q672 142 672 222 Q672 272 641.5 309.5 Q611 347 555 362 Q487 192 372 93 Q382 52 391 27 L322 7 Q310 44 309 50 Q234 6 172 6 Q124 6 95 32.5 Q66 59 66 113 Q66 197 126 272 Q186 347 275 387 Q277 434 285 506 Q269 505 237 505 Q178 505 99 512 L97 582 Q167 570 237 570 Q274 570 291 571 Q293 586 295.5 609 Q298 632 298 636 Q302 661 300 677 L381 676 Q379 669 372 636 Q362 580 361 573 Q519 581 654 609 L655 541 Q506 516 353 509 Q347 449 345 413 Q416 433 481 433 Q501 433 510 432 L510 433 Q516 449 522 486 Z" /><glyph glyph-name="cid01454" unicode="&#x3042;" d="M576 451 L559 451 Q477 451 387 419 L387 379 Q387 299 405 195 Q516 297 576 451 ZM316 370 L316 387 Q242 345 192.5 277 Q143 209 143 148 Q143 87 200 87 Q264 87 339 140 Q316 260 316 370 ZM672 507 L671 503 Q765 478 819.5 413 Q874 348 874 263 Q874 147 792.5 63.5 Q711 -20 542 -46 L498 23 Q634 37 713.5 103 Q793 169 793 267 Q793 326 755 373 Q717 420 647 439 Q567 234 423 112 Q425 105 448 30 L373 7 Q360 52 357 63 Q268 8 187 8 Q133 8 99.5 40.5 Q66 73 66 136 Q66 231 139 323.5 Q212 416 319 464 Q320 501 330 613 Q308 612 268 612 Q228 612 105 618 L103 695 Q187 683 269 683 Q314 683 337 684 Q338 696 341 723 Q344 750 345 762 Q348 786 348 810 L434 808 Q430 798 422 763 Q416 727 410 686 Q622 696 765 729 L766 652 Q593 624 401 615 Q394 546 390 490 Q479 517 560 517 Q585 517 597 516 L600 525 Q608 556 610 584 L692 563 Q689 556 681.5 534.5 Q674 513 672 507 Z" /><glyph glyph-name="cid01455" unicode="&#x3043;" d="M64 585 L153 584 Q146 538 146 498 Q146 346 157 264 Q169 175 197.5 121 Q226 67 262 67 Q292 67 319 118.5 Q346 170 365 243 L427 176 Q389 71 350.5 24.5 Q312 -22 262 -22 Q199 -22 150 43 Q101 108 82 251 Q69 354 69 504 Q69 563 64 585 ZM515 534 L591 558 Q652 485 692.5 361.5 Q733 238 742 139 L664 108 Q655 214 616 338 Q577 462 515 534 Z" /><glyph glyph-name="cid01456" unicode="&#x3044;" d="M65 715 L163 713 Q157 678 155 614 Q153 483 162 375 Q174 245 210.5 169 Q247 93 300 93 Q336 93 369.5 153.5 Q403 214 426 300 L490 226 Q447 102 400 49 Q353 -4 298 -4 Q220 -4 161.5 82.5 Q103 169 83 354 Q71 460 71 625 Q71 685 65 715 ZM612 657 L692 685 Q760 597 809.5 457 Q859 317 870 188 L787 156 Q774 298 728 434.5 Q682 571 612 657 Z" /><glyph glyph-name="cid01457" unicode="&#x3045;" d="M533 265 Q533 323 492.5 354.5 Q452 386 390 386 Q305 386 159 342 Q123 332 91 317 L67 403 Q91 404 142 415 Q150 417 192 426.5 Q234 436 260 441 Q286 446 326.5 451.5 Q367 457 398 457 Q495 457 554 406 Q613 355 613 264 Q613 137 511.5 54.5 Q410 -28 227 -57 L185 15 Q346 35 439.5 97.5 Q533 160 533 265 ZM169 582 L181 651 Q250 637 361 625 Q472 613 545 611 L534 540 Q469 543 351.5 556.5 Q234 570 169 582 Z" /><glyph glyph-name="cid01458" unicode="&#x3046;" d="M627 343 Q627 407 579.5 447.5 Q532 488 454 488 Q421 488 388.5 485 Q356 482 321.5 474 Q287 466 269.5 462 Q252 458 216 447.5 Q180 437 178 436 Q162 432 93 407 L67 501 Q104 505 159 516 Q162 517 217 529.5 Q272 542 297.5 547 Q323 552 372 558.5 Q421 565 462 565 Q573 565 643.5 505 Q714 445 714 340 Q714 182 588.5 84.5 Q463 -13 255 -44 L207 34 Q402 59 514.5 135.5 Q627 212 627 343 ZM189 722 L202 800 Q281 782 416.5 768 Q552 754 633 753 L621 674 Q379 689 189 722 Z" /><glyph glyph-name="cid01459" unicode="&#x3047;" d="M222 582 L233 651 Q289 636 395.5 623 Q502 610 571 606 L561 535 Q391 549 222 582 ZM544 458 L589 409 Q573 398 550 380 Q529 362 471 307.5 Q413 253 389 227 Q406 227 417 222 Q465 218 483 157 Q498 102 509 70 Q523 29 579 29 Q662 29 734 48 L730 -31 Q659 -44 568 -44 Q465 -44 443 29 Q439 43 429.5 77.5 Q420 112 418 120 Q410 145 399 156.5 Q388 168 366 168 Q338 168 306 136 Q280 112 226 53 Q172 -6 140 -47 L68 3 Q74 8 104 36 Q125 56 202.5 132 Q280 208 345 272 Q410 336 447 375 Q426 373 377.5 369 Q329 365 271.5 360.5 Q214 356 201 355 Q151 350 131 345 L125 429 Q149 426 197 428 Q240 429 353 436.5 Q466 444 507 450 Q527 452 544 458 Z" /><glyph glyph-name="cid01460" unicode="&#x3048;" d="M254 730 L268 805 Q450 766 668 752 L657 676 Q442 695 254 730 ZM639 570 L688 515 Q656 492 633 469 Q504 354 444 290 Q466 292 482 287 Q536 282 559 214 Q562 204 569 180.5 Q576 157 582 136 Q588 115 593 100 Q601 71 621 58.5 Q641 46 680 46 Q786 46 872 68 L867 -19 Q775 -34 676 -34 Q611 -34 574 -15.5 Q537 3 521 52 Q516 67 504 111.5 Q492 156 488 171 Q470 224 426 224 Q391 224 352 187 Q313 149 249 80.5 Q185 12 147 -37 L68 16 Q92 34 118 62 Q159 102 536 479 Q527 478 224 454 Q214 453 142 444 L134 535 Q184 531 220 532 Q264 533 399 542.5 Q534 552 591 559 Q623 563 639 570 Z" /><glyph glyph-name="cid01461" unicode="&#x3049;" d="M227 25 Q257 25 257 65 Q257 91 253 211 Q139 151 139 94 Q139 70 170.5 47.5 Q202 25 227 25 ZM322 311 L322 306 Q415 335 501 335 Q598 335 660 287.5 Q722 240 722 162 Q722 87 671.5 34 Q621 -19 523 -38 Q492 -44 430 -47 L405 28 Q465 26 503 33 Q566 44 606 77.5 Q646 111 646 162 Q646 215 605 242.5 Q564 270 500 270 Q408 270 323 240 Q323 204 325 136.5 Q327 69 327 50 Q327 -51 247 -51 Q192 -51 129 -8 Q66 35 66 88 Q66 145 121.5 197 Q177 249 251 281 L251 308 Q251 325 252 365.5 Q253 406 253 427 Q209 425 188 425 Q143 425 82 430 L80 506 Q145 498 188 498 Q207 498 255 500 Q255 521 255.5 549 Q256 577 256 581 Q256 609 251 639 L334 639 Q330 615 328 581 Q327 559 325 506 Q418 517 497 539 L499 465 Q377 441 323 434 Q323 412 322.5 370.5 Q322 329 322 311 ZM561 509 L597 569 Q718 506 792 445 L751 382 Q724 409 664 448 Q604 487 561 509 Z" /><glyph glyph-name="cid01462" unicode="&#x304a;" d="M256 58 Q292 58 292 108 Q292 128 290.5 191.5 Q289 255 289 287 Q226 257 186 217.5 Q146 178 146 144 Q146 112 184.5 85 Q223 58 256 58 ZM363 424 L363 390 Q477 427 585 427 Q696 427 767.5 371 Q839 315 839 225 Q839 44 623 -9 Q569 -21 498 -23 L469 58 Q549 58 588 66 Q662 79 710 118.5 Q758 158 758 224 Q758 286 708.5 321 Q659 356 584 356 Q476 356 364 316 Q368 144 368 97 Q368 -27 278 -27 Q212 -27 139 25 Q66 77 66 141 Q66 200 130.5 261 Q195 322 288 362 L288 420 Q288 508 289 553 Q247 550 214 550 Q134 550 85 555 L83 633 Q146 625 212 625 Q248 625 290 628 Q292 734 292 743 Q292 790 286 815 L375 815 Q372 785 370 745 Q369 712 367 636 Q486 650 575 677 L576 596 Q467 572 365 561 Q363 465 363 424 ZM654 641 L691 703 Q840 624 923 555 L882 489 Q848 522 780 566 Q712 610 654 641 Z" /><glyph glyph-name="cid01463" unicode="&#x304b;" d="M337 806 L433 796 Q426 764 420 736 Q401 624 395 593 Q489 599 508 599 Q584 599 628.5 560.5 Q673 522 673 427 Q673 326 658 223 Q643 120 614 61 Q591 13 555 -5.5 Q519 -24 465 -24 Q420 -24 347 -8 L333 78 Q407 55 457 55 Q488 55 509.5 66 Q531 77 546 108 Q593 209 593 418 Q593 482 567 504 Q541 526 487 526 Q455 526 378 519 Q290 172 165 -26 L81 8 Q150 101 206 242.5 Q262 384 294 511 Q212 503 166 498 Q145 495 75 485 L67 574 Q97 572 157 574 Q170 574 312 586 Q337 716 337 806 ZM706 655 L782 688 Q825 631 881 519 Q937 407 967 326 L887 288 Q862 374 809.5 484.5 Q757 595 706 655 Z" /><glyph glyph-name="cid01464" unicode="&#x304c;" d="M994 727 L939 702 Q890 795 854 844 L908 866 Q960 794 994 727 ZM880 685 L823 660 Q781 745 740 803 L795 825 Q833 772 880 685 ZM337 802 L433 793 Q423 746 421 732 Q419 721 409.5 670.5 Q400 620 394 589 Q476 596 508 596 Q584 596 628.5 557.5 Q673 519 673 423 Q673 322 658 219 Q643 116 614 57 Q591 9 555.5 -9 Q520 -27 466 -27 Q417 -27 346 -12 L333 75 Q404 52 458 52 Q489 52 510 62.5 Q531 73 546 104 Q594 203 594 414 Q594 478 567.5 500 Q541 522 486 522 Q455 522 378 515 Q291 172 165 -29 L82 5 Q151 98 206 238 Q261 378 295 507 Q222 500 167 494 Q105 487 76 481 L68 570 Q112 569 158 570 Q168 570 311 582 Q338 724 337 802 ZM707 642 L781 677 Q825 619 882 506.5 Q939 394 967 316 L888 278 Q862 364 809.5 474 Q757 584 707 642 Z" /><glyph glyph-name="cid01465" unicode="&#x304d;" d="M110 274 L189 267 Q165 203 165 164 Q165 37 371 37 Q518 37 621 60 L619 -23 Q510 -42 374 -42 Q236 -42 161.5 5.5 Q87 53 87 147 Q87 197 110 274 ZM756 552 L772 478 Q699 454 600 435 Q658 309 691 249 L651 199 Q583 211 453 227 L460 290 Q561 278 589 275 Q578 298 554.5 351.5 Q531 405 523 422 Q327 397 69 413 L66 487 Q303 466 492 489 L456 572 Q452 582 444.5 600.5 Q437 619 434 625 Q268 610 77 627 L72 701 Q250 682 404 693 Q401 699 397 709.5 Q393 720 391 724 Q374 761 353 796 L445 815 Q456 772 483 702 Q604 721 685 751 L699 678 Q611 651 510 635 L529 593 Q532 585 569 502 Q667 519 756 552 Z" /><glyph glyph-name="cid01466" unicode="&#x304e;" d="M111 268 L189 262 Q165 196 165 159 Q165 32 372 32 Q515 32 621 54 L619 -28 Q512 -47 374 -47 Q237 -47 162.5 0.5 Q88 48 88 141 Q88 193 111 268 ZM757 546 L773 473 Q693 446 601 429 Q677 270 691 243 L652 194 Q571 207 453 221 L460 285 Q571 272 589 270 Q579 291 556.5 342 Q534 393 523 416 Q337 392 69 407 L66 482 Q303 461 492 484 L456 567 L434 620 Q260 605 77 622 L72 696 Q251 677 404 688 Q402 692 391 718 Q375 756 353 791 L445 809 Q458 764 484 697 Q572 708 660 738 L674 665 Q591 640 511 629 L529 587 L544 553 Q560 519 570 496 Q664 513 757 546 ZM663 799 L714 821 Q758 762 799 679 L746 654 Q703 743 663 799 ZM772 839 L822 862 Q862 812 910 723 L858 697 Q810 789 772 839 Z" /><glyph glyph-name="cid01467" unicode="&#x304f;" d="M496 820 L573 753 Q555 740 503 695 Q461 660 212 457 Q166 417 167 395.5 Q168 374 217 334 Q466 134 595 6 L522 -60 Q511 -46 485 -20.5 Q459 5 452 13 Q372 99 133 295 Q85 335 72.5 367 Q60 399 76 428.5 Q92 458 140 498 Q163 517 230.5 572.5 Q298 628 352.5 675 Q407 722 438 753 Q482 797 496 820 Z" /><glyph glyph-name="cid01468" unicode="&#x3050;" d="M468 559 L522 583 Q544 551 611 432 L554 408 Q499 513 468 559 ZM587 604 L642 629 Q679 579 732 481 L677 457 Q619 561 587 604 ZM498 820 L574 753 Q564 746 551 735 Q538 724 523.5 711.5 Q509 699 504 695 Q455 653 214 457 Q168 418 168 396 Q168 374 217 334 Q478 124 596 6 L523 -60 Q511 -46 485.5 -20 Q460 6 454 13 Q386 86 134 295 Q86 335 73 367 Q60 399 76 428.5 Q92 458 140 498 Q159 514 230 572 Q301 630 354.5 676 Q408 722 439 753 Q482 796 498 820 Z" /><glyph glyph-name="cid01469" unicode="&#x3051;" d="M108 790 L204 780 Q200 767 186 715 Q113 379 157 181 Q180 252 210 335 L255 307 Q208 173 190 84 Q185 59 185 39 L188 4 L118 -4 Q65 158 65 317 Q65 456 103 722 Q108 752 108 790 ZM879 607 L879 523 Q813 512 715 505 L715 470 Q715 419 714.5 394 Q714 369 712.5 325 Q711 281 707 257.5 Q703 234 696 197.5 Q689 161 678 138.5 Q667 116 651 86.5 Q635 57 614 35 Q593 13 564 -10.5 Q535 -34 500 -55 L425 4 Q486 29 525 68 Q600 133 619 216.5 Q638 300 638 471 L638 501 Q573 498 509 498 Q423 498 346 505 L346 587 Q421 575 508 575 Q550 575 636 579 Q632 712 630 735 Q628 763 621 796 L716 796 Q715 791 713 736 Q712 712 714 584 Q817 593 879 607 Z" /><glyph glyph-name="cid01470" unicode="&#x3052;" d="M849 659 L798 641 Q771 721 741 785 L790 801 Q823 735 849 659 ZM109 763 L204 754 Q191 708 187 688 Q114 363 158 164 Q184 242 211 317 L256 290 Q209 157 191 66 Q184 33 185 20 Q185 16 186.5 4.5 Q188 -7 189 -13 L118 -23 Q65 150 65 299 Q65 346 67.5 393.5 Q70 441 75.5 488 Q81 535 85 565 Q89 595 95.5 640 Q102 685 104 696 Q109 725 109 763 ZM608 769 L705 769 Q701 742 701 710 Q701 702 703 559 Q802 567 880 585 L880 500 Q799 487 704 481 L704 453 Q704 403 703.5 377 Q703 351 701.5 308 Q700 265 696 240.5 Q692 216 685 180 Q678 144 667 121 Q656 98 640 68 Q624 38 602.5 16 Q581 -6 552.5 -29.5 Q524 -53 489 -74 L413 -14 Q471 10 512 49 Q587 114 606.5 198.5 Q626 283 626 453 L626 477 Q548 475 510 475 Q434 475 346 481 L346 563 Q427 552 509 552 Q545 552 625 554 Q621 687 619 710 Q617 734 608 769 ZM843 816 L892 833 Q917 782 953 691 L902 674 Q868 772 843 816 Z" /><glyph glyph-name="cid01471" unicode="&#x3053;" d="M129 634 L129 718 Q236 705 397 705 Q524 705 670 719 L670 635 Q504 623 397 623 Q256 623 129 634 ZM87 316 L171 308 Q150 236 150 193 Q150 134 211 98.5 Q272 63 390 63 Q612 63 737 102 L738 14 Q607 -20 392 -20 Q236 -20 151 30 Q66 80 66 174 Q66 218 87 316 Z" /><glyph glyph-name="cid01472" unicode="&#x3054;" d="M645 799 L701 821 Q736 773 785 681 L729 655 Q688 741 645 799 ZM759 840 L813 863 Q860 800 900 723 L844 698 Q799 788 759 840 ZM127 623 L127 707 Q242 693 396 693 Q513 693 669 708 L669 624 Q490 611 396 611 Q266 611 127 623 ZM86 305 L169 297 Q149 230 149 182 Q149 122 209.5 87 Q270 52 388 52 Q611 52 736 91 L737 4 Q606 -32 390 -32 Q235 -32 150 18.5 Q65 69 65 164 Q65 219 86 305 Z" /><glyph glyph-name="cid01473" unicode="&#x3055;" d="M117 319 L200 312 Q171 241 171 184 Q171 42 383 42 Q515 42 649 70 L648 -15 Q511 -39 382 -39 Q242 -39 165.5 14.5 Q89 68 89 164 Q89 223 117 319 ZM757 697 L772 616 Q656 586 581 574 Q660 402 717 291 L670 242 Q583 260 460 271 L468 338 Q490 336 545 330.5 Q600 325 612 324 Q506 552 501 562 Q309 540 70 560 L67 642 Q271 616 469 636 L435 711 Q415 756 392 796 L484 813 Q523 708 549 646 Q659 665 757 697 Z" /><glyph glyph-name="cid01474" unicode="&#x3056;" d="M117 311 L200 304 Q171 235 171 177 Q171 34 383 34 Q518 34 649 61 L648 -23 Q516 -46 382 -46 Q241 -46 165 7 Q89 60 89 157 Q89 215 117 311 ZM648 818 L704 842 Q749 779 786 700 L757 687 L771 609 Q672 581 581 567 Q662 386 717 284 L670 234 Q573 254 459 264 L468 331 Q534 324 611 315 Q541 461 501 555 Q311 532 70 552 L67 634 Q271 608 468 628 L434 702 Q414 750 391 787 L483 806 Q509 731 549 639 Q624 651 728 681 Q690 760 648 818 ZM762 859 L816 882 Q867 813 902 741 L847 717 Q799 811 762 859 Z" /><glyph glyph-name="cid01475" unicode="&#x3057;" d="M62 796 L165 795 Q159 753 155 693 Q143 348 143 187 Q143 37 309 37 Q376 37 433 54 Q490 71 534.5 103 Q579 135 610.5 169 Q642 203 673 247 L729 176 Q569 -47 307 -47 Q61 -47 61 179 Q61 260 66 452 Q71 644 71 693 Q71 751 62 796 Z" /><glyph glyph-name="cid01476" unicode="&#x3058;" d="M390 682 L448 707 Q506 625 547 544 L486 516 Q432 624 390 682 ZM523 732 L581 759 Q636 686 682 599 L623 570 Q568 674 523 732 ZM62 790 L166 788 Q159 743 156 687 Q143 313 143 180 Q143 31 310 31 Q436 31 522 88.5 Q608 146 674 241 L730 170 Q570 -53 307 -53 Q61 -53 61 173 Q61 254 66.5 446 Q72 638 72 687 Q72 740 62 790 Z" /><glyph glyph-name="cid01477" unicode="&#x3059;" d="M458 240 Q504 240 529 277 Q554 314 547 384 Q524 446 456 446 Q415 446 384.5 416.5 Q354 387 354 340 Q354 294 384 267 Q414 240 458 240 ZM614 606 L601 606 Q601 532 603 440 Q636 388 636 310 Q636 255 621.5 205 Q607 155 574 106 Q541 57 480 16.5 Q419 -24 334 -50 L263 18 Q472 67 532 195 Q494 169 445 169 Q376 169 326.5 214.5 Q277 260 277 339 Q277 413 330 464.5 Q383 516 456 516 Q493 516 524 505 Q524 570 523 605 Q288 603 70 588 L68 668 Q108 669 272 673 Q436 677 522 678 Q522 716 520 744 Q518 782 514 808 L607 808 L602 744 Q602 738 601.5 716 Q601 694 601 679 L616 679 Q687 679 792.5 678.5 Q898 678 913 678 L912 601 Q817 606 614 606 Z" /><glyph glyph-name="cid01478" unicode="&#x305a;" d="M950 724 L892 698 Q850 777 816 822 L874 847 Q916 785 950 724 ZM825 696 L767 671 Q721 757 692 797 L749 820 Q787 769 825 696 ZM457 228 Q504 228 528.5 265.5 Q553 303 546 373 Q523 435 457 435 Q415 435 384.5 406 Q354 377 354 329 Q354 283 384 255.5 Q414 228 457 228 ZM601 668 L616 668 Q687 668 793 667.5 Q899 667 913 667 L911 590 Q816 595 615 595 L601 595 Q601 522 603 428 Q635 372 635 299 Q635 244 620.5 194 Q606 144 573.5 95 Q541 46 479.5 5.5 Q418 -35 333 -61 L263 7 Q472 56 531 182 Q496 157 445 157 Q377 157 327.5 203 Q278 249 278 328 Q278 402 331 453.5 Q384 505 457 505 Q493 505 524 494 L523 594 Q288 592 71 577 L68 656 Q112 657 274.5 661.5 Q437 666 522 667 Q522 678 521.5 692.5 Q521 707 520.5 717 Q520 727 520 733 Q518 778 513 797 L607 797 Q602 770 602 733 Q602 727 601.5 705 Q601 683 601 668 Z" /><glyph glyph-name="cid01479" unicode="&#x305b;" d="M685 786 L772 786 Q769 764 767 714 Q767 691 766.5 642.5 Q766 594 766 572 Q782 573 820 576.5 Q858 580 876 581 Q909 582 956 586 L956 504 L876 504 Q800 501 764 499 Q760 349 748 286 Q741 253 723 240 Q705 227 670 227 Q641 227 536 242 L538 314 Q603 301 640 301 Q660 301 668 306 Q676 311 678 328 Q685 378 689 493 Q585 485 365 463 Q363 253 365 214 Q366 179 367 164 Q368 149 374 128 Q380 107 390.5 99 Q401 91 421 82 Q441 73 471 70.5 Q501 68 545 68 Q714 68 846 90 L843 4 Q678 -13 550 -13 Q462 -13 411 -3 Q360 7 332.5 35.5 Q305 64 297 100 Q289 136 287 203 Q286 247 286 455 L179 443 Q131 437 75 429 L67 513 Q111 513 173 518 Q186 519 224 522.5 Q262 526 286 528 L287 670 Q287 708 281 755 L370 755 Q367 720 367 673 L366 537 Q601 559 690 566 L690 711 Q690 758 685 786 Z" /><glyph glyph-name="cid01480" unicode="&#x305c;" d="M922 634 L871 616 Q845 693 812 762 L861 777 Q906 682 922 634 ZM684 771 L771 771 Q768 749 766 697 Q766 674 765.5 626.5 Q765 579 765 557 Q784 558 876 564 Q929 568 956 569 L956 488 L876 488 Q798 485 763 483 Q759 327 748 270 Q741 237 723.5 224.5 Q706 212 670 212 Q634 212 536 226 L538 299 Q595 286 639 286 Q659 286 667 291 Q675 296 677 312 Q684 362 688 477 Q588 469 365 447 Q363 238 365 199 Q366 173 366.5 161 Q367 149 369.5 130 Q372 111 376.5 103.5 Q381 96 390 84.5 Q399 73 411.5 68.5 Q424 64 443 59 Q462 54 487 52.5 Q512 51 545 51 Q702 51 846 75 L843 -11 Q690 -29 549 -29 Q461 -29 410 -19 Q359 -9 332 19.5 Q305 48 297 83.5 Q289 119 287 187 Q286 230 286 439 L178 428 Q138 423 75 414 L67 498 Q110 498 172 503 Q185 504 223.5 507.5 Q262 511 286 513 L287 654 Q287 692 281 739 L370 739 Q367 703 367 657 L366 521 Q382 522 503.5 534 Q625 546 689 551 L689 695 Q689 743 684 771 ZM914 794 L964 810 Q1000 738 1025 668 L974 650 Q944 742 914 794 Z" /><glyph glyph-name="cid01481" unicode="&#x305d;" d="M232 679 L228 763 Q265 759 309 760 Q349 760 465.5 765 Q582 770 621 775 Q654 778 676 785 L728 726 Q699 709 674 688 Q649 668 533 572 Q417 476 371 439 Q669 470 852 470 L852 393 Q685 401 595 388 Q519 378 459.5 322 Q400 266 400 197 Q400 71 574 48 Q648 38 720 44 L703 -39 Q517 -47 418.5 10 Q320 67 320 184 Q320 243 356.5 295.5 Q393 348 438 375 Q275 362 74 330 L67 408 Q86 410 241 428 Q344 499 575 701 Q566 700 451 693.5 Q336 687 310 685 Q301 684 284.5 683 Q268 682 255 681 Q242 680 232 679 Z" /><glyph glyph-name="cid01482" unicode="&#x305e;" d="M682 636 L734 658 Q783 587 811 528 L759 504 Q720 585 682 636 ZM791 676 L842 699 Q882 648 923 571 L871 546 Q827 631 791 676 ZM233 679 L229 763 Q266 759 310 760 Q350 760 466 765 Q582 770 621 775 Q654 778 676 785 L728 726 Q699 709 674 688 Q649 668 533 572 Q417 476 371 439 Q669 470 851 470 L852 393 Q684 401 595 388 Q519 378 460 322 Q401 266 401 197 Q401 71 575 48 Q648 38 720 44 L704 -39 Q517 -47 418.5 10 Q320 67 320 184 Q320 243 356.5 295.5 Q393 348 439 375 Q274 361 74 330 L67 408 Q86 410 241 428 Q374 519 575 701 Q564 700 450.5 693.5 Q337 687 311 685 Q302 684 285.5 683 Q269 682 256 681 Q243 680 233 679 Z" /><glyph glyph-name="cid01483" unicode="&#x305f;" d="M510 418 L510 495 Q595 503 695 503 Q798 503 870 495 L868 417 Q766 429 697 429 Q607 429 510 418 ZM575 684 L575 603 Q472 580 366 568 Q357 524 334 434 Q305 320 259 184.5 Q213 49 175 -31 L85 -1 Q127 73 175.5 204.5 Q224 336 255 453 Q271 512 281 560 Q232 557 188 557 Q143 557 71 561 L68 641 Q124 634 189 634 Q220 634 298 638 Q306 680 313 727 Q319 782 316 811 L416 803 Q408 776 397 722 L382 647 Q479 659 575 684 ZM459 255 L535 248 Q521 195 521 157 Q521 114 555.5 88 Q590 62 688 62 Q775 62 886 82 L883 -1 Q783 -14 687 -14 Q443 -14 443 135 Q443 179 459 255 Z" /><glyph glyph-name="cid01484" unicode="&#x3060;" d="M848 618 L793 594 Q756 672 710 736 L764 760 Q811 695 848 618 ZM510 403 L510 480 Q616 488 696 488 Q799 488 871 480 L869 402 Q767 414 698 414 Q607 414 510 403 ZM576 670 L576 588 Q456 563 366 554 Q359 519 334 419 Q305 305 259 169.5 Q213 34 175 -45 L85 -15 Q127 59 175.5 190.5 Q224 322 255 438 Q269 493 281 546 Q231 543 189 543 Q119 543 71 547 L68 627 Q124 620 190 620 Q220 620 298 624 Q311 692 314 713 Q320 769 317 796 L416 787 Q412 774 398 708 L382 633 Q480 645 576 670 ZM459 241 L536 233 Q521 176 521 141 Q521 98 555.5 73 Q590 48 688 48 Q784 48 886 68 L883 -15 Q767 -30 687 -30 Q444 -30 444 121 Q444 169 459 241 ZM824 778 L877 802 Q932 725 964 660 L909 636 Q864 725 824 778 Z" /><glyph glyph-name="cid01485" unicode="&#x3061;" d="M749 705 L750 626 Q564 592 339 583 Q304 416 276 343 Q342 390 408.5 410.5 Q475 431 559 431 Q679 431 747 375.5 Q815 320 815 229 Q815 126 748 61.5 Q681 -3 565 -24 Q449 -45 293 -28 L271 53 Q358 38 441 42.5 Q524 47 588.5 65 Q653 83 692 125 Q731 167 731 227 Q731 286 684 323 Q637 360 551 360 Q458 360 379.5 329.5 Q301 299 252 240 Q232 217 220 193 L145 220 Q209 345 262 581 L261 581 Q173 581 69 590 L68 671 Q174 653 260 653 L277 653 Q283 684 287 720 Q293 763 292 804 L383 799 Q375 768 365 714 Q355 666 353 655 Q566 664 749 705 Z" /><glyph glyph-name="cid01486" unicode="&#x3062;" d="M741 682 L742 603 Q555 569 336 560 Q303 408 275 332 Q341 379 408 399.5 Q475 420 560 420 Q680 420 748 364.5 Q816 309 816 218 Q816 64 673.5 -0.5 Q531 -65 292 -39 L270 42 Q357 27 440.5 31.5 Q524 36 588.5 54 Q653 72 692.5 114 Q732 156 732 216 Q732 275 684.5 312 Q637 349 551 349 Q458 349 379 318 Q300 287 251 228 Q233 208 220 181 L145 209 Q208 334 260 559 Q172 559 69 568 L68 649 Q166 632 260 632 L274 632 Q283 678 286 709 Q292 752 291 793 L383 787 Q377 767 365 702 Q363 692 358.5 668.5 Q354 645 352 634 Q567 643 741 682 ZM711 802 L765 825 Q817 751 849 684 L794 659 Q755 740 711 802 ZM824 843 L879 866 Q935 787 964 726 L910 701 Q862 795 824 843 Z" /><glyph glyph-name="cid01487" unicode="&#x3063;" d="M101 326 L67 411 Q108 418 161 435 Q168 437 203.5 448.5 Q239 460 261 467 Q283 474 322 485 Q361 496 390.5 502 Q420 508 455.5 513 Q491 518 520 518 Q629 518 698 457 Q767 396 767 294 Q767 152 643 73 Q519 -6 306 -18 L273 60 Q359 63 430 77 Q501 91 559.5 117.5 Q618 144 651 189.5 Q684 235 684 295 Q684 360 637 401.5 Q590 443 513 443 Q398 443 101 326 Z" /><glyph glyph-name="cid01488" unicode="&#x3064;" d="M106 444 L68 535 Q99 541 179 564 Q186 566 240.5 584 Q295 602 329 612 Q363 622 418 636.5 Q473 651 522 658 Q571 665 613 665 Q743 665 829 593 Q915 521 915 397 Q915 308 872.5 237.5 Q830 167 754 121.5 Q678 76 579 50.5 Q480 25 360 18 L324 103 Q428 106 515 123.5 Q602 141 673 175 Q744 209 784.5 266 Q825 323 825 398 Q825 480 768 534 Q711 588 611 588 Q581 588 544 583 Q507 578 473.5 570.5 Q440 563 398 550.5 Q356 538 326.5 528.5 Q297 519 256.5 503.5 Q216 488 196 480.5 Q176 473 143 459.5 Q110 446 106 444 Z" /><glyph glyph-name="cid01489" unicode="&#x3065;" d="M723 780 L777 803 Q826 737 861 662 L806 637 Q775 706 723 780 ZM837 821 L890 845 Q939 780 977 705 L922 680 Q875 770 837 821 ZM105 426 L68 517 Q108 525 179 547 Q183 548 239.5 566.5 Q296 585 329 594.5 Q362 604 417.5 618.5 Q473 633 521.5 640 Q570 647 612 647 Q742 647 828 575 Q914 503 914 379 Q914 290 871.5 220 Q829 150 753 104.5 Q677 59 578 33.5 Q479 8 359 1 L324 86 Q428 89 515 106.5 Q602 124 673 157.5 Q744 191 784.5 248 Q825 305 825 380 Q825 462 767.5 516 Q710 570 610 570 Q454 570 105 426 Z" /><glyph glyph-name="cid01490" unicode="&#x3066;" d="M77 590 L68 680 Q124 681 158 685 Q177 687 255 694.5 Q333 702 427 710.5 Q521 719 603 726 Q737 737 876 743 L876 662 Q736 662 677 645 Q574 612 510 517 Q446 422 446 326 Q446 268 466.5 222.5 Q487 177 521 147.5 Q555 118 601.5 98 Q648 78 695.5 69 Q743 60 795 58 L765 -27 Q692 -24 623 -3 Q554 18 495 57 Q436 96 400 161 Q364 226 364 307 Q364 419 419.5 511.5 Q475 604 552 649 Q537 647 458 639 Q379 631 319.5 624.5 Q260 618 187.5 608 Q115 598 77 590 Z" /><glyph glyph-name="cid01491" unicode="&#x3067;" d="M680 509 L733 531 Q780 464 817 389 L764 365 Q720 455 680 509 ZM793 551 L844 574 Q888 515 933 433 L880 409 Q836 494 793 551 ZM77 584 L68 674 Q124 675 158 679 Q159 679 325.5 694.5 Q492 710 603 720 Q737 731 876 737 L876 655 Q732 655 677 639 Q574 606 510 510 Q446 414 446 318 Q446 247 476.5 194.5 Q507 142 559.5 112.5 Q612 83 670 68.5 Q728 54 795 52 L765 -34 Q692 -31 623 -9.5 Q554 12 495 51 Q436 90 400 155 Q364 220 364 301 Q364 412 419.5 505 Q475 598 552 643 Q537 641 458 633 Q379 625 319.5 618.5 Q260 612 187.5 602 Q115 592 77 584 Z" /><glyph glyph-name="cid01492" unicode="&#x3068;" d="M644 684 L688 609 Q651 587 610 566 Q598 560 549 535.5 Q500 511 466 493.5 Q432 476 384 449 Q336 422 302 399 Q151 301 151 195 Q151 131 212 94.5 Q273 58 391 58 Q578 58 716 93 L716 1 Q568 -24 395 -24 Q243 -24 154.5 26.5 Q66 77 66 185 Q66 326 242 449 Q179 560 94 761 L175 794 Q234 633 311 494 Q365 527 458.5 576 Q552 625 571 636 Q612 658 644 684 Z" /><glyph glyph-name="cid01493" unicode="&#x3069;" d="M619 657 L660 583 Q619 558 583 540 Q569 533 525.5 511 Q482 489 452.5 473.5 Q423 458 380 433.5 Q337 409 303 386 Q152 286 152 181 Q152 117 213 81 Q274 45 392 45 Q578 45 716 80 L715 -12 Q569 -37 395 -37 Q243 -37 154.5 13.5 Q66 64 66 172 Q66 314 241 436 Q185 536 95 746 L176 780 Q232 624 311 480 Q363 512 450 557.5 Q537 603 547 609 Q594 635 619 657 ZM625 770 L680 794 Q718 740 764 652 L709 628 Q671 709 625 770 ZM739 811 L793 835 Q843 767 879 695 L824 670 Q781 758 739 811 Z" /><glyph glyph-name="cid01494" unicode="&#x306a;" d="M917 537 L871 469 Q833 502 764.5 542.5 Q696 583 640 608 L680 672 Q736 647 808.5 605.5 Q881 564 917 537 ZM549 690 L551 614 Q465 590 367 578 Q329 470 267.5 350 Q206 230 146 148 L66 189 Q126 259 186 365.5 Q246 472 283 568 Q238 565 194 565 Q134 565 77 568 L70 645 Q123 638 195 638 Q243 638 308 643 Q338 754 340 818 L431 810 Q427 796 413.5 741 Q400 686 391 653 Q468 665 549 690 ZM602 124 Q602 154 601 172 Q551 186 498 186 Q443 186 409 163.5 Q375 141 375 106 Q375 70 404 49 Q433 28 491 28 Q549 28 575.5 55 Q602 82 602 124 ZM588 497 L669 497 Q666 457 668 387 Q668 370 671.5 312 Q675 254 676 222 Q786 182 886 95 L841 26 Q755 104 679 141 Q680 126 680 100 Q680 35 635.5 -6 Q591 -47 502 -47 Q413 -47 356 -10 Q299 27 299 99 Q299 168 356.5 210.5 Q414 253 502 253 Q553 253 598 244 Q597 276 593 366.5 Q589 457 588 497 Z" /><glyph glyph-name="cid01495" unicode="&#x306b;" d="M116 775 L208 768 Q198 740 189 699 Q140 459 140 311 Q140 237 148 172 Q172 238 204 317 L248 285 Q189 122 177 57 Q172 34 172 12 L175 -24 L101 -29 Q64 104 64 297 Q64 349 70 415 Q76 481 81.5 522.5 Q87 564 97.5 628.5 Q108 693 109 703 Q116 759 116 775 ZM366 284 L440 276 Q427 223 427 183 Q427 92 597 92 Q724 92 847 119 L848 33 Q739 12 596 12 Q350 12 350 164 Q350 208 366 284 ZM401 606 L400 690 Q488 677 612 678 Q736 679 817 690 L817 606 Q735 598 609.5 598 Q484 598 401 606 Z" /><glyph glyph-name="cid01496" unicode="&#x306c;" d="M640 62 Q723 62 771 157 Q707 194 647 194 Q605 194 580.5 174.5 Q556 155 556 129 Q556 98 578 80 Q600 62 640 62 ZM439 395 Q466 474 483 582 Q369 558 276 469 Q283 451 317 374 Q346 309 378 262 Q414 325 439 395 ZM221 406 L211 392 Q140 285 140 184 Q140 146 157 122 Q174 98 198 98 Q260 98 332 193 Q297 241 261 311 Q246 344 221 406 ZM572 662 L582 662 Q711 662 799 580 Q887 498 887 361 Q887 256 865 180 Q919 139 969 81 L920 19 Q867 81 836 109 Q773 -10 643 -10 Q571 -10 528 25.5 Q485 61 485 122 Q485 177 530 217.5 Q575 258 644 258 Q722 258 794 222 Q809 286 809 359 Q809 461 747.5 526.5 Q686 592 577 592 L563 592 Q544 465 511 371 Q458 221 373.5 118 Q289 15 195 15 Q140 15 103 58 Q66 101 66 172 Q66 315 151 433 Q173 463 191 483 Q187 495 175.5 525 Q164 555 160 570 Q141 633 123 676 L200 708 Q214 642 249 540 Q357 631 493 654 Q497 700 498 715 Q501 762 497 799 L589 796 Q587 785 585 770.5 Q583 756 581 739 Q579 722 578 715 L572 662 Z" /><glyph glyph-name="cid01497" unicode="&#x306d;" d="M664 67 Q761 67 798 175 Q730 212 659 212 Q619 212 590 191.5 Q561 171 561 141 Q561 104 589.5 85.5 Q618 67 664 67 ZM387 656 L417 621 Q393 585 372 550 Q372 542 370 525.5 Q368 509 367 500 Q554 667 690 667 Q790 667 845 586.5 Q900 506 900 376 Q900 278 887 207 Q942 168 999 108 L956 41 Q913 90 866 129 Q813 -6 670 -6 Q591 -6 540.5 30 Q490 66 490 138 Q490 199 539.5 239 Q589 279 666 279 Q742 279 814 248 Q822 305 822 390 Q822 484 781 539.5 Q740 595 676 595 Q610 595 522.5 538 Q435 481 361 402 Q357 341 357 272 Q357 119 361 28 Q363 -8 366 -34 L277 -34 Q280 8 280 27 Q282 244 283 287 Q283 291 283.5 304.5 Q284 318 284 326 Q197 193 120 86 L68 157 Q217 346 293 465 Q295 498 299 562 Q291 561 101 537 L93 621 Q113 620 160 622 Q230 626 304 639 Q309 717 309 734 Q309 789 305 810 L402 807 Q392 759 382 654 L387 656 Z" /><glyph glyph-name="cid01498" unicode="&#x306e;" d="M251 143 Q287 143 327 201.5 Q367 260 404 382 Q442 506 460 655 Q367 643 293.5 590 Q220 537 183.5 467.5 Q147 398 147 328 Q147 240 180 191.5 Q213 143 251 143 ZM518 -27 L471 50 Q510 52 558 62 Q666 86 740.5 162.5 Q815 239 815 362 Q815 481 743 563.5 Q671 646 545 656 Q522 491 485 365 Q391 49 247 49 Q176 49 121 125 Q66 201 66 321 Q66 488 196.5 610.5 Q327 733 511 733 Q685 733 792.5 625.5 Q900 518 900 360 Q900 200 799.5 98.5 Q699 -3 518 -27 Z" /><glyph glyph-name="cid01499" unicode="&#x306f;" d="M117 786 L207 779 Q197 752 190 711 Q173 629 156.5 505 Q140 381 140 302 Q140 227 149 164 Q170 223 206 311 L249 278 Q190 116 177 53 Q171 25 172 8 Q172 3 175 -27 L103 -33 Q64 109 64 289 Q64 331 67.5 380 Q71 429 77 480.5 Q83 532 88 569 Q93 606 100.5 654.5 Q108 703 110 715 Q117 757 117 786 ZM634 158 Q634 179 633 191 Q582 208 530 208 Q473 208 437.5 185 Q402 162 402 127 Q402 90 435 69 Q468 48 524 48 Q585 48 609.5 75.5 Q634 103 634 158 ZM911 108 L867 41 Q787 116 714 157 L714 138 Q714 66 673.5 19 Q633 -28 538 -28 Q437 -28 382 11.5 Q327 51 327 119 Q327 185 383 229 Q439 273 536 273 Q587 273 630 264 Q629 289 626.5 342.5 Q624 396 622 441 Q620 486 620 523 Q554 521 523 521 Q471 521 353 527 L353 605 Q439 596 525 596 Q556 596 620 598 L620 724 Q620 757 615 785 L708 785 Q704 757 702 725 Q701 697 699 603 Q783 609 874 627 L874 547 Q788 533 699 527 Q699 486 711 240 Q805 202 911 108 Z" /><glyph glyph-name="cid01500" unicode="&#x3070;" d="M859 669 L807 650 Q781 727 748 796 L798 811 Q840 725 859 669 ZM118 776 L208 768 Q201 749 190 700 Q173 618 156.5 494 Q140 370 140 292 Q140 216 149 153 Q164 197 207 300 L250 266 Q190 102 178 42 Q172 14 173 -3 Q174 -8 175 -20.5 Q176 -33 176 -38 L103 -44 Q64 98 64 278 Q64 403 111 703 Q118 761 118 776 ZM635 146 Q635 168 634 181 Q581 197 530 197 Q473 197 437.5 174 Q402 151 402 116 Q402 79 435 58 Q468 37 524 37 Q585 37 610 64.5 Q635 92 635 146 ZM874 615 L874 536 Q788 522 699 516 Q699 474 711 228 Q805 190 911 96 L867 30 Q791 103 714 146 L714 127 Q714 55 673.5 8 Q633 -39 538 -39 Q437 -39 382 0.5 Q327 40 327 109 Q327 175 383 218.5 Q439 262 536 262 Q588 262 631 253 Q630 268 625.5 365.5 Q621 463 620 512 Q554 510 523 510 Q456 510 353 517 L353 594 Q438 585 525 585 Q556 585 620 587 L620 713 Q620 739 616 775 L708 775 Q704 746 702 714 Q701 686 699 592 Q792 599 874 615 ZM851 826 L901 843 Q938 768 963 701 L911 683 Q876 782 851 826 Z" /><glyph glyph-name="cid01501" unicode="&#x3071;" d="M118 776 L208 768 Q201 749 190 700 Q173 618 156.5 494 Q140 370 140 292 Q140 216 149 153 Q164 197 207 300 L250 266 Q190 102 178 42 Q172 14 173 -3 Q174 -8 175 -20.5 Q176 -33 176 -38 L103 -44 Q64 98 64 278 Q64 403 111 703 Q118 761 118 776 ZM635 146 Q635 168 634 181 Q581 197 530 197 Q473 197 437.5 174 Q402 151 402 116 Q402 79 435 58 Q468 37 524 37 Q585 37 610 64.5 Q635 92 635 146 ZM874 615 L874 536 Q788 522 699 516 Q699 474 711 228 Q805 190 911 96 L867 30 Q791 103 714 146 L714 127 Q714 55 673.5 8 Q633 -39 538 -39 Q437 -39 382 0.5 Q327 40 327 109 Q327 175 383 218.5 Q439 262 536 262 Q588 262 631 253 Q630 268 625.5 365.5 Q621 463 620 512 Q554 510 523 510 Q456 510 353 517 L353 594 Q438 585 525 585 Q556 585 620 587 L620 713 Q620 739 616 775 L708 775 Q704 746 702 714 Q701 686 699 592 Q792 599 874 615 ZM816 710.5 Q834 693 860 693 Q886 693 903.5 710.5 Q921 728 921 754 Q921 780 903.5 798 Q886 816 860 816 Q834 816 816 798 Q798 780 798 754 Q798 728 816 710.5 ZM860 861 Q904 861 935.5 829.5 Q967 798 967 754 Q967 710 935.5 678.5 Q904 647 860 647 Q815 647 784 678.5 Q753 710 753 754 Q753 798 784 829.5 Q815 861 860 861 Z" /><glyph glyph-name="cid01502" unicode="&#x3072;" d="M917 336 L856 272 Q788 356 731 462 Q739 364 722 274.5 Q705 185 664.5 112.5 Q624 40 551.5 -3 Q479 -46 384 -46 Q262 -46 191 26 Q120 98 120 221 Q120 340 175 454 Q230 568 303 644 Q196 627 135 615 Q101 609 79 604 L68 690 Q95 690 122 693 Q193 699 299.5 718 Q406 737 448 753 L472 679 Q468 677 456 673.5 Q444 670 434 666.5 Q424 663 418 660 Q352 610 276.5 483 Q201 356 201 232 Q201 134 253.5 86 Q306 38 387 38 Q548 38 623 209 Q698 380 647 655 Q635 691 623 730 L701 755 Q755 499 917 336 Z" /><glyph glyph-name="cid01503" unicode="&#x3073;" d="M865 655 L812 635 Q772 732 743 781 L794 799 Q849 694 865 655 ZM623 715 L702 739 Q756 483 918 321 L858 257 Q787 343 733 446 Q741 348 724 258.5 Q707 169 666.5 96.5 Q626 24 553 -19 Q480 -62 385 -62 Q263 -62 192 10.5 Q121 83 121 206 Q121 325 176 439 Q231 553 304 629 Q202 613 137 600 Q129 598 81 589 L68 675 Q96 675 123 678 Q196 684 301.5 702 Q407 720 448 736 L473 663 Q470 662 448.5 655 Q427 648 419 644 Q353 595 277 468 Q201 341 201 217 Q201 119 254 71 Q307 23 388 23 Q549 23 624.5 194 Q700 365 648 641 Q646 647 637 673.5 Q628 700 623 715 ZM849 819 L899 839 Q930 788 971 695 L918 676 Q878 774 849 819 Z" /><glyph glyph-name="cid01504" unicode="&#x3074;" d="M623 715 L702 739 Q756 483 918 321 L858 257 Q787 343 733 446 Q741 348 724 258.5 Q707 169 666.5 96.5 Q626 24 553 -19 Q480 -62 385 -62 Q263 -62 192 10.5 Q121 83 121 206 Q121 325 176 439 Q231 553 304 629 Q202 613 137 600 Q129 598 81 589 L68 675 Q96 675 123 678 Q196 684 301.5 702 Q407 720 449 736 L473 663 Q470 662 448.5 655 Q427 648 419 644 Q353 595 277 468 Q201 341 201 217 Q201 119 254 71 Q307 23 388 23 Q549 23 624.5 194 Q700 365 648 641 Q646 647 637 673.5 Q628 700 623 715 ZM865 659 Q892 659 911 678 Q930 697 930 725 Q930 753 911 772.5 Q892 792 865 792 Q837 792 817.5 772.5 Q798 753 798 725 Q798 697 817.5 678 Q837 659 865 659 ZM865 838 Q911 838 944.5 804.5 Q978 771 978 725 Q978 679 944.5 645.5 Q911 612 865 612 Q818 612 785 645 Q752 678 752 725 Q752 772 785 805 Q818 838 865 838 Z" /><glyph glyph-name="cid01505" unicode="&#x3075;" d="M587 511 L535 560 Q579 588 606 611 Q537 667 389 729 L437 790 Q596 723 687 656 L706 603 Q623 536 587 511 ZM352 -9 L341 77 Q423 53 504 53 Q546 53 576 72.5 Q606 92 606 137 Q606 219 476 358 Q430 404 394 435 L456 487 Q494 449 530 410 Q609 328 650.5 260 Q692 192 692 128 Q692 84 675.5 52 Q659 20 631.5 4.5 Q604 -11 576 -18 Q548 -25 517 -25 Q442 -25 352 -9 ZM1000 79 L924 38 Q901 115 852.5 207.5 Q804 300 754 357 L823 395 Q873 337 923.5 244 Q974 151 1000 79 ZM327 296 L375 234 Q327 185 256 128 Q185 71 116 30 L67 97 Q129 130 206 189 Q283 248 327 296 Z" /><glyph glyph-name="cid01506" unicode="&#x3076;" d="M771 657 L825 681 Q875 611 909 539 L854 514 Q823 583 771 657 ZM885 698 L938 722 Q987 657 1025 582 L970 557 Q920 652 885 698 ZM587 504 L535 553 Q570 573 604 603 Q532 662 388 721 L436 781 Q603 710 686 648 L706 595 Q647 548 587 504 ZM351 -17 L339 69 Q422 45 503 45 Q545 45 575 64.5 Q605 84 605 129 Q605 209 475 351 Q436 390 393 427 L456 480 Q458 478 529 401 Q608 318 649.5 251.5 Q691 185 691 121 Q691 77 674.5 45 Q658 13 630.5 -3 Q603 -19 575 -26 Q547 -33 516 -33 Q441 -33 351 -17 ZM999 71 L924 30 Q901 106 852.5 199.5 Q804 293 754 350 L822 387 Q872 329 922.5 236.5 Q973 144 999 71 ZM326 289 L375 227 Q258 106 116 22 L67 90 Q130 124 206.5 183 Q283 242 326 289 Z" /><glyph glyph-name="cid01507" unicode="&#x3077;" d="M837 616 Q837 588 856.5 568.5 Q876 549 904 549 Q933 549 953 568.5 Q973 588 973 616 Q973 644 952.5 664.5 Q932 685 904 685 Q876 685 856.5 665 Q837 645 837 616 ZM790 616 Q790 665 823.5 698.5 Q857 732 904 732 Q952 732 986 698 Q1020 664 1020 616 Q1020 569 985.5 535.5 Q951 502 904 502 Q857 502 823.5 535.5 Q790 569 790 616 ZM587 504 L535 553 Q570 573 604 603 Q532 662 388 721 L436 781 Q603 710 686 648 L706 595 Q647 548 587 504 ZM351 -17 L339 69 Q422 45 503 45 Q545 45 575 64.5 Q605 84 605 129 Q605 209 475 351 Q436 390 393 427 L456 480 Q458 478 529 401 Q608 318 649.5 251.5 Q691 185 691 121 Q691 77 674.5 45 Q658 13 630.5 -3 Q603 -19 575 -26 Q547 -33 516 -33 Q441 -33 351 -17 ZM999 71 L924 30 Q901 106 852.5 199.5 Q804 293 754 350 L822 387 Q872 329 922.5 236.5 Q973 144 999 71 ZM326 289 L375 227 Q258 106 116 22 L67 90 Q130 124 206.5 183 Q283 242 326 289 Z" /><glyph glyph-name="cid01508" unicode="&#x3078;" d="M142 206 L66 285 Q97 307 139 351 Q163 375 197.5 417.5 Q232 460 276 515.5 Q320 571 338 593 Q383 646 424.5 650 Q466 654 518 604 Q548 573 619.5 489.5 Q691 406 722 372 Q865 215 975 116 L910 43 Q823 126 671 297 Q639 334 571.5 414 Q504 494 480 521 Q446 554 428 552.5 Q410 551 384 518 Q369 500 300 410 Q231 320 202 285 Q164 239 142 206 Z" /><glyph glyph-name="cid01509" unicode="&#x3079;" d="M663 666 L723 691 Q775 614 820 527 L759 501 Q707 607 663 666 ZM797 717 L855 743 Q915 663 955 583 L897 554 Q846 653 797 717 ZM141 187 L66 265 Q95 286 139 333 Q163 357 197 397.5 Q231 438 277 496.5 Q323 555 338 573 Q383 627 425 631 Q467 635 518 585 Q548 554 619.5 470 Q691 386 723 352 Q858 201 975 96 L910 24 Q828 102 670 280 Q641 313 573.5 395 Q506 477 480 504 Q447 537 428.5 535.5 Q410 534 384 501 Q364 475 296 388 Q228 301 201 267 Q189 252 168.5 223.5 Q148 195 141 187 Z" /><glyph glyph-name="cid01510" unicode="&#x307a;" d="M753.5 658.5 Q731 636 731 605 Q731 574 753.5 551.5 Q776 529 807 529 Q838 529 860 551.5 Q882 574 882 605 Q882 637 860 659 Q838 681 807 681 Q776 681 753.5 658.5 ZM719 517 Q683 553 683 605 Q683 657 719 693.5 Q755 730 807 730 Q859 730 896 693.5 Q933 657 933 605 Q933 553 896 517 Q859 481 807 481 Q755 481 719 517 ZM141 187 L66 265 Q95 286 139 333 Q163 357 197 397.5 Q231 438 277 496.5 Q323 555 338 573 Q383 627 425 631 Q467 635 518 585 Q548 554 619.5 470 Q691 386 723 352 Q858 201 975 96 L910 24 Q828 102 670 280 Q641 313 573.5 395 Q506 477 480 504 Q447 537 428.5 535.5 Q410 534 384 501 Q364 475 296 388 Q228 301 201 267 Q189 252 168.5 223.5 Q148 195 141 187 Z" /><glyph glyph-name="cid01511" unicode="&#x307b;" d="M116 782 L207 774 Q199 750 189 707 Q172 622 156 501 Q140 380 140 302 Q140 237 149 162 Q158 189 206 311 L249 278 Q187 100 177 53 Q172 31 172 8 L175 -27 L102 -33 Q64 106 64 289 Q64 416 110 710 Q116 758 116 782 ZM621 145 Q621 170 620 186 Q570 200 526 200 Q472 200 439.5 179.5 Q407 159 407 127 Q407 51 522 51 Q577 51 599 75.5 Q621 100 621 145 ZM872 512 L872 437 Q788 427 684 423 Q685 377 692 237 Q802 200 907 105 L864 34 Q787 114 696 158 Q697 141 697 112 Q697 50 653.5 15 Q610 -20 529 -20 Q442 -20 388 17 Q334 54 334 123 Q334 181 384 222 Q434 263 528 263 Q566 263 617 256 Q611 354 610 420 Q488 417 365 423 L365 498 Q478 490 609 493 L609 659 Q494 654 380 659 L380 732 Q615 715 848 748 L848 675 Q781 668 683 663 L683 496 Q769 501 872 512 Z" /><glyph glyph-name="cid01512" unicode="&#x307c;" d="M116 767 L208 759 Q196 726 190 692 Q172 609 156 487.5 Q140 366 140 288 Q140 211 149 147 Q162 183 206 297 L250 263 Q190 99 178 39 Q172 13 174 -6 Q174 -21 176 -41 L102 -47 Q64 92 64 274 Q64 401 110 695 Q116 743 116 767 ZM621 130 Q621 156 620 172 Q574 185 526 185 Q472 185 439.5 165 Q407 145 407 113 Q407 76 437.5 56.5 Q468 37 522 37 Q577 37 599 61.5 Q621 86 621 130 ZM872 498 L872 423 Q795 414 685 408 Q686 372 689 302.5 Q692 233 692 221 Q808 182 907 91 L864 19 Q787 99 696 143 Q697 126 697 97 Q697 34 653.5 -0.5 Q610 -35 529 -35 Q441 -35 387.5 2 Q334 39 334 109 Q334 167 384 207.5 Q434 248 528 248 Q566 248 617 241 Q611 338 610 406 Q474 403 365 408 L365 483 Q478 475 609 478 L609 644 Q493 641 382 645 L382 718 Q590 703 790 726 Q776 764 762 790 L811 805 Q856 709 871 663 L820 644 L814 663 L814 656 Q770 651 684 646 L684 481 Q748 485 872 498 ZM864 820 L914 838 Q949 769 976 694 L924 677 Q888 779 864 820 Z" /><glyph glyph-name="cid01513" unicode="&#x307d;" d="M116 767 L208 759 Q196 726 190 692 Q172 609 156 487.5 Q140 366 140 288 Q140 211 149 147 Q162 183 206 297 L250 263 Q190 99 178 39 Q172 13 174 -6 Q174 -21 176 -41 L102 -47 Q64 92 64 274 Q64 401 110 695 Q116 743 116 767 ZM879 834 Q853 834 835.5 816 Q818 798 818 772 Q818 746 835.5 728.5 Q853 711 879 711 Q905 711 923 728.5 Q941 746 941 772 Q941 798 922.5 816 Q904 834 879 834 ZM621 130 Q621 156 620 172 Q574 185 526 185 Q472 185 439.5 165 Q407 145 407 113 Q407 76 437.5 56.5 Q468 37 522 37 Q577 37 599 61.5 Q621 86 621 130 ZM805 695 L805 655 Q748 649 684 646 L684 481 Q748 485 872 498 L872 423 Q795 414 685 408 Q686 372 689 302.5 Q692 233 692 221 Q808 182 907 91 L864 19 Q787 99 696 143 Q697 126 697 97 Q697 34 653.5 -0.5 Q610 -35 529 -35 Q441 -35 387.5 2 Q334 39 334 109 Q334 167 384 207.5 Q434 248 528 248 Q566 248 617 241 Q611 338 610 406 Q474 403 365 408 L365 483 Q478 475 609 478 L609 643 Q511 640 382 645 L382 718 Q598 702 783 725 Q773 748 773 772 Q773 817 803.5 848.5 Q834 880 879 880 Q923 880 955 848 Q987 816 987 772 Q987 727 955.5 696.5 Q924 666 879 666 Q836 666 805 695 Z" /><glyph glyph-name="cid01514" unicode="&#x307e;" d="M390 119 Q390 126 389.5 149 Q389 172 389 187 Q336 197 291 197 Q221 197 181.5 173.5 Q142 150 142 114 Q142 77 176.5 54.5 Q211 32 283 32 Q390 32 390 119 ZM760 84 L714 12 Q599 117 469 165 Q471 113 471 101 Q471 42 427.5 0.5 Q384 -41 292 -41 Q183 -41 124 -2 Q65 37 65 110 Q65 180 128.5 222 Q192 264 301 264 Q344 264 386 258 Q382 345 381 393 L324 393 Q207 393 70 408 L70 485 Q179 466 324 466 L379 466 L379 480 L379 611 L329 611 Q227 611 90 627 L90 702 Q195 683 328 683 L380 683 L380 750 Q380 789 377 810 L464 810 Q461 790 459 742 Q458 730 458 686 Q574 690 718 711 L719 636 Q546 619 457 614 L457 480 L457 469 Q586 474 738 496 L739 419 Q594 401 458 395 Q459 367 461.5 314.5 Q464 262 465 242 Q616 200 760 84 Z" /><glyph glyph-name="cid01515" unicode="&#x307f;" d="M260 162 Q290 200 369 379 Q265 370 203 316 Q141 262 141 194 Q141 163 158 144.5 Q175 126 199 126 Q232 126 260 162 ZM955 252 L918 166 Q872 206 812 246 Q780 145 716.5 71.5 Q653 -2 545 -56 L477 0 Q684 87 743 287 Q598 366 454 378 Q359 162 326 114 Q276 43 198 43 Q141 43 103.5 81 Q66 119 66 182 Q66 295 160.5 371.5 Q255 448 403 452 Q413 474 451 559.5 Q489 645 508 682 Q486 680 402.5 676 Q319 672 298 671 Q255 669 224 664 L219 750 Q262 745 296 745 Q368 745 526 756 Q555 759 575 767 L627 725 Q606 702 600 691 Q587 671 570.5 636 Q554 601 525.5 536 Q497 471 486 447 Q623 433 761 367 Q765 394 769 442 Q773 493 770 536 L854 526 Q848 408 833 330 Q898 293 955 252 Z" /><glyph glyph-name="cid01516" unicode="&#x3080;" d="M144 296 Q144 256 165 232 Q186 208 215 208 Q256 208 276 249 Q296 290 296 348 Q296 383 279.5 404 Q263 425 237 425 Q199 425 171.5 388.5 Q144 352 144 296 ZM725 284 L813 256 Q814 177 813 146 Q810 75 780 38.5 Q750 2 681 -18 Q601 -38 471 -38 Q397 -38 349 -29.5 Q301 -21 277.5 -3.5 Q254 14 245.5 34.5 Q237 55 237 86 Q237 95 237.5 111.5 Q238 128 238 135 Q224 132 207 132 Q156 132 116 171.5 Q76 211 76 292 Q76 373 122.5 432.5 Q169 492 241 492 Q244 492 268 489 L268 590 Q256 589 232 589 Q142 589 70 599 L66 675 Q153 662 227 662 Q254 662 268 663 L268 713 Q268 778 261 809 L351 809 Q345 765 345 713 L345 669 Q437 678 538 705 L538 626 Q442 604 345 595 L345 442 Q370 403 370 352 Q370 240 317 180 Q315 136 315 116 Q315 85 324.5 70.5 Q334 56 369 47.5 Q404 39 476 39 Q587 39 648 56 Q690 68 711 94 Q732 120 732 169 Q732 236 725 284 ZM653 653 L706 708 Q750 678 812 620.5 Q874 563 908 520 L851 462 Q815 508 755.5 565 Q696 622 653 653 Z" /><glyph glyph-name="cid01517" unicode="&#x3081;" d="M391 329 Q401 311 411 295 Q479 408 529 577 Q414 571 313 507 Q355 388 391 329 ZM217 116 Q281 116 364 225 L340 264 Q301 326 249 459 Q199 412 170 348 Q141 284 141 224 Q141 173 161.5 144.5 Q182 116 217 116 ZM570 798 L659 790 Q656 778 650.5 749.5 Q645 721 642 711 Q640 703 625 642 Q749 621 824.5 532.5 Q900 444 900 315 Q900 167 802.5 75 Q705 -17 538 -40 L489 33 Q645 46 731.5 122.5 Q818 199 818 318 Q818 416 761 485 Q704 554 607 571 Q542 349 458 226 Q486 188 521 156 L457 103 Q428 135 409 161 Q306 35 208 35 Q147 35 106.5 83.5 Q66 132 66 219 Q66 304 109.5 389 Q153 474 223 532 Q201 596 192 626 Q176 679 159 717 L244 743 Q247 726 265 654 Q269 639 288 577 Q407 646 548 648 Q561 700 564 721 Q572 759 570 798 Z" /><glyph glyph-name="cid01518" unicode="&#x3082;" d="M660 417 L751 435 Q856 320 856 201 Q856 89 764 23.5 Q672 -42 520 -42 Q407 -42 338.5 12.5 Q270 67 270 184 Q270 224 278 301 Q154 311 67 338 L71 416 Q162 384 285 375 Q289 404 297 466 Q305 528 308 557 Q192 567 92 592 L96 668 Q192 638 317 631 Q325 700 328 736 Q331 777 329 807 L422 802 Q412 762 408 731 Q407 719 402.5 684.5 Q398 650 395 628 Q511 628 600 640 L598 563 Q490 553 392 553 L385 553 Q374 475 362 372 L382 372 Q498 372 593 384 L591 306 Q504 297 392 297 L355 297 Q349 237 349 197 Q349 123 392 81 Q435 39 520 39 Q636 39 704 85 Q772 131 772 210 Q772 324 660 417 Z" /><glyph glyph-name="cid01519" unicode="&#x3083;" d="M535 553 L477 509 Q428 561 368 605 L424 648 Q485 607 535 553 ZM153 542 L234 573 Q245 547 259 525 Q288 472 308 428 Q514 518 609 518 Q703 518 753 470.5 Q803 423 803 354 Q803 272 752 225 Q701 178 600 178 Q542 178 474 203 L477 279 Q539 250 596 250 Q664 250 695 279.5 Q726 309 726 354 Q726 391 696.5 418.5 Q667 446 605 446 Q516 446 339 365 Q344 353 356 327.5 Q368 302 373 290 Q419 185 496 -52 L415 -74 Q356 135 302 259 L270 333 Q244 320 207 301.5 Q170 283 145.5 271.5 Q121 260 106 253 L67 333 Q97 340 139 354 Q153 359 239 398 Q211 458 194 483 Q173 521 153 542 Z" /><glyph glyph-name="cid01520" unicode="&#x3084;" d="M610 709 L551 663 Q474 740 419 780 L478 823 Q565 757 610 709 ZM163 702 L247 735 Q263 703 283 669 Q331 573 341 552 Q585 660 706 660 Q809 660 870.5 607 Q932 554 932 469 Q932 377 872.5 320 Q813 263 698 263 Q626 263 547 292 L550 374 Q622 340 693 340 Q772 340 811 377 Q850 414 850 472 Q850 521 811.5 554.5 Q773 588 702 588 Q596 588 373 485 L412 401 Q481 245 565 -25 L477 -48 Q408 211 339 368 Q332 385 318 414.5 Q304 444 301 452 Q276 440 204 403.5 Q132 367 106 356 L67 440 Q105 450 151 468 Q166 474 184.5 482 Q203 490 228.5 501 Q254 512 269 519 Q242 580 212 631 Q195 662 163 702 Z" /><glyph glyph-name="cid01521" unicode="&#x3085;" d="M469 127 Q563 127 611 175 Q659 223 659 302 Q659 371 617.5 415 Q576 459 489 463 Q495 400 495 331 Q495 215 469 127 ZM386 627 L467 629 Q480 551 482 531 Q602 530 667.5 466 Q733 402 733 304 Q733 194 665.5 122.5 Q598 51 469 51 Q459 51 441 53 Q397 -30 321 -80 L250 -38 Q324 4 365 73 Q277 113 233 203 L275 262 Q322 168 396 140 Q422 218 422 335 Q422 400 417 458 Q315 440 245 366.5 Q175 293 156 205 Q149 172 150 154 Q152 110 162 72 L92 61 Q64 156 64 278 Q64 377 86 546 Q88 576 87 587 L172 580 Q168 568 161 540 Q132 406 135 302 Q172 390 246 448 Q320 506 410 524 Q405 560 401 580 Q395 603 386 627 Z" /><glyph glyph-name="cid01522" unicode="&#x3086;" d="M535 184 L540 184 Q646 184 709.5 241.5 Q773 299 773 398 Q773 485 718 542 Q663 599 558 602 Q565 511 565 438 Q565 289 535 184 ZM445 807 L530 809 Q543 751 551 673 Q689 673 770.5 595.5 Q852 518 852 401 Q852 271 771.5 188.5 Q691 106 540 106 L507 109 Q456 3 361 -59 L285 -14 Q378 36 427 128 Q315 172 260 285 L308 342 Q362 230 456 198 Q488 293 488 438 Q488 500 482 596 Q399 581 329.5 529.5 Q260 478 220 414.5 Q180 351 164 283 Q155 249 156 220 Q158 180 170 125 L98 114 Q65 230 65 376 Q65 416 68.5 466.5 Q72 517 76 551.5 Q80 586 85.5 631.5 Q91 677 92 686 Q94 721 93 733 L181 726 Q171 692 168 678 Q132 494 140 383 Q182 494 272.5 569.5 Q363 645 475 666 Q470 709 462 744 Q455 782 445 807 Z" /><glyph glyph-name="cid01523" unicode="&#x3087;" d="M345 89 Q345 122 344 144 Q302 151 274 151 Q211 151 174.5 132.5 Q138 114 138 79 Q138 49 171 29.5 Q204 10 261 10 Q302 10 323.5 31 Q345 52 345 89 ZM411 411 L411 384 Q411 353 418 197 Q558 159 675 52 L632 -18 Q538 78 422 122 Q422 110 422.5 91 Q423 72 423 65 Q423 11 385.5 -24.5 Q348 -60 269 -60 Q177 -60 121.5 -24.5 Q66 11 66 76 Q66 141 122.5 178.5 Q179 216 282 216 Q316 216 341 212 Q335 334 335 389 L335 551 Q335 610 328 635 L417 635 Q411 605 411 552 L411 480 Q556 484 663 496 L664 424 Q553 413 411 411 Z" /><glyph glyph-name="cid01524" unicode="&#x3088;" d="M411 139 Q411 146 410.5 167.5 Q410 189 410 203 Q363 213 311 213 Q234 213 190.5 188.5 Q147 164 147 122 Q147 80 187.5 57.5 Q228 35 301 35 Q411 35 411 139 ZM480 522 L480 515 Q480 438 490 262 Q669 213 805 89 L756 13 Q644 127 493 180 Q495 126 495 113 Q495 45 449.5 1.5 Q404 -42 309 -42 Q198 -42 132 -3 Q66 36 66 119 Q66 192 131 239 Q196 286 321 286 Q363 286 407 280 Q399 444 399 515 Q399 657 398 700 Q396 772 390 801 L488 801 Q482 769 480 700 L480 597 Q672 602 780 616 L783 539 Q633 526 480 522 Z" /><glyph glyph-name="cid01525" unicode="&#x3089;" d="M206 722 L227 800 Q291 779 420.5 753.5 Q550 728 619 722 L600 642 Q529 652 397 678.5 Q265 705 206 722 ZM118 627 L205 615 Q199 584 165 333 Q304 455 492 455 Q607 455 679 394.5 Q751 334 751 243 Q751 98 617.5 22 Q484 -54 214 -31 L189 53 Q419 25 542 80.5 Q665 136 665 245 Q665 305 615 343.5 Q565 382 487 382 Q288 382 174 248 Q155 225 143 197 L66 215 Q81 282 97 413.5 Q113 545 118 627 Z" /><glyph glyph-name="cid01526" unicode="&#x308a;" d="M103 808 L193 805 Q160 694 146 523 Q180 611 256 682.5 Q332 754 421 754 Q524 754 588.5 659 Q653 564 653 406 Q653 206 540 98.5 Q427 -9 224 -46 L176 28 Q265 42 331.5 66 Q398 90 453.5 132.5 Q509 175 538.5 243 Q568 311 568 404 Q568 529 526.5 604 Q485 679 407 679 Q347 679 288.5 627 Q230 575 194 502.5 Q158 430 152 362 Q145 305 154 239 L74 232 Q64 308 64 393 Q64 509 95 721 Q102 774 103 808 Z" /><glyph glyph-name="cid01527" unicode="&#x308b;" d="M461 34 Q504 34 542 40 Q535 101 500 138 Q465 175 408 175 Q374 175 350.5 157 Q327 139 327 113 Q327 76 364.5 55 Q402 34 461 34 ZM670 770 L717 711 Q686 690 661 672 Q639 655 594 617 Q549 579 482.5 522.5 Q416 466 396 449 Q460 470 534 470 Q660 470 742 401.5 Q824 333 824 230 Q824 107 729 33.5 Q634 -40 474 -40 Q372 -40 311.5 0.5 Q251 41 251 105 Q251 159 295.5 199 Q340 239 408 239 Q498 239 552 187 Q606 135 617 59 Q743 108 743 231 Q743 305 677 354 Q611 403 514 403 Q433 403 366 378.5 Q299 354 248 314.5 Q197 275 126 202 L67 262 Q163 342 340 489 Q516 637 573 688 Q390 681 267 674 Q222 672 199 668 L197 753 Q220 750 268 750 Q313 750 445.5 754.5 Q578 759 615 762 Q656 766 670 770 Z" /><glyph glyph-name="cid01528" unicode="&#x308c;" d="M987 170 L1000 82 Q917 -3 814 -3 Q763 -3 732 30.5 Q701 64 701 126 Q701 184 720 320.5 Q739 457 739 504 Q739 587 658 587 Q600 587 518.5 530.5 Q437 474 360 391 Q357 326 357 272 Q357 119 361 28 Q363 -8 366 -34 L277 -34 Q280 8 280 27 Q282 244 283 287 Q283 291 283.5 304.5 Q284 318 284 326 Q197 193 120 86 L68 157 Q217 346 293 465 Q295 498 299 562 Q291 561 101 537 L93 622 Q128 620 160 623 Q226 627 304 639 Q309 719 309 734 Q309 789 305 810 L402 807 Q392 759 382 654 L387 656 L417 621 Q393 585 372 550 L366 493 Q439 561 524 612 Q609 663 677 663 Q747 663 783.5 626.5 Q820 590 820 526 Q820 476 801 337 Q782 198 782 147 Q782 86 834 86 Q910 86 987 170 Z" /><glyph glyph-name="cid01529" unicode="&#x308d;" d="M200 662 L197 746 Q224 743 265 743 Q432 743 595 753 Q630 755 651 762 L700 701 Q688 696 656 673 Q491 547 383 452 Q451 480 536 480 Q660 480 739.5 415 Q819 350 819 246 Q819 98 681.5 21.5 Q544 -55 311 -36 L287 47 Q485 23 609.5 77.5 Q734 132 734 247 Q734 320 675.5 365.5 Q617 411 520 411 Q454 411 398 395 Q342 379 292 344 Q242 309 209 278.5 Q176 248 125 195 L66 258 Q149 336 341.5 501.5 Q534 667 550 682 Q536 681 417 676 Q298 671 269 669 Q216 664 200 662 Z" /><glyph glyph-name="cid01530" unicode="&#x308e;" d="M336 525 L364 495 Q363 494 348.5 471.5 Q334 449 326 436 Q325 430 324 416 Q323 402 323 396 Q448 499 575 499 Q673 499 738.5 439 Q804 379 804 285 Q804 40 495 -15 L459 56 Q584 72 656.5 129.5 Q729 187 729 287 Q729 341 687 386 Q645 431 566 431 Q444 431 317 316 Q315 268 315 249 Q315 114 320 16 Q321 9 323 -8.5 Q325 -26 325 -33 L244 -33 Q247 0 247 14 Q247 202 249 263 Q236 243 207 198.5 Q178 154 154.5 118.5 Q131 83 114 59 L68 122 Q149 220 254 377 Q255 389 256.5 413 Q258 437 259 449 Q176 436 93 421 L86 493 Q119 493 136 494 Q177 497 264 510 Q271 593 271 598 Q273 629 270 658 L356 657 Q346 611 336 525 Z" /><glyph glyph-name="cid01531" unicode="&#x308f;" d="M387 656 L417 621 Q393 585 372 550 Q371 540 366 485 Q521 611 688 611 Q798 611 876 540.5 Q954 470 955 355 Q956 208 858.5 121 Q761 34 586 1 L549 78 Q617 88 672.5 108.5 Q728 129 774.5 161.5 Q821 194 846.5 244 Q872 294 872 357 Q872 424 821 480.5 Q770 537 677 537 Q514 537 360 391 Q357 328 357 272 Q357 119 361 28 Q363 -8 366 -34 L277 -34 Q280 8 280 27 Q282 244 283 287 Q283 291 283.5 304.5 Q284 318 284 326 Q197 193 120 86 L68 157 Q217 346 293 465 Q295 498 299 562 Q291 561 101 537 L93 622 Q128 620 160 623 Q226 627 304 639 Q309 719 309 734 Q309 789 305 810 L402 807 Q392 759 382 654 L387 656 Z" /><glyph glyph-name="cid01532" unicode="&#x3090;" d="M575 33 Q628 33 674 52 Q660 106 629.5 135 Q599 164 554 164 Q520 164 497.5 147 Q475 130 475 102 Q475 70 503 51.5 Q531 33 575 33 ZM372 376 Q401 456 408 478 Q291 436 215.5 338 Q140 240 140 156 Q140 127 153 110 Q166 93 185 93 Q218 93 245 121 Q302 187 372 376 ZM550 690 L513 571 Q539 573 553 573 Q701 573 789.5 485.5 Q878 398 878 263 Q878 136 803 49 Q728 -38 581 -38 Q502 -38 454.5 -2 Q407 34 407 96 Q407 152 449 188.5 Q491 225 552 225 Q622 225 668 188 Q714 151 734 92 Q798 156 798 264 Q798 368 732 436 Q666 504 551 504 Q528 504 490 500 Q465 421 433 331 Q363 130 293 55 Q248 6 177 6 Q132 6 99 41 Q66 76 66 138 Q66 274 172 396.5 Q278 519 434 558 Q465 666 473 701 Q281 691 192 682 L188 765 Q230 761 254 762 Q368 762 464 770 Q498 773 522 782 L575 742 Q558 716 550 690 Z" /><glyph glyph-name="cid01533" unicode="&#x3091;" d="M456 424 Q425 424 401 411.5 Q377 399 377 375 Q377 326 470 315 Q531 342 531 379 Q531 401 510 412.5 Q489 424 456 424 ZM693 791 L739 732 Q672 709 493 607 Q543 617 597 617 Q697 616 765 569 Q833 522 833 445 Q833 350 746 298.5 Q659 247 531 247 Q489 247 451 253 Q405 219 346 171 Q456 185 507 69 Q538 124 591.5 160 Q645 196 704 196 Q785 196 848.5 139.5 Q912 83 953 -12 L871 -45 Q811 126 698 126 Q653 126 613 93 Q573 60 553 7 Q551 2 544 -36 L462 -35 Q460 -8 455 8 Q422 115 335 115 Q286 115 240 73 Q194 31 140 -43 L68 -1 Q136 71 220.5 150 Q305 229 371 279 Q310 313 310 369 Q310 417 355.5 446 Q401 475 462 475 Q525 475 563.5 448.5 Q602 422 602 379 Q602 344 570 314 Q648 321 701 356 Q754 391 754 443 Q754 497 701 530 Q648 563 572 563 Q464 563 389 529 Q312 494 185 396 L135 456 Q256 540 563 716 Q356 711 259 702 L256 774 Q307 771 326 771 Q493 771 626 779 Q668 782 693 791 Z" /><glyph glyph-name="cid01534" unicode="&#x3092;" d="M573 138 L494 138 Q498 190 498 296 Q421 254 380 213.5 Q339 173 339 126 Q339 97 352 78 Q365 59 392 50 Q419 41 448.5 38 Q478 35 522 35 Q656 35 798 59 L796 -24 Q659 -40 519 -40 Q397 -40 327 -5.5 Q257 29 257 115 Q257 158 276.5 196.5 Q296 235 333 267 Q370 299 407 322 Q444 345 495 372 Q480 434 404 434 Q313 434 229 359 Q220 351 137 253 L67 305 Q229 462 301 614 L259 614 Q188 614 92 621 L92 697 Q182 687 263 687 Q305 687 329 688 Q352 762 355 814 L439 807 Q421 734 408 690 Q584 699 719 721 L718 645 Q570 623 382 616 Q342 526 291 461 Q350 499 431 499 Q482 499 518 475 Q554 451 565 407 Q602 424 663.5 450 Q725 476 749 488 Q758 492 833 528 L866 452 Q856 449 777 420 Q640 365 570 332 Q570 308 571 236.5 Q572 165 573 138 Z" /><glyph glyph-name="cid01535" unicode="&#x3093;" d="M463 807 L554 770 Q542 755 522 721 Q454 615 326 374 Q394 435 474 435 Q526 435 559 402.5 Q592 370 594 311 Q595 291 595.5 221.5 Q596 152 598 124 Q600 88 622 70 Q644 52 679 52 Q732 52 776.5 93 Q821 134 845.5 186 Q870 238 885 299 L953 245 Q863 -33 666 -33 Q592 -33 557 5.5 Q522 44 519 96 Q517 128 516 196.5 Q515 265 514 289 Q511 359 441 359 Q384 359 330.5 311.5 Q277 264 244 198 Q222 156 195 82 Q168 8 157 -33 L68 -3 Q117 131 238 370.5 Q359 610 426 728 Q430 737 443 763.5 Q456 790 463 807 Z" /><glyph glyph-name="cid01541" unicode="&#x309b;" d="M14 786 L72 810 Q104 765 171 645 L112 620 Q54 732 14 786 ZM142 836 L201 860 Q232 816 301 695 L242 671 Q175 794 142 836 Z" /><glyph glyph-name="cid01542" unicode="&#x309c;" d="M60.5 641 Q27 675 27 724 Q27 773 60.5 807.5 Q94 842 143 842 Q192 842 226 808 Q260 774 260 724 Q260 675 226 641 Q192 607 143 607 Q94 607 60.5 641 ZM71 724 Q71 696 92.5 674 Q114 652 143 652 Q172 652 193.5 673.5 Q215 695 215 724 Q215 753 193.5 774.5 Q172 796 143 796 Q114 796 92.5 774.5 Q71 753 71 724 Z" /><glyph glyph-name="cid01543" unicode="&#x309d;" d="M503 253 L480 187 Q352 142 169 68 L129 144 Q144 150 252 192.5 Q360 235 393 248 Q351 311 251 419.5 Q151 528 67 603 L136 655 Q230 569 339.5 448 Q449 327 503 253 Z" /><glyph glyph-name="cid01544" unicode="&#x309e;" d="M314 693 L372 718 Q396 685 466 563 L406 537 Q346 649 314 693 ZM447 736 L505 761 Q539 714 599 607 L540 581 Q477 696 447 736 ZM503 232 L482 167 Q391 137 170 47 L130 124 Q151 132 256 173 Q361 214 393 227 Q352 290 252 398.5 Q152 507 68 584 L137 635 Q230 550 339 428.5 Q448 307 503 232 Z" /><glyph glyph-name="cid01547" unicode="&#x30a1;" d="M338 412 L427 412 Q426 338 422 287.5 Q418 237 404 179.5 Q390 122 365 80.5 Q340 39 295.5 -3.5 Q251 -46 188 -81 L115 -24 Q154 -11 186 11 Q281 75 312.5 155 Q344 235 344 351 Q344 372 338 412 ZM725 560 L771 517 Q758 502 750 489 Q644 320 542 250 L476 296 Q526 326 575.5 380.5 Q625 435 652 480 L163 481 Q109 481 66 477 L66 562 Q117 555 163 555 L668 555 Q703 555 725 560 Z" /><glyph glyph-name="cid01548" unicode="&#x30a2;" d="M391 557 L483 557 Q483 479 480 424.5 Q477 370 467 309 Q457 248 437.5 203 Q418 158 387 113 Q356 68 308.5 31 Q261 -6 197 -38 L122 24 Q166 38 213 69 Q322 136 358.5 235 Q395 334 395 483 Q395 521 391 557 ZM841 740 L891 692 Q889 689 878.5 675 Q868 661 864 655 Q825 589 756.5 508.5 Q688 428 609 373 L541 427 Q607 466 672 535 Q737 604 764 656 L182 656 Q126 656 65 650 L65 742 Q137 734 182 734 L769 734 Q811 734 841 740 Z" /><glyph glyph-name="cid01549" unicode="&#x30a3;" d="M687 617 L751 557 Q714 517 650 465.5 Q586 414 518 372 L518 9 Q518 -60 523 -79 L429 -79 Q433 -49 433 9 L433 323 Q267 235 112 191 L68 266 Q247 306 423 407 Q502 452 575.5 510.5 Q649 569 687 617 Z" /><glyph glyph-name="cid01550" unicode="&#x30a4;" d="M794 800 L862 738 Q738 613 587 516 L587 78 Q587 -2 593 -32 L493 -32 Q499 6 499 78 L499 465 Q316 365 114 305 L67 385 Q190 414 312.5 465.5 Q435 517 525 573 Q605 623 678.5 684.5 Q752 746 794 800 Z" /><glyph glyph-name="cid01551" unicode="&#x30a5;" d="M670 508 L724 477 Q717 455 713 425 Q705 369 683 295.5 Q661 222 631 169 Q585 86 494 21.5 Q403 -43 277 -76 L213 -4 Q258 2 310 20 Q476 81 547 194 Q612 296 624 428 L147 428 L147 282 Q147 256 151 232 L67 232 Q70 274 70 286 L70 434 Q70 470 66 506 Q102 503 152 503 L339 503 L339 575 Q339 605 334 636 L425 636 Q420 605 420 575 L420 503 L612 503 Q653 503 670 508 Z" /><glyph glyph-name="cid01552" unicode="&#x30a6;" d="M774 656 L829 622 Q824 606 814 560 Q785 375 713 253 Q655 151 551 75.5 Q447 0 308 -38 L241 39 Q286 45 348 68 Q428 94 504 148.5 Q580 203 625 273 Q664 335 690 417.5 Q716 500 723 572 L150 572 L150 389 Q150 349 154 329 L65 329 Q68 354 68 393 L68 573 Q68 629 65 652 Q105 648 160 648 L387 648 L387 743 Q387 780 382 820 L480 820 Q474 782 474 743 L474 648 L703 648 Q753 648 774 656 Z" /><glyph glyph-name="cid01553" unicode="&#x30a7;" d="M459 74 L707 74 Q742 74 775 79 L775 -7 Q745 -4 707 -4 L140 -4 Q104 -4 67 -7 L67 79 Q107 74 140 74 L376 74 L376 451 L188 451 Q161 451 117 447 L117 529 Q146 525 188 525 L659 525 Q687 525 731 529 L731 447 Q685 451 659 451 L459 451 L459 74 Z" /><glyph glyph-name="cid01554" unicode="&#x30a8;" d="M533 128 L834 128 Q865 128 919 134 L919 41 Q891 45 834 45 L157 45 Q110 45 67 41 L67 134 Q113 128 157 128 L446 128 L446 599 L215 599 Q164 599 129 595 L129 685 Q169 679 215 679 L779 679 Q816 679 866 685 L866 595 Q831 599 779 599 L533 599 L533 128 Z" /><glyph glyph-name="cid01555" unicode="&#x30a9;" d="M554 474 L701 474 Q742 474 770 478 L770 397 Q716 400 703 400 L555 400 Q561 25 561 7 Q562 -25 540.5 -44 Q519 -63 484 -63 Q458 -63 335 -57 L331 17 Q393 8 456 8 Q484 8 484 38 Q484 162 481 326 Q427 250 326.5 164 Q226 78 125 24 L67 87 Q179 141 285.5 230 Q392 319 446 400 L173 400 Q133 400 95 397 L95 478 Q127 474 171 474 L479 474 Q477 531 476 557 Q476 586 469 626 L556 626 Q552 597 552 557 L554 474 Z" /><glyph glyph-name="cid01556" unicode="&#x30aa;" d="M651 616 L812 616 Q852 616 899 623 L899 537 Q851 539 815 539 L652 539 Q657 264 659 53 Q659 -29 566 -29 Q477 -29 402 -23 L395 61 Q469 49 539 49 Q561 49 569 58.5 Q577 68 577 90 Q577 256 574 462 Q506 366 381.5 257 Q257 148 126 78 L68 144 Q215 216 343.5 327.5 Q472 439 538 539 L200 539 Q153 539 105 536 L105 623 Q157 616 199 616 L572 616 Q570 684 569 716 Q564 784 560 802 L655 802 Q649 758 649 716 L651 616 Z" /><glyph glyph-name="cid01557" unicode="&#x30ab;" d="M772 622 L830 593 Q824 559 824 543 Q808 146 762 48 Q734 -13 652 -13 Q594 -13 488 -7 L477 78 Q563 67 630 67 Q675 67 689 100 Q715 152 728 290.5 Q741 429 741 540 L455 540 Q428 328 351.5 196.5 Q275 65 140 -28 L67 33 Q123 63 171 109 Q337 260 374 540 L202 540 Q120 540 84 536 L84 623 Q147 616 201 616 L381 616 Q385 682 385 721 Q385 762 378 806 L474 806 Q470 775 468 722 Q467 683 463 616 L707 616 Q738 616 772 622 Z" /><glyph glyph-name="cid01558" unicode="&#x30ac;" d="M464 605 L708 605 Q746 605 774 610 L831 582 Q826 554 826 531 Q810 137 763 37 Q734 -26 654 -26 Q595 -26 489 -18 L479 67 Q573 55 631 55 Q676 55 691 88 Q717 141 730 279 Q743 417 743 528 L456 528 Q429 316 353 185 Q277 54 142 -39 L68 22 Q129 54 173 97 Q337 245 375 528 L203 528 Q122 528 86 524 L86 610 Q146 605 202 605 L383 605 Q387 671 387 709 Q387 746 379 794 L476 794 Q472 764 470 711 Q470 704 464 605 ZM693 779 L747 803 Q785 750 831 663 L776 638 Q737 717 693 779 ZM805 820 L860 844 Q917 763 945 705 L890 680 Q843 771 805 820 Z" /><glyph glyph-name="cid01559" unicode="&#x30ad;" d="M858 410 L876 324 Q866 323 783 310 Q578 277 531 270 Q548 185 573 65 Q586 11 598 -29 L505 -46 Q494 34 490 50 Q488 59 482.5 88.5 Q477 118 467.5 166 Q458 214 450 257 Q285 230 174 210 Q134 204 84 191 L66 281 Q107 283 156 290 Q179 293 220.5 299.5 Q262 306 327 316 Q392 326 435 333 L394 539 Q258 518 169 502 Q136 497 86 484 L69 577 Q109 579 154 584 Q210 590 379 616 Q359 716 357 724 Q351 757 338 794 L430 810 Q430 807 439 739 Q446 699 461 629 Q621 655 697 669 Q732 675 770 686 L787 600 Q732 593 714 590 Q693 587 610.5 573.5 Q528 560 475 552 L516 346 Q643 367 769 389 Q817 399 858 410 Z" /><glyph glyph-name="cid01560" unicode="&#x30ae;" d="M830 691 L775 667 Q734 751 692 808 L746 831 Q788 771 830 691 ZM478 534 L518 329 Q662 353 771 372 Q820 381 861 392 L878 306 Q846 303 786 292 Q781 291 533 252 Q567 85 575 47 Q587 -6 601 -47 L506 -65 Q494 19 491 32 Q489 42 484 70 Q479 98 469 149 Q459 200 452 239 Q311 217 176 193 Q133 185 86 173 L67 263 Q107 265 157 272 Q162 273 437 315 L397 521 Q272 502 171 484 Q148 480 89 467 L70 558 Q128 562 155 565 Q196 569 381 598 Q360 703 359 707 Q353 738 341 776 L432 792 Q436 755 442 721 Q443 710 462 610 Q589 630 699 651 Q736 657 773 668 L789 582 Q782 582 770.5 580 Q759 578 742 575 Q725 572 715 571 L478 534 ZM804 850 L859 872 Q911 800 945 733 L889 709 Q845 794 804 850 Z" /><glyph glyph-name="cid01561" unicode="&#x30af;" d="M791 681 L860 640 Q846 616 835 586 Q780 387 654 233 Q580 143 483 74.5 Q386 6 247 -45 L173 22 Q425 96 581 279 Q639 347 683.5 436.5 Q728 526 744 598 L398 598 Q292 448 139 346 L68 399 Q187 470 268 564.5 Q349 659 390 745 Q411 778 422 826 L517 795 Q493 757 471 715 Q462 696 446 672 L725 672 Q767 672 791 681 Z" /><glyph glyph-name="cid01562" unicode="&#x30b0;" d="M447 647 L725 647 Q767 647 791 656 L859 615 Q843 587 835 561 Q812 477 765 382 Q718 287 654 208 Q506 27 247 -71 L172 -3 Q427 72 581 254 Q639 321 683.5 410.5 Q728 500 744 573 L399 573 Q291 422 139 322 L68 374 Q186 445 266.5 539 Q347 633 390 720 Q413 761 422 802 L516 770 Q507 755 471 690 Q467 682 447 647 ZM737 796 L791 819 Q833 759 875 679 L820 654 Q778 741 737 796 ZM850 837 L904 860 Q961 779 989 721 L935 696 Q886 790 850 837 Z" /><glyph glyph-name="cid01563" unicode="&#x30b1;" d="M357 616 L841 616 Q892 616 937 622 L937 534 Q888 537 841 537 L668 537 Q660 394 619.5 282 Q579 170 515.5 94.5 Q452 19 360 -40 L273 19 Q315 35 356 67 Q565 226 582 537 L319 537 Q286 476 238.5 414 Q191 352 148 317 L68 366 Q118 402 168 465.5 Q218 529 250 586 Q285 648 308 729 Q322 778 324 811 L422 792 Q402 738 396 720 Q381 676 357 616 Z" /><glyph glyph-name="cid01564" unicode="&#x30b2;" d="M877 669 L822 644 Q783 723 739 785 L793 809 Q831 756 877 669 ZM357 596 L840 596 Q899 596 937 601 L937 513 Q889 516 840 516 L667 516 Q656 305 577.5 167 Q499 29 360 -60 L273 -1 Q316 15 356 46 Q564 204 582 516 L319 516 Q287 457 239.5 395 Q192 333 149 297 L68 345 Q118 381 167.5 444 Q217 507 251 565 Q285 626 308 709 Q321 754 323 791 L423 771 L396 699 Q377 643 357 596 ZM852 826 L906 850 Q962 772 992 711 L937 686 Q887 782 852 826 Z" /><glyph glyph-name="cid01565" unicode="&#x30b3;" d="M771 -9 L679 -9 Q679 -4 679.5 4.5 Q680 13 680.5 25.5 Q681 38 681 48 L181 48 Q121 48 65 44 L65 136 Q132 131 178 131 L681 131 L681 614 L191 614 Q153 614 78 611 L78 702 Q129 696 190 696 L695 696 Q730 696 770 698 Q767 626 767 618 L767 90 Q767 55 771 -9 Z" /><glyph glyph-name="cid01566" unicode="&#x30b4;" d="M758 709 L701 683 Q669 752 619 821 L676 845 Q725 774 758 709 ZM769 588 L769 59 Q769 24 773 -40 L681 -40 Q681 -33 683 17 L182 17 Q122 17 66 13 L66 106 Q120 100 180 100 L683 100 L683 584 L192 584 Q152 584 80 581 L80 672 Q131 666 191 666 L695 666 Q733 666 771 668 Q769 620 769 588 ZM748 851 L805 874 Q842 822 889 739 L831 714 Q775 816 748 851 Z" /><glyph glyph-name="cid01567" unicode="&#x30b5;" d="M734 585 L847 585 Q907 585 940 590 L940 504 Q910 507 847 507 L734 507 L734 471 Q734 259 672.5 144 Q611 29 441 -47 L373 17 Q448 46 496 77.5 Q544 109 581.5 159.5 Q619 210 635.5 284 Q652 358 652 464 L652 507 L361 507 L361 341 Q361 288 365 248 L275 248 Q279 288 279 341 L279 507 L169 507 Q114 507 66 503 L66 592 Q97 585 169 585 L279 585 L279 716 Q279 751 275 791 L366 791 Q361 741 361 716 L361 585 L652 585 L652 713 Q652 772 647 797 L739 797 Q734 747 734 713 L734 585 Z" /><glyph glyph-name="cid01568" unicode="&#x30b6;" d="M892 639 L841 622 Q813 705 783 766 L832 781 Q876 690 892 639 ZM735 566 L846 566 Q913 566 941 572 L941 485 Q908 488 847 488 L735 488 L735 453 Q735 242 673.5 126 Q612 10 442 -66 L373 0 Q448 29 496 60 Q544 91 581.5 141 Q619 191 635.5 265 Q652 339 652 445 L652 488 L361 488 L361 323 Q361 266 365 230 L274 230 Q279 275 279 323 L279 488 L169 488 Q142 488 104.5 486.5 Q67 485 66 485 L66 573 Q98 566 169 566 L279 566 L279 697 Q279 750 274 772 L365 772 Q361 736 361 698 L361 566 L652 566 L652 694 Q652 738 648 778 L740 778 Q735 728 735 694 L735 566 ZM884 797 L934 812 Q974 734 995 671 L945 654 Q915 738 884 797 Z" /><glyph glyph-name="cid01569" unicode="&#x30b7;" d="M220 718 L266 786 Q389 716 488 642 L440 572 Q337 650 220 718 ZM160 -29 L113 55 Q304 87 456 174 Q582 246 681.5 343 Q781 440 844 549 L893 465 Q826 361 724 265.5 Q622 170 500 98 Q426 56 331 21 Q236 -14 160 -29 ZM67 486 L112 556 Q252 480 337 418 L290 346 Q183 425 67 486 Z" /><glyph glyph-name="cid01570" unicode="&#x30b8;" d="M649 739 L705 764 Q759 688 800 605 L742 579 Q695 677 649 739 ZM782 788 L839 813 Q881 759 938 656 L879 630 Q833 720 782 788 ZM222 711 L268 779 Q377 717 490 635 L442 564 Q352 634 222 711 ZM161 -36 L114 47 Q302 79 457 166 Q712 312 845 542 L895 457 Q828 354 725 258.5 Q622 163 500 91 Q428 48 333 13.5 Q238 -21 161 -36 ZM67 479 L113 549 Q254 471 339 411 L291 339 Q250 369 180.5 412.5 Q111 456 67 479 Z" /><glyph glyph-name="cid01571" unicode="&#x30b9;" d="M733 725 L785 685 Q772 667 760 640 Q694 473 588 340 Q663 276 746 190 Q829 104 887 35 L815 -28 Q689 137 533 276 Q343 72 134 -23 L68 46 Q186 92 296 173.5 Q406 255 490 350 Q543 410 592 491.5 Q641 573 660 635 L261 635 Q212 635 157 630 L157 723 Q206 716 261 716 L656 716 Q704 716 733 725 Z" /><glyph glyph-name="cid01572" unicode="&#x30ba;" d="M844 693 L789 669 Q751 748 707 810 L761 834 Q813 757 844 693 ZM732 707 L785 667 Q770 647 759 623 Q693 456 587 322 Q736 195 886 16 L814 -46 Q691 116 533 259 Q346 57 133 -40 L68 28 Q186 74 296 155.5 Q406 237 490 332 Q543 392 592 473 Q641 554 660 617 L260 617 Q212 617 157 612 L157 705 Q206 698 260 698 L656 698 Q703 698 732 707 ZM824 846 L877 869 Q928 799 963 730 L908 706 Q861 795 824 846 Z" /><glyph glyph-name="cid01573" unicode="&#x30bb;" d="M678 250 L606 293 Q659 341 709.5 412 Q760 483 788 537 Q781 535 727 524 Q673 513 571.5 492.5 Q470 472 401 458 L401 154 Q401 99 430.5 79.5 Q460 60 550 60 Q708 60 869 90 L865 2 Q713 -18 544 -18 Q451 -18 401 -0.5 Q351 17 334.5 47.5 Q318 78 318 132 L318 441 Q216 421 83 392 L66 478 Q108 484 318 522 L318 697 Q318 750 311 792 L408 792 Q401 750 401 697 L401 538 Q695 596 798 617 Q832 624 852 636 L912 589 Q899 571 887 548 Q782 357 678 250 Z" /><glyph glyph-name="cid01574" unicode="&#x30bc;" d="M883 675 L828 650 Q788 732 745 792 L799 815 Q837 762 883 675 ZM401 679 L401 519 Q706 579 798 600 Q840 609 853 618 L913 571 Q888 532 887 530 Q780 336 677 232 L607 274 Q660 322 710.5 393 Q761 464 789 518 Q742 510 401 440 L401 135 Q401 81 430.5 61.5 Q460 42 550 42 Q712 42 869 73 L866 -15 Q712 -37 544 -37 Q451 -37 401 -19 Q351 -1 334.5 29.5 Q318 60 318 114 L318 423 Q190 398 82 375 L67 461 Q108 465 318 504 L318 679 Q318 737 312 773 L408 773 Q401 720 401 679 ZM858 833 L912 856 Q968 778 998 717 L943 692 Q891 791 858 833 Z" /><glyph glyph-name="cid01575" unicode="&#x30bd;" d="M287 -28 L210 37 Q439 131 572 331 Q668 473 700 665 Q710 718 708 749 L810 734 Q802 707 790 653 Q745 436 650 288 Q512 76 287 -28 ZM67 694 L148 736 Q212 641 320 445 L238 399 Q206 463 153.5 554.5 Q101 646 67 694 Z" /><glyph glyph-name="cid01576" unicode="&#x30be;" d="M287 -51 L211 14 Q602 180 688 596 Q699 646 699 678 L799 658 Q782 604 778 585 Q761 515 741 455 Q721 395 682 320.5 Q643 246 593 184.5 Q543 123 464 60 Q385 -3 287 -51 ZM67 672 L146 713 Q221 603 320 422 L238 376 Q207 440 154.5 532 Q102 624 67 672 ZM656 821 L712 845 Q759 779 795 709 L737 683 Q708 750 656 821 ZM785 851 L842 874 Q879 822 926 739 L868 714 Q812 816 785 851 Z" /><glyph glyph-name="cid01577" unicode="&#x30bf;" d="M802 697 L869 656 Q859 639 845 601 Q798 439 696 297 Q726 278 795 230 L739 157 Q697 189 642 227 Q483 45 240 -45 L166 18 Q404 90 571 273 Q444 355 347 409 L399 469 Q493 420 624 341 Q725 483 756 614 L408 614 Q286 446 137 345 L68 398 Q187 472 270.5 569.5 Q354 667 397 754 Q419 794 430 836 L522 806 Q501 770 477 725 Q471 713 455 687 L735 687 Q778 687 802 697 Z" /><glyph glyph-name="cid01578" unicode="&#x30c0;" d="M738 802 L792 825 Q834 765 876 685 L822 660 L870 632 Q856 608 847 578 Q797 413 696 272 Q745 240 795 206 L739 133 Q682 176 642 204 Q484 22 240 -70 L167 -5 Q408 68 572 250 Q464 319 347 385 L400 445 Q501 392 625 316 Q727 460 757 590 L407 590 Q289 425 137 322 L68 375 Q188 449 271 546 Q354 643 397 730 Q421 774 430 811 L522 781 Q496 737 477 701 Q474 694 455 664 L735 664 Q779 664 803 673 L820 663 Q780 745 738 802 ZM851 843 L905 866 Q962 785 990 727 L936 702 Q890 792 851 843 Z" /><glyph glyph-name="cid01579" unicode="&#x30c1;" d="M546 464 L829 464 Q866 464 910 468 L910 383 Q864 387 831 387 L545 387 Q537 241 475 137 Q413 33 283 -42 L203 14 Q325 71 388.5 161 Q452 251 461 387 L157 387 Q114 387 66 383 L66 468 Q112 464 155 464 L463 464 L463 650 Q342 638 165 636 L145 712 Q317 705 489 727 Q679 754 753 786 L808 716 L749 700 Q661 677 546 660 L546 464 Z" /><glyph glyph-name="cid01580" unicode="&#x30c2;" d="M547 451 L830 451 Q867 451 911 455 L911 371 Q877 374 831 374 L546 374 Q538 228 476 124 Q414 20 284 -54 L204 1 Q327 59 390.5 149 Q454 239 463 374 L158 374 Q103 374 66 371 L66 456 Q104 451 157 451 L465 451 L465 637 Q375 628 166 623 L146 698 Q209 696 310 700 Q411 704 490 715 Q678 740 754 773 L808 702 L751 687 Q639 661 547 647 L547 451 ZM859 515 L806 490 Q769 568 729 624 L781 646 Q821 589 859 515 ZM838 663 L888 686 Q930 632 971 556 L917 531 Q873 617 838 663 Z" /><glyph glyph-name="cid01581" unicode="&#x30c3;" d="M306 564 L381 590 Q434 462 461 369 L386 342 Q378 376 350.5 452.5 Q323 529 306 564 ZM663 560 L751 532 Q747 519 742 502 Q737 485 736 481 Q688 288 591 167 Q461 1 257 -77 L189 -7 Q282 19 371.5 76.5 Q461 134 522 210 Q577 277 614.5 369.5 Q652 462 663 560 ZM67 509 L143 539 Q190 437 236 307 L158 279 Q147 318 114.5 400 Q82 482 67 509 Z" /><glyph glyph-name="cid01582" unicode="&#x30c4;" d="M355 743 L434 770 Q451 734 486.5 639 Q522 544 535 501 L455 473 Q443 518 408.5 611 Q374 704 355 743 ZM794 731 L889 705 Q878 679 870 646 Q813 411 700 262 Q623 160 516.5 82.5 Q410 5 299 -34 L228 38 Q340 71 448 142.5 Q556 214 631 310 Q692 387 735.5 502.5 Q779 618 794 731 ZM67 679 L148 709 Q168 666 206.5 572 Q245 478 263 427 L182 398 Q168 446 127 546 Q86 646 67 679 Z" /><glyph glyph-name="cid01583" unicode="&#x30c5;" d="M355 718 L434 744 Q451 709 486.5 614.5 Q522 520 535 476 L455 447 Q443 492 408.5 585.5 Q374 679 355 718 ZM784 653 L877 631 Q875 625 858 572 Q802 373 700 237 Q623 136 516 58.5 Q409 -19 297 -58 L228 12 Q340 45 447 117 Q554 189 629 285 Q751 442 784 653 ZM67 654 L148 683 Q210 552 263 402 L182 373 Q168 420 127 520 Q86 620 67 654 ZM695 822 L751 845 Q796 782 833 709 L777 684 Q743 756 695 822 ZM824 851 L880 874 Q913 830 964 739 L908 715 Q854 813 824 851 Z" /><glyph glyph-name="cid01584" unicode="&#x30c6;" d="M695 676 L281 676 Q227 676 188 673 L188 758 Q246 752 280 752 L695 752 Q745 752 790 758 L790 673 Q745 676 695 676 ZM155 496 L825 496 Q874 496 905 501 L905 416 Q859 418 825 418 L547 418 Q542 242 486 138 Q458 86 403.5 35.5 Q349 -15 284 -48 L209 7 Q269 32 320.5 73.5 Q372 115 402 164 Q457 252 462 418 L155 418 Q94 418 66 416 L66 501 Q113 496 155 496 Z" /><glyph glyph-name="cid01585" unicode="&#x30c7;" d="M867 691 L812 667 Q774 747 729 808 L783 831 Q825 771 867 691 ZM634 667 L281 667 Q227 667 187 664 L187 749 Q257 742 280 742 L634 742 Q677 742 730 749 L730 664 Q685 667 634 667 ZM155 486 L825 486 Q872 486 905 490 L905 407 Q859 409 825 409 L546 409 Q541 231 486 129 Q458 77 403.5 26.5 Q349 -24 284 -58 L208 -2 Q268 23 320 65 Q372 107 402 155 Q456 241 461 409 L155 409 Q94 409 66 407 L66 490 Q122 486 155 486 ZM841 850 L895 872 Q947 800 981 733 L926 709 Q880 800 841 850 Z" /><glyph glyph-name="cid01586" unicode="&#x30c8;" d="M591 350 L557 263 Q385 355 154 428 L155 90 Q155 20 161 -31 L63 -31 Q69 18 69 90 L69 686 Q69 750 61 793 L161 793 Q154 718 154 686 L154 519 Q257 488 383.5 439 Q510 390 591 350 Z" /><glyph glyph-name="cid01587" unicode="&#x30c9;" d="M649 637 L592 608 Q544 699 496 762 L553 788 Q607 716 649 637 ZM522 583 L464 556 Q418 650 372 712 L429 737 Q483 661 522 583 ZM155 673 L155 505 Q411 427 593 337 L557 250 Q392 339 155 414 L155 77 Q155 6 161 -44 L63 -44 Q69 6 69 77 L69 673 Q69 736 61 779 L161 779 Q155 715 155 673 Z" /><glyph glyph-name="cid01588" unicode="&#x30ca;" d="M549 553 L821 553 Q878 553 910 557 L910 470 Q886 473 820 473 L549 473 Q549 299 482.5 174 Q416 49 265 -39 L185 20 Q327 87 394.5 199.5 Q462 312 463 473 L163 473 Q96 473 66 470 L66 558 Q116 553 161 553 L463 553 L463 691 Q463 753 453 793 L555 793 Q549 753 549 690 L549 553 Z" /><glyph glyph-name="cid01589" unicode="&#x30cb;" d="M66 61 L66 160 Q124 155 174 155 L787 155 Q842 155 880 160 L880 61 Q818 67 787 67 L174 67 Q171 67 66 61 ZM154 574 L154 667 Q209 662 255 662 L694 662 Q747 662 795 667 L795 574 Q737 578 694 578 L256 578 Q218 578 154 574 Z" /><glyph glyph-name="cid01590" unicode="&#x30cc;" d="M779 114 L718 44 Q624 132 522 209 Q445 124 345 58 Q245 -8 140 -47 L68 25 Q178 57 277 119.5 Q376 182 452 261 Q306 367 176 436 L228 499 Q365 426 507 325 Q614 467 655 635 L233 635 Q210 635 123 632 L123 719 Q196 714 233 714 L655 714 Q687 714 712 724 L772 678 Q757 657 745 623 Q685 421 576 275 Q707 180 779 114 Z" /><glyph glyph-name="cid01591" unicode="&#x30cd;" d="M780 671 L833 620 Q802 588 776 558 Q675 437 544 345 Q544 301 543.5 202 Q543 103 543 70 Q543 37 548 -43 L455 -43 Q461 2 461 70 Q461 98 461.5 177.5 Q462 257 462 293 Q328 216 116 151 L67 226 Q297 280 482 400 Q546 441 603 494.5 Q660 548 689 588 L265 588 Q202 588 140 584 L140 670 Q180 665 264 665 L464 665 L464 730 Q464 786 458 820 L552 820 Q546 786 546 730 L546 665 L715 665 Q760 665 780 671 ZM634 295 L687 355 Q834 275 934 207 L881 137 Q754 231 634 295 Z" /><glyph glyph-name="cid01592" unicode="&#x30ce;" d="M647 763 L745 736 Q725 690 712 647 Q625 403 525 274 Q455 185 351.5 106.5 Q248 28 139 -17 L67 57 Q180 96 281.5 168 Q383 240 454 329 Q523 415 573.5 531.5 Q624 648 647 763 Z" /><glyph glyph-name="cid01593" unicode="&#x30cf;" d="M224 325 Q258 406 287 512 Q316 618 326 705 L417 686 Q408 656 398 611 Q359 424 305 291 Q244 140 154 9 L67 46 Q158 164 224 325 ZM729 364 Q649 569 581 688 L664 716 Q737 579 813 391 Q877 235 936 41 L845 11 Q808 159 729 364 Z" /><glyph glyph-name="cid01594" unicode="&#x30d0;" d="M731 775 L785 798 Q834 729 869 657 L814 633 Q777 711 731 775 ZM844 816 L898 839 Q945 777 984 699 L929 675 Q883 766 844 816 ZM225 308 Q305 500 326 687 L417 669 Q399 600 398 594 Q352 388 305 274 Q242 118 155 -7 L68 30 Q158 147 225 308 ZM729 347 Q644 564 581 671 L664 698 Q739 563 813 375 Q882 209 936 25 L845 -5 Q807 148 729 347 Z" /><glyph glyph-name="cid01595" unicode="&#x30d1;" d="M823 762 Q804 742 804 714 Q804 686 823 666 Q842 646 870 646 Q898 646 918.5 666 Q939 686 939 714 Q939 742 918.5 762 Q898 782 870 782 Q842 782 823 762 ZM790.5 633 Q757 667 757 714 Q757 761 790.5 795 Q824 829 870 829 Q917 829 951.5 795 Q986 761 986 714 Q986 667 951.5 633 Q917 599 870 599 Q824 599 790.5 633 ZM225 308 Q305 500 326 687 L417 669 Q399 600 398 594 Q352 388 305 274 Q242 118 155 -7 L68 30 Q158 147 225 308 ZM729 347 Q644 564 581 671 L664 698 Q739 563 813 375 Q882 209 936 25 L845 -5 Q807 148 729 347 Z" /><glyph glyph-name="cid01596" unicode="&#x30d2;" d="M151 389 L151 164 Q151 127 167 111.5 Q183 96 222 88 Q275 80 357 80 Q586 80 709 113 L709 19 Q565 -2 354 -2 Q250 -2 189 8 Q128 19 98 50 Q68 81 68 141 L68 705 Q68 745 61 787 L157 787 Q151 739 151 705 L151 473 Q385 530 552 602 Q591 618 642 649 L678 566 Q669 562 634 547 Q599 532 581 526 Q393 451 151 389 Z" /><glyph glyph-name="cid01597" unicode="&#x30d3;" d="M700 663 L645 637 Q608 715 562 779 L616 802 Q653 751 700 663 ZM152 370 L152 144 Q152 107 167.5 92 Q183 77 223 69 Q281 60 358 60 Q587 60 709 93 L709 0 Q558 -22 354 -22 Q256 -22 190 -11 Q128 0 98 31 Q68 62 68 122 L68 685 Q68 734 61 768 L157 768 Q152 728 152 685 L152 454 Q388 512 541 579 Q579 594 631 625 L667 543 Q572 504 570 503 Q396 433 152 370 ZM675 820 L729 844 Q785 766 815 705 L760 679 Q716 764 675 820 Z" /><glyph glyph-name="cid01598" unicode="&#x30d4;" d="M152 370 L152 144 Q152 107 167.5 92 Q183 77 223 69 Q281 60 358 60 Q587 60 709 93 L709 0 Q558 -22 354 -22 Q256 -22 190 -11 Q128 0 98 31 Q68 62 68 122 L68 685 Q68 734 61 768 L157 768 Q152 728 152 685 L152 454 Q388 512 541 579 Q579 594 631 625 L667 543 Q572 504 570 503 Q396 433 152 370 ZM716 647 Q744 647 763.5 667 Q783 687 783 715 Q783 743 763.5 762.5 Q744 782 716 782 Q688 782 668 762.5 Q648 743 648 715 Q648 686 667.5 666.5 Q687 647 716 647 ZM635 795.5 Q669 829 716 829 Q763 829 796.5 795.5 Q830 762 830 715 Q830 668 796.5 634 Q763 600 716 600 Q669 600 635 634 Q601 668 601 715 Q601 762 635 795.5 Z" /><glyph glyph-name="cid01599" unicode="&#x30d5;" d="M737 721 L800 681 Q791 663 784 630 Q731 380 632 252 Q480 56 228 -23 L159 54 Q300 89 394 150.5 Q488 212 558 301 Q610 367 645.5 461 Q681 555 692 635 L169 635 Q147 635 66 632 L66 722 Q124 716 169 716 L683 716 Q718 716 737 721 Z" /><glyph glyph-name="cid01600" unicode="&#x30d6;" d="M788 716 L749 698 L799 667 Q791 652 784 615 Q731 368 631 238 Q477 41 228 -36 L158 41 Q299 76 394 137 Q489 198 558 287 Q609 352 644.5 446 Q680 540 692 621 L167 621 Q149 621 130.5 620.5 Q112 620 93 618.5 Q74 617 66 617 L66 708 Q131 701 169 701 L682 701 Q705 701 726 705 Q683 780 651 827 L706 851 Q751 788 788 716 ZM782 854 L838 878 Q868 837 922 742 L866 718 Q814 813 782 854 Z" /><glyph glyph-name="cid01601" unicode="&#x30d7;" d="M777 687.5 Q797 668 825 668 Q853 668 872.5 687.5 Q892 707 892 735 Q892 763 872.5 783.5 Q853 804 825 804 Q797 804 777 783.5 Q757 763 757 735 Q757 707 777 687.5 ZM169 701 L682 701 Q703 701 715 702 Q710 719 710 735 Q710 782 744 816.5 Q778 851 825 851 Q872 851 906 816.5 Q940 782 940 735 Q940 688 906 654.5 Q872 621 825 621 Q804 621 786 627 L784 615 Q731 368 631 238 Q477 41 228 -36 L158 41 Q299 76 394 137 Q489 198 558 287 Q609 352 644.5 446 Q680 540 692 621 L167 621 Q149 621 130.5 620.5 Q112 620 93 618.5 Q74 617 66 617 L66 708 Q131 701 169 701 Z" /><glyph glyph-name="cid01602" unicode="&#x30d8;" d="M145 211 L68 289 Q98 315 141 356 Q162 378 196.5 419 Q231 460 276 515 Q321 570 343 596 Q384 645 421 648 Q458 651 514 606 Q577 554 726 394 Q904 204 973 121 L906 48 Q841 133 676 317 Q537 476 476 526 Q445 553 428 551.5 Q411 550 385 518 Q359 487 292 401.5 Q225 316 204 290 Q184 263 145 211 Z" /><glyph glyph-name="cid01603" unicode="&#x30d9;" d="M662 669 L721 694 Q773 620 817 532 L757 505 Q708 607 662 669 ZM794 720 L852 746 Q905 675 952 587 L893 558 Q847 651 794 720 ZM143 194 L68 269 Q103 300 140 337 Q162 359 197 400.5 Q232 442 276 496 Q320 550 343 577 Q384 627 420.5 629.5 Q457 632 513 587 Q576 535 725 375 Q882 207 972 101 L906 29 Q831 125 676 301 Q529 464 476 509 Q444 536 427 534.5 Q410 533 384 501 Q358 470 290.5 384 Q223 298 202 272 Q196 264 143 194 Z" /><glyph glyph-name="cid01604" unicode="&#x30da;" d="M756 667 Q734 645 734 614 Q734 583 756 561.5 Q778 540 810 540 Q841 540 862.5 561.5 Q884 583 884 614 Q884 645 862.5 667 Q841 689 810 689 Q778 689 756 667 ZM721.5 526 Q685 562 685 614 Q685 666 721.5 702.5 Q758 739 810 739 Q862 739 898 702.5 Q934 666 934 614 Q934 562 898 526 Q862 490 810 490 Q758 490 721.5 526 ZM143 194 L68 269 Q103 300 140 337 Q162 359 197 400.5 Q232 442 276 496 Q320 550 343 577 Q384 627 420.5 629.5 Q457 632 513 587 Q576 535 725 375 Q882 207 972 101 L906 29 Q831 125 676 301 Q529 464 476 509 Q444 536 427 534.5 Q410 533 384 501 Q358 470 290.5 384 Q223 298 202 272 Q196 264 143 194 Z" /><glyph glyph-name="cid01605" unicode="&#x30db;" d="M264 424 L335 389 Q304 326 244.5 242 Q185 158 139 109 L68 157 Q118 202 175.5 281 Q233 360 264 424 ZM826 548 L554 548 L554 51 Q554 -30 466 -30 Q380 -30 321 -23 L314 58 Q376 47 431 47 Q471 47 471 86 Q472 141 472 540 L472 548 L188 548 Q137 548 100 544 L100 631 Q143 625 187 625 L472 625 L472 730 Q472 773 464 803 L560 803 Q554 775 554 730 L554 625 L825 625 Q866 625 909 630 L909 545 Q867 548 826 548 ZM694 386 L763 424 Q802 378 854 298 Q906 218 940 156 L865 114 Q834 178 783.5 258.5 Q733 339 694 386 Z" /><glyph glyph-name="cid01606" unicode="&#x30dc;" d="M981 702 L926 678 Q879 768 843 815 L897 839 Q949 765 981 702 ZM858 672 L803 647 Q768 721 721 786 L776 809 Q816 752 858 672 ZM264 411 L336 376 Q306 314 246 230 Q186 146 139 94 L68 142 Q118 188 175.5 268 Q233 348 264 411 ZM826 534 L555 534 L555 38 Q555 -44 467 -44 Q393 -44 321 -37 L313 45 Q380 33 432 33 Q472 33 472 72 L472 534 L187 534 Q156 534 100 530 L100 616 Q148 611 187 611 L472 611 L472 717 Q472 764 465 790 L561 790 Q555 762 555 716 L555 611 L825 611 Q876 611 909 616 L909 531 Q867 534 826 534 ZM694 373 L764 410 Q852 302 941 142 L865 100 Q833 165 782.5 246 Q732 327 694 373 Z" /><glyph glyph-name="cid01607" unicode="&#x30dd;" d="M844 822 Q817 822 798 803 Q779 784 779 757 Q779 729 798 710 Q817 691 844 691 Q872 691 890.5 710 Q909 729 909 757 Q909 784 890.5 803 Q872 822 844 822 ZM923 677.5 Q890 645 844 645 Q798 645 765 678 Q732 711 732 757 Q732 803 765 836 Q798 869 844 869 Q890 869 923 836 Q956 803 956 757 Q956 710 923 677.5 ZM264 411 L336 376 Q306 314 246 230 Q186 146 139 94 L68 142 Q118 188 175.5 268 Q233 348 264 411 ZM826 534 L555 534 L555 38 Q555 -44 467 -44 Q393 -44 321 -37 L313 45 Q380 33 432 33 Q472 33 472 72 L472 534 L187 534 Q156 534 100 530 L100 616 Q148 611 187 611 L472 611 L472 717 Q472 764 465 790 L561 790 Q555 762 555 716 L555 611 L825 611 Q876 611 909 616 L909 531 Q867 534 826 534 ZM694 373 L764 410 Q852 302 941 142 L865 100 Q833 165 782.5 246 Q732 327 694 373 Z" /><glyph glyph-name="cid01608" unicode="&#x30de;" d="M847 701 L912 649 Q898 634 887 617 Q823 513 727 402 Q631 291 514 202 Q625 91 689 13 L614 -46 Q557 32 430 163 Q384 209 310 272.5 Q236 336 195 365 L262 418 Q343 358 454 260 Q558 338 643.5 437 Q729 536 773 615 L171 615 Q126 615 66 609 L66 701 Q124 693 171 693 L781 693 Q825 693 847 701 Z" /><glyph glyph-name="cid01609" unicode="&#x30df;" d="M171 699 L201 775 Q308 761 477 724.5 Q646 688 738 656 L706 578 Q616 611 449 648 Q282 685 171 699 ZM124 428 L155 505 Q281 483 432.5 448.5 Q584 414 671 382 L638 303 Q554 336 398 373 Q242 410 124 428 ZM67 129 L98 207 Q235 186 421.5 139.5 Q608 93 708 53 L673 -26 Q579 15 394 60.5 Q209 106 67 129 Z" /><glyph glyph-name="cid01610" unicode="&#x30e0;" d="M946 4 L861 -35 Q843 17 805 99 Q435 53 167 29 Q152 28 121 23 Q90 18 82 17 L67 113 Q100 112 162 114 Q177 115 213 117 Q251 212 313.5 401.5 Q376 591 404 686 Q417 737 424 784 L526 764 Q497 688 491 669 Q354 246 308 125 Q505 143 767 176 Q694 320 643 386 L720 421 Q774 344 844 214 Q914 84 946 4 Z" /><glyph glyph-name="cid01611" unicode="&#x30e1;" d="M686 778 L782 745 Q762 708 749 671 Q686 500 595 369 Q746 243 847 135 L782 63 Q683 176 541 299 Q368 86 140 -32 L68 33 Q306 146 474 354 Q323 477 186 561 L241 626 Q368 546 527 424 Q609 542 666 702 Q679 741 686 778 Z" /><glyph glyph-name="cid01612" unicode="&#x30e2;" d="M795 354 L448 354 L448 148 Q448 67 578 67 Q724 67 847 81 L842 -5 Q709 -15 565 -15 Q455 -15 409 20.5 Q363 56 363 123 L363 354 L164 354 Q125 354 67 350 L67 436 Q137 431 164 431 L363 431 L363 648 L227 648 Q176 648 134 645 L134 727 Q190 723 227 723 L714 723 Q752 723 798 727 L798 645 Q723 648 714 648 L448 648 L448 431 L793 431 Q830 431 878 435 L878 351 Q854 354 795 354 Z" /><glyph glyph-name="cid01613" unicode="&#x30e3;" d="M747 522 L798 486 Q766 421 699.5 330 Q633 239 580 187 L507 223 Q553 264 604.5 325.5 Q656 387 683 434 Q612 422 373 373 Q388 321 413.5 227.5 Q439 134 455 77 Q471 20 477 0 Q483 -19 500 -70 L413 -92 Q409 -60 397 -18 Q391 2 375 62 Q359 122 335 209.5 Q311 297 295 356 Q138 325 87 314 L67 392 Q96 394 152 403 Q158 404 175.5 407 Q193 410 222 415.5 Q251 421 277 426 Q253 512 243 544 Q234 576 219 605 L306 627 Q307 623 321 561 L353 440 Q667 501 708 510 Q738 518 747 522 Z" /><glyph glyph-name="cid01614" unicode="&#x30e4;" d="M882 687 L939 645 Q904 572 824.5 465 Q745 358 680 294 L597 333 Q656 381 720.5 459 Q785 537 817 592 Q771 585 426 514 Q528 142 553 57 Q557 44 568 12 Q579 -20 580 -23 L484 -45 Q475 9 466 39 Q460 61 439.5 136.5 Q419 212 390.5 317.5 Q362 423 341 498 Q103 447 90 444 L67 532 Q82 533 169 545 L320 573 Q290 685 282 714 Q266 768 253 791 L347 813 Q349 791 365 734 L404 589 Q819 669 836 673 Q866 679 882 687 Z" /><glyph glyph-name="cid01615" unicode="&#x30e5;" d="M609 89 L710 89 Q758 89 791 92 L791 9 Q755 11 713 11 L152 11 Q112 11 67 8 L67 93 Q117 89 152 89 L522 89 Q565 335 570 433 L245 433 Q241 433 163 430 L163 516 Q213 510 244 510 L555 510 Q590 510 606 517 L669 487 Q664 469 662 456 Q657 408 609 89 Z" /><glyph glyph-name="cid01616" unicode="&#x30e6;" d="M708 145 L847 145 Q871 145 932 152 L932 58 Q895 62 847 62 L156 62 Q109 62 66 58 L66 152 Q120 145 156 145 L618 145 Q678 514 682 601 L279 601 Q246 601 182 597 L182 688 Q227 682 278 682 L656 682 Q695 682 719 690 L788 658 Q782 644 780 625 Q774 570 708 145 Z" /><glyph glyph-name="cid01617" unicode="&#x30e7;" d="M643 -57 L562 -57 Q563 -48 563 -15 L150 -15 Q114 -15 66 -18 L66 63 Q98 59 150 59 L563 59 L563 242 L193 242 Q141 242 101 240 L101 318 Q177 314 192 314 L563 314 L563 485 L183 485 Q132 485 78 482 L78 562 Q116 558 183 558 L579 558 Q616 558 642 560 Q641 549 641 508 L641 -2 Q641 -29 643 -57 Z" /><glyph glyph-name="cid01618" unicode="&#x30e8;" d="M760 -26 L673 -26 Q673 -21 673.5 -2.5 Q674 16 674 27 L169 27 Q106 27 66 23 L66 110 Q116 105 168 105 L674 105 L674 339 L222 339 Q198 339 159 338.5 Q120 338 110 338 L110 422 Q153 417 220 417 L674 417 L674 636 L209 636 Q150 636 81 633 L81 719 Q121 714 209 714 L687 714 Q727 714 759 716 Q758 702 758 654 L758 36 Q758 8 760 -26 Z" /><glyph glyph-name="cid01619" unicode="&#x30e9;" d="M762 529 L820 493 Q811 477 807 463 Q756 281 657 172 Q519 21 291 -42 L227 31 Q454 78 588 218 Q677 313 709 444 L166 444 Q120 444 66 441 L66 527 Q121 521 166 521 L705 521 Q747 521 762 529 ZM158 678 L158 763 Q192 758 250 758 L652 758 Q714 758 745 763 L745 678 Q707 681 651 681 L250 681 Q200 681 158 678 Z" /><glyph glyph-name="cid01620" unicode="&#x30ea;" d="M62 769 L157 769 Q153 731 153 695 L153 353 Q153 311 157 275 L62 275 Q66 335 66 354 L66 695 Q66 731 62 769 ZM536 776 L631 776 Q627 726 627 688 L627 522 Q627 401 615 323.5 Q603 246 581.5 201 Q560 156 520 108 Q443 16 276 -42 L210 29 Q374 71 456 165 Q509 226 525.5 300 Q542 374 542 526 L542 688 Q542 701 536 776 Z" /><glyph glyph-name="cid01621" unicode="&#x30eb;" d="M144 -25 L68 27 Q195 117 246 279 Q276 373 276 690 Q276 726 269 765 L364 765 Q358 693 358 691 Q358 369 327 256 Q279 87 144 -25 ZM591 -24 L537 22 Q544 50 544 79 L544 692 Q544 720 538 768 L632 768 Q628 736 628 692 L628 101 Q705 136 788 203.5 Q871 271 926 353 L975 284 Q912 198 817 122.5 Q722 47 626 0 Q611 -8 591 -24 Z" /><glyph glyph-name="cid01622" unicode="&#x30ec;" d="M122 -18 L62 33 Q73 58 73 83 L73 669 Q73 702 64 762 L165 762 Q158 716 158 669 L158 88 Q311 126 468.5 221.5 Q626 317 718 437 L764 366 Q563 117 165 0 Q138 -7 122 -18 Z" /><glyph glyph-name="cid01623" unicode="&#x30ed;" d="M709 618 L148 618 L148 132 L709 132 L709 618 ZM793 622 L793 117 Q793 16 795 -6 L707 -6 Q707 -5 707.5 15 Q708 35 708 52 L148 52 Q150 2 151 -6 L62 -6 Q66 42 66 118 L66 622 Q66 676 64 701 Q144 699 155 699 L705 699 Q764 699 795 701 Q793 675 793 622 Z" /><glyph glyph-name="cid01624" unicode="&#x30ee;" d="M661 553 L719 516 Q715 510 707 476 Q673 243 595 141 Q478 -13 281 -82 L213 -13 Q405 35 516 177 Q597 281 616 473 L151 473 L151 315 Q151 278 152 258 L66 258 Q69 288 69 315 L69 492 Q69 499 66 550 Q89 548 158 548 L608 548 Q645 548 661 553 Z" /></font>
</defs>
</svg>
