<?xml version="1.0" encoding="utf-8"?>
<!-- Generator: Adobe Illustrator 12.0.0, SVG Export Plug-In . SVG Version: 6.00 Build 51448)  -->
<!DOCTYPE svg PUBLIC "-//W3C//DTD SVG 1.1//EN" "http://www.w3.org/Graphics/SVG/1.1/DTD/svg11.dtd" [
	<!ENTITY ns_svg "http://www.w3.org/2000/svg">
	<!ENTITY ns_xlink "http://www.w3.org/1999/xlink">
]>
<svg  version="1.1" id="レイヤー_1" xmlns="&ns_svg;" xmlns:xlink="&ns_xlink;" width="1023.937" height="792.36"
	 viewBox="0 0 1023.937 792.36" overflow="visible" enable-background="new 0 0 1023.937 792.36" xml:space="preserve">
<g>
	<path fill-rule="evenodd" clip-rule="evenodd" fill="#DFEDD7" d="M30,396.181C30,193.953,193.944,30,396.164,30
		c202.264,0,366.169,163.953,366.169,366.181c0,202.27-163.905,366.179-366.169,366.179C193.944,762.36,30,598.451,30,396.181"/>
	<path fill="none" stroke="#547F35" stroke-width="60" stroke-miterlimit="8" d="M30,396.181C30,193.953,193.944,30,396.164,30
		c202.264,0,366.169,163.953,366.169,366.181c0,202.27-163.905,366.179-366.169,366.179C193.944,762.36,30,598.451,30,396.181"/>
	<g>
		<path fill="#E2772F" d="M214.34,399.25c0-138.38,93.181-217.613,204.216-217.613c60.818,0,104.34,25.667,132.797,54.124
			l-53.007,63.61c-20.087-18.414-41.848-32.363-76.442-32.363c-61.376,0-105.456,47.987-105.456,128.895
			c0,82.581,36.826,130.568,113.826,130.568c15.064,0,30.688-3.906,39.615-10.603v-66.958h-65.84v-81.465h154.557v194.178
			C529.592,589.523,478.259,612.4,420.23,612.4C304.731,612.4,214.34,539.862,214.34,399.25z"/>
	</g>
</g>
<path fill="#BD591D" d="M1023.937,529.449"/>
</svg>
