<?xml version="1.0" standalone="no"?>
<!DOCTYPE svg PUBLIC "-//W3C//DTD SVG 20010904//EN"
 "http://www.w3.org/TR/2001/REC-SVG-20010904/DTD/svg10.dtd">
<svg version="1.0" xmlns="http://www.w3.org/2000/svg"
 width="2133.000000pt" height="2133.000000pt" viewBox="0 0 2133.000000 2133.000000"
 preserveAspectRatio="xMidYMid meet">
<metadata>
Created by potrace 1.11, written by Peter Selinger 2001-2013
</metadata>
<g transform="translate(0.000000,2133.000000) scale(0.100000,-0.100000)"
fill="#000000" stroke="none">
<path d="M7888 18915 c-2 -2 -59 -6 -128 -10 -69 -4 -138 -8 -155 -10 -16 -1
-64 -6 -105 -9 -41 -4 -131 -14 -200 -22 -69 -8 -145 -17 -170 -20 -25 -3 -56
-7 -70 -9 -14 -3 -43 -7 -65 -11 -48 -6 -81 -12 -115 -18 -14 -3 -41 -8 -60
-10 -19 -3 -45 -8 -56 -10 -12 -2 -37 -7 -55 -10 -47 -7 -209 -41 -294 -61
-38 -9 -78 -18 -88 -21 -10 -2 -27 -6 -37 -9 -10 -3 -27 -7 -37 -9 -10 -2 -38
-9 -63 -16 -25 -7 -52 -14 -60 -15 -55 -12 -324 -93 -475 -143 -264 -88 -598
-217 -790 -307 -461 -215 -800 -402 -1166 -646 -235 -156 -524 -368 -664 -488
-17 -14 -51 -42 -75 -61 -24 -19 -48 -39 -54 -45 -6 -5 -45 -39 -86 -75 -134
-116 -171 -152 -400 -380 -213 -213 -279 -282 -432 -460 -83 -97 -82 -95 -189
-230 -119 -151 -110 -139 -144 -185 -16 -22 -32 -42 -35 -45 -5 -5 -93 -129
-181 -255 -67 -96 -219 -335 -219 -344 0 -5 -4 -11 -8 -13 -5 -1 -32 -43 -61
-93 -29 -49 -56 -97 -61 -105 -66 -110 -262 -490 -330 -640 -24 -52 -55 -122
-70 -155 -130 -284 -382 -1007 -416 -1195 -3 -14 -7 -32 -10 -40 -4 -8 -15
-51 -25 -95 -11 -44 -21 -87 -23 -95 -30 -121 -101 -488 -120 -625 -4 -23 -8
-50 -10 -60 -2 -11 -7 -45 -10 -76 -4 -31 -8 -66 -11 -77 -2 -12 -7 -52 -11
-89 -3 -37 -8 -79 -10 -93 -1 -14 -6 -61 -9 -105 -4 -44 -8 -93 -10 -110 -27
-234 -27 -1021 0 -1305 2 -25 7 -74 11 -110 3 -36 8 -83 9 -105 1 -22 5 -58 9
-80 3 -22 8 -62 11 -90 6 -48 10 -84 20 -156 3 -19 7 -45 10 -59 2 -13 7 -42
10 -65 17 -116 73 -401 112 -565 13 -58 26 -113 28 -124 3 -10 12 -44 21 -75
9 -31 17 -63 19 -71 8 -39 89 -311 134 -445 161 -489 369 -960 616 -1400 58
-104 110 -197 115 -205 197 -320 315 -497 488 -730 64 -85 118 -157 122 -160
3 -3 49 -59 102 -125 96 -119 109 -133 211 -249 201 -229 504 -531 732 -730
50 -43 104 -91 120 -105 96 -84 422 -337 530 -411 28 -19 58 -42 68 -50 9 -9
30 -23 45 -31 15 -8 29 -17 32 -20 15 -17 474 -309 485 -309 3 0 42 -22 87
-49 223 -131 555 -296 843 -418 72 -30 144 -61 160 -68 97 -45 529 -195 720
-251 122 -35 413 -113 450 -120 17 -3 55 -11 85 -19 53 -13 77 -19 138 -30 21
-4 115 -24 142 -30 3 0 26 -4 51 -8 25 -4 57 -10 70 -12 159 -27 246 -41 324
-50 28 -3 61 -8 75 -10 14 -3 57 -8 95 -11 39 -4 84 -8 100 -10 17 -2 64 -6
105 -9 41 -3 89 -8 105 -10 191 -24 1056 -25 1239 0 17 2 68 7 112 10 45 3 93
8 105 10 13 2 56 6 94 10 39 3 79 8 90 10 11 2 43 7 70 10 55 6 346 51 398 61
17 3 41 8 52 9 11 2 97 20 190 40 94 20 178 39 188 40 10 2 51 13 91 24 40 11
83 22 97 25 163 32 871 270 1054 356 11 5 76 33 145 62 125 52 521 247 677
333 76 41 300 174 433 256 269 167 827 582 992 739 9 8 42 38 73 65 204 178
507 481 690 690 33 38 67 76 75 84 14 15 85 101 120 144 8 11 20 24 25 31 45
47 292 374 355 466 8 12 20 28 25 34 42 47 265 400 393 621 94 163 312 582
312 599 0 2 20 47 45 99 25 53 45 98 45 101 0 2 14 34 30 69 17 36 30 67 30
70 0 2 8 22 17 43 9 22 17 41 17 44 1 3 9 24 18 45 25 59 90 228 94 245 2 8
21 67 43 130 55 159 160 507 175 580 3 14 19 81 36 150 26 103 71 316 94 445
15 78 36 204 41 245 3 25 8 56 10 70 6 28 13 85 20 146 2 23 7 64 10 90 12
106 19 177 30 324 25 334 25 962 0 1220 -2 19 -6 73 -10 120 -3 47 -8 96 -10
110 -2 14 -7 54 -10 90 -4 36 -9 72 -10 80 -2 8 -6 40 -9 71 -4 31 -8 65 -10
75 -3 17 -13 86 -22 149 -3 26 -12 79 -24 140 -5 28 -12 64 -15 80 -10 62 -16
90 -20 105 -2 8 -7 29 -9 45 -8 44 -54 248 -78 340 -11 44 -21 87 -23 95 -34
145 -219 716 -272 840 -3 8 -7 17 -8 20 -16 47 -140 342 -186 442 -55 120
-191 397 -241 488 -118 215 -251 439 -340 572 -32 48 -58 92 -58 98 0 5 -4 10
-10 10 -5 0 -10 6 -10 14 0 8 -4 16 -8 18 -4 2 -39 48 -76 103 -107 155 -323
441 -375 497 -9 9 -20 23 -26 30 -31 41 -134 163 -160 192 -6 6 -58 63 -115
126 -256 282 -576 584 -885 836 -233 191 -358 282 -635 468 -402 270 -806 493
-1235 681 -33 15 -73 32 -90 40 -16 7 -55 23 -85 35 -30 12 -68 28 -85 36
-173 78 -881 311 -987 324 -4 1 -22 6 -40 11 -18 6 -46 13 -63 16 -16 3 -38 9
-47 14 -10 5 -18 8 -18 5 0 -2 -24 2 -52 10 -29 8 -69 17 -88 20 -19 3 -60 12
-90 19 -52 13 -70 17 -152 31 -18 3 -80 14 -138 24 -58 10 -125 22 -150 25
-25 4 -56 8 -70 10 -14 2 -45 7 -70 10 -25 3 -56 8 -70 10 -23 3 -79 9 -187
21 -24 2 -62 6 -85 8 -24 3 -81 8 -128 11 -47 3 -116 9 -155 12 -74 5 -852 13
-857 8z"/>
</g>
</svg>
